<svg style="position: absolute; width: 0; height: 0; overflow: hidden;" version="1.1" xmlns="http://www.w3.org/2000/svg"
     xmlns:xlink="http://www.w3.org/1999/xlink">
   <defs>
      <symbol id="icon-add" viewBox="0 0 24 24">
         <line x1="0.75" y1="12" x2="23.25" y2="12"/>
         <line x1="12" y1="0.75" x2="12" y2="23.25"/>
      </symbol>
      <symbol id="icon-alert-triangle" viewBox="0 0 24 24">
         <path d="M12,18.75a.375.375,0,1,0,.375.375A.375.375,0,0,0,12,18.75h0"/>
         <line x1="12" y1="15.75" x2="12" y2="8.25"/>
         <path
            d="M13.621,1.76a1.806,1.806,0,0,0-3.242,0L.906,21.058A1.521,1.521,0,0,0,2.272,23.25H21.728a1.521,1.521,0,0,0,1.366-2.192Z"/>
      </symbol>
      <symbol id="icon-arrow-down" viewBox="0 0 24 24">
         <path
            style="fill-rule: evenodd;"
            d="M23.25,7.311,12.53,18.03a.749.749,0,0,1-1.06,0L.75,7.311"
         />
      </symbol>
      <symbol id="icon-arrow-reply" viewBox="0 0 24 24">
         <path d="M18.1,8.1l5.2,5.2l-5.2,5.2"/>
         <path d="M0.8,1v5.4c0,3.8,3.1,6.9,6.9,6.9l0,0h15.6"/>
      </symbol>
      <symbol id="icon-arrow-right" viewBox="0 0 24 24">
         <line x1="0.75" y1="12" x2="23.25" y2="12"/>
         <polyline
            style="fill-rule: evenodd;"
            points="12.75 22.5 23.25 12 12.75 1.5"
         />
      </symbol>
      <symbol id="icon-arrow-up" viewBox="0 0 24 24">
         <path
            style="fill-rule: evenodd;"
            d="M.75,17.189,11.47,6.47a.749.749,0,0,1,1.06,0L23.25,17.189"
         />
      </symbol>
      <symbol id="icon-article" viewBox="0 0 24 24">
         <path
            d="M23.2,5.2v14.2c0,1.2-1,2.2-2.2,2.2s-2.2-1-2.2-2.2V2.2c0-0.8-0.7-1.5-1.5-1.5h-15c-0.8,0-1.5,0.7-1.5,1.5v17.2
	c0,1.2,1,2.2,2.2,2.2h18"
         />
         <line x1="4.5" y1="14.4" x2="15" y2="14.4"/>
         <line x1="4.5" y1="17.4" x2="10.5" y2="17.4"/>
         <path
            d="M5.2,4.7h9C14.7,4.7,15,5,15,5.4v4.5c0,0.4-0.3,0.8-0.8,0.8h-9c-0.4,0-0.8-0.3-0.8-0.8V5.4
	C4.5,5,4.8,4.7,5.2,4.7z"
         />
      </symbol>
      <symbol id="icon-attachment" viewBox="0 0 24 24">
         <path
            d="M23.25,9.9,12.273,20.878a6.75,6.75,0,0,1-9.546-9.546l9.016-9.015A4.5,4.5,0,1,1,18.106,8.68L9.091,17.7a2.25,2.25,0,0,1-3.182-3.181L14.925,5.5"/>
      </symbol>
      <symbol id="icon-bell" viewBox="0 0 24 24">
         <path d="M10,21.75a2.087,2.087,0,0,0,4.005,0"/>
         <line x1="12" y1="3" x2="12" y2="0.75"/>
         <path d="M12,3a7.5,7.5,0,0,1,7.5,7.5c0,7.046,1.5,8.25,1.5,8.25H3s1.5-1.916,1.5-8.25A7.5,7.5,0,0,1,12,3Z"/>
      </symbol>
      <symbol id="icon-bookmark" viewBox="0 0 24 24">
         <path
            d="M15.6,2.032,21.967,8.4a1.5,1.5,0,0,1,0,2.121L10.3,22.184a.75.75,0,0,1-1.281-.53l-.31-6.364-6.364-.311a.75.75,0,0,1-.53-1.28L13.482,2.032A1.5,1.5,0,0,1,15.6,2.032Z"/>
      </symbol>
      <symbol id="icon-calendar" style="fill: currentColor; stroke-width: 0" viewBox="0 0 24 24">
         <g>
            <path
               d="M2.25,24C1.009,24,0,22.991,0,21.75V5.25C0,4.009,1.009,3,2.25,3H6V0.75C6,0.336,6.336,0,6.75,0S7.5,0.336,7.5,0.75V3h9
    V0.75C16.5,0.336,16.836,0,17.25,0S18,0.336,18,0.75V3h3.75C22.991,3,24,4.009,24,5.25v16.5c0,1.241-1.009,2.25-2.25,2.25H2.25z
     M1.5,21.75c0,0.414,0.336,0.75,0.75,0.75h19.5c0.414,0,0.75-0.336,0.75-0.75V10.5h-21V21.75z M22.5,9V5.25
    c0-0.414-0.336-0.75-0.75-0.75H18V6c0,0.414-0.336,0.75-0.75,0.75S16.5,6.414,16.5,6V4.5h-9V6c0,0.414-0.336,0.75-0.75,0.75
    S6,6.414,6,6V4.5H2.25C1.836,4.5,1.5,4.836,1.5,5.25V9H22.5z"
            />
            <circle cx="5.625" cy="13.875" r="1.125"/>
            <circle cx="5.625" cy="19.125" r="1.125"/>
            <circle cx="12" cy="13.875" r="1.125"/>
            <circle cx="12" cy="19.125" r="1.125"/>
            <circle cx="18.375" cy="13.875" r="1.125"/>
            <path
               d="M18.375,20.25c-0.62,0-1.125-0.505-1.125-1.125S17.755,18,18.375,18c0.014,0,0.03,0.001,0.046,0.003
    c0.01,0.001,0.019,0.002,0.027,0.003c0.583,0.029,1.052,0.521,1.052,1.12C19.5,19.745,18.995,20.25,18.375,20.25z"
            />
         </g>
      </symbol>
      <symbol id="icon-cogwheel" viewBox="0 0 24 24">
         <path d="M10.546,2.438a1.957,1.957,0,0,0,2.908,0L14.4,1.4a1.959,1.959,0,0,1,3.41,1.413l-.071,1.4A1.958,1.958,0,0,0,19.79,6.267l1.4-.071A1.959,1.959,0,0,1,22.6,9.606l-1.042.94a1.96,1.96,0,0,0,0,2.909l1.042.94a1.959,1.959,0,0,1-1.413,3.41l-1.4-.071a1.958,1.958,0,0,0-2.056,2.056l.071,1.4A1.959,1.959,0,0,1,14.4,22.6l-.941-1.041a1.959,1.959,0,0,0-2.908,0L9.606,22.6A1.959,1.959,0,0,1,6.2,21.192l.072-1.4a1.958,1.958,0,0,0-2.056-2.056l-1.4.071A1.958,1.958,0,0,1,1.4,14.4l1.041-.94a1.96,1.96,0,0,0,0-2.909L1.4,9.606A1.958,1.958,0,0,1,2.809,6.2l1.4.071A1.958,1.958,0,0,0,6.267,4.211L6.2,2.81A1.959,1.959,0,0,1,9.606,1.4Z" />
         <circle cx="12" cy="12.001" r="4.5" />
      </symbol>
      <symbol id="icon-comment" viewBox="0 0 24 24">
         <path d="M21.75,18.75H11.25l-6,4.5v-4.5h-3a1.5,1.5,0,0,1-1.5-1.5v-15A1.5,1.5,0,0,1,2.25.75h19.5a1.5,1.5,0,0,1,1.5,1.5v15A1.5,1.5,0,0,1,21.75,18.75Z" />
         <line x1="5.25" y1="7.5" x2="18.75" y2="7.5" />
         <line x1="5.25" y1="12" x2="15.75" y2="12" />
      </symbol>
      <symbol id="icon-download" viewBox="0 0 24 24">
         <line x1="12.001" y1="3.75" x2="12.001" y2="15.75" />
         <polyline points="7.501 11.25 12.001 15.75 16.501 11.25" />
         <path d="M23.251,15.75v1.5a3,3,0,0,1-3,3H3.751a3,3,0,0,1-3-3v-1.5" />
      </symbol>
      <symbol id="icon-like" viewBox="0 0 24 24">
         <path d="M.5,8.372h2a1,1,0,0,1,1,1v12a1,1,0,0,1-1,1H.5"/>
         <path
            d="M3.5,19.372c7.339,3.726,6.981,3.235,13.265,3.235,2.632,0,3.958-1.715,4.732-4.228l0-.016,1.907-6.4,0-.012A2,2,0,0,0,21.5,9.372H16.6a2,2,0,0,1-1.934-2.51l.882-3.344A1.713,1.713,0,0,0,12.488,2.1L7.6,9.025a2,2,0,0,1-1.634.847H3.5"/>
      </symbol>
      <symbol id="icon-plus" viewBox="4 4 24 24">
         <path d="M14.667 4h2.667v24h-2.667v-24z"></path>
         <path d="M4 14.667h24v2.667h-24v-2.667z"></path>
      </symbol>
      <symbol id="icon-minus" viewBox="4 4 24 24">
         <path d="M4 14.667h24v2.667h-24v-2.667z"></path>
      </symbol>
      <symbol id="icon-cart" viewBox="4 7.666 21.5 21.5">
         <path d="M14.667 26c0 1.105-0.895 2-2 2s-2-0.895-2-2c0-1.105 0.895-2 2-2s2 0.895 2 2z"></path>
         <path d="M24 26c0 1.105-0.895 2-2 2s-2-0.895-2-2c0-1.105 0.895-2 2-2s2 0.895 2 2z"></path>
         <path
            d="M23.413 22.667h-12.754l-2.667-10.667h-3.993v-2.667h6.074l2.667 10.667h8.581l1.384-5.65 2.59 0.634z"></path>
      </symbol>
      <symbol id="icon-shipping" viewBox="4.333 4.333 23.333 23.333">
         <path d="M5.106 19.34l1.23-2.366 7.098 3.691-1.23 2.366-7.098-3.691z"></path>
         <path
            d="M14.191 10.538l-1.231 2.366-2.366-1.23 1.231-2.366-3.55-1.846-3.69 7.098 9.464 4.921 3.69-7.098z"></path>
         <path d="M17.597 21.327l-2.366-1.231 8.372-16.096h3.812v2.667h-2.194z"></path>
         <path
            d="M16.983 22.51c1.307 0.68 1.815 2.29 1.135 3.596s-2.29 1.815-3.596 1.135c-1.307-0.68-1.815-2.29-1.135-3.596s2.29-1.815 3.596-1.135z"></path>
      </symbol>
      <symbol id="icon-user" viewBox="5.333 4.666 21.333 21.333">
         <path
            d="M16 18.667c-3.676 0-6.667-2.991-6.667-6.667s2.991-6.667 6.667-6.667 6.667 2.991 6.667 6.667-2.991 6.667-6.667 6.667zM16 8c-2.206 0-4 1.794-4 4s1.794 4 4 4 4-1.794 4-4-1.794-4-4-4z"></path>
         <path
            d="M8 25.333h-2.667c0-3.387 1.634-6.604 4.372-8.609l1.575 2.151c-2.053 1.504-3.28 3.919-3.28 6.458z"></path>
         <path
            d="M26.667 25.333h-2.667c0-2.539-1.227-4.954-3.28-6.458l1.575-2.151c2.738 2.004 4.372 5.222 4.372 8.609z"></path>
         <path
            d="M26.667 25.333h-2.667c0-3.467-2.21-6.521-5.501-7.603l0.833-2.533c4.387 1.441 7.335 5.516 7.335 10.136z"></path>
         <path
            d="M8 25.333h-2.667c0-4.439 2.794-8.458 6.954-10.003l0.927 2.501c-3.119 1.159-5.215 4.173-5.215 7.502z"></path>
      </symbol>
      <symbol id="icon-pay" viewBox="5.333 5.333 21.333 21.333">
         <path d="M26.667 25.333h-21.333v-19.037h21.333v19.037zM8 22.667h16v-13.704h-16v13.704z"></path>
         <path d="M6.667 8h18.667v4.667h-18.667v-4.667z"></path>
         <path d="M9.333 18.296h8v2.667h-8v-2.667z"></path>
      </symbol>
      <symbol id="icon-arrow-fill-left" viewBox="6 6 20 20">
         <path d="M19.333 9.333l-6.667 6.667 6.667 6.667z"></path>
         <path d="M20.667 25.886l-9.886-9.886 9.886-9.886v19.772zM14.553 16l3.447 3.447v-6.895l-3.447 3.447z"></path>
      </symbol>
      <symbol id="icon-arrow-fill-right" viewBox="6 6 20 20">
         <path d="M12.667 22.667l6.667-6.667-6.667-6.667z"></path>
         <path d="M11.333 25.886v-19.772l9.886 9.886-9.886 9.886zM14 12.553v6.895l3.447-3.447-3.447-3.447z"></path>
      </symbol>
      <symbol id="icon-arrow-fill-up" viewBox="6 6 20 20">
         <path d="M22.667 19.333l-6.667-6.667-6.667 6.667z"></path>
         <path d="M25.886 20.667h-19.772l9.886-9.886 9.886 9.886zM12.553 18h6.895l-3.447-3.447-3.447 3.447z"></path>
      </symbol>
      <symbol id="icon-arrow-fill-down" viewBox="6 6 20 20">
         <path d="M9.333 12.667l6.667 6.667 6.667-6.667z"></path>
         <path d="M16 21.219l-9.886-9.886h19.772l-9.886 9.886zM12.553 14l3.447 3.447 3.447-3.447h-6.895z"></path>
      </symbol>
      <symbol id="icon-star" viewBox="3.5 3.5 25 25">
         <path
            d="M16 23.901l-7.799 4.099 1.49-8.683-6.31-6.15 8.719-1.267 3.899-7.901 3.899 7.901 8.719 1.267-6.31 6.15 1.49 8.683z"></path>
      </symbol>
      <symbol id="icon-star-half" viewBox="3.5 3.5 25 25">
         <path d="M16 23.901v-19.901l-3.899 7.901-8.719 1.267 6.31 6.15-1.49 8.683z"></path>
      </symbol>
      <symbol id="icon-menu-line" viewBox="6.5 6.5 19 19">
         <path d="M6.667 8h18.667v2.667h-18.667v-2.667z"></path>
         <path d="M6.667 14.667h18.667v2.667h-18.667v-2.667z"></path>
         <path d="M6.667 21.333h18.667v2.667h-18.667v-2.667z"></path>
      </symbol>
      <symbol id="icon-phone" viewBox="5.333 5.333 21.333 21.333">
         <path
            d="M21.053 19.367c-0.236 0.453-1.107 1.57-2.145 1.524-2.080-0.090-3.597-1.276-5.061-2.741s-2.65-2.981-2.741-5.061c-0.044-1.037 1.073-1.91 1.524-2.145l-2.43-5.222-2.184-0.207c-1.647 0.999-2.671 2.979-2.541 4.926 0.253 3.791 2.333 7.421 5.496 10.585 3.163 3.163 6.794 5.243 10.585 5.496 1.947 0.13 3.927-0.893 4.924-2.541l-0.207-2.184-5.222-2.431z"></path>
      </symbol>
      <symbol id="icon-image" viewBox="5.333 5.333 21.333 21.333">
         <path d="M5.333 25.333h21.333v-18.667h-21.333v18.667zM8 9.333h16v13.333h-16v-13.333z"></path>
         <path d="M16 17.333l-2.667-1.333-4 2.667v2.667h13.333v-5.333l-2.667-2.667z"></path>
         <path d="M13.333 12.667c0 1.105-0.895 2-2 2s-2-0.895-2-2c0-1.105 0.895-2 2-2s2 0.895 2 2z"></path>
      </symbol>
      <symbol id="icon-images" viewBox="4.333 4.333 22.333 22.333">
         <path
            d="M9.335 25.333h17.333v-14.667h-17.333v14.667zM14.001 13.333c1.105 0 2 0.895 2 2s-0.895 2-2 2c-1.105 0-2-0.895-2-2s0.896-2 2-2zM12.001 21.333l4-2.667 2.667 1.333 2.667-4 2.667 2.667v4h-12v-1.333z"></path>
         <path d="M6.668 8h16v-2.667h-18.667v17.333h2.667z"></path>
      </symbol>
      <symbol id="icon-file" viewBox="6.666 6.666 18.668 18.668">
         <path d="M22.667 11.447l-4.781-4.781h-8.553v18.667h13.333v-13.886zM12 22.667v-13.333h4v4h4v9.333h-8z"></path>
      </symbol>
      <symbol id="icon-files" viewBox="4 4 24 24">
         <path d="M6.667 28h13.333v-13.886l-4.781-4.781h-8.553v18.667zM9.333 12h4v4h4v9.333h-8v-13.333z"></path>
         <path d="M25.333 22.667v-13.886l-4.781-4.781h-8.548v2.667h6.662v4h4v12z"></path>
      </symbol>
      <symbol id="icon-search" viewBox="3 4 25 25">
         <path
            d="M22 13.333c0-5.147-4.187-9.333-9.333-9.333s-9.333 4.187-9.333 9.333 4.187 9.333 9.333 9.333c2.093 0 4.028-0.693 5.587-1.861l7.471 7.471 1.886-1.886-7.471-7.471c1.167-1.559 1.861-3.493 1.861-5.587zM6 13.333c0-3.676 2.991-6.667 6.667-6.667s6.667 2.991 6.667 6.667-2.991 6.667-6.667 6.667-6.667-2.991-6.667-6.667z"></path>
      </symbol>
      <symbol id="icon-chat" viewBox="5.8 6.666 20.5 20.5">
         <path
            d="M15.219 21.333h10.114v-14.667h-18.667v14.667h2.667v5.886l5.886-5.886zM9.333 9.333h13.333v9.333h-8.553l-2.114 2.114v-2.114h-2.667v-9.333z"></path>
      </symbol>
      <symbol id="icon-history" viewBox="4 4 24 24">
         <path
            d="M16.019 8.010c0 2.655 0 5.311 0 7.976 2.662 0 5.314 0 7.979 0 0.11-4.44-3.797-8.127-7.979-7.976z"></path>
         <path
            d="M13.265 9.889c-0.228-0.396-0.449-0.776-0.68-1.175-0.406 0.234-0.782 0.452-1.175 0.679 0.228 0.396 0.45 0.781 0.679 1.176 0.403-0.234 0.784-0.455 1.176-0.68z"></path>
         <path
            d="M10.579 12.077c-0.399-0.23-0.784-0.45-1.176-0.677-0.228 0.397-0.446 0.773-0.679 1.175 0.403 0.233 0.782 0.452 1.176 0.679 0.228-0.396 0.447-0.776 0.679-1.176z"></path>
         <path
            d="M8.724 19.419c0.231 0.4 0.452 0.781 0.68 1.173 0.399-0.231 0.784-0.453 1.176-0.68-0.236-0.406-0.456-0.787-0.681-1.173-0.401 0.233-0.782 0.453-1.175 0.68z"></path>
         <path
            d="M21.437 19.914c0.403 0.233 0.785 0.452 1.175 0.677 0.228-0.394 0.446-0.772 0.679-1.173-0.404-0.233-0.785-0.452-1.176-0.679-0.231 0.4-0.45 0.781-0.677 1.175z"></path>
         <path
            d="M11.412 22.601c0.393 0.227 0.769 0.443 1.175 0.677 0.231-0.4 0.45-0.781 0.68-1.175-0.396-0.228-0.781-0.45-1.176-0.679-0.236 0.406-0.455 0.787-0.679 1.176z"></path>
         <path
            d="M18.748 22.102c0.227 0.393 0.446 0.772 0.68 1.176 0.404-0.234 0.784-0.453 1.173-0.68-0.23-0.397-0.45-0.778-0.679-1.173-0.397 0.23-0.778 0.449-1.175 0.677z"></path>
         <path
            d="M9.323 15.341c-0.446 0-0.88 0-1.323 0 0 0.444 0 0.877 0 1.32 0.458 0 0.89 0 1.323 0 0-0.45 0-0.884 0-1.32z"></path>
         <path
            d="M15.354 23.997c0.446 0 0.877 0 1.314 0 0-0.446 0-0.874 0-1.314-0.453 0-0.886 0-1.314 0 0 0.449 0 0.883 0 1.314z"></path>
         <path
            d="M16 4c-6.616 0-12 5.384-12 12s5.384 12 12 12 12-5.384 12-12-5.384-12-12-12zM16 25.333c-5.147 0-9.333-4.187-9.333-9.333s4.187-9.333 9.333-9.333 9.333 4.187 9.333 9.333-4.187 9.333-9.333 9.333z"></path>
      </symbol>
      <symbol id="icon-user-group" viewBox="1 1 30 30">
         <path
            d="M21.333 12c0 2.946-2.388 5.333-5.333 5.333s-5.333-2.388-5.333-5.333c0-2.946 2.388-5.333 5.333-5.333s5.333 2.388 5.333 5.333z"></path>
         <path
            d="M21.507 17.8c-1.434 1.361-3.372 2.2-5.507 2.2s-4.073-0.839-5.507-2.2c-2.32 1.698-3.827 4.439-3.827 7.533h18.667c0-3.095-1.507-5.836-3.827-7.533z"></path>
         <path
            d="M24.547 16.913c1.844-0.265 3.262-1.852 3.262-3.77 0-2.104-1.705-3.809-3.809-3.809-0.151 0-0.301 0.010-0.447 0.027 0.289 0.827 0.447 1.714 0.447 2.64 0 1.323-0.323 2.569-0.892 3.667 0.513 0.378 0.994 0.794 1.439 1.246z"></path>
         <path
            d="M27.933 17.286c-0.579 0.551-1.276 0.981-2.046 1.252 0.847 1.23 1.47 2.627 1.81 4.13h2.969c0-2.212-1.077-4.17-2.733-5.382z"></path>
         <path
            d="M8.441 9.333c-2.104 0-3.809 1.705-3.809 3.809 0 1.919 1.418 3.505 3.262 3.77 0.446-0.452 0.926-0.868 1.439-1.246-0.569-1.098-0.892-2.345-0.892-3.667 0-0.926 0.159-1.813 0.447-2.64-0.145-0.016-0.295-0.027-0.447-0.027z"></path>
         <path
            d="M1.775 22.667h2.967c0.341-1.504 0.963-2.899 1.81-4.13-0.77-0.27-1.465-0.701-2.046-1.252-1.655 1.213-2.732 3.172-2.732 5.382z"></path>
      </symbol>
      <symbol id="icon-user-fill" viewBox="6 6 20 20">
         <path
            d="M21.333 12c0 2.946-2.388 5.333-5.333 5.333s-5.333-2.388-5.333-5.333c0-2.946 2.388-5.333 5.333-5.333s5.333 2.388 5.333 5.333z"></path>
         <path
            d="M21.507 17.8c-1.434 1.361-3.372 2.2-5.507 2.2s-4.073-0.839-5.507-2.2c-2.32 1.698-3.827 4.439-3.827 7.533h18.667c0-3.095-1.507-5.836-3.827-7.533z"></path>
      </symbol>
      <symbol id="icon-thumb-up" viewBox="6 6 20 20">
         <path
            d="M23.507 14.030c-1.193-0.361-2.384-0.726-3.601-1.096 0.030-0.19 0.055-0.339 0.076-0.49 0.176-1.274 0.415-2.544 0.508-3.824 0.077-1.053-0.732-1.967-1.756-2.204-1.407-0.324-2.037 0.145-2.136 1.554-0.047 0.659-0.022 1.887-0.51 3.705s-3.23 2.625-4.2 2.917v9.193c0.695 0.013 2.016 0.216 2.787 1.046 0.538 0.578 1.172 0.868 1.975 0.855 1.43-0.024 2.861-0.003 4.292-0.004 1.443-0.001 2.212-0.582 2.596-1.969 0.593-2.145 1.181-4.292 1.767-6.44 0.449-1.643-0.169-2.748-1.797-3.241z"></path>
         <path d="M6.554 13.212h4v12h-4v-12z"></path>
      </symbol>
      <symbol id="icon-bell" viewBox="6.666 6.666 18.668 18.668">
         <path
            d="M21.714 13.905c0-2.696-1.868-4.956-4.381-5.556v-0.35h-0.015c-0.093-0.646-0.646-1.142-1.319-1.142s-1.225 0.496-1.319 1.142h-0.015v0.348c-2.513 0.601-4.381 2.859-4.381 5.556v5.714l-2.286 3.43h5.714c0 1.262 1.024 2.286 2.286 2.286s2.286-1.024 2.286-2.286h5.714l-2.286-3.428v-5.714z"></path>
      </symbol>
      <symbol id="icon-arrow-left" viewBox="4 4 24 24">
         <path d="M20.391 27.609l-11.61-11.609 11.61-11.609 1.884 1.884-9.723 9.724 9.723 9.724z"></path>
      </symbol>
      <symbol id="icon-arrow-right" viewBox="4 4 24 24">
         <path d="M11.609 27.609l-1.884-1.884 9.723-9.724-9.723-9.724 1.884-1.884 11.61 11.609z"></path>
      </symbol>
      <symbol id="icon-arrow-up" viewBox="4 4 24 24">
         <path d="M25.724 22.276l-9.724-9.723-9.724 9.723-1.884-1.884 11.609-11.61 11.609 11.61z"></path>
      </symbol>
      <symbol id="icon-arrow-down" viewBox="4 4 24 24">
         <path d="M16 23.219l-11.609-11.61 1.884-1.884 9.724 9.723 9.724-9.723 1.884 1.884z"></path>
      </symbol>
      <symbol id="icon-delete" viewBox="4 4 24 24">
         <path d="M4.391 6.277l1.886-1.886 21.333 21.333-1.886 1.886-21.333-21.333z"></path>
         <path d="M4.391 25.723l21.333-21.333 1.886 1.886-21.333 21.333-1.886-1.886z"></path>
      </symbol>
      <symbol id="icon-check-line" viewBox="4 4 24 24">
         <path d="M12.572 24.908l-8.169-7.953 1.861-1.911 6.308 6.142 13.164-12.809 1.861 1.911z"></path>
      </symbol>
      <symbol id="icon-check-blank" viewBox="4 4 24 24">
         <path
            d="M16 4c-6.616 0-12 5.384-12 12s5.384 12 12 12 12-5.384 12-12-5.384-12-12-12zM16 25.333c-5.147 0-9.333-4.187-9.333-9.333s4.187-9.333 9.333-9.333 9.333 4.187 9.333 9.333-4.187 9.333-9.333 9.333z"></path>
      </symbol>
      <symbol id="icon-check-done" viewBox="4 4 24 24">
         <path d="M14.098 17.936l-3.462-3.311-1.843 1.927 5.301 5.070 8.861-8.436-1.839-1.932z"></path>
         <path
            d="M16 4c-6.616 0-12 5.384-12 12s5.384 12 12 12 12-5.384 12-12-5.384-12-12-12zM16 25.333c-5.147 0-9.333-4.187-9.333-9.333s4.187-9.333 9.333-9.333 9.333 4.187 9.333 9.333-4.187 9.333-9.333 9.333z"></path>
      </symbol>
      <symbol id="icon-dot-big" viewBox="4 4 24 24">
         <path
            d="M16 8c-4.418 0-8 3.582-8 8s3.582 8 8 8 8-3.582 8-8-3.582-8-8-8zM16 21.333c-2.945 0-5.333-2.388-5.333-5.333s2.388-5.333 5.333-5.333 5.333 2.388 5.333 5.333-2.388 5.333-5.333 5.333z"></path>
      </symbol>
      <symbol id="icon-dot-big-fill" viewBox="4 4 24 24">
         <path d="M24 16c0 4.418-3.582 8-8 8s-8-3.582-8-8c0-4.418 3.582-8 8-8s8 3.582 8 8z"></path>
      </symbol>
      <symbol id="icon-dot-small" viewBox="4 4 24 24">
         <path
            d="M18.667 16c0 1.473-1.194 2.667-2.667 2.667s-2.667-1.194-2.667-2.667c0-1.473 1.194-2.667 2.667-2.667s2.667 1.194 2.667 2.667z"></path>
      </symbol>
      <symbol id="icon-module" viewBox="5.333 5.333 21.333 21.333">
         <path d="M14.667 14.667h-9.333v-9.333h9.333v9.333zM8 12h4v-4h-4v4z"></path>
         <path d="M26.667 14.667h-9.333v-9.333h9.333v9.333zM20 12h4v-4h-4v4z"></path>
         <path d="M14.667 26.667h-9.333v-9.333h9.333v9.333zM8 24h4v-4h-4v4z"></path>
         <path d="M17.333 17.333h9.333v9.333h-9.333v-9.333z"></path>
      </symbol>
      <symbol id="icon-grid-big" viewBox="5.333 5.333 21.333 21.333">
         <path d="M5.333 5.333h9.333v9.333h-9.333v-9.333z"></path>
         <path d="M17.333 5.333h9.333v9.333h-9.333v-9.333z"></path>
         <path d="M5.333 17.333h9.333v9.333h-9.333v-9.333z"></path>
         <path d="M17.333 17.333h9.333v9.333h-9.333v-9.333z"></path>
      </symbol>
      <symbol id="icon-grid-small" viewBox="5.333 5.333 21.333 21.333">
         <path d="M21.333 21.333h5.333v5.333h-5.333v-5.333z"></path>
         <path d="M5.333 21.333h5.333v5.333h-5.333v-5.333z"></path>
         <path d="M13.333 21.333h5.333v5.333h-5.333v-5.333z"></path>
         <path d="M21.333 13.333h5.333v5.333h-5.333v-5.333z"></path>
         <path d="M5.333 13.333h5.333v5.333h-5.333v-5.333z"></path>
         <path d="M13.333 13.333h5.333v5.333h-5.333v-5.333z"></path>
         <path d="M21.333 5.333h5.333v5.333h-5.333v-5.333z"></path>
         <path d="M5.333 5.333h5.333v5.333h-5.333v-5.333z"></path>
         <path d="M13.333 5.333h5.333v5.333h-5.333v-5.333z"></path>
      </symbol>
      <symbol id="icon-list" viewBox="5.333 5.333 21.333 21.333">
         <path d="M5.333 21.333h21.333v5.333h-21.333v-5.333z"></path>
         <path d="M5.333 13.333h21.333v5.333h-21.333v-5.333z"></path>
         <path d="M5.333 5.333h21.333v5.333h-21.333v-5.333z"></path>
      </symbol>
      <symbol id="icon-menu-dots" viewBox="5.333 5.333 21.333 21.333">
         <path
            d="M10.667 16c0 1.473-1.194 2.667-2.667 2.667s-2.667-1.194-2.667-2.667c0-1.473 1.194-2.667 2.667-2.667s2.667 1.194 2.667 2.667z"></path>
         <path
            d="M18.667 16c0 1.473-1.194 2.667-2.667 2.667s-2.667-1.194-2.667-2.667c0-1.473 1.194-2.667 2.667-2.667s2.667 1.194 2.667 2.667z"></path>
         <path
            d="M26.667 16c0 1.473-1.194 2.667-2.667 2.667s-2.667-1.194-2.667-2.667c0-1.473 1.194-2.667 2.667-2.667s2.667 1.194 2.667 2.667z"></path>
      </symbol>
   </defs>
</svg>
