<svg style="position: absolute; width: 0; height: 0; overflow: hidden;" version="1.1" xmlns="http://www.w3.org/2000/svg"
     xmlns:xlink="http://www.w3.org/1999/xlink">
   <defs>
      <symbol id="icon-add" viewBox="0 0 24 24">
         <line x1="0.75" y1="12" x2="23.25" y2="12"/>
         <line x1="12" y1="0.75" x2="12" y2="23.25"/>
      </symbol>
      <symbol id="icon-alert-triangle" viewBox="0 0 24 24">
         <path d="M12,18.75a.375.375,0,1,0,.375.375A.375.375,0,0,0,12,18.75h0"/>
         <line x1="12" y1="15.75" x2="12" y2="8.25"/>
         <path
            d="M13.621,1.76a1.806,1.806,0,0,0-3.242,0L.906,21.058A1.521,1.521,0,0,0,2.272,23.25H21.728a1.521,1.521,0,0,0,1.366-2.192Z"/>
      </symbol>
      <symbol id="icon-arrow-down-2" viewBox="0 0 24 24">
         <path
            style="fill-rule: evenodd;"
            d="M23.25,7.311,12.53,18.03a.749.749,0,0,1-1.06,0L.75,7.311"
         />
      </symbol>
      <symbol id="icon-arrow-reply" viewBox="0 0 24 24">
         <path d="M18.1,8.1l5.2,5.2l-5.2,5.2"/>
         <path d="M0.8,1v5.4c0,3.8,3.1,6.9,6.9,6.9l0,0h15.6"/>
      </symbol>
      <symbol id="icon-arrow-right-2" viewBox="0 0 24 24">
         <line x1="0.75" y1="12" x2="23.25" y2="12"/>
         <polyline
            style="fill-rule: evenodd;"
            points="12.75 22.5 23.25 12 12.75 1.5"
         />
      </symbol>
      <symbol id="icon-arrow-up-2" viewBox="0 0 24 24">
         <path
            style="fill-rule: evenodd;"
            d="M.75,17.189,11.47,6.47a.749.749,0,0,1,1.06,0L23.25,17.189"
         />
      </symbol>
      <symbol id="icon-article" viewBox="0 0 24 24">
         <path
            d="M23.2,5.2v14.2c0,1.2-1,2.2-2.2,2.2s-2.2-1-2.2-2.2V2.2c0-0.8-0.7-1.5-1.5-1.5h-15c-0.8,0-1.5,0.7-1.5,1.5v17.2
	c0,1.2,1,2.2,2.2,2.2h18"
         />
         <line x1="4.5" y1="14.4" x2="15" y2="14.4"/>
         <line x1="4.5" y1="17.4" x2="10.5" y2="17.4"/>
         <path
            d="M5.2,4.7h9C14.7,4.7,15,5,15,5.4v4.5c0,0.4-0.3,0.8-0.8,0.8h-9c-0.4,0-0.8-0.3-0.8-0.8V5.4
	C4.5,5,4.8,4.7,5.2,4.7z"
         />
      </symbol>
      <symbol id="icon-attachment" viewBox="0 0 24 24">
         <path
            d="M23.25,9.9,12.273,20.878a6.75,6.75,0,0,1-9.546-9.546l9.016-9.015A4.5,4.5,0,1,1,18.106,8.68L9.091,17.7a2.25,2.25,0,0,1-3.182-3.181L14.925,5.5"/>
      </symbol>
      <symbol id="icon-bell-2" viewBox="0 0 24 24">
         <path d="M10,21.75a2.087,2.087,0,0,0,4.005,0"/>
         <line x1="12" y1="3" x2="12" y2="0.75"/>
         <path d="M12,3a7.5,7.5,0,0,1,7.5,7.5c0,7.046,1.5,8.25,1.5,8.25H3s1.5-1.916,1.5-8.25A7.5,7.5,0,0,1,12,3Z"/>
      </symbol>
      <symbol id="icon-bookmark" viewBox="0 0 24 24">
         <path
            d="M15.6,2.032,21.967,8.4a1.5,1.5,0,0,1,0,2.121L10.3,22.184a.75.75,0,0,1-1.281-.53l-.31-6.364-6.364-.311a.75.75,0,0,1-.53-1.28L13.482,2.032A1.5,1.5,0,0,1,15.6,2.032Z"/>
      </symbol>
      <symbol id="icon-calendar" style="fill: currentColor; stroke-width: 0" viewBox="0 0 24 24">
         <g>
            <path
               d="M2.25,24C1.009,24,0,22.991,0,21.75V5.25C0,4.009,1.009,3,2.25,3H6V0.75C6,0.336,6.336,0,6.75,0S7.5,0.336,7.5,0.75V3h9
    V0.75C16.5,0.336,16.836,0,17.25,0S18,0.336,18,0.75V3h3.75C22.991,3,24,4.009,24,5.25v16.5c0,1.241-1.009,2.25-2.25,2.25H2.25z
     M1.5,21.75c0,0.414,0.336,0.75,0.75,0.75h19.5c0.414,0,0.75-0.336,0.75-0.75V10.5h-21V21.75z M22.5,9V5.25
    c0-0.414-0.336-0.75-0.75-0.75H18V6c0,0.414-0.336,0.75-0.75,0.75S16.5,6.414,16.5,6V4.5h-9V6c0,0.414-0.336,0.75-0.75,0.75
    S6,6.414,6,6V4.5H2.25C1.836,4.5,1.5,4.836,1.5,5.25V9H22.5z"
            />
            <circle cx="5.625" cy="13.875" r="1.125"/>
            <circle cx="5.625" cy="19.125" r="1.125"/>
            <circle cx="12" cy="13.875" r="1.125"/>
            <circle cx="12" cy="19.125" r="1.125"/>
            <circle cx="18.375" cy="13.875" r="1.125"/>
            <path
               d="M18.375,20.25c-0.62,0-1.125-0.505-1.125-1.125S17.755,18,18.375,18c0.014,0,0.03,0.001,0.046,0.003
    c0.01,0.001,0.019,0.002,0.027,0.003c0.583,0.029,1.052,0.521,1.052,1.12C19.5,19.745,18.995,20.25,18.375,20.25z"
            />
         </g>
      </symbol>
      <symbol id="icon-cogwheel" viewBox="0 0 24 24">
         <path
            d="M10.546,2.438a1.957,1.957,0,0,0,2.908,0L14.4,1.4a1.959,1.959,0,0,1,3.41,1.413l-.071,1.4A1.958,1.958,0,0,0,19.79,6.267l1.4-.071A1.959,1.959,0,0,1,22.6,9.606l-1.042.94a1.96,1.96,0,0,0,0,2.909l1.042.94a1.959,1.959,0,0,1-1.413,3.41l-1.4-.071a1.958,1.958,0,0,0-2.056,2.056l.071,1.4A1.959,1.959,0,0,1,14.4,22.6l-.941-1.041a1.959,1.959,0,0,0-2.908,0L9.606,22.6A1.959,1.959,0,0,1,6.2,21.192l.072-1.4a1.958,1.958,0,0,0-2.056-2.056l-1.4.071A1.958,1.958,0,0,1,1.4,14.4l1.041-.94a1.96,1.96,0,0,0,0-2.909L1.4,9.606A1.958,1.958,0,0,1,2.809,6.2l1.4.071A1.958,1.958,0,0,0,6.267,4.211L6.2,2.81A1.959,1.959,0,0,1,9.606,1.4Z"/>
         <circle cx="12" cy="12.001" r="4.5"/>
      </symbol>
      <symbol id="icon-comment" viewBox="0 0 24 24">
         <path
            d="M21.75,18.75H11.25l-6,4.5v-4.5h-3a1.5,1.5,0,0,1-1.5-1.5v-15A1.5,1.5,0,0,1,2.25.75h19.5a1.5,1.5,0,0,1,1.5,1.5v15A1.5,1.5,0,0,1,21.75,18.75Z"/>
         <line x1="5.25" y1="7.5" x2="18.75" y2="7.5"/>
         <line x1="5.25" y1="12" x2="15.75" y2="12"/>
      </symbol>
      <symbol id="icon-download" viewBox="0 0 24 24">
         <line x1="12.001" y1="3.75" x2="12.001" y2="15.75"/>
         <polyline points="7.501 11.25 12.001 15.75 16.501 11.25"/>
         <path d="M23.251,15.75v1.5a3,3,0,0,1-3,3H3.751a3,3,0,0,1-3-3v-1.5"/>
      </symbol>
      <symbol id="icon-edit" viewBox="0 0 24 24">
         <path d="M13.045,14.136l-3.712.531.53-3.713,9.546-9.546A2.25,2.25,0,0,1,22.591,4.59Z"/>
         <line x1="18.348" y1="2.469" x2="21.53" y2="5.651"/>
         <path d="M18.75,14.25v7.5a1.5,1.5,0,0,1-1.5,1.5h-15a1.5,1.5,0,0,1-1.5-1.5v-15a1.5,1.5,0,0,1,1.5-1.5h7.5"/>
      </symbol>
      <symbol id="icon-email" viewBox="0 0 24 24">
         <rect x="1.5" y="4.75" width="21" height="15" rx="1.5" ry="1.5"/>
         <path d="M22.161,5.3l-8.144,6.264a3.308,3.308,0,0,1-4.034,0L1.839,5.3"/>
      </symbol>
      <symbol id="icon-file-2" viewBox="0 0 24 24">
         <path
            d="M22.477,21.75a1.5,1.5,0,0,1-1.5,1.5H3.023a1.5,1.5,0,0,1-1.5-1.5V2.25a1.5,1.5,0,0,1,1.5-1.5h15a1.5,1.5,0,0,1,1.047.426l2.955,2.883a1.5,1.5,0,0,1,.452,1.074Z"/>
      </symbol>
      <symbol id="icon-file-bmp" viewBox="0 0 24 24">
         <path
            d="M3.375,23.25h-.75a1.5,1.5,0,0,1-1.5-1.5V2.25a1.5,1.5,0,0,1,1.5-1.5H13.254a1.5,1.5,0,0,1,1.06.439l5.872,5.872a1.5,1.5,0,0,1,.439,1.06V12.75"/>
         <path d="M20.625,8.25h-6a1.5,1.5,0,0,1-1.5-1.5v-6"/>
         <line x1="6.375" y1="23.25" x2="6.375" y2="15.75"/>
         <path d="M6.375,15.75h1.5a1.5,1.5,0,0,1,1.5,1.5V18a1.5,1.5,0,0,1-1.5,1.5h-1.5"/>
         <path d="M6.375,19.5h1.5a1.5,1.5,0,0,1,1.5,1.5v.75a1.5,1.5,0,0,1-1.5,1.5h-1.5"/>
         <polyline points="16.875 23.25 16.875 15.75 14.625 19.5 12.375 15.75 12.375 23.25"/>
         <line x1="19.875" y1="23.25" x2="19.875" y2="15.75"/>
         <path d="M19.875,15.75h.75a2.25,2.25,0,0,1,0,4.5h-.75"/>
      </symbol>
      <symbol id="icon-file-doc" viewBox="0 0 24 24">
         <path
            d="M5.247,23.248h-3a1.5,1.5,0,0,1-1.5-1.5V2.248a1.5,1.5,0,0,1,1.5-1.5H12.876a1.5,1.5,0,0,1,1.061.439l5.871,5.872a1.5,1.5,0,0,1,.439,1.06v4.629"/>
         <path d="M20.247,8.248h-6a1.5,1.5,0,0,1-1.5-1.5v-6"/>
         <path d="M8.247,23.248a3,3,0,0,0,3-3v-1.5a3,3,0,0,0-3-3Z"/>
         <path d="M15.747,15.748a1.5,1.5,0,0,0-1.5,1.5v4.5a1.5,1.5,0,1,0,3,0v-4.5A1.5,1.5,0,0,0,15.747,15.748Z"/>
         <path d="M23.247,15.748a3,3,0,0,0-3,3v1.5a3,3,0,0,0,3,3"/>
      </symbol>
      <symbol id="icon-file-gif" viewBox="0 0 24 24">
         <path
            d="M8.25,23.25h-6a1.5,1.5,0,0,1-1.5-1.5V2.25A1.5,1.5,0,0,1,2.25.75H12.879a1.5,1.5,0,0,1,1.06.439l5.872,5.872a1.5,1.5,0,0,1,.439,1.06V12.75"/>
         <path d="M20.25,8.25h-6a1.5,1.5,0,0,1-1.5-1.5v-6"/>
         <path d="M20.25,23.25v-6a1.5,1.5,0,0,1,1.5-1.5h1.5"/>
         <line x1="20.25" y1="20.25" x2="22.5" y2="20.25"/>
         <line x1="17.25" y1="23.25" x2="17.25" y2="15.75"/>
         <path d="M13.5,20.25h.75v1.5a1.5,1.5,0,0,1-3,0v-4.5a1.5,1.5,0,0,1,1.5-1.5h1.5"/>
      </symbol>
      <symbol id="icon-file-jpg" viewBox="0 0 24 24">
         <path
            d="M5.25,23.25h-3a1.5,1.5,0,0,1-1.5-1.5V2.25A1.5,1.5,0,0,1,2.25.75H12.879a1.5,1.5,0,0,1,1.06.439l5.872,5.872a1.5,1.5,0,0,1,.439,1.06V12.75"/>
         <path d="M20.25,8.25h-6a1.5,1.5,0,0,1-1.5-1.5v-6"/>
         <path d="M11.25,15.75v6a1.5,1.5,0,0,1-1.5,1.5H8.25"/>
         <line x1="14.25" y1="23.25" x2="14.25" y2="15.75"/>
         <path d="M14.25,15.75H15a2.25,2.25,0,0,1,0,4.5h-.75"/>
         <path d="M22.5,20.25h.75v1.5a1.5,1.5,0,0,1-3,0v-4.5a1.5,1.5,0,0,1,1.5-1.5h1.5"/>
      </symbol>
      <symbol id="icon-file-pdf" viewBox="0 0 24 24">
         <path
            d="M5.246,23.248h-3a1.5,1.5,0,0,1-1.5-1.5V2.248a1.5,1.5,0,0,1,1.5-1.5H12.875a1.5,1.5,0,0,1,1.061.44l5.871,5.871a1.5,1.5,0,0,1,.439,1.061v4.628"/>
         <path d="M20.246,8.248h-6a1.5,1.5,0,0,1-1.5-1.5v-6"/>
         <line x1="8.246" y1="23.248" x2="8.246" y2="15.748"/>
         <path d="M8.246,15.748H9a2.25,2.25,0,0,1,0,4.5h-.75"/>
         <path d="M14.246,23.248a3,3,0,0,0,3-3v-1.5a3,3,0,0,0-3-3Z"/>
         <path d="M20.246,23.248v-6a1.5,1.5,0,0,1,1.5-1.5h1.5"/>
         <line x1="20.246" y1="20.248" x2="22.496" y2="20.248"/>
      </symbol>
      <symbol id="icon-file-png" viewBox="0 0 24 24">
         <path
            d="M5.25,23.25h-3a1.5,1.5,0,0,1-1.5-1.5V2.25A1.5,1.5,0,0,1,2.25.75H12.879a1.5,1.5,0,0,1,1.06.439l5.872,5.872a1.5,1.5,0,0,1,.439,1.06V12.75"/>
         <path d="M20.25,8.25h-6a1.5,1.5,0,0,1-1.5-1.5v-6"/>
         <line x1="8.25" y1="23.25" x2="8.25" y2="15.75"/>
         <path d="M8.25,15.75H9a2.25,2.25,0,0,1,0,4.5H8.25"/>
         <polyline points="14.25 23.25 14.25 15.75 17.25 23.25 17.25 15.75"/>
         <path d="M22.5,20.25h.75v1.5a1.5,1.5,0,0,1-3,0v-4.5a1.5,1.5,0,0,1,1.5-1.5h1.5"/>
      </symbol>
      <symbol id="icon-file-ppt" viewBox="0 0 24 24">
         <path
            d="M5.249,23.248h-3a1.5,1.5,0,0,1-1.5-1.5V2.248a1.5,1.5,0,0,1,1.5-1.5H12.878a1.5,1.5,0,0,1,1.061.439L19.81,7.059a1.5,1.5,0,0,1,.439,1.06v4.629"/>
         <path d="M20.249,8.248h-6a1.5,1.5,0,0,1-1.5-1.5v-6"/>
         <line x1="8.249" y1="23.248" x2="8.249" y2="15.748"/>
         <path d="M8.249,15.748H9a2.25,2.25,0,0,1,0,4.5h-.75"/>
         <line x1="14.249" y1="23.248" x2="14.249" y2="15.748"/>
         <path d="M14.249,15.748H15a2.25,2.25,0,0,1,0,4.5h-.75"/>
         <line x1="21.749" y1="23.248" x2="21.749" y2="15.748"/>
         <line x1="20.249" y1="15.748" x2="23.249" y2="15.748"/>
      </symbol>
      <symbol id="icon-file-rtf" viewBox="0 0 24 24">
         <path
            d="M5.249,23.248h-3a1.5,1.5,0,0,1-1.5-1.5V2.248a1.5,1.5,0,0,1,1.5-1.5H12.878a1.5,1.5,0,0,1,1.061.439L19.81,7.059a1.5,1.5,0,0,1,.439,1.06v4.629"/>
         <path d="M20.249,8.248h-6a1.5,1.5,0,0,1-1.5-1.5v-6"/>
         <line x1="15.749" y1="23.248" x2="15.749" y2="15.748"/>
         <line x1="14.249" y1="15.748" x2="17.249" y2="15.748"/>
         <path d="M20.249,23.248v-6a1.5,1.5,0,0,1,1.5-1.5h1.5"/>
         <line x1="20.249" y1="20.248" x2="22.499" y2="20.248"/>
         <line x1="8.249" y1="23.248" x2="8.249" y2="15.748"/>
         <path d="M8.249,15.748H9.374a1.875,1.875,0,0,1,0,3.75H8.249"/>
         <line x1="11.249" y1="23.248" x2="8.999" y2="19.498"/>
      </symbol>
      <symbol id="icon-file-svg" viewBox="0 0 24 24">
         <path
            d="M5.25,23.25h-3a1.5,1.5,0,0,1-1.5-1.5V2.25A1.5,1.5,0,0,1,2.25.75H12.879a1.5,1.5,0,0,1,1.06.439l5.872,5.872a1.5,1.5,0,0,1,.439,1.06V12.75"/>
         <path d="M20.25,8.25h-6a1.5,1.5,0,0,1-1.5-1.5v-6"/>
         <path d="M14.25,15.75V18.3a8.932,8.932,0,0,0,1.5,4.954,8.932,8.932,0,0,0,1.5-4.954V15.75"/>
         <path d="M11.25,15.75H9.75a1.5,1.5,0,0,0-1.5,1.5c0,2.25,3,2.25,3,4.5a1.5,1.5,0,0,1-1.5,1.5H8.25"/>
         <path d="M22.5,20.25h.75v1.5a1.5,1.5,0,0,1-3,0v-4.5a1.5,1.5,0,0,1,1.5-1.5h1.5"/>
      </symbol>
      <symbol id="icon-file-txt" viewBox="0 0 24 24">
         <path
            d="M5.247,23.248h-3a1.5,1.5,0,0,1-1.5-1.5V2.248a1.5,1.5,0,0,1,1.5-1.5H12.876a1.5,1.5,0,0,1,1.06.439l5.872,5.872a1.5,1.5,0,0,1,.439,1.06v4.629"/>
         <path d="M20.247,8.248h-6a1.5,1.5,0,0,1-1.5-1.5v-6"/>
         <line x1="21.747" y1="23.248" x2="21.747" y2="15.748"/>
         <line x1="20.247" y1="15.748" x2="23.247" y2="15.748"/>
         <line x1="9.747" y1="23.248" x2="9.747" y2="15.748"/>
         <line x1="8.247" y1="15.748" x2="11.247" y2="15.748"/>
         <line x1="14.247" y1="15.748" x2="17.247" y2="23.248"/>
         <line x1="17.247" y1="15.748" x2="14.247" y2="23.248"/>
      </symbol>
      <symbol id="icon-file-xls" viewBox="0 0 24 24">
         <path
            d="M5.249,23.248h-3a1.5,1.5,0,0,1-1.5-1.5V2.248a1.5,1.5,0,0,1,1.5-1.5H12.878a1.5,1.5,0,0,1,1.06.439L19.81,7.059a1.5,1.5,0,0,1,.439,1.06v4.629"/>
         <path d="M20.249,8.248h-6a1.5,1.5,0,0,1-1.5-1.5v-6"/>
         <line x1="8.249" y1="15.748" x2="11.249" y2="23.248"/>
         <line x1="11.249" y1="15.748" x2="8.249" y2="23.248"/>
         <path d="M14.249,15.748v6a1.5,1.5,0,0,0,1.5,1.5h1.5"/>
         <path d="M23.249,15.748h-1.5a1.5,1.5,0,0,0-1.5,1.5c0,2.25,3,2.25,3,4.5a1.5,1.5,0,0,1-1.5,1.5h-1.5"/>
      </symbol>
      <symbol id="icon-file-zip" viewBox="0 0 24 24">
         <path d="M11.249,15.748h1.892a.75.75,0,0,1,.7,1.029L11.66,22.22a.749.749,0,0,0,.7,1.028h1.892"/>
         <line x1="17.249" y1="23.248" x2="17.249" y2="15.748"/>
         <line x1="20.249" y1="23.248" x2="20.249" y2="15.748"/>
         <path d="M20.249,15.748H21a2.25,2.25,0,0,1,0,4.5h-.75"/>
         <path
            d="M8.249,23.248h-6a1.5,1.5,0,0,1-1.5-1.5V2.248a1.5,1.5,0,0,1,1.5-1.5H12.877a1.5,1.5,0,0,1,1.061.439l5.871,5.872a1.5,1.5,0,0,1,.44,1.06v4.629"/>
         <path d="M20.249,8.248h-6a1.5,1.5,0,0,1-1.5-1.5v-6"/>
      </symbol>
      <symbol id="icon-gif" viewBox="0 0 24 24">
         <rect
            x="0.75"
            y="0.75"
            width="22.5"
            height="22.5"
            rx="1"
            ry="1"
         />
         <path
            d="M15,18V12a1.5,1.5,0,0,1,1.5-1.5H18"
         />
         <line
            x1="15"
            y1="15"
            x2="17.25"
            y2="15"
         />
         <line
            x1="12"
            y1="18"
            x2="12"
            y2="10.5"
         />
         <path
            d="M8.25,15H9v1.5a1.5,1.5,0,0,1-3,0V12a1.5,1.5,0,0,1,1.5-1.5H9"
         />
      </symbol>
      <symbol id="icon-group" viewBox="0 0 24 24">
         <circle cx="3.4" cy="4.9" r="2.6"/>
         <path d="M7.5,11c-1-2.3-3.6-3.3-5.9-2.4C1.3,8.8,1,9,0.8,9.2"/>
         <circle cx="20.6" cy="4.9" r="2.6"/>
         <path d="M16.5,11c1-2.3,3.6-3.3,5.9-2.4c0.3,0.1,0.6,0.3,0.9,0.5"/>
         <circle cx="12" cy="4.2" r="3.4"/>
         <path d="M18,14.3c-0.4-3.3-3.5-5.6-6.8-5.2C8.5,9.5,6.4,11.5,6,14.3"/>
      </symbol>
      <symbol id="icon-like" viewBox="0 0 24 24">
         <path d="M.5,8.372h2a1,1,0,0,1,1,1v12a1,1,0,0,1-1,1H.5"/>
         <path
            d="M3.5,19.372c7.339,3.726,6.981,3.235,13.265,3.235,2.632,0,3.958-1.715,4.732-4.228l0-.016,1.907-6.4,0-.012A2,2,0,0,0,21.5,9.372H16.6a2,2,0,0,1-1.934-2.51l.882-3.344A1.713,1.713,0,0,0,12.488,2.1L7.6,9.025a2,2,0,0,1-1.634.847H3.5"/>
      </symbol>
      <symbol id="icon-like-bold" style="fill: currentColor;" viewBox="0 0 24 24">
         <path style="stroke-width: 0;"
               d="M23.756,12.174a2.749,2.749,0,0,0-2.63-3.551h-5.58a1.249,1.249,0,0,1-1.127-1.788l1.428-2.993a2.425,2.425,0,0,0-.42-2.308,2.464,2.464,0,0,0-3.926.132L6.611,8.594a1.253,1.253,0,0,1-1.021.529.464.464,0,0,0-.464.464V20.9a.5.5,0,0,0,.282.45c3.7,1.792,4.929,2.029,7.942,2.029.347,0,2.32-.02,3.041-.02,2.68,0,4.463-1.555,5.456-4.779l1.9-6.369Z"
         />
         <path
            style="stroke-width: 0;"
            d="M3.626,9.123H3.6a1.5,1.5,0,0,0-1.474-1.25H.626a.5.5,0,0,0-.5.5v14a.5.5,0,0,0,.5.5h1.5a1.5,1.5,0,0,0,1.5-1.5Z"
         />
      </symbol>
      <symbol id="icon-link" viewBox="0 0 24 24">
         <line x1="6.75" y1="17.249" x2="17.25" y2="6.749"/>
         <path
            d="M7.735,12.021a4.472,4.472,0,0,0-3.417,1.3l-2.25,2.25a4.5,4.5,0,0,0,6.364,6.364l2.25-2.25a4.472,4.472,0,0,0,1.3-3.417"/>
         <path
            d="M16.265,11.976a4.473,4.473,0,0,0,3.417-1.3l2.25-2.25a4.5,4.5,0,0,0-6.364-6.364l-2.25,2.25a4.475,4.475,0,0,0-1.295,3.417"/>
      </symbol>
      <symbol id="icon-monitor" style="stroke-width: 0; fill: currentColor;" viewBox="0 0 24 24">
         <g>
            <path
               d="M15,9.01c-1.654,0-3-1.346-3-3s1.346-3,3-3s3,1.346,3,3S16.654,9.01,15,9.01z M15,4.51c-0.827,0-1.5,0.673-1.5,1.5
		s0.673,1.5,1.5,1.5s1.5-0.673,1.5-1.5S15.827,4.51,15,4.51z"
            />
            <path
               d="M18.75,13.51c-0.414,0-0.75-0.336-0.75-0.75c0-1.654-1.346-3-3-3c-0.414,0-0.75-0.336-0.75-0.75S14.586,8.26,15,8.26
		c2.481,0,4.5,2.019,4.5,4.5C19.5,13.173,19.164,13.51,18.75,13.51z"
            />
            <path
               d="M15.75,19.51c-0.414,0-0.75-0.336-0.75-0.75s0.336-0.75,0.75-0.75h0.75v-1.5h-2.25c-0.414,0-0.75-0.336-0.75-0.75
		s0.336-0.75,0.75-0.75h7.5c0.414,0,0.75-0.336,0.75-0.75v-12c0-0.414-0.336-0.75-0.75-0.75h-18C3.336,1.51,3,1.846,3,2.26v2.25
		c0,0.414-0.336,0.75-0.75,0.75S1.5,4.923,1.5,4.51V2.26c0-1.241,1.009-2.25,2.25-2.25h18c1.241,0,2.25,1.009,2.25,2.25v12
		c0,1.241-1.009,2.25-2.25,2.25H18v1.5h1.5c0.414,0,0.75,0.336,0.75,0.75s-0.336,0.75-0.75,0.75H15.75z"
            />
            <path
               d="M14.25,24.01c-0.414,0-0.75-0.336-0.75-0.75c0-3.308-2.692-6-6-6s-6,2.692-6,6c0,0.414-0.336,0.75-0.75,0.75
		S0,23.673,0,23.26c0-4.135,3.365-7.5,7.5-7.5s7.5,3.365,7.5,7.5C15,23.673,14.664,24.01,14.25,24.01z"
            />
            <path
               d="M7.5,15.76c-2.688,0-4.875-2.187-4.875-4.875c0-2.688,2.187-4.875,4.875-4.875s4.875,2.187,4.875,4.875
		C12.375,13.573,10.188,15.76,7.5,15.76z M7.5,7.51c-1.861,0-3.375,1.514-3.375,3.375c0,1.861,1.514,3.375,3.375,3.375
		s3.375-1.514,3.375-3.375C10.875,9.024,9.361,7.51,7.5,7.51z"
            />
         </g>
      </symbol>
      <symbol id="icon-more" style="fill: currentColor;" viewBox="0 0 24 24">
         <circle style="stroke-width: 0;" cx="3.25" cy="12" r="3.25"/>
         <circle style="stroke-width: 0;" cx="12" cy="12" r="3.25"/>
         <circle style="stroke-width: 0;" cx="20.75" cy="12" r="3.25"/>
      </symbol>
      <symbol id="icon-page" viewBox="0 0 24 24">
         <path
            d="M19.2,4.5c0.2,0.2,0.3,0.4,0.3,0.7v17.3c0,0.6-0.4,1-1,1h-17c-0.6,0-1-0.4-1-1v-21c0-0.6,0.4-1,1-1h13.3
	c0.3,0,0.5,0.1,0.7,0.3L19.2,4.5z"
         />
         <line x1="4" y1="16" x2="16" y2="16"/>
         <line x1="4" y1="19" x2="16" y2="19"/>
         <line x1="4" y1="13" x2="16" y2="13"/>
         <line x1="4" y1="10" x2="16" y2="10"/>
         <line x1="4" y1="7" x2="11" y2="7"/>
         <line x1="4" y1="7" x2="11" y2="7"/>
         <line x1="4" y1="10" x2="16" y2="10"/>
         <line x1="4" y1="13" x2="16" y2="13"/>
         <line x1="4" y1="16" x2="16" y2="16"/>
         <line x1="4" y1="19" x2="16" y2="19"/>
      </symbol>

      <symbol id="icon-poll" viewBox="0 0 24 24">
         <line x1="2.2" y1="0.8" x2="2.2" y2="23.2"/>
         <path d="M12.8,6V3c0-0.4-0.3-0.8-0.8-0.8H2.2v4.5H12C12.4,6.8,12.8,6.4,12.8,6z"/>
         <path d="M21.8,13.5v-3c0-0.4-0.3-0.8-0.8-0.8H2.2v4.5H21C21.4,14.2,21.8,13.9,21.8,13.5z"/>
         <path d="M17.2,21v-3c0-0.4-0.3-0.8-0.8-0.8H2.2v4.5h14.2C16.9,21.8,17.2,21.4,17.2,21z"/>
      </symbol>
      <symbol id="icon-remove" viewBox="0 0 24 24">
         <line x1="4.5" y1="19.5" x2="19.5" y2="4.5"/>
         <line x1="4.5" y1="4.5" x2="19.5" y2="19.5"/>
      </symbol>
      <symbol id="icon-search-2" viewBox="0 0 24 24">
         <circle
            cx="9.813"
            cy="9.812"
            r="9.063"
            transform="translate(-3.056 4.62) rotate(-23.025)"
         />
         <line x1="16.221" y1="16.22" x2="23.25" y2="23.25"/>
      </symbol>
      <symbol id="icon-send" viewBox="0 0 24 24">
         <path
            d="M2.759,15.629a1.664,1.664,0,0,1-.882-3.075L20.36,1A1.663,1.663,0,0,1,22.876,2.72l-3.6,19.173a1.664,1.664,0,0,1-2.966.691L11.1,15.629Z"/>
         <path d="M11.1,15.629H8.6V20.8a1.663,1.663,0,0,0,2.6,1.374l3.178-2.166Z"/>
         <line x1="11.099" y1="15.629" x2="22.179" y2="1.039"/>
      </symbol>
      <symbol id="icon-share" viewBox="0 0 24 24">
         <path d="M21.75,5.25H13.5a3,3,0,0,0-3,3V12"/>
         <polyline points="17.25 9.75 21.75 5.25 17.25 0.75"/>
         <path d="M18.75,14.25v7.5a1.5,1.5,0,0,1-1.5,1.5H3.75a1.5,1.5,0,0,1-1.5-1.5v-12a1.5,1.5,0,0,1,1.5-1.5H6"/>
      </symbol>
      <symbol id="icon-smiley" viewBox="0 0 24 24">
         <circle cx="12" cy="12" r="11.25"/>
         <path d="M8.25,8.625A.375.375,0,1,1,7.875,9a.375.375,0,0,1,.375-.375"/>
         <path d="M15.75,8.625A.375.375,0,1,1,15.375,9a.375.375,0,0,1,.375-.375"/>
         <path d="M18.048,15a6.752,6.752,0,0,1-12.1,0"/>
      </symbol>
      <symbol id="icon-smiley-hypnotized" style="stroke-width: 1px;" viewBox="0 0 24 24">
         <line x1="9.5" y1="18.5" x2="14.5" y2="18.5"/>
         <path d="M4.5,7a3.564,3.564,0,0,1,3-1.5"/>
         <path d="M19.5,7a3.564,3.564,0,0,0-3-1.5"/>
         <circle cx="12" cy="12" r="11.5"/>
         <circle cx="7" cy="11" r="2.5"/>
         <path d="M7,10.75a.25.25,0,1,1-.25.25A.25.25,0,0,1,7,10.75"/>
         <circle cx="17" cy="11" r="2.5"/>
         <path d="M17,10.75a.25.25,0,1,0,.25.25.25.25,0,0,0-.25-.25"/>
      </symbol>
      <symbol id="icon-trashcan" viewBox="0 0 24 24">
         <line x1="1.5" y1="4.5" x2="22.5" y2="4.5"/>
         <path d="M14.25,1.5H9.75A1.5,1.5,0,0,0,8.25,3V4.5h7.5V3A1.5,1.5,0,0,0,14.25,1.5Z"/>
         <line x1="9.75" y1="17.25" x2="9.75" y2="9.75"/>
         <line x1="14.25" y1="17.25" x2="14.25" y2="9.75"/>
         <path d="M18.865,21.124A1.5,1.5,0,0,1,17.37,22.5H6.631a1.5,1.5,0,0,1-1.495-1.376L3.75,4.5h16.5Z"/>
      </symbol>
      <symbol id="icon-view" viewBox="0 0 24 24">
         <path
            d="M12,5.251C7.969,5.183,3.8,8,1.179,10.885a1.663,1.663,0,0,0,0,2.226C3.743,15.935,7.9,18.817,12,18.748c4.1.069,8.258-2.813,10.824-5.637a1.663,1.663,0,0,0,0-2.226C20.2,8,16.031,5.183,12,5.251Z"/>
         <path d="M15.75,12A3.75,3.75,0,1,1,12,8.249,3.749,3.749,0,0,1,15.75,12Z"/>
      </symbol>

      <symbol id="icon-view-off" viewBox="0 0 24 24">
         <line x1="2.783" y1="21" x2="21.533" y2="3"/>
         <path
            d="M8.964,19.051A9.985,9.985,0,0,0,12,19.5c4.1.069,8.258-2.813,10.824-5.637a1.663,1.663,0,0,0,0-2.226,20.568,20.568,0,0,0-3.074-2.757"/>
         <path
            d="M14.413,6.282A9.549,9.549,0,0,0,12,6C7.969,5.933,3.8,8.752,1.179,11.635a1.663,1.663,0,0,0,0,2.226,20.8,20.8,0,0,0,2.6,2.4"/>
         <path d="M8.25,12.75A3.749,3.749,0,0,1,12,9"/>
         <path d="M15.75,12.749h0A3.75,3.75,0,0,1,12,16.5"/>
      </symbol>


   </defs>
</svg>
