<?xml version="1.0" encoding="utf-8"?>
<svg xmlns="http://www.w3.org/2000/svg">
   <defs>
      <symbol id="link-external" viewBox="0 0 24 24">
         <path d="M20.63,2.5h-7.88c-.48,0-.88.39-.88.88s.39.88.88.88h5.76l-9.3,9.3c-.34.34-.34.9,0,1.24s.9.34,1.24,0l9.3-9.3v5.76c0,.48.39.88.88.88s.88-.39.88-.88V3.37c0-.48-.39-.88-.88-.88ZM10.09,6.24c0,.48-.39.88-.88.88h-1.43s-2.29.01-2.29.01c-.69,0-1.25.56-1.25,1.25v10.13c0,.69.56,1.25,1.25,1.25h10.13c.69,0,1.25-.56,1.25-1.25v-1.81h0v-1.91c0-.48.39-.88.88-.88s.88.39.88.88v3.54h0v.18c0,1.66-1.34,3-3,3H5.5c-1.66,0-3-1.34-3-3v-10.13c0-1.65,1.34-2.99,2.99-3h0s3.73-.01,3.73-.01c.48,0,.88.39.88.88Z"/>
      </symbol>
      <symbol id="link-external-tab" viewBox="0 0 24 24">
         <path d="M2.09,8.9c.48,0,.88.39.88.88v10.11c0,.56.15.79.27.9.14.12.41.24.91.24h10.22c.48,0,.88.39.88.88s-.39.88-.88.88H4.15c-.74,0-1.5-.17-2.08-.69-.6-.54-.85-1.31-.85-2.2v-10.11c0-.48.39-.88.88-.88Z"/><path d="M14.75.5h7.88c.48,0,.88.39.88.87v7.87c0,.48-.39.87-.88.87s-.88-.39-.88-.87V3.49l-9.3,9.3c-.34.34-.9.34-1.24,0-.34-.34-.34-.9,0-1.24L20.52,2.25h-5.76c-.48,0-.88-.39-.88-.88s.39-.87.88-.87Z"/><path d="M11.27,3.96c.48,0,.88-.39.88-.87s-.39-.88-.88-.88h-1.3s-.88,0-.88,0c-1.66,0-3,1.34-3,3v9.69c0,1.66,1.34,3,3,3h9.69c1.66,0,3-1.34,3-3v-2.18h0v-.05c0-.48-.39-.88-.88-.88s-.88.39-.88.88v1.38h0v.85c0,.69-.56,1.25-1.25,1.25h-9.69c-.69,0-1.25-.56-1.25-1.25V5.22c0-.69.56-1.25,1.25-1.25h2.18Z"/>
      </symbol>
      <symbol id="link-tab" viewBox="0 0 24 24">
         <path fill-rule="evenodd" d="M9.59,3.47h9.69c.69,0,1.25.56,1.25,1.25v9.69c0,.69-.56,1.25-1.25,1.25h-9.69c-.69,0-1.25-.56-1.25-1.25V4.72c0-.69.56-1.25,1.25-1.25ZM6.59,4.72c0-1.66,1.34-3,3-3h9.69c1.66,0,3,1.34,3,3v9.69c0,1.66-1.34,3-3,3h-9.69c-1.66,0-3-1.34-3-3V4.72ZM3.47,9.28c0-.48-.39-.88-.88-.88s-.88.39-.88.88v10.11c0,.88.25,1.66.85,2.2.58.52,1.34.69,2.08.69h10.22c.48,0,.88-.39.88-.87s-.39-.88-.88-.88H4.65c-.51,0-.77-.12-.91-.24-.12-.11-.27-.34-.27-.9v-10.11Z"/></symbol><symbol id="lock" viewBox="0 0 24 24"><path d="M17.73,9.14v-2.61c0-3.16-2.57-5.73-5.73-5.73s-5.73,2.57-5.73,5.73v2.61c-1.69.7-2.88,2.36-2.88,4.3v5.1c0,2.57,2.09,4.66,4.66,4.66h7.9c2.57,0,4.66-2.09,4.66-4.66v-5.1c0-1.94-1.19-3.6-2.88-4.3ZM8.02,6.53c0-2.19,1.79-3.98,3.98-3.98s3.98,1.79,3.98,3.98v2.25s-.02,0-.03,0h-7.9s-.02,0-.03,0v-2.25ZM18.86,18.54c0,1.6-1.31,2.91-2.91,2.91h-7.9c-1.6,0-2.91-1.31-2.91-2.91v-5.1c0-1.6,1.3-2.91,2.91-2.91h7.9c1.6,0,2.91,1.31,2.91,2.91v5.1Z"/>
         <path d="M12,14.4c-.89,0-1.61.72-1.61,1.61s.72,1.61,1.61,1.61,1.61-.72,1.61-1.61-.72-1.61-1.61-1.61Z"/>
      </symbol>
   </defs>
</svg>
