<svg xmlns="http://www.w3.org/2000/svg" viewBox="0 0 24 24"><path fill-rule="evenodd" d="M7.4 6.4h-.097c-.837 0-1.372 0-1.834.088-1.888.36-3.391 1.785-3.776 3.64-.094.453-.094.976-.093 1.771v.202c0 .795 0 1.318.093 1.77.385 1.856 1.888 3.28 3.776 3.641.462.088.997.088 1.834.088H8.8a.8.8 0 1 0 0-1.6H7.4c-.967 0-1.337-.004-1.63-.06-1.286-.245-2.263-1.202-2.51-2.393-.056-.27-.06-.615-.06-1.547 0-.932.004-1.276.06-1.547.247-1.19 1.224-2.148 2.51-2.393.293-.056.663-.06 1.63-.06h1.4a.8.8 0 1 0 0-1.6H7.4ZM16.6 8c.966 0 1.337.004 1.63.06 1.285.245 2.263 1.202 2.51 2.393.056.27.06.615.06 1.547 0 .932-.005 1.276-.06 1.547-.247 1.19-1.225 2.148-2.51 2.393-.293.056-.664.06-1.63.06h-1.4a.8.8 0 0 0 0 1.6h1.497c.836 0 1.371 0 1.833-.088 1.889-.36 3.392-1.785 3.776-3.64.094-.453.094-.976.094-1.771v-.202c0-.795 0-1.318-.094-1.77-.384-1.856-1.887-3.28-3.776-3.641-.462-.088-.997-.088-1.833-.088H15.2a.8.8 0 0 0 0 1.6h1.4ZM8 11.2a.8.8 0 0 0 0 1.6h8a.8.8 0 0 0 0-1.6H8Z" clip-rule="evenodd"/></svg>
