<svg xmlns="http://www.w3.org/2000/svg" viewBox="0 0 24 24"><path fill-rule="evenodd" d="M9.59,3.47h9.69c.69,0,1.25.56,1.25,1.25v9.69c0,.69-.56,1.25-1.25,1.25h-9.69c-.69,0-1.25-.56-1.25-1.25V4.72c0-.69.56-1.25,1.25-1.25ZM6.59,4.72c0-1.66,1.34-3,3-3h9.69c1.66,0,3,1.34,3,3v9.69c0,1.66-1.34,3-3,3h-9.69c-1.66,0-3-1.34-3-3V4.72ZM3.47,9.28c0-.48-.39-.88-.88-.88s-.88.39-.88.88v10.11c0,.88.25,1.66.85,2.2.58.52,1.34.69,2.08.69h10.22c.48,0,.88-.39.88-.87s-.39-.88-.88-.88H4.65c-.51,0-.77-.12-.91-.24-.12-.11-.27-.34-.27-.9v-10.11Z" /></svg>
