<svg xmlns="http://www.w3.org/2000/svg" viewBox="0 0 24 24"><path d="M20.63,2.5h-7.88c-.48,0-.88.39-.88.88s.39.88.88.88h5.76l-9.3,9.3c-.34.34-.34.9,0,1.24s.9.34,1.24,0l9.3-9.3v5.76c0,.48.39.88.88.88s.88-.39.88-.88V3.37c0-.48-.39-.88-.88-.88ZM10.09,6.24c0,.48-.39.88-.88.88h-1.43s-2.29.01-2.29.01c-.69,0-1.25.56-1.25,1.25v10.13c0,.69.56,1.25,1.25,1.25h10.13c.69,0,1.25-.56,1.25-1.25v-1.81h0v-1.91c0-.48.39-.88.88-.88s.88.39.88.88v3.54h0v.18c0,1.66-1.34,3-3,3H5.5c-1.66,0-3-1.34-3-3v-10.13c0-1.65,1.34-2.99,2.99-3h0s3.73-.01,3.73-.01c.48,0,.88.39.88.88Z" />
      </svg>
