<svg xmlns="http://www.w3.org/2000/svg" viewBox="0 0 24 24"><path d="M2.09,8.9c.48,0,.88.39.88.88v10.11c0,.56.15.79.27.9.14.12.41.24.91.24h10.22c.48,0,.88.39.88.88s-.39.88-.88.88H4.15c-.74,0-1.5-.17-2.08-.69-.6-.54-.85-1.31-.85-2.2v-10.11c0-.48.39-.88.88-.88Z" /><path d="M14.75.5h7.88c.48,0,.88.39.88.87v7.87c0,.48-.39.87-.88.87s-.88-.39-.88-.87V3.49l-9.3,9.3c-.34.34-.9.34-1.24,0-.34-.34-.34-.9,0-1.24L20.52,2.25h-5.76c-.48,0-.88-.39-.88-.88s.39-.87.88-.87Z" /><path d="M11.27,3.96c.48,0,.88-.39.88-.87s-.39-.88-.88-.88h-1.3s-.88,0-.88,0c-1.66,0-3,1.34-3,3v9.69c0,1.66,1.34,3,3,3h9.69c1.66,0,3-1.34,3-3v-2.18h0v-.05c0-.48-.39-.88-.88-.88s-.88.39-.88.88v1.38h0v.85c0,.69-.56,1.25-1.25,1.25h-9.69c-.69,0-1.25-.56-1.25-1.25V5.22c0-.69.56-1.25,1.25-1.25h2.18Z" />
      </svg>
