<svg xmlns="http://www.w3.org/2000/svg" viewBox="0 0 24 24"><path d="M17.73,9.14v-2.61c0-3.16-2.57-5.73-5.73-5.73s-5.73,2.57-5.73,5.73v2.61c-1.69.7-2.88,2.36-2.88,4.3v5.1c0,2.57,2.09,4.66,4.66,4.66h7.9c2.57,0,4.66-2.09,4.66-4.66v-5.1c0-1.94-1.19-3.6-2.88-4.3ZM8.02,6.53c0-2.19,1.79-3.98,3.98-3.98s3.98,1.79,3.98,3.98v2.25s-.02,0-.03,0h-7.9s-.02,0-.03,0v-2.25ZM18.86,18.54c0,1.6-1.31,2.91-2.91,2.91h-7.9c-1.6,0-2.91-1.31-2.91-2.91v-5.1c0-1.6,1.3-2.91,2.91-2.91h7.9c1.6,0,2.91,1.31,2.91,2.91v5.1Z" />
         <path d="M12,14.4c-.89,0-1.61.72-1.61,1.61s.72,1.61,1.61,1.61,1.61-.72,1.61-1.61-.72-1.61-1.61-1.61Z" />
      </svg>
