<svg style="position: absolute; width: 0; height: 0; overflow: hidden;" version="1.1" xmlns="http://www.w3.org/2000/svg">
   <defs>
      <symbol id="logo" viewBox="0 0 148 56">
         <path d="M74.407 5.47603C75.6331 5.47603 76.627 4.52183 76.627 3.34476C76.627 2.1677 75.6331 1.2135 74.407 1.2135C73.1809 1.2135 72.187 2.1677 72.187 3.34476C72.187 4.52183 73.1809 5.47603 74.407 5.47603Z" />
         <path d="M111.987 25.3878C114.503 25.3878 116.883 24.4778 118.671 22.8255C120.534 21.1133 121.545 18.7545 121.545 16.1803C121.545 13.606 120.521 11.2472 118.671 9.53502C116.883 7.88269 114.515 6.97272 111.987 6.97272C109.471 6.97272 107.09 7.88269 105.302 9.53502C103.44 11.2472 102.428 13.606 102.428 16.1803C102.428 18.7545 103.452 21.1133 105.302 22.8255C107.09 24.4778 109.471 25.3878 111.987 25.3878ZM107.917 12.2171C108.891 11.1395 110.297 10.5647 111.987 10.5647C113.676 10.5647 115.082 11.1395 116.057 12.2171C116.957 13.2109 117.45 14.6237 117.45 16.1922C117.45 17.7607 116.957 19.1736 116.057 20.1674C115.082 21.245 113.676 21.8197 111.987 21.8197C110.297 21.8197 108.891 21.245 107.917 20.1674C107.016 19.1736 106.523 17.7607 106.523 16.1922C106.523 14.6237 107.016 13.2109 107.917 12.2171Z"/>
         <path d="M97.9514 5.47603C99.1775 5.47603 100.171 4.52183 100.171 3.34476C100.171 2.1677 99.1775 1.2135 97.9514 1.2135C96.7254 1.2135 95.7314 2.1677 95.7314 3.34476C95.7314 4.52183 96.7254 5.47603 97.9514 5.47603Z"/>
         <path d="M128.119 14.3842C128.193 12.2769 130.043 10.5647 132.238 10.5647C134.631 10.5647 135.852 11.7381 135.975 14.1448V25.0166H140.07V14.1448C140.07 9.79843 137.147 6.98468 132.633 6.98468C130.425 6.98468 128.859 8.28978 128.291 8.85253L128.181 8.96029L127.724 7.34388L124.049 8.30175V25.0046H128.143L128.119 14.3842Z"/>
         <path d="M72.3843 19.7603V25.0166H76.3926V7.35587L72.3843 8.40952V19.7603Z"/>
         <path d="M17.8096 19.7603V25.0166H21.8302V7.35587L17.8096 8.40952V19.7603Z"/>
         <path d="M95.9287 19.7603V25.0166H99.9494V7.35587L95.9287 8.40952V19.7603Z"/>
         <path d="M142.055 26.3097L145.237 25.4836C146.298 25.1962 147.063 24.2623 147.063 23.1488C147.063 21.7479 145.854 20.6343 144.399 20.7182C143.116 20.79 142.092 21.8317 142.055 23.0769C142.043 23.6636 142.24 24.2024 142.573 24.6335C142.771 24.8729 142.783 25.2082 142.61 25.4716L142.055 26.3097Z"/>
         <path d="M86.4072 21.8916C84.2242 21.8916 83.1142 20.1794 82.7688 18.9581L79.1182 19.904L79.1798 20.1554C79.9938 23.3763 82.7688 25.3878 86.4072 25.3878C88.1955 25.3878 89.8728 24.8131 91.1308 23.7833C92.3888 22.7536 93.0795 21.3647 93.0795 19.892C93.0795 17.9643 92.1668 15.4738 87.7885 14.5519L85.8645 14.1807C84.3968 13.9053 83.6568 13.2707 83.6568 12.2889C83.6568 11.2592 84.7668 10.4809 86.2345 10.4809C88.0722 10.4809 88.8615 11.7142 89.0712 12.3368L92.7095 11.3909C91.9572 8.79266 89.3672 6.98468 86.2345 6.98468C82.0288 6.98468 79.7595 9.71461 79.7595 12.2889C79.7595 14.959 81.6342 16.8867 85.0505 17.7009C85.6178 17.8326 86.2962 17.9882 86.9868 18.108C88.9355 18.4312 89.1945 19.1856 89.1945 19.88C89.1822 21.2809 87.7885 21.8916 86.4072 21.8916Z"/>
         <path d="M27.5282 25.0166H31.5489V10.9359H34.1142V7.35586H31.5489V2.87781L27.5282 3.91949V7.35586H24.9629V10.9359H27.5282V25.0166Z"/>
         <path d="M19.8318 5.47603C21.0579 5.47603 22.0518 4.52183 22.0518 3.34476C22.0518 2.1677 21.0579 1.2135 19.8318 1.2135C18.6057 1.2135 17.6118 2.1677 17.6118 3.34476C17.6118 4.52183 18.6057 5.47603 19.8318 5.47603Z"/>
         <path d="M8.28802 21.8916C6.10502 21.8916 4.99502 20.1794 4.64969 18.9581L0.999023 19.904L1.06069 20.1554C1.87469 23.3763 4.64969 25.3878 8.28802 25.3878C10.0764 25.3878 11.7537 24.8131 13.0117 23.7833C14.2697 22.7536 14.9604 21.3647 14.9604 19.892C14.9604 17.9643 14.0477 15.4738 9.66936 14.5519L7.74536 14.1807C6.27769 13.9053 5.53769 13.2707 5.53769 12.2889C5.53769 11.2592 6.64769 10.4809 8.11536 10.4809C9.95302 10.4809 10.7424 11.7142 10.952 12.3368L14.5904 11.3909C13.838 8.79266 11.248 6.98468 8.11536 6.98468C3.90969 6.98468 1.64036 9.71461 1.64036 12.2889C1.64036 14.959 3.51502 16.8867 6.93136 17.7009C7.49869 17.8326 8.17702 17.9882 8.86769 18.108C10.8164 18.4312 11.0754 19.1856 11.0754 19.88C11.063 21.2809 9.66936 21.8916 8.28802 21.8916Z"/>
         <path d="M70.4848 7.36783H66.2175L61.8022 17.4135L57.3868 7.36783H53.1318L61.8022 25.3878L70.4848 7.36783Z"/>
         <path d="M44.511 25.3878C47.027 25.3878 49.4073 24.4778 51.1956 22.8255C52.355 21.7479 53.1936 20.4188 53.6623 18.9461H49.395C49.1853 19.4011 48.914 19.8082 48.5933 20.1674C47.619 21.245 46.213 21.8197 44.5233 21.8197C42.8336 21.8197 41.4276 21.245 40.4533 20.1674C40.1943 19.88 39.9846 19.5687 39.7873 19.2215L54.0446 15.5097C53.8843 13.1989 52.8853 11.1035 51.1956 9.54699C49.4073 7.89466 47.0393 6.98468 44.511 6.98468C41.995 6.98468 39.6146 7.89466 37.8263 9.54699C35.9763 11.2592 34.9526 13.6179 34.9526 16.1922C34.9526 18.7665 35.9763 21.1253 37.8263 22.8375C39.6146 24.4778 41.9826 25.3878 44.511 25.3878ZM40.4286 12.2171C41.403 11.1394 42.809 10.5647 44.4986 10.5647C46.1883 10.5647 47.5943 11.1394 48.5686 12.2171C48.8276 12.5044 49.0373 12.8157 49.2223 13.163L39.0596 15.8091C39.1336 14.3842 39.6146 13.127 40.4286 12.2171Z"/>
         <path d="M58.6546 48.0203C56.9106 48.0203 55.6226 47.5163 54.7906 46.5083C53.9746 45.4843 53.5666 44.0683 53.5666 42.2603C53.5666 41.0123 53.7506 39.9403 54.1186 39.0443C54.5026 38.1483 55.0706 37.4603 55.8226 36.9803C56.5906 36.5003 57.5426 36.2603 58.6786 36.2603C59.6866 36.2603 60.5026 36.4363 61.1266 36.7883C61.7506 37.1243 62.2306 37.5803 62.5666 38.1563C62.9026 38.7163 63.1266 39.3323 63.2386 40.0043C63.3666 40.6763 63.4306 41.3483 63.4306 42.0203V42.2363H55.3666L55.3906 41.4683H61.1986C61.1986 40.5083 61.1186 39.7003 60.9586 39.0443C60.8146 38.3723 60.5586 37.8683 60.1906 37.5323C59.8386 37.1803 59.3426 37.0043 58.7026 37.0043C58.0306 37.0043 57.4786 37.1883 57.0466 37.5563C56.6306 37.9243 56.3186 38.4683 56.1106 39.1883C55.9186 39.8923 55.8146 40.7643 55.7986 41.8043C55.7986 42.4923 55.8386 43.1483 55.9186 43.7723C56.0146 44.3963 56.1826 44.9563 56.4226 45.4523C56.6786 45.9483 57.0306 46.3403 57.4786 46.6283C57.9426 46.9163 58.5426 47.0603 59.2786 47.0603C59.9666 47.0603 60.5346 46.9403 60.9826 46.7003C61.4306 46.4443 61.7906 46.1163 62.0626 45.7163C62.3346 45.3163 62.5426 44.9083 62.6866 44.4923L63.3346 44.7803C63.1586 45.3243 62.8946 45.8443 62.5426 46.3403C62.2066 46.8363 61.7266 47.2443 61.1026 47.5643C60.4946 47.8683 59.6786 48.0203 58.6546 48.0203ZM72.5713 47.7563V47.0603C73.0513 47.0603 73.4033 47.0363 73.6273 46.9883C73.8513 46.9403 73.9953 46.8283 74.0593 46.6523C74.1233 46.4763 74.1553 46.1963 74.1553 45.8123V39.9803C74.1553 39.5003 74.0833 39.0683 73.9393 38.6843C73.7953 38.3003 73.5553 37.9963 73.2193 37.7723C72.8993 37.5323 72.4673 37.4123 71.9233 37.4123C71.1873 37.4123 70.5873 37.6123 70.1233 38.0123C69.6593 38.4123 69.2433 38.8763 68.8753 39.4043V38.3723C69.2593 37.8923 69.6513 37.5003 70.0513 37.1963C70.4513 36.8763 70.8833 36.6443 71.3473 36.5003C71.8273 36.3403 72.3553 36.2603 72.9313 36.2603C74.0193 36.2603 74.8273 36.5483 75.3553 37.1243C75.8993 37.7003 76.1713 38.5643 76.1713 39.7163V45.7643C76.1713 46.1323 76.2033 46.4123 76.2673 46.6043C76.3313 46.7803 76.4753 46.9003 76.6993 46.9643C76.9393 47.0283 77.3153 47.0603 77.8273 47.0603V47.7563H72.5713ZM65.3953 47.7563V47.0603C65.9233 47.0603 66.2993 47.0283 66.5233 46.9643C66.7473 46.9003 66.8833 46.7803 66.9313 46.6043C66.9953 46.4123 67.0273 46.1323 67.0273 45.7643V38.6123C67.0273 38.1963 66.9793 37.9243 66.8833 37.7963C66.7873 37.6523 66.6033 37.5803 66.3313 37.5803H65.5153V36.8603L68.3473 36.3803H68.9953V38.1563H69.0673V45.8123C69.0673 46.1963 69.0993 46.4763 69.1633 46.6523C69.2273 46.8283 69.3713 46.9403 69.5953 46.9883C69.8353 47.0363 70.1873 47.0603 70.6513 47.0603V47.7563H65.3953ZM83.7292 47.7563L80.1292 38.2043C79.9692 37.8043 79.7932 37.5403 79.6012 37.4123C79.4092 37.2843 79.0492 37.2203 78.5212 37.2203V36.5243H83.5132V37.2203H82.5532C82.3292 37.2203 82.1852 37.2923 82.1212 37.4363C82.0732 37.5803 82.0812 37.7563 82.1452 37.9643L84.9052 45.4763H84.9532L87.6892 37.9403C87.7532 37.7643 87.7612 37.6043 87.7132 37.4603C87.6652 37.3003 87.5372 37.2203 87.3292 37.2203H86.2732V36.5243H90.2812V37.2203C89.7692 37.2203 89.4092 37.2923 89.2012 37.4363C88.9932 37.5803 88.8092 37.8363 88.6492 38.2043L84.8812 47.7563H83.7292ZM91.2697 47.7563V47.0603C91.7817 47.0603 92.1497 47.0283 92.3737 46.9643C92.6137 46.9003 92.7577 46.7803 92.8057 46.6043C92.8697 46.4123 92.9017 46.1323 92.9017 45.7643V38.6123C92.9017 38.1963 92.8537 37.9243 92.7577 37.7963C92.6617 37.6523 92.4777 37.5803 92.2057 37.5803H91.3657V36.8603L94.2937 36.3803H94.9417V45.7643C94.9417 46.1483 94.9737 46.4363 95.0377 46.6283C95.1017 46.8043 95.2457 46.9243 95.4697 46.9883C95.7097 47.0363 96.0857 47.0603 96.5977 47.0603V47.7563H91.2697ZM93.8617 34.2683C93.4617 34.2683 93.1417 34.1403 92.9017 33.8843C92.6617 33.6283 92.5417 33.3243 92.5417 32.9723C92.5417 32.5883 92.6617 32.2683 92.9017 32.0123C93.1417 31.7563 93.4617 31.6283 93.8617 31.6283C94.1337 31.6283 94.3657 31.6923 94.5577 31.8203C94.7657 31.9323 94.9177 32.0923 95.0137 32.3003C95.1257 32.4923 95.1817 32.7163 95.1817 32.9723C95.1817 33.3243 95.0537 33.6283 94.7977 33.8843C94.5577 34.1403 94.2457 34.2683 93.8617 34.2683ZM102.859 48.0203C102.331 48.0043 101.899 47.9403 101.563 47.8283C101.243 47.7323 100.971 47.6363 100.747 47.5403C100.523 47.4283 100.291 47.3723 100.051 47.3723C99.8753 47.3723 99.7473 47.4123 99.6673 47.4923C99.5873 47.5723 99.5073 47.6843 99.4273 47.8283H98.9713L98.7313 43.8683H99.2113C99.5313 45.0203 100.003 45.8763 100.627 46.4363C101.267 46.9803 102.003 47.2523 102.835 47.2523C103.523 47.2523 104.083 47.0843 104.515 46.7483C104.947 46.4123 105.163 45.9243 105.163 45.2843C105.163 44.7883 105.035 44.3963 104.779 44.1083C104.523 43.8203 104.187 43.5803 103.771 43.3883C103.355 43.1803 102.915 42.9883 102.451 42.8123L101.851 42.5963C100.955 42.2283 100.259 41.8283 99.7633 41.3963C99.2673 40.9643 99.0193 40.3403 99.0193 39.5243C99.0193 38.5003 99.3793 37.7003 100.099 37.1243C100.819 36.5483 101.763 36.2603 102.931 36.2603C103.395 36.2603 103.763 36.3003 104.035 36.3803C104.323 36.4443 104.555 36.5163 104.731 36.5963C104.923 36.6603 105.107 36.6923 105.283 36.6923C105.507 36.6923 105.643 36.6363 105.691 36.5243C105.739 36.4123 105.771 36.3243 105.787 36.2603H106.219L106.387 39.7883H105.907C105.795 39.2603 105.619 38.7883 105.379 38.3723C105.155 37.9563 104.851 37.6283 104.467 37.3883C104.083 37.1323 103.603 37.0043 103.027 37.0043C102.387 37.0043 101.851 37.1643 101.419 37.4843C100.987 37.8043 100.771 38.2203 100.771 38.7323C100.771 39.1003 100.875 39.4283 101.083 39.7163C101.307 39.9883 101.579 40.2203 101.899 40.4123C102.235 40.5883 102.555 40.7323 102.859 40.8443L103.507 41.0603C104.243 41.3163 104.867 41.5963 105.379 41.9003C105.907 42.1883 106.307 42.5483 106.579 42.9803C106.867 43.3963 107.011 43.9163 107.011 44.5403C107.011 45.2443 106.835 45.8603 106.483 46.3883C106.131 46.9163 105.643 47.3243 105.019 47.6123C104.395 47.9003 103.675 48.0363 102.859 48.0203ZM108.965 47.7563V47.0603C109.477 47.0603 109.845 47.0283 110.069 46.9643C110.309 46.9003 110.453 46.7803 110.501 46.6043C110.565 46.4123 110.597 46.1323 110.597 45.7643V38.6123C110.597 38.1963 110.549 37.9243 110.453 37.7963C110.357 37.6523 110.173 37.5803 109.901 37.5803H109.061V36.8603L111.989 36.3803H112.637V45.7643C112.637 46.1483 112.669 46.4363 112.733 46.6283C112.797 46.8043 112.941 46.9243 113.165 46.9883C113.405 47.0363 113.781 47.0603 114.293 47.0603V47.7563H108.965ZM111.557 34.2683C111.157 34.2683 110.837 34.1403 110.597 33.8843C110.357 33.6283 110.237 33.3243 110.237 32.9723C110.237 32.5883 110.357 32.2683 110.597 32.0123C110.837 31.7563 111.157 31.6283 111.557 31.6283C111.829 31.6283 112.061 31.6923 112.253 31.8203C112.461 31.9323 112.613 32.0923 112.709 32.3003C112.821 32.4923 112.877 32.7163 112.877 32.9723C112.877 33.3243 112.749 33.6283 112.493 33.8843C112.253 34.1403 111.941 34.2683 111.557 34.2683ZM121.611 48.0203C119.835 48.0203 118.515 47.5243 117.651 46.5323C116.803 45.5243 116.379 44.0603 116.379 42.1403C116.379 40.2363 116.803 38.7803 117.651 37.7723C118.515 36.7483 119.835 36.2363 121.611 36.2363C123.387 36.2363 124.699 36.7403 125.547 37.7483C126.411 38.7563 126.843 40.2123 126.843 42.1163C126.843 44.0523 126.411 45.5243 125.547 46.5323C124.699 47.5243 123.387 48.0203 121.611 48.0203ZM121.611 47.2523C122.651 47.2523 123.403 46.8123 123.867 45.9323C124.347 45.0363 124.587 43.7643 124.587 42.1163C124.587 40.4523 124.339 39.1883 123.843 38.3243C123.363 37.4443 122.611 37.0043 121.587 37.0043C120.563 37.0043 119.811 37.4443 119.331 38.3243C118.851 39.2043 118.611 40.4763 118.611 42.1403C118.611 43.7883 118.851 45.0523 119.331 45.9323C119.827 46.8123 120.587 47.2523 121.611 47.2523ZM136.017 47.7563V47.0603C136.497 47.0603 136.849 47.0363 137.073 46.9883C137.297 46.9403 137.441 46.8283 137.505 46.6523C137.569 46.4763 137.601 46.1963 137.601 45.8123V39.9803C137.601 39.5003 137.529 39.0683 137.385 38.6843C137.241 38.3003 137.001 37.9963 136.665 37.7723C136.345 37.5323 135.913 37.4123 135.369 37.4123C134.633 37.4123 134.033 37.6123 133.569 38.0123C133.105 38.4123 132.689 38.8763 132.321 39.4043V38.3723C132.705 37.8923 133.097 37.5003 133.497 37.1963C133.897 36.8763 134.329 36.6443 134.793 36.5003C135.273 36.3403 135.801 36.2603 136.377 36.2603C137.465 36.2603 138.273 36.5483 138.801 37.1243C139.345 37.7003 139.617 38.5643 139.617 39.7163V45.7643C139.617 46.1323 139.649 46.4123 139.713 46.6043C139.777 46.7803 139.921 46.9003 140.145 46.9643C140.385 47.0283 140.761 47.0603 141.273 47.0603V47.7563H136.017ZM128.841 47.7563V47.0603C129.369 47.0603 129.745 47.0283 129.969 46.9643C130.193 46.9003 130.329 46.7803 130.377 46.6043C130.441 46.4123 130.473 46.1323 130.473 45.7643V38.6123C130.473 38.1963 130.425 37.9243 130.329 37.7963C130.233 37.6523 130.049 37.5803 129.777 37.5803H128.961V36.8603L131.793 36.3803H132.441V38.1563H132.513V45.8123C132.513 46.1963 132.545 46.4763 132.609 46.6523C132.673 46.8283 132.817 46.9403 133.041 46.9883C133.281 47.0363 133.633 47.0603 134.097 47.0603V47.7563H128.841Z"/>
      </symbol>
   </defs>
</svg>
