<svg style="position: absolute; width: 0; height: 0; overflow: hidden;" version="1.1" xmlns="http://www.w3.org/2000/svg">
<defs>
   <symbol id="colors" viewBox="0 0 64 65">
      <path fill-rule="evenodd" clip-rule="evenodd" d="M54.1728 26.8707C55.1785 27.8772 55.0597 29.5417 53.9209 30.3949L22.3799 54.026C21.4879 54.6811 20.3922 54.9988 19.2881 54.9215C18.184 54.8447 17.143 54.378 16.3505 53.6049L1.34709 38.5966C0.562277 37.8011 0.0883369 36.7505 0.0111666 35.6355C-0.0660036 34.5204 0.258701 33.4146 0.926437 32.5185L24.5491 1.01096C25.4024 -0.127153 27.0656 -0.245389 28.0712 0.760574L54.1728 26.8707ZM54.6354 47.1515C52.5129 50.3364 50.2857 54.4465 50.2857 57.2886C50.2857 62.3789 53.7143 64.0758 57.1429 64.0758C60.5714 64.0758 64 62.3789 64 57.2886C64 54.4465 61.7728 50.3364 59.6503 47.1515C58.4407 45.3362 55.845 45.3362 54.6354 47.1515Z" />
   </symbol>
   <symbol id="typography" viewBox="0 0 90 56">
      <path d="M74.4333 24.6873V27.9963L74.3526 33.0001L74.1912 38.4075C74.1374 40.183 74.1105 40.9094 74.1105 40.5865C74.1105 43.761 75.1328 45.3482 77.1774 45.3482C79.1143 45.3482 80.0828 43.9224 80.0828 41.0708C80.0828 40.6404 80.0559 40.3175 80.0021 40.1023C80.0021 39.8333 80.0021 39.4836 80.0021 39.0531C79.9483 38.6765 79.9214 38.4075 79.9214 38.246C79.9214 35.3406 81.3741 33.8879 84.2796 33.8879C87.6692 33.8879 89.3641 36.605 89.3641 42.0393C89.3641 46.2898 88.0997 49.6257 85.5709 52.0469C83.0421 54.4143 79.5179 55.598 74.9983 55.598C66.1205 55.598 61.6816 50.917 61.6816 41.555C61.6816 40.0485 61.7355 37.7887 61.8431 34.7757C62.0045 31.7626 62.0852 29.5028 62.0852 27.9963V25.4137C62.0852 24.0685 61.9507 23.2346 61.6816 22.9117C61.4664 22.5351 60.9015 22.3468 59.9868 22.3468H58.6955C57.6732 22.3468 56.8392 21.9702 56.1936 21.2169C55.5479 20.4098 55.2251 19.3875 55.2251 18.15C55.2251 16.9125 55.5479 15.8633 56.1936 15.0025C56.893 14.0878 57.7001 13.6305 58.6148 13.6305H60.1482C61.4395 13.6305 62.1928 13.2538 62.408 12.5006C62.5694 12.0701 62.6501 11.3438 62.6501 10.3215V6.36684C62.6501 4.48368 63.1344 3.19238 64.1029 2.49292C65.1251 1.79346 66.9545 1.44373 69.5909 1.44373C71.4741 1.44373 72.7385 1.71275 73.3841 2.25079C74.0836 2.78884 74.4333 3.97254 74.4333 5.8019V10.1601C74.4333 11.7204 74.5678 12.6889 74.8369 13.0655C75.1597 13.4421 75.9399 13.6305 77.1774 13.6305H82.9882C86.1627 13.6305 87.75 15.1101 87.75 18.0693C87.75 20.921 86.2972 22.3468 83.3918 22.3468H76.7738C75.6439 22.3468 74.9714 22.5351 74.7562 22.9117C74.5409 23.2884 74.4333 23.8802 74.4333 24.6873Z"/>
      <path d="M17.343 43.9762C19.1724 43.9762 20.0871 42.3082 20.0871 38.9724V15.7288C20.0871 12.1239 18.7689 10.3214 16.1324 10.3214C13.496 10.3214 12.1778 11.2361 12.1778 13.0655C12.1778 13.6035 12.2585 14.4375 12.4199 15.5674C12.6351 16.6435 12.7427 17.4505 12.7427 17.9886C12.7427 22.7772 10.7251 25.1715 6.68973 25.1715C4.80657 25.1715 3.32695 24.5796 2.25086 23.3959C1.17476 22.1584 0.636719 20.5174 0.636719 18.4728C0.636719 17.7734 0.744328 16.5089 0.959546 14.6796C1.12096 13.2807 1.20167 11.9894 1.20167 10.8057C1.20167 10.16 1.12096 8.8418 0.959546 6.85103C0.851937 5.50591 0.798132 4.42982 0.798132 3.62275C0.798132 1.25535 1.98183 0.0716553 4.34923 0.0716553C5.58674 0.0716553 7.14707 0.152361 9.03023 0.313773C13.3346 0.690406 19.3607 0.878723 27.1086 0.878723C34.9102 0.878723 40.9632 0.690406 45.2676 0.313773C47.1508 0.152361 48.6842 0.0716553 49.8679 0.0716553C52.2891 0.0716553 53.4997 1.25535 53.4997 3.62275C53.4997 4.42982 53.419 5.64043 53.2576 7.25456C53.15 8.8149 53.0962 9.9986 53.0962 10.8057C53.0962 11.6665 53.1769 12.9578 53.3383 14.6796C53.5535 16.9394 53.6611 18.2307 53.6611 18.5535C53.6611 20.5981 53.0962 22.2122 51.9663 23.3959C50.8902 24.5796 49.4375 25.1715 47.6081 25.1715C43.5728 25.1715 41.5551 22.8579 41.5551 18.2307C41.5551 17.585 41.6358 16.7242 41.7972 15.6481C41.9586 14.572 42.0393 13.7649 42.0393 13.2269C42.0393 11.2899 40.8556 10.3214 38.4882 10.3214C36.9279 10.3214 35.8249 10.725 35.1792 11.532C34.5336 12.3391 34.2108 13.738 34.2108 15.7288V38.9724C34.2108 42.3082 35.1254 43.9762 36.9548 43.9762C37.5467 43.9762 38.4075 43.8955 39.5374 43.7341C40.7211 43.5188 41.6089 43.4112 42.2007 43.4112C45.429 43.4112 47.0432 45.0254 47.0432 48.2536C47.0432 52.5042 45.0255 54.6295 40.9901 54.6295C39.4298 54.6295 37.5736 54.5219 35.4214 54.3067C32.1931 53.9838 29.4222 53.8224 27.1086 53.8224C24.7412 53.8224 21.9702 53.9838 18.7958 54.3067C16.6974 54.5219 14.8411 54.6295 13.227 54.6295C9.19164 54.6295 7.17397 52.6656 7.17397 48.7379C7.17397 45.1868 8.81501 43.4112 12.0971 43.4112C12.6889 43.4112 13.5498 43.5188 14.6797 43.7341C15.8634 43.8955 16.7512 43.9762 17.343 43.9762Z"/>
   </symbol>
   <symbol id="forms" viewBox="0 0 64 46">
      <path fill-rule="evenodd" clip-rule="evenodd" d="M0 7.07583C0 3.28872 3.07005 0.218689 6.85714 0.218689H57.1429C60.9298 0.218689 64 3.28872 64 7.07583V39.0758C64 42.8628 60.9298 45.933 57.1429 45.933H6.85714C3.07005 45.933 0 42.8628 0 39.0758V7.07583ZM29.3616 28.0959C27.7836 28.0959 26.5045 29.3751 26.5045 30.953C26.5045 32.531 27.7836 33.8102 29.3616 33.8102H38.1404C39.7184 33.8102 40.9976 32.531 40.9976 30.953C40.9976 29.3751 39.7184 28.0959 38.1404 28.0959H29.3616ZM14.2533 18.0558V30.953C14.2533 32.531 15.5325 33.8102 17.1105 33.8102C18.6885 33.8102 19.9676 32.531 19.9676 30.953V18.0558H24.0753C25.6533 18.0558 26.9325 16.7766 26.9325 15.1986C26.9325 13.6207 25.6533 12.3415 24.0753 12.3415H10.1456C8.56768 12.3415 7.2885 13.6207 7.2885 15.1986C7.2885 16.7766 8.56768 18.0558 10.1456 18.0558H14.2533Z" />
   </symbol>
   <symbol id="application" viewBox="0 0 64 65">
      <path fill-rule="evenodd" clip-rule="evenodd" d="M30.3814 3.30881C30.8937 3.0939 31.444 2.98309 32 2.98309C32.5533 2.98309 33.101 3.09284 33.6113 3.30573L58.8877 12.8687L58.8978 12.8725C59.4555 13.0864 59.9592 13.4139 60.3794 13.8315L31.9994 24.7571L3.65677 13.8459C4.10507 13.4631 4.62827 13.177 5.19367 13.0061L30.3814 3.30881ZM2.28486 19.4408V47.8376L2.28506 47.8673C2.29646 48.7451 2.57052 49.5995 3.07193 50.3204C3.57334 51.0413 4.27911 51.5953 5.09826 51.9112L5.09973 51.9117L29.1424 61.1684V29.7804L2.28486 19.4408ZM34.8567 29.7803V61.1684L58.9005 51.9117L58.9019 51.9112C59.7211 51.5953 60.4269 51.0413 60.9279 50.3204C61.4294 49.5995 61.7037 48.7451 61.7151 47.8673V19.4404L34.8567 29.7803Z"/>
   </symbol>
   <symbol id="utils" viewBox="0 0 64 65">
      <g clip-path="url(#clip0_34_18501)">
         <path fill-rule="evenodd" clip-rule="evenodd" d="M47.8966 0.631296C44.2867 -0.0885715 40.5473 0.219571 37.1041 1.52064C33.6608 2.82171 30.652 5.06341 28.4202 7.99059C26.1885 10.9177 24.8235 14.4127 24.4805 18.0775C24.2097 20.9722 24.5851 23.8809 25.5678 26.5969L2.10754 50.0573C-0.609044 52.7736 -0.563997 57.1919 2.20742 59.8525L4.77099 62.3133C7.45314 64.8884 11.6987 64.8568 14.3421 62.242L38.1257 38.7158C40.751 39.5663 43.5352 39.8588 46.298 39.5626C49.9218 39.1741 53.3672 37.7881 56.25 35.5587C59.1332 33.3293 61.3416 30.344 62.6299 26.9345C63.9167 23.5279 64.234 19.8313 63.5469 16.2552C63.4002 15.4642 63.0888 14.7128 62.6335 14.0494C62.1764 13.3835 61.5844 12.8211 60.8959 12.3988C59.9949 11.846 58.8324 11.9834 58.0845 12.7309L48.9416 21.8738L48.9124 21.9038C48.6994 22.125 48.4434 22.3009 48.1608 22.4211C47.8779 22.5414 47.5739 22.6033 47.2667 22.6033C46.9595 22.6033 46.6555 22.5414 46.3725 22.4211C46.09 22.3009 45.834 22.125 45.621 21.9038C45.5819 21.8632 45.5413 21.8241 45.4993 21.7866L42.0904 18.7366C41.6985 18.3144 41.4799 17.759 41.4799 17.1814C41.4799 16.5863 41.712 16.0148 42.1267 15.5883L51.2603 6.45482C51.9195 5.79539 52.1124 4.80141 51.7467 3.94331C51.4162 3.16674 50.9192 2.47231 50.2907 1.90916C49.6616 1.346 48.917 0.927875 48.1092 0.684361C48.0392 0.663288 47.9679 0.645579 47.8966 0.631296Z"/>
      </g>
      <defs>
         <clipPath id="clip0_34_18501">
            <rect width="64" height="64" fill="white" transform="translate(0 0.238281)"/>
         </clipPath>
      </defs>
   </symbol>
   <symbol id="layout" viewBox="0 0 64 65">
      <path fill-rule="evenodd" clip-rule="evenodd" d="M61.7142 9.38119C61.7142 5.59408 58.644 2.52405 54.8571 2.52405H9.14279C5.35568 2.52405 2.28564 5.59408 2.28564 9.38119V15.6669H61.7142V9.38119ZM38.2856 21.3812H2.28564V55.0955C2.28564 58.8825 5.35568 61.9526 9.14279 61.9526H38.2856V21.3812ZM43.9999 61.9526V21.3812H61.7142V55.0955C61.7142 58.8825 58.644 61.9526 54.8571 61.9526H43.9999Z"/>
   </symbol>
   <symbol id="dashboard" viewBox="0 0 70 55">
      <path fill-rule="evenodd" clip-rule="evenodd" d="M35 0.131104C15.9462 0.131104 0.5 15.5773 0.5 34.6311C0.5 41.4671 2.49075 47.8456 5.92503 53.2098C6.37801 53.9176 7.16027 54.3454 8.0004 54.3454H61.9997C62.8395 54.3454 63.6222 53.9176 64.0751 53.2098C67.5094 47.8456 69.5 41.4671 69.5 34.6311C69.5 15.5773 54.0539 0.131104 35 0.131104ZM32.6607 44.4882L44.1518 25.3365C45.2021 23.5859 47.4727 23.0183 49.2232 24.0686C50.974 25.1189 51.5413 27.3895 50.491 29.14L41.2822 44.4882H32.6607Z"/>
   </symbol>
</defs>
</svg>
