<svg style="position: absolute; width: 0; height: 0; overflow: hidden;" version="1.1" xmlns="http://www.w3.org/2000/svg">
<defs>
   <symbol id="accordion" viewBox="0 0 216 106" fill="none">
      <rect width="158" height="53.7017" transform="translate(29 0.539795)" fill="white"/>
      <path d="M37 13.3445C37 10.6909 39.1511 8.53979 41.8047 8.53979H172.195C174.849 8.53979 177 10.6909 177 13.3445C177 15.998 174.849 18.1492 172.195 18.1492H41.8047C39.1511 18.1492 37 15.998 37 13.3445Z" fill="#96A097"/>
      <path d="M37 26.9979C37 25.9769 37.8277 25.1492 38.8487 25.1492H103.549C104.57 25.1492 105.398 25.9769 105.398 26.9979C105.398 28.0189 104.57 28.8466 103.549 28.8466H38.8487C37.8277 28.8466 37 28.0189 37 26.9979Z" fill="#96A097"/>
      <path d="M110.398 26.9979C110.398 25.9769 111.226 25.1492 112.247 25.1492H147.902C148.923 25.1492 149.751 25.9769 149.751 26.9979C149.751 28.0189 148.923 28.8466 147.902 28.8466H112.247C111.226 28.8466 110.398 28.0189 110.398 26.9979Z" fill="#96A097"/>
      <path d="M37 35.6953C37 34.6743 37.8277 33.8466 38.8487 33.8466H82.4506C83.4716 33.8466 84.2993 34.6743 84.2993 35.6953C84.2993 36.7164 83.4716 37.5441 82.4506 37.5441H38.8487C37.8277 37.5441 37 36.7164 37 35.6953Z" fill="#96A097"/>
      <path d="M89.2993 35.6953C89.2993 34.6743 90.127 33.8466 91.148 33.8466H114.622C115.643 33.8466 116.471 34.6743 116.471 35.6953C116.471 36.7164 115.643 37.5441 114.622 37.5441H91.148C90.127 37.5441 89.2993 36.7164 89.2993 35.6953Z" fill="#96A097"/>
      <path d="M121.471 35.6953C121.471 34.6743 122.299 33.8466 123.32 33.8466H166.922C167.943 33.8466 168.771 34.6743 168.771 35.6953C168.771 36.7164 167.943 37.5441 166.922 37.5441H123.32C122.299 37.5441 121.471 36.7164 121.471 35.6953Z" fill="#96A097"/>
      <path d="M37 44.3928C37 43.3718 37.8277 42.5441 38.8487 42.5441H94.8022C95.8232 42.5441 96.6509 43.3718 96.6509 44.3928C96.6509 45.4138 95.8232 46.2415 94.8022 46.2415H38.8487C37.8277 46.2415 37 45.4138 37 44.3928Z" fill="#96A097"/>
      <path d="M101.651 44.3928C101.651 43.3718 102.479 42.5441 103.5 42.5441H143.04C144.061 42.5441 144.889 43.3718 144.889 44.3928C144.889 45.4138 144.061 46.2415 143.04 46.2415H103.5C102.479 46.2415 101.651 45.4138 101.651 44.3928Z" fill="#96A097"/>
      <rect width="158" height="25.6094" transform="translate(29 54.2415)" fill="white"/>
      <path d="M37 67.0462C37 64.3926 39.1511 62.2415 41.8047 62.2415H172.195C174.849 62.2415 177 64.3926 177 67.0462C177 69.6998 174.849 71.8509 172.195 71.8509H41.8047C39.1511 71.8509 37 69.6998 37 67.0462Z" fill="#96A097"/>
      <rect width="158" height="25.6094" transform="translate(29 79.8509)" fill="white"/>
      <path d="M37 92.6556C37 90.002 39.1511 87.8509 41.8047 87.8509H172.195C174.849 87.8509 177 90.002 177 92.6556C177 95.3091 174.849 97.4603 172.195 97.4603H41.8047C39.1511 97.4603 37 95.3091 37 92.6556Z" fill="#96A097"/>
   </symbol>
</defs>
</svg>
