<svg style="position: absolute; width: 0; height: 0; overflow: hidden;" version="1.1" xmlns="http://www.w3.org/2000/svg">
   <defs>
      <symbol id="text" viewBox="0 0 16.758 13.906">
         <path
            d="M7.131 12.479H6.24a.178.178 0 0 1-.178-.178V1.604a.178.178 0 0 1 .178-.178h2.7a.328.328 0 0 1 .33.324v1.1a.713.713 0 0 0 1.426 0v-1.1A1.754 1.754 0 0 0 8.942 0H1.75A1.754 1.754 0 0 0 0 1.75v1.1a.713.713 0 1 0 1.426 0v-1.1a.328.328 0 0 1 .324-.324h2.7a.178.178 0 0 1 .178.178v10.7a.178.178 0 0 1-.178.178h-.884a.713.713 0 1 0 0 1.426h3.565a.713.713 0 1 0 0-1.426Z"/>
         <path
            d="M16.758 6.061a1.426 1.426 0 0 0-1.426-1.426H10.34a1.426 1.426 0 0 0-1.426 1.426v.713a.713.713 0 1 0 1.426 0v-.535a.178.178 0 0 1 .178-.178h1.426a.178.178 0 0 1 .178.178V12.3a.178.178 0 0 1-.178.178h-.535a.713.713 0 0 0 0 1.426h2.855a.713.713 0 0 0 0-1.426h-.535a.178.178 0 0 1-.178-.178V6.239a.178.178 0 0 1 .178-.178h1.425a.178.178 0 0 1 .178.178v.535a.713.713 0 1 0 1.426 0Z"/>
      </symbol>
      <symbol id="exclamation"
         viewBox="0 0 40 41">
         <path
            d="M20 .506A20.385 20.385 0 0 0 5.783 6.589 19.744 19.744 0 0 0 0 20.856c0 10.85 8.767 19.633 19.617 19.65H20c11.133-.1 20.083-9.217 20-20.35C40.017 9.322 31.25.522 20.417.506H20Zm-2.5 27.567a2.463 2.463 0 0 1 2.367-2.567H20a2.537 2.537 0 0 1 2.533 2.45c.05 1.35-1 2.5-2.35 2.55h-.1a2.545 2.545 0 0 1-2.583-2.433Zm.833-6.667v-10c0-.917.75-1.667 1.667-1.667s1.667.75 1.667 1.667v10c0 .917-.75 1.667-1.667 1.667s-1.667-.75-1.667-1.667Z"
         />
      </symbol>
      <symbol id="moon" viewBox="0 0 24 24"
      >
         <path d="M12 11.807C10.7418 10.5483 9.88488 8.94484 9.53762 7.1993C9.19037 5.45375 9.36832 3.64444 10.049 2C8.10826 2.38205 6.3256 3.33431 4.92899 4.735C1.02399 8.64 1.02399 14.972 4.92899 18.877C8.83499 22.783 15.166 22.782 19.072 18.877C20.4723 17.4805 21.4245 15.6983 21.807 13.758C20.1625 14.4385 18.3533 14.6164 16.6077 14.2692C14.8622 13.9219 13.2588 13.0651 12 11.807V11.807Z" />
      </symbol>
      <symbol
         id="sun"
         viewBox="0 0 24 24"
      >
         <path d="M6.995 12C6.995 14.761 9.241 17.007 12.002 17.007C14.763 17.007 17.009 14.761 17.009 12C17.009 9.239 14.763 6.993 12.002 6.993C9.241 6.993 6.995 9.239 6.995 12ZM11 19H13V22H11V19ZM11 2H13V5H11V2ZM2 11H5V13H2V11ZM19 11H22V13H19V11Z" />
         <path d="M5.63702 19.778L4.22302 18.364L6.34402 16.243L7.75802 17.657L5.63702 19.778Z" />
         <path d="M16.242 6.34405L18.364 4.22205L19.778 5.63605L17.656 7.75805L16.242 6.34405Z" />
         <path d="M6.34402 7.75902L4.22302 5.63702L5.63802 4.22302L7.75802 6.34502L6.34402 7.75902Z" />
         <path d="M19.778 18.3639L18.364 19.7779L16.242 17.6559L17.656 16.2419L19.778 18.3639Z" />
      </symbol>
   </defs>
</svg>
