<svg style="position: absolute; width: 0; height: 0; overflow: hidden;" version="1.1" xmlns="http://www.w3.org/2000/svg"
     xmlns:xlink="http://www.w3.org/1999/xlink">
   <defs>
      <symbol id="text" viewBox="0 0 16.758 13.906">
         <path
            d="M7.131 12.479H6.24a.178.178 0 0 1-.178-.178V1.604a.178.178 0 0 1 .178-.178h2.7a.328.328 0 0 1 .33.324v1.1a.713.713 0 0 0 1.426 0v-1.1A1.754 1.754 0 0 0 8.942 0H1.75A1.754 1.754 0 0 0 0 1.75v1.1a.713.713 0 1 0 1.426 0v-1.1a.328.328 0 0 1 .324-.324h2.7a.178.178 0 0 1 .178.178v10.7a.178.178 0 0 1-.178.178h-.884a.713.713 0 1 0 0 1.426h3.565a.713.713 0 1 0 0-1.426Z"/>
         <path
            d="M16.758 6.061a1.426 1.426 0 0 0-1.426-1.426H10.34a1.426 1.426 0 0 0-1.426 1.426v.713a.713.713 0 1 0 1.426 0v-.535a.178.178 0 0 1 .178-.178h1.426a.178.178 0 0 1 .178.178V12.3a.178.178 0 0 1-.178.178h-.535a.713.713 0 0 0 0 1.426h2.855a.713.713 0 0 0 0-1.426h-.535a.178.178 0 0 1-.178-.178V6.239a.178.178 0 0 1 .178-.178h1.425a.178.178 0 0 1 .178.178v.535a.713.713 0 1 0 1.426 0Z"/>
      </symbol>
   </defs>
</svg>
