<svg style="position: absolute; width: 0; height: 0; overflow: hidden;" version="1.1" xmlns="http://www.w3.org/2000/svg">
<defs>
   <symbol id="colors" viewBox="0 0 64 65">
      <path fill-rule="evenodd" clip-rule="evenodd" d="M54.1728 26.8707C55.1785 27.8772 55.0597 29.5417 53.9209 30.3949L22.3799 54.026C21.4879 54.6811 20.3922 54.9988 19.2881 54.9215C18.184 54.8447 17.143 54.378 16.3505 53.6049L1.34709 38.5966C0.562277 37.8011 0.0883369 36.7505 0.0111666 35.6355C-0.0660036 34.5204 0.258701 33.4146 0.926437 32.5185L24.5491 1.01096C25.4024 -0.127153 27.0656 -0.245389 28.0712 0.760574L54.1728 26.8707ZM54.6354 47.1515C52.5129 50.3364 50.2857 54.4465 50.2857 57.2886C50.2857 62.3789 53.7143 64.0758 57.1429 64.0758C60.5714 64.0758 64 62.3789 64 57.2886C64 54.4465 61.7728 50.3364 59.6503 47.1515C58.4407 45.3362 55.845 45.3362 54.6354 47.1515Z" />
   </symbol>
   <symbol id="typography" viewBox="0 0 60 60">
      <path fill-rule="evenodd" clip-rule="evenodd" d="M0.285645 7.21865C0.285645 3.43155 3.35568 0.361511 7.14279 0.361511H52.8571C56.644 0.361511 59.7142 3.43155 59.7142 7.21865V52.9329C59.7142 56.7199 56.644 59.7901 52.8571 59.7901H7.14279C3.35568 59.7901 0.285645 56.7199 0.285645 52.9329V7.21865ZM29.9997 19.2187C29.8645 19.2187 29.7445 19.3052 29.7017 19.4334L25.5829 31.7901H34.4166L30.2978 19.4334C30.255 19.3052 30.135 19.2187 29.9997 19.2187ZM15.8606 42.8866L18.8851 33.8131C18.8995 33.7661 18.9149 33.7196 18.9316 33.6737L24.2807 17.6264C25.1012 15.1648 27.4049 13.5044 29.9997 13.5044C32.5945 13.5044 34.8983 15.1648 35.7188 17.6264L41.0726 33.688C41.081 33.7115 41.0892 33.7353 41.097 33.7592C41.1012 33.7723 41.1054 33.7855 41.1095 33.7986L44.1389 42.8866C44.6376 44.3835 43.829 46.0017 42.3318 46.5005C40.8349 46.9997 39.2168 46.1905 38.7178 44.6934L36.3214 37.5044H23.6781L21.2817 44.6934C20.7827 46.1905 19.1646 46.9997 17.6677 46.5005C16.1707 46.0017 15.3617 44.3835 15.8606 42.8866Z" />
   </symbol>
   <symbol id="forms" viewBox="0 0 64 46">
      <path fill-rule="evenodd" clip-rule="evenodd" d="M0 7.07583C0 3.28872 3.07005 0.218689 6.85714 0.218689H57.1429C60.9298 0.218689 64 3.28872 64 7.07583V39.0758C64 42.8628 60.9298 45.933 57.1429 45.933H6.85714C3.07005 45.933 0 42.8628 0 39.0758V7.07583ZM29.3616 28.0959C27.7836 28.0959 26.5045 29.3751 26.5045 30.953C26.5045 32.531 27.7836 33.8102 29.3616 33.8102H38.1404C39.7184 33.8102 40.9976 32.531 40.9976 30.953C40.9976 29.3751 39.7184 28.0959 38.1404 28.0959H29.3616ZM14.2533 18.0558V30.953C14.2533 32.531 15.5325 33.8102 17.1105 33.8102C18.6885 33.8102 19.9676 32.531 19.9676 30.953V18.0558H24.0753C25.6533 18.0558 26.9325 16.7766 26.9325 15.1986C26.9325 13.6207 25.6533 12.3415 24.0753 12.3415H10.1456C8.56768 12.3415 7.2885 13.6207 7.2885 15.1986C7.2885 16.7766 8.56768 18.0558 10.1456 18.0558H14.2533Z" />
   </symbol>
   <symbol id="application" viewBox="0 0 64 65">
      <path fill-rule="evenodd" clip-rule="evenodd" d="M30.3814 3.30881C30.8937 3.0939 31.444 2.98309 32 2.98309C32.5533 2.98309 33.101 3.09284 33.6113 3.30573L58.8877 12.8687L58.8978 12.8725C59.4555 13.0864 59.9592 13.4139 60.3794 13.8315L31.9994 24.7571L3.65677 13.8459C4.10507 13.4631 4.62827 13.177 5.19367 13.0061L30.3814 3.30881ZM2.28486 19.4408V47.8376L2.28506 47.8673C2.29646 48.7451 2.57052 49.5995 3.07193 50.3204C3.57334 51.0413 4.27911 51.5953 5.09826 51.9112L5.09973 51.9117L29.1424 61.1684V29.7804L2.28486 19.4408ZM34.8567 29.7803V61.1684L58.9005 51.9117L58.9019 51.9112C59.7211 51.5953 60.4269 51.0413 60.9279 50.3204C61.4294 49.5995 61.7037 48.7451 61.7151 47.8673V19.4404L34.8567 29.7803Z"/>
   </symbol>
   <symbol id="utils" viewBox="0 0 64 65">
      <g clip-path="url(#clip0_34_18501)">
         <path fill-rule="evenodd" clip-rule="evenodd" d="M47.8966 0.631296C44.2867 -0.0885715 40.5473 0.219571 37.1041 1.52064C33.6608 2.82171 30.652 5.06341 28.4202 7.99059C26.1885 10.9177 24.8235 14.4127 24.4805 18.0775C24.2097 20.9722 24.5851 23.8809 25.5678 26.5969L2.10754 50.0573C-0.609044 52.7736 -0.563997 57.1919 2.20742 59.8525L4.77099 62.3133C7.45314 64.8884 11.6987 64.8568 14.3421 62.242L38.1257 38.7158C40.751 39.5663 43.5352 39.8588 46.298 39.5626C49.9218 39.1741 53.3672 37.7881 56.25 35.5587C59.1332 33.3293 61.3416 30.344 62.6299 26.9345C63.9167 23.5279 64.234 19.8313 63.5469 16.2552C63.4002 15.4642 63.0888 14.7128 62.6335 14.0494C62.1764 13.3835 61.5844 12.8211 60.8959 12.3988C59.9949 11.846 58.8324 11.9834 58.0845 12.7309L48.9416 21.8738L48.9124 21.9038C48.6994 22.125 48.4434 22.3009 48.1608 22.4211C47.8779 22.5414 47.5739 22.6033 47.2667 22.6033C46.9595 22.6033 46.6555 22.5414 46.3725 22.4211C46.09 22.3009 45.834 22.125 45.621 21.9038C45.5819 21.8632 45.5413 21.8241 45.4993 21.7866L42.0904 18.7366C41.6985 18.3144 41.4799 17.759 41.4799 17.1814C41.4799 16.5863 41.712 16.0148 42.1267 15.5883L51.2603 6.45482C51.9195 5.79539 52.1124 4.80141 51.7467 3.94331C51.4162 3.16674 50.9192 2.47231 50.2907 1.90916C49.6616 1.346 48.917 0.927875 48.1092 0.684361C48.0392 0.663288 47.9679 0.645579 47.8966 0.631296Z"/>
      </g>
      <defs>
         <clipPath id="clip0_34_18501">
            <rect width="64" height="64" fill="white" transform="translate(0 0.238281)"/>
         </clipPath>
      </defs>
   </symbol>
   <symbol id="layout" viewBox="0 0 64 65">
      <path fill-rule="evenodd" clip-rule="evenodd" d="M61.7142 9.38119C61.7142 5.59408 58.644 2.52405 54.8571 2.52405H9.14279C5.35568 2.52405 2.28564 5.59408 2.28564 9.38119V15.6669H61.7142V9.38119ZM38.2856 21.3812H2.28564V55.0955C2.28564 58.8825 5.35568 61.9526 9.14279 61.9526H38.2856V21.3812ZM43.9999 61.9526V21.3812H61.7142V55.0955C61.7142 58.8825 58.644 61.9526 54.8571 61.9526H43.9999Z"/>
   </symbol>
</defs>
</svg>
