<?xml version="1.0" encoding="utf-8"?>
<!-- Generator: Adobe Illustrator 25.0.1, SVG Export Plug-In . SVG Version: 6.00 Build 0)  -->
<svg version="1.1" id="Layer_1" xmlns="http://www.w3.org/2000/svg" xmlns:xlink="http://www.w3.org/1999/xlink" x="0px" y="0px"
	 viewBox="0 0 612 115.6" style="enable-background:new 0 0 612 115.6;" xml:space="preserve">
<style type="text/css">
	.st0{fill:#2A2A2B;}
</style>
<g>
	<path class="st0" d="M460.5,29.5c-10.3,0-20.1,3.8-27.4,10.8c-7.6,7.2-11.8,17.2-11.8,28.1s4.2,20.8,11.8,28.1
		c7.3,7,17.1,10.8,27.4,10.8s20.1-3.8,27.4-10.8c7.6-7.2,11.8-17.2,11.8-28.1s-4.2-20.8-11.8-28.1C480.5,33.4,470.8,29.5,460.5,29.5
		 M460.5,92.2c-6.9,0-12.7-2.4-16.7-7C440.1,81,438,75,438,68.4s2-12.6,5.7-16.8c4-4.6,9.8-7,16.7-7c6.9,0,12.7,2.4,16.7,7
		c3.7,4.2,5.7,10.2,5.7,16.8s-2,12.6-5.7,16.8C473.2,89.8,467.4,92.2,460.5,92.2"/>
</g>
<polygon class="st0" points="218.9,31.1 254.6,107.3 290.2,31.1 272.7,31.1 254.6,73.6 236.4,31.1 "/>
<polygon class="st0" points="130.4,12.1 113.9,16.5 113.9,31.1 103.4,31.1 103.4,46.2 113.9,46.2 113.9,105.7 130.4,105.7 
	130.4,46.2 140.9,46.2 140.9,31.1 130.4,31.1 "/>
<g>
	<path class="st0" d="M183.6,44.6c6.9,0,12.7,2.4,16.7,7c1,1.2,1.9,2.5,2.7,4l-41.8,11.2c0.3-6,2.3-11.3,5.6-15.2
		C170.9,47,176.6,44.6,183.6,44.6 M200.3,85.2c-4,4.6-9.8,7-16.7,7s-12.7-2.4-16.7-7c-1-1.2-1.9-2.5-2.7-4l58.5-15.7
		C222,55.8,218,46.9,211,40.3c-7.3-7-17.1-10.8-27.4-10.8c-10.3,0-20.1,3.8-27.4,10.8c-7.6,7.2-11.8,17.2-11.8,28.1
		s4.2,20.8,11.8,28.1c7.3,7,17.1,10.8,27.4,10.8c10.3,0,20.1-3.8,27.4-10.8c4.8-4.5,8.2-10.2,10.1-16.4h-17.5
		C202.7,82,201.6,83.7,200.3,85.2"/>
	<path class="st0" d="M82.3,5.1c-5,0-9.1,4.1-9.1,9c0,5,4.1,9,9.1,9s9.1-4.1,9.1-9C91.4,9.1,87.3,5.1,82.3,5.1"/>
</g>
<polygon class="st0" points="74,35.5 74,83.5 74,105.7 90.5,105.7 90.5,31.1 "/>
<g>
	<path class="st0" d="M545.1,29.5c-9.1,0-15.5,5.5-17.8,7.9l-0.5,0.5l-1.9-6.8l-15.1,4v70.6h16.8v-45c0.3-8.9,7.9-16.2,16.9-16.2
		c9.8,0,14.8,5,15.3,15.2v46h16.8V59.8C575.6,41.4,563.7,29.5,545.1,29.5"/>
	<path class="st0" d="M20.1,80.1l-15,4l0.2,1.1C8.6,98.8,20,107.3,35,107.3c7.4,0,14.2-2.4,19.4-6.8c5.1-4.4,8-10.2,8-16.4
		c0-8.2-3.8-18.7-21.7-22.6l-7.9-1.6c-6-1.2-9.1-3.8-9.1-8c0-4.4,4.5-7.7,10.6-7.7c7.6,0,10.8,5.2,11.7,7.9l14.9-4
		c-3.1-11-13.7-18.6-26.6-18.6C16.9,29.5,7.6,41.1,7.6,52c0,11.3,7.7,19.4,21.7,22.9c2.3,0.6,5.1,1.2,7.9,1.7c8,1.4,9.1,4.6,9.1,7.5
		c0,5.8-5.7,8.4-11.4,8.4C26,92.5,21.5,85.3,20.1,80.1"/>
	<path class="st0" d="M306.2,5.1c-5,0-9.1,4.1-9.1,9c0,5,4.1,9,9.1,9s9.1-4.1,9.1-9C315.4,9.1,311.3,5.1,306.2,5.1"/>
</g>
<polygon class="st0" points="298,35.5 298,83.5 298,105.7 314.4,105.7 314.4,31.1 "/>
<g>
	<path class="st0" d="M402.9,5.1c-5,0-9.1,4.1-9.1,9c0,5,4.1,9,9.1,9s9.1-4.1,9.1-9C412,9.1,407.9,5.1,402.9,5.1"/>
</g>
<polygon class="st0" points="394.6,35.5 394.6,83.5 394.6,105.7 411,105.7 411,31.1 "/>
<path class="st0" d="M340.6,80.1l-15,4l0.2,1.1c3.3,13.6,14.7,22.1,29.7,22.1c7.4,0,14.2-2.4,19.4-6.8c5.1-4.4,8-10.2,8-16.4
	c0-8.2-3.8-18.7-21.7-22.6l-7.9-1.6c-6-1.2-9.1-3.8-9.1-8c0-4.4,4.5-7.7,10.6-7.7c7.6,0,10.8,5.2,11.7,7.9l14.9-4
	c-3.1-11-13.7-18.6-26.6-18.6c-17.3,0-26.6,11.6-26.6,22.4c0,11.3,7.7,19.4,21.7,22.9c2.3,0.6,5.1,1.2,7.9,1.7
	c8,1.4,9.1,4.6,9.1,7.5c0,5.8-5.7,8.4-11.4,8.4C346.6,92.5,342,85.3,340.6,80.1"/>
<path class="st0" d="M604.4,97.8c0-5.9-5-10.6-10.9-10.3c-5.2,0.3-9.5,4.7-9.6,9.9c-0.1,2.5,0.7,4.8,2.1,6.6c0.8,1,0.8,2.4,0.2,3.5
	l-2.3,3.6l13.1-3.5l0,0C601.3,106.4,604.4,102.5,604.4,97.8"/>
</svg>
