<svg xmlns="http://www.w3.org/2000/svg" fill="none" viewBox="0 0 191 26">
  <path fill="#fff" d="M47.577 7.425c.794 0 1.438-.617 1.438-1.378 0-.76-.644-1.377-1.438-1.377-.795 0-1.44.616-1.44 1.377s.645 1.378 1.44 1.378Zm24.355 12.871c1.63 0 3.174-.588 4.333-1.656 1.207-1.107 1.862-2.632 1.862-4.296 0-1.664-.663-3.189-1.862-4.295-1.16-1.068-2.694-1.657-4.333-1.657-1.63 0-3.173.589-4.332 1.657-1.207 1.106-1.863 2.631-1.863 4.295 0 1.664.664 3.189 1.863 4.296 1.159 1.068 2.702 1.656 4.332 1.656Zm-2.638-8.514c.632-.696 1.543-1.068 2.638-1.068s2.007.372 2.638 1.068c.584.643.903 1.556.903 2.57 0 1.014-.32 1.927-.903 2.57-.631.696-1.543 1.067-2.638 1.067s-2.006-.371-2.638-1.068c-.583-.642-.903-1.555-.903-2.57 0-1.013.32-1.926.903-2.569Zm-6.458-4.357c.794 0 1.439-.617 1.439-1.378 0-.76-.645-1.377-1.44-1.377-.794 0-1.438.616-1.438 1.377s.644 1.378 1.439 1.378Zm19.552 5.758c.047-1.362 1.246-2.469 2.67-2.469 1.55 0 2.341.759 2.421 2.314v7.028h2.654v-7.028c0-2.81-1.894-4.628-4.82-4.628-1.43 0-2.446.844-2.814 1.207l-.072.07-.295-1.045-2.382.62v10.796h2.654l-.016-6.865Zm-36.122 3.475v3.398h2.598V8.64l-2.598.681v7.337Zm-35.371 0v3.398h2.606V8.64l-2.606.681v7.337Zm50.63 0v3.398h2.606V8.64l-2.606.681v7.337Zm29.895 4.234 2.062-.534c.688-.186 1.183-.79 1.183-1.51 0-.905-.783-1.625-1.726-1.57-.831.046-1.495.72-1.519 1.524-.008.38.12.728.336 1.006a.453.453 0 0 1 .024.542l-.36.542Zm-36.066-2.856c-1.415 0-2.134-1.107-2.358-1.896l-2.366.611.04.163c.527 2.082 2.326 3.382 4.684 3.382 1.159 0 2.246-.372 3.061-1.037.816-.666 1.263-1.564 1.263-2.516 0-1.246-.591-2.856-3.429-3.451l-1.247-.24c-.951-.178-1.43-.589-1.43-1.223 0-.666.719-1.169 1.67-1.169 1.191 0 1.703.797 1.839 1.2l2.358-.612C58.95 9.568 57.272 8.4 55.242 8.4c-2.726 0-4.197 1.765-4.197 3.429 0 1.726 1.215 2.972 3.43 3.498.367.085.807.186 1.255.263 1.263.21 1.43.697 1.43 1.146-.007.905-.91 1.3-1.806 1.3Zm-38.16 2.02h2.605v-9.102h1.663V8.64H19.8V5.745l-2.605.674V8.64H15.53v2.314h1.663v9.102ZM12.206 7.425c.795 0 1.439-.617 1.439-1.378 0-.76-.644-1.377-1.44-1.377-.794 0-1.438.616-1.438 1.377s.644 1.378 1.439 1.378ZM4.724 18.036c-1.415 0-2.134-1.107-2.358-1.896L0 16.75l.04.163c.528 2.082 2.326 3.382 4.684 3.382 1.16 0 2.246-.372 3.062-1.037.815-.666 1.262-1.564 1.262-2.516 0-1.246-.591-2.856-3.429-3.451l-1.247-.24c-.95-.178-1.43-.589-1.43-1.223 0-.666.719-1.169 1.67-1.169 1.191 0 1.703.797 1.839 1.2l2.358-.612C8.32 9.568 6.642 8.4 4.612 8.4 1.886 8.4.416 10.165.416 11.829c0 1.726 1.215 2.972 3.429 3.498.368.085.807.186 1.255.263 1.263.21 1.43.697 1.43 1.146-.007.905-.91 1.3-1.806 1.3Zm40.311-9.388h-2.766l-2.862 6.493-2.861-6.493h-2.758l5.62 11.648 5.627-11.648ZM28.2 20.296c1.631 0 3.174-.588 4.333-1.656a5.823 5.823 0 0 0 1.599-2.508h-2.766a3.176 3.176 0 0 1-.52.79c-.631.696-1.542 1.067-2.637 1.067-1.096 0-2.007-.371-2.638-1.068a3.402 3.402 0 0 1-.432-.611l9.24-2.4a5.72 5.72 0 0 0-1.846-3.854C31.373 8.988 29.839 8.4 28.2 8.4c-1.631 0-3.174.588-4.333 1.656-1.199 1.107-1.862 2.632-1.862 4.296 0 1.664.663 3.189 1.862 4.295 1.16 1.06 2.694 1.649 4.333 1.649Zm-2.645-8.514c.631-.696 1.542-1.068 2.637-1.068 1.096 0 2.007.372 2.638 1.068.168.186.304.387.424.612l-6.587 1.71c.048-.92.36-1.734.888-2.322Z"/>
  <path fill="#D1F5E4" d="M183.374 20.684V9.363h3.095v1.975h.12c.209-.702.562-1.233 1.056-1.592a2.81 2.81 0 0 1 1.709-.545 4.906 4.906 0 0 1 1.004.11v2.786a4.235 4.235 0 0 0-.622-.118 5.68 5.68 0 0 0-.727-.051c-.47 0-.889.1-1.259.302a2.244 2.244 0 0 0-.869.825 2.35 2.35 0 0 0-.315 1.224v6.405h-3.192Zm-6.311.221c-1.184 0-2.204-.236-3.058-.708a4.88 4.88 0 0 1-1.963-2.02c-.46-.874-.69-1.908-.69-3.102 0-1.165.23-2.187.69-3.066a5.038 5.038 0 0 1 1.941-2.056c.839-.492 1.823-.737 2.952-.737.76 0 1.466.12 2.121.36a4.713 4.713 0 0 1 1.723 1.07c.495.476.88 1.075 1.154 1.798.275.717.413 1.557.413 2.52v.863h-9.72V13.88h6.715c0-.452-.1-.853-.3-1.201a2.129 2.129 0 0 0-.832-.819c-.35-.2-.757-.302-1.221-.302-.485 0-.915.11-1.289.332a2.34 2.34 0 0 0-.87.877 2.453 2.453 0 0 0-.322 1.216v1.85c0 .56.105 1.044.315 1.452.215.408.517.722.907.943.389.222.851.332 1.386.332.355 0 .679-.049.974-.147a1.92 1.92 0 0 0 1.237-1.165l2.952.192a3.938 3.938 0 0 1-.922 1.828c-.459.516-1.054.919-1.783 1.208-.724.285-1.561.428-2.51.428Zm-17.545 4.024V9.363h3.148v1.902h.142a4.14 4.14 0 0 1 .607-.93c.27-.319.62-.584 1.049-.795.435-.216.974-.324 1.619-.324a4.38 4.38 0 0 1 2.323.648c.709.428 1.276 1.074 1.701 1.938.425.86.637 1.939.637 3.236 0 1.263-.207 2.33-.622 3.199-.41.865-.969 1.52-1.679 1.968a4.36 4.36 0 0 1-2.368.663c-.619 0-1.146-.1-1.581-.302a3.263 3.263 0 0 1-1.056-.76 3.85 3.85 0 0 1-.63-.935h-.097v6.058h-3.193Zm3.125-9.906c0 .674.095 1.26.285 1.762.19.501.465.892.824 1.172.36.275.797.412 1.312.412.519 0 .959-.14 1.319-.42.359-.285.632-.678.816-1.179.19-.506.285-1.088.285-1.747 0-.653-.092-1.228-.277-1.724-.185-.497-.457-.885-.817-1.165-.36-.28-.802-.42-1.326-.42-.52 0-.959.135-1.319.405-.355.27-.627.654-.817 1.15-.19.496-.285 1.081-.285 1.754Zm-9.811 5.882c-1.164 0-2.17-.243-3.02-.73a5.033 5.033 0 0 1-1.956-2.049c-.459-.88-.689-1.899-.689-3.058 0-1.17.23-2.192.689-3.066a4.973 4.973 0 0 1 1.956-2.05c.85-.49 1.856-.736 3.02-.736s2.168.245 3.013.737a4.952 4.952 0 0 1 1.963 2.049c.46.874.69 1.896.69 3.066 0 1.16-.23 2.179-.69 3.058a5.011 5.011 0 0 1-1.963 2.05c-.845.486-1.849.729-3.013.729Zm.015-2.432c.53 0 .972-.148 1.327-.443.354-.3.622-.707.802-1.223.184-.516.277-1.103.277-1.761 0-.659-.093-1.246-.277-1.762-.18-.516-.448-.924-.802-1.224-.355-.3-.797-.45-1.327-.45-.534 0-.984.15-1.349.45-.359.3-.632.708-.816 1.224-.18.516-.27 1.103-.27 1.761 0 .659.09 1.246.27 1.762.184.516.457.924.816 1.223.365.295.815.443 1.349.443ZM146.129 5.59v15.094h-3.192V5.589h3.192Zm-9.503 15.315c-1.184 0-2.203-.236-3.058-.708a4.885 4.885 0 0 1-1.963-2.02c-.46-.874-.689-1.908-.689-3.102 0-1.165.229-2.187.689-3.066a5.051 5.051 0 0 1 1.941-2.056c.839-.492 1.823-.737 2.952-.737.76 0 1.467.12 2.121.36a4.73 4.73 0 0 1 1.724 1.07c.494.476.879 1.075 1.154 1.798.275.717.412 1.557.412 2.52v.863h-9.72V13.88h6.715c0-.452-.1-.853-.3-1.201a2.129 2.129 0 0 0-.832-.819 2.416 2.416 0 0 0-1.221-.302c-.485 0-.914.11-1.289.332a2.33 2.33 0 0 0-.869.877c-.21.364-.318.769-.323 1.216v1.85c0 .56.105 1.044.315 1.452.215.408.517.722.907.943.39.222.852.332 1.386.332.355 0 .68-.049.974-.147a1.92 1.92 0 0 0 1.237-1.165l2.952.192a3.937 3.937 0 0 1-.921 1.828c-.46.516-1.054.919-1.784 1.208-.724.285-1.561.428-2.51.428Zm-5.453-11.542-4.024 11.32h-3.597l-4.025-11.32h3.373l2.39 8.1h.12l2.383-8.1h3.38ZM114.44 20.905c-1.185 0-2.204-.236-3.058-.708a4.88 4.88 0 0 1-1.963-2.02c-.46-.874-.69-1.908-.69-3.102 0-1.165.23-2.187.69-3.066a5.038 5.038 0 0 1 1.941-2.056c.839-.492 1.823-.737 2.952-.737a6.1 6.1 0 0 1 2.121.36 4.713 4.713 0 0 1 1.723 1.07c.495.476.88 1.075 1.154 1.798.275.717.413 1.557.413 2.52v.863h-9.72V13.88h6.715c0-.452-.1-.853-.3-1.201a2.129 2.129 0 0 0-.832-.819c-.35-.2-.757-.302-1.221-.302-.485 0-.915.11-1.289.332a2.34 2.34 0 0 0-.87.877 2.453 2.453 0 0 0-.322 1.216v1.85c0 .56.105 1.044.315 1.452.215.408.517.722.907.943.389.222.851.332 1.386.332.355 0 .679-.049.974-.147a1.92 1.92 0 0 0 1.237-1.165l2.952.192a3.938 3.938 0 0 1-.922 1.828c-.459.516-1.054.919-1.783 1.208-.724.285-1.561.428-2.51.428Zm-13.365-.037a4.4 4.4 0 0 1-2.376-.663c-.704-.447-1.264-1.103-1.678-1.968-.41-.87-.615-1.936-.615-3.199 0-1.297.212-2.376.637-3.236.425-.864.99-1.51 1.694-1.938a4.394 4.394 0 0 1 2.33-.648c.645 0 1.182.108 1.611.324a3.08 3.08 0 0 1 1.049.796c.27.314.475.624.615.928h.097V5.59h3.185v15.095h-3.147V18.87h-.135c-.15.314-.362.626-.637.936a3.18 3.18 0 0 1-1.057.759c-.429.201-.954.302-1.573.302Zm1.011-2.499c.515 0 .95-.137 1.304-.412.36-.28.635-.671.825-1.172.194-.501.292-1.088.292-1.762 0-.673-.095-1.258-.285-1.754-.19-.496-.465-.88-.824-1.15-.36-.27-.797-.405-1.312-.405-.524 0-.966.14-1.326.42-.36.28-.632.668-.817 1.165-.185.496-.277 1.07-.277 1.724 0 .659.092 1.241.277 1.747.19.501.462.894.817 1.18.36.28.802.42 1.326.42Z"/>
</svg>
