<svg xmlns="http://www.w3.org/2000/svg" fill="none" viewBox="0 0 234 33">
  <path fill="#125B54" d="M58.287 9.679c.974 0 1.763-.768 1.763-1.716s-.79-1.716-1.763-1.716c-.973 0-1.762.768-1.762 1.716s.789 1.716 1.762 1.716Zm29.839 16.033c1.998 0 3.888-.733 5.308-2.063 1.479-1.379 2.282-3.278 2.282-5.351s-.813-3.972-2.282-5.35c-1.42-1.331-3.3-2.064-5.308-2.064-1.997 0-3.887.733-5.307 2.063-1.48 1.379-2.282 3.278-2.282 5.351s.813 3.972 2.282 5.35c1.42 1.331 3.31 2.064 5.307 2.064Zm-3.231-10.605c.773-.868 1.89-1.33 3.231-1.33 1.342 0 2.458.462 3.232 1.33.715.8 1.107 1.938 1.107 3.2 0 1.264-.392 2.401-1.107 3.201-.774.868-1.89 1.33-3.232 1.33-1.341 0-2.458-.462-3.231-1.33-.715-.8-1.107-1.937-1.107-3.2 0-1.263.392-2.401 1.107-3.201Zm-7.913-5.428c.974 0 1.763-.768 1.763-1.716s-.79-1.716-1.763-1.716c-.973 0-1.763.768-1.763 1.716s.79 1.716 1.763 1.716Zm23.954 7.173c.058-1.697 1.527-3.076 3.27-3.076 1.9 0 2.87.945 2.968 2.883v8.754h3.251v-8.754c0-3.5-2.321-5.765-5.905-5.765-1.753 0-2.997 1.05-3.447 1.504l-.089.087-.362-1.302-2.918.771v13.45h3.251l-.019-8.552ZM56.681 21.18v4.233h3.183v-14.22l-3.183.848v9.14Zm-43.333 0v4.233h3.192v-14.22l-3.192.848v9.14Zm62.028 0v4.233h3.192v-14.22l-3.192.848v9.14Zm36.626 5.274 2.526-.665a1.952 1.952 0 0 0 1.45-1.88c0-1.128-.96-2.025-2.116-1.957a1.979 1.979 0 0 0-1.86 1.9c-.01.471.147.905.411 1.253a.571.571 0 0 1 .029.674l-.44.675Zm-44.186-3.557c-1.733 0-2.615-1.379-2.889-2.362l-2.899.761.05.203c.646 2.593 2.849 4.213 5.738 4.213 1.42 0 2.752-.463 3.75-1.292 1-.83 1.548-1.948 1.548-3.133 0-1.552-.725-3.558-4.201-4.3l-1.528-.3c-1.165-.22-1.753-.732-1.753-1.522 0-.83.881-1.456 2.047-1.456 1.459 0 2.086.993 2.252 1.494l2.89-.761c-.598-2.092-2.655-3.548-5.142-3.548-3.34 0-5.141 2.198-5.141 4.27 0 2.15 1.488 3.703 4.2 4.358.451.106.99.232 1.538.328 1.547.26 1.753.868 1.753 1.427-.01 1.128-1.116 1.62-2.213 1.62Zm-46.752 2.516h3.193V14.075h2.037v-2.882h-2.037V7.587l-3.193.839v2.767h-2.036v2.882h2.037v11.338Zm-6.11-15.734c.973 0 1.763-.768 1.763-1.716s-.79-1.716-1.763-1.716c-.974 0-1.763.768-1.763 1.716s.79 1.716 1.763 1.716ZM5.788 22.897c-1.734 0-2.615-1.379-2.89-2.362L0 21.296l.049.203c.646 2.593 2.85 4.213 5.739 4.213 1.42 0 2.751-.463 3.75-1.292 1-.83 1.548-1.948 1.548-3.133 0-1.552-.725-3.558-4.202-4.3l-1.527-.3c-1.166-.22-1.753-.732-1.753-1.522 0-.83.881-1.456 2.047-1.456 1.459 0 2.085.993 2.252 1.494l2.889-.761c-.598-2.092-2.654-3.548-5.141-3.548-3.34 0-5.142 2.198-5.142 4.27 0 2.15 1.489 3.703 4.201 4.358.45.106.99.232 1.538.328C7.795 20.11 8 20.718 8 21.277c-.01 1.128-1.117 1.62-2.213 1.62Zm49.385-11.695h-3.388l-3.506 8.089-3.506-8.089h-3.379l6.885 14.51 6.894-14.51ZM34.55 25.712c1.997 0 3.887-.733 5.307-2.063a7.27 7.27 0 0 0 1.959-3.124h-3.389a3.968 3.968 0 0 1-.636.983c-.774.868-1.89 1.33-3.232 1.33-1.341 0-2.458-.462-3.231-1.33a4.246 4.246 0 0 1-.53-.761l11.321-2.989c-.127-1.86-.92-3.548-2.262-4.801-1.42-1.33-3.3-2.063-5.307-2.063-1.998 0-3.888.732-5.308 2.063-1.47 1.378-2.282 3.278-2.282 5.35 0 2.073.813 3.973 2.282 5.351 1.42 1.321 3.3 2.054 5.308 2.054Zm-3.242-10.605c.774-.868 1.89-1.33 3.232-1.33 1.341 0 2.458.462 3.231 1.33.206.231.373.482.52.761L30.22 18c.059-1.147.44-2.16 1.087-2.892Z"/>
  <path fill="#17CC78" d="M224.657 26.195V12.093h3.792v2.46h.147c.257-.875.688-1.536 1.294-1.982a3.404 3.404 0 0 1 2.094-.68 5.785 5.785 0 0 1 1.23.137V15.5a5.122 5.122 0 0 0-.762-.147 6.842 6.842 0 0 0-.891-.064c-.575 0-1.089.126-1.542.377a2.769 2.769 0 0 0-1.065 1.028c-.257.44-.386.948-.386 1.524v7.978h-3.911Zm-7.732.275c-1.451 0-2.699-.293-3.746-.881a6.038 6.038 0 0 1-2.405-2.515c-.563-1.09-.845-2.378-.845-3.866 0-1.45.282-2.723.845-3.819.563-1.095 1.356-1.95 2.378-2.561 1.028-.612 2.234-.918 3.617-.918.93 0 1.796.15 2.598.45a5.766 5.766 0 0 1 2.112 1.33c.606.594 1.077 1.341 1.414 2.24.336.894.505 1.941.505 3.14v1.075H211.49V17.72h8.226c0-.563-.122-1.062-.367-1.497a2.635 2.635 0 0 0-1.019-1.018c-.429-.252-.928-.377-1.497-.377-.593 0-1.12.138-1.579.413-.453.27-.808.634-1.065 1.093a3.085 3.085 0 0 0-.395 1.515v2.304c0 .698.129 1.3.386 1.809.263.508.633.9 1.111 1.175.477.275 1.043.413 1.698.413a3.7 3.7 0 0 0 1.194-.184 2.48 2.48 0 0 0 .927-.55 2.4 2.4 0 0 0 .588-.9l3.617.238a4.944 4.944 0 0 1-1.129 2.277c-.563.643-1.292 1.145-2.185 1.506-.888.355-1.913.532-3.076.532Zm-21.494 5.013v-19.39h3.856v2.369h.174c.172-.38.42-.765.744-1.157.33-.398.759-.728 1.285-.992.533-.269 1.194-.404 1.983-.404 1.029 0 1.977.27 2.846.808.87.533 1.564 1.338 2.084 2.415.521 1.071.781 2.415.781 4.03 0 1.573-.254 2.902-.762 3.985-.502 1.077-1.188 1.894-2.057 2.451-.863.551-1.83.826-2.901.826-.759 0-1.405-.125-1.937-.376a4.018 4.018 0 0 1-1.295-.946 4.835 4.835 0 0 1-.771-1.166h-.119v7.547h-3.911Zm3.828-12.339c0 .839.117 1.57.349 2.194.233.625.569 1.111 1.01 1.46.441.343.976.514 1.607.514.636 0 1.175-.174 1.616-.523.44-.355.774-.845 1-1.47.233-.63.349-1.355.349-2.175 0-.814-.113-1.53-.34-2.148-.226-.618-.56-1.102-1-1.45-.441-.35-.983-.524-1.625-.524-.637 0-1.175.168-1.616.505-.435.336-.768.814-1.001 1.432-.232.618-.349 1.346-.349 2.185ZM187.24 26.47c-1.427 0-2.66-.303-3.7-.909a6.224 6.224 0 0 1-2.397-2.552c-.563-1.095-.844-2.365-.844-3.81 0-1.457.281-2.73.844-3.82a6.15 6.15 0 0 1 2.397-2.551c1.04-.612 2.273-.918 3.7-.918 1.426 0 2.656.306 3.69.918a6.127 6.127 0 0 1 2.406 2.552c.563 1.09.844 2.362.844 3.82 0 1.444-.281 2.714-.844 3.81a6.2 6.2 0 0 1-2.406 2.551c-1.034.606-2.264.91-3.69.91Zm.018-3.03c.649 0 1.19-.183 1.625-.55.434-.373.762-.881.982-1.524.227-.643.34-1.374.34-2.194 0-.82-.113-1.552-.34-2.195-.22-.642-.548-1.15-.982-1.524-.435-.373-.976-.56-1.625-.56-.655 0-1.206.187-1.653.56-.44.374-.774.882-1 1.524-.221.643-.331 1.374-.331 2.195 0 .82.11 1.551.331 2.194.226.643.56 1.15 1 1.524.447.367.998.55 1.653.55Zm-8.23-16.047v18.802h-3.911V7.393h3.911ZM167.385 26.47c-1.451 0-2.699-.293-3.746-.881a6.032 6.032 0 0 1-2.405-2.515c-.564-1.09-.845-2.378-.845-3.866 0-1.45.281-2.723.845-3.819.563-1.095 1.355-1.95 2.377-2.561 1.029-.612 2.234-.918 3.618-.918.93 0 1.796.15 2.598.45a5.754 5.754 0 0 1 2.111 1.33c.606.594 1.078 1.341 1.414 2.24.337.894.505 1.941.505 3.14v1.075H161.95V17.72h8.226c0-.563-.123-1.062-.368-1.497a2.622 2.622 0 0 0-1.019-1.018c-.428-.252-.927-.377-1.496-.377-.594 0-1.12.138-1.579.413-.453.27-.808.634-1.065 1.093a3.085 3.085 0 0 0-.395 1.515v2.304c0 .698.129 1.3.386 1.809.263.508.633.9 1.111 1.175.477.275 1.043.413 1.698.413.435 0 .832-.061 1.194-.184a2.48 2.48 0 0 0 .927-.55 2.39 2.39 0 0 0 .587-.9l3.618.238a4.936 4.936 0 0 1-1.13 2.277c-.563.643-1.291 1.145-2.185 1.506-.887.355-1.912.532-3.075.532Zm-6.681-14.377-4.93 14.102h-4.407l-4.93-14.102h4.131l2.929 10.09h.147l2.919-10.09h4.141ZM140.203 26.47c-1.45 0-2.699-.293-3.745-.881a6.034 6.034 0 0 1-2.406-2.515c-.563-1.09-.844-2.378-.844-3.866 0-1.45.281-2.723.844-3.819.563-1.095 1.356-1.95 2.378-2.561 1.028-.612 2.234-.918 3.617-.918.931 0 1.797.15 2.598.45a5.766 5.766 0 0 1 2.112 1.33c.606.594 1.077 1.341 1.414 2.24.337.894.505 1.941.505 3.14v1.075h-11.908V17.72h8.226c0-.563-.122-1.062-.367-1.497a2.629 2.629 0 0 0-1.019-1.018c-.428-.252-.927-.377-1.496-.377-.594 0-1.121.138-1.58.413-.453.27-.808.634-1.065 1.093a3.084 3.084 0 0 0-.394 1.515v2.304c0 .698.128 1.3.385 1.809.263.508.634.9 1.111 1.175.478.275 1.044.413 1.699.413.434 0 .832-.061 1.193-.184a2.48 2.48 0 0 0 .927-.55 2.4 2.4 0 0 0 .588-.9l3.617.238a4.935 4.935 0 0 1-1.129 2.277c-.563.643-1.291 1.145-2.185 1.506-.888.355-1.913.532-3.076.532Zm-16.373-.046c-1.071 0-2.041-.275-2.911-.826-.863-.557-1.548-1.374-2.056-2.451-.502-1.083-.753-2.412-.753-3.985 0-1.615.26-2.959.78-4.03.521-1.077 1.212-1.882 2.075-2.415a5.317 5.317 0 0 1 2.856-.807c.789 0 1.447.134 1.973.403.533.264.961.594 1.286.992.33.392.581.777.753 1.157h.119v-7.07h3.902v18.803h-3.856v-2.259h-.165c-.184.392-.444.78-.781 1.166-.33.38-.762.695-1.294.946-.527.251-1.169.377-1.928.377Zm1.239-3.112c.631 0 1.163-.171 1.598-.514.44-.349.777-.835 1.01-1.46.238-.624.358-1.355.358-2.194 0-.838-.117-1.567-.349-2.185-.233-.618-.569-1.096-1.01-1.432-.441-.337-.976-.505-1.607-.505-.642 0-1.184.174-1.625.523-.44.35-.774.833-1.001 1.45-.226.619-.339 1.335-.339 2.15 0 .82.113 1.544.339 2.175.233.624.567 1.114 1.001 1.469.441.349.983.523 1.625.523Z"/>
</svg>
