<svg class="example-dynamic-font-chart" xmlns="http://www.w3.org/2000/svg" fill="none" stroke-linecap="square" stroke-miterlimit="10" viewBox="0 0 453 289">
   <path fill="#fff" d="M0 0h453v289H0V0Z"/>
   <path stroke="#ccc" stroke-linecap="butt" d="M76.5 21.5v201M109.5 21.5v201M142.5 21.5v201M175.5 21.5v201M208.5 21.5v201M241.5 21.5v201M273.5 21.5v201M306.5 21.5v201M339.5 21.5v201M372.5 21.5v201M405.5 21.5v201M438.5 21.5v201"/>
   <path d="M87.5 21.5v201M98.5 21.5v201M120.5 21.5v201M131.5 21.5v201M153.5 21.5v201M164.5 21.5v201M186.5 21.5v201M197.5 21.5v201M219.5 21.5v201M230.5 21.5v201M252.5 21.5v201M262.5 21.5v201M284.5 21.5v201M295.5 21.5v201M317.5 21.5v201M328.5 21.5v201M350.5 21.5v201M361.5 21.5v201M383.5 21.5v201M394.5 21.5v201M416.5 21.5v201M427.5 21.5v201"/>
   <path stroke="#ccc" stroke-linecap="butt" d="M76.5 222.5h362M76.5 155.5h362M76.5 88.5h362M76.5 21.5h362"/>
   <clipPath id="a">
      <path d="M76.45 21.45h362.1v201.1H76.45V21.45Z"/>
   </clipPath>
   <path stroke="#4285f4" stroke-linecap="butt" stroke-width="2" d="M-121.06 155.517h263.346l230.428-67.034H800.65" clip-path="url(#a)"/>
   <path fill="none" d="M-118.06 155.517a3 3 0 1 1-6 0 3 3 0 0 1 6 0ZM-19.305 155.517a3 3 0 1 1-6 0 3 3 0 0 1 6 0ZM145.286 155.517a3 3 0 1 1-6 0 3 3 0 0 1 6 0ZM375.714 88.483a3 3 0 1 1-6 0 3 3 0 0 1 6 0ZM474.468 88.483a3 3 0 1 1-6 0 3 3 0 0 1 6 0ZM639.06 88.483a3 3 0 1 1-6 0 3 3 0 0 1 6 0ZM803.65 88.483a3 3 0 1 1-6 0 3 3 0 0 1 6 0Z" clip-path="url(#a)"/>
   <path fill="#000" d="m206.875 268.394 1.672.531q-.375 1.406-1.281 2.094-.907.672-2.282.672-1.718 0-2.828-1.157-1.094-1.171-1.094-3.203 0-2.14 1.11-3.328 1.11-1.187 2.922-1.187 1.578 0 2.562.922.578.562.875 1.593l-1.719.406q-.156-.671-.64-1.046-.484-.391-1.172-.391-.953 0-1.547.688-.594.671-.594 2.218 0 1.625.578 2.313.594.687 1.532.687.687 0 1.187-.437.5-.438.719-1.375Zm2.11-.047q0-.813.406-1.578.406-.781 1.14-1.172.735-.406 1.656-.406 1.407 0 2.313.922.906.906.906 2.312 0 1.406-.922 2.344-.906.922-2.28.922-.86 0-1.642-.391-.765-.39-1.171-1.125-.407-.75-.407-1.828Zm1.687.094q0 .922.437 1.422.438.484 1.078.484.657 0 1.079-.484.437-.5.437-1.438 0-.906-.437-1.39-.422-.5-1.078-.5-.641 0-1.079.5-.437.484-.437 1.406Zm11.344 3.109h-1.641v-3.172q0-1.015-.11-1.312-.093-.297-.343-.453-.234-.172-.563-.172-.437 0-.78.234-.329.234-.454.625-.125.39-.125 1.438v2.812h-1.656v-6.219h1.531v.906q.813-1.046 2.063-1.046.53 0 .984.203.453.187.687.5.235.297.313.687.094.375.094 1.094v3.875Zm4.203-6.219v1.313h-1.125v2.5q0 .765.031.89t.14.22q.126.077.282.077.234 0 .656-.172l.14 1.282q-.562.25-1.296.25-.438 0-.797-.141-.36-.156-.531-.39-.156-.25-.235-.641-.047-.297-.047-1.172v-2.703h-.75v-1.313h.75v-1.234l1.657-.969v2.203h1.125Zm2.375 1.89-1.5-.265q.25-.906.86-1.328.624-.437 1.843-.437 1.094 0 1.625.265.547.25.766.656.218.391.218 1.47l-.015 1.921q0 .828.078 1.219.078.375.297.828h-1.625q-.063-.172-.157-.484l-.062-.203q-.422.421-.906.625-.47.203-1.016.203-.969 0-1.531-.516-.547-.531-.547-1.328 0-.531.25-.938.266-.406.719-.625.453-.234 1.312-.39 1.14-.219 1.594-.406v-.157q0-.484-.234-.687-.235-.203-.891-.203-.438 0-.688.172-.234.171-.39.609Zm2.203 1.345q-.313.093-1 .25-.688.14-.906.28-.313.235-.313.579t.25.61q.266.25.656.25.453 0 .86-.298.297-.218.39-.546.063-.203.063-.797v-.328Zm3.562-4.078v-1.532h1.657v1.531h-1.657Zm0 7.062v-6.219h1.657v6.219h-1.657Zm8.657 0h-1.641v-3.172q0-1.015-.11-1.312-.093-.297-.343-.453-.234-.172-.563-.172-.437 0-.78.234-.329.234-.454.625-.125.39-.125 1.438v2.812h-1.656v-6.219h1.531v.906q.813-1.046 2.063-1.046.53 0 .984.203.453.187.687.5.235.297.313.687.094.375.094 1.094v3.875Zm4.953-1.984 1.64.28q-.312.907-1 1.376-.687.469-1.703.469-1.625 0-2.406-1.063-.625-.844-.625-2.14 0-1.547.813-2.422.812-.875 2.046-.875 1.391 0 2.188.922.812.906.766 2.796h-4.125q.03.735.406 1.141.375.406.953.406.375 0 .64-.203.266-.219.407-.687Zm.094-1.657q-.016-.718-.375-1.093-.344-.375-.86-.375-.531 0-.89.39-.344.406-.344 1.078h2.469Zm4.875 3.641h-1.641v-6.219h1.531v.875q.39-.625.703-.812.313-.203.703-.203.563 0 1.094.312l-.516 1.422q-.421-.266-.765-.266-.36 0-.594.204-.234.187-.375.687-.14.484-.14 2.078v1.922Zm7.578 0-1.97-6.219h1.61l1.156 4.078 1.079-4.078h1.593l1.032 4.078 1.187-4.078h1.625l-2 6.219h-1.578l-1.078-4-1.047 4h-1.61Zm8.843-7.063v-1.53h1.657v1.53h-1.657Zm0 7.063v-6.219h1.657v6.219h-1.657Zm8.704 0h-1.516v-.922q-.39.547-.906.813-.516.25-1.047.25-1.078 0-1.844-.86-.75-.875-.75-2.422 0-1.578.734-2.39.75-.828 1.891-.828 1.031 0 1.797.859v-3.094h1.64v8.594Zm-4.391-3.25q0 1 .281 1.438.39.656 1.11.656.562 0 .953-.485.406-.484.406-1.453 0-1.062-.39-1.531-.376-.484-.985-.484-.578 0-.985.468-.39.47-.39 1.391Zm8.547-2.969v1.313h-1.125v2.5q0 .765.031.89t.14.22q.126.077.282.077.234 0 .656-.172l.14 1.282q-.562.25-1.296.25-.438 0-.797-.141-.36-.156-.531-.39-.156-.25-.235-.641-.046-.297-.046-1.172v-2.703h-.75v-1.313h.75v-1.234l1.656-.969v2.203h1.125Zm2.781-2.375v3.156q.797-.921 1.906-.921.563 0 1.016.218.469.204.703.532.234.328.313.734.078.39.078 1.219v3.656h-1.641v-3.281q0-.985-.094-1.25-.094-.266-.328-.422-.234-.156-.594-.156-.406 0-.734.203-.328.203-.484.61-.141.39-.141 1.171v3.125h-1.64v-8.594H285Zm11.094 11.125h-1.125q-.906-1.36-1.375-2.812-.469-1.469-.469-2.828 0-1.703.578-3.203.516-1.313 1.281-2.422h1.125q-.796 1.765-1.109 3.015-.297 1.25-.297 2.64 0 .97.172 1.985.188 1 .5 1.906.203.594.719 1.72Zm1.219-8.75h1.53v.906q.313-.468.813-.75.516-.296 1.14-.296 1.079 0 1.829.843.766.844.766 2.375 0 1.547-.766 2.422-.766.86-1.844.86-.515 0-.937-.203-.422-.204-.875-.704v3.141h-1.656v-8.594Zm1.625 3q0 1.047.421 1.547.422.5 1.016.5.578 0 .953-.453.375-.469.375-1.516 0-.968-.39-1.437-.391-.484-.97-.484-.609 0-1.015.468-.39.469-.39 1.375Zm4.64 3.219 2.235-3.203-2.141-3.016h2l1.11 1.703 1.156-1.703h1.937l-2.11 2.938 2.298 3.281h-2.016l-1.266-1.922-1.281 1.922h-1.922Zm7.328 2.531q.485-1.047.688-1.61.203-.546.36-1.265.171-.734.25-1.39.093-.657.093-1.344 0-1.39-.297-2.64-.297-1.25-1.11-3.016h1.126q.875 1.25 1.359 2.672.5 1.406.5 2.859 0 1.234-.39 2.625-.438 1.578-1.438 3.11h-1.14ZM25.45 167.11h-8.594v-5.891h1.453v4.156h2.032v-3.578h1.453v3.578h3.656v1.734Zm-3.203-5.594q-.813 0-1.578-.407-.781-.406-1.172-1.14-.406-.735-.406-1.656 0-1.407.922-2.313.906-.906 2.312-.906 1.406 0 2.344.922.922.906.922 2.28 0 .86-.391 1.642-.39.765-1.125 1.171-.75.407-1.828.407Zm.094-1.688q.922 0 1.422-.437.484-.438.484-1.078 0-.657-.484-1.079-.5-.437-1.438-.437-.906 0-1.39.437-.5.422-.5 1.078 0 .641.5 1.079.484.437 1.406.437Zm3.109-11.344v1.641h-3.172q-1.015 0-1.312.11-.297.093-.453.343-.172.234-.172.563 0 .437.234.78.234.329.625.454.39.125 1.438.125h2.812v1.656h-6.219v-1.531h.907q-1.047-.813-1.047-2.063 0-.53.203-.984.187-.453.5-.687.297-.235.687-.313.375-.094 1.094-.094h3.875Zm-6.219-4.203h1.313v1.125h2.5q.765 0 .89-.031t.22-.14q.077-.126.077-.282 0-.234-.172-.656l1.282-.14q.25.562.25 1.296 0 .438-.141.797-.156.36-.39.531-.25.156-.641.235-.297.047-1.172.047h-2.703v.75H19.23v-.75h-1.234l-.969-1.657h2.203v-1.125Zm4.438-3.562-.25-1.656q.484-.11.734-.422.25-.328.25-.907 0-.64-.234-.953-.172-.219-.438-.219-.187 0-.312.11-.125.125-.219.547-.437 2-.797 2.531-.515.734-1.406.734-.813 0-1.36-.625-.546-.64-.546-1.984 0-1.281.422-1.906.406-.625 1.218-.86l.282 1.563q-.36.094-.547.375-.203.281-.203.797 0 .64.187.922.125.187.328.187.188 0 .313-.156.156-.219.453-1.531.297-1.328.734-1.844.438-.516 1.219-.516.86 0 1.484.719.61.703.61 2.11 0 1.265-.516 2.015-.516.734-1.406.969Zm-5.281-7.578h-1.532v-1.657h1.532v1.657Zm7.062 0h-6.219v-1.657h6.219v1.657Zm0-2.344h-1.281l-2.688-2.328q-.656-.578-.922-.844.016.281.016.75l.016 2.203h-1.36v-5.156h1.157l2.75 2.39.906.829q-.047-.688-.047-.844v-2.547h1.453v5.547Zm-1.984-10.266.28-1.64q.907.312 1.376 1 .469.687.469 1.703 0 1.625-1.063 2.406-.844.625-2.14.625-1.547 0-2.422-.813-.875-.812-.875-2.046 0-1.391.922-2.188.906-.812 2.796-.766v4.126q.735-.032 1.141-.407t.406-.953q0-.375-.203-.64-.219-.266-.687-.407Zm-1.657-.094q-.718.016-1.093.376-.375.343-.375.859 0 .531.39.89.407.344 1.078.344v-2.469Zm6.172-9.03v1.124q-1.36.906-2.812 1.375-1.469.469-2.828.469-1.703 0-3.203-.578-1.313-.516-2.422-1.281v-1.125q1.765.796 3.015 1.109 1.25.297 2.64.297.97 0 1.985-.172 1-.188 1.907-.5.593-.203 1.718-.719Zm-4.515-4.876.28-1.64q.907.312 1.376 1 .469.687.469 1.703 0 1.625-1.063 2.406-.844.625-2.14.625-1.547 0-2.422-.813-.875-.812-.875-2.046 0-1.391.922-2.188.906-.812 2.796-.766v4.126q.735-.032 1.141-.407t.406-.953q0-.375-.203-.64-.219-.266-.687-.407Zm-1.657-.094q-.718.016-1.093.376-.375.343-.375.859 0 .531.39.89.407.344 1.078.344v-2.469Zm-2.578-3.171v-1.516h.844q-.984-.828-.984-1.953 0-.594.25-1.031.234-.438.734-.72-.5-.405-.734-.874-.25-.484-.25-1.031 0-.672.28-1.141.267-.484.813-.719.391-.172 1.282-.172h3.984v1.641h-3.562q-.922 0-1.188.172-.36.234-.36.703 0 .344.22.656.203.297.609.438.406.14 1.297.14h2.984V99.5h-3.406q-.906 0-1.172.094-.266.078-.39.265-.141.188-.141.5 0 .375.218.688.204.297.594.437.375.125 1.266.125h3.031v1.657h-6.219Zm8.75-10.672q-1.047-.485-1.61-.688-.546-.203-1.265-.36-.734-.171-1.39-.25-.657-.093-1.344-.093-1.39 0-2.64.297-1.25.297-3.016 1.11v-1.126q1.25-.875 2.672-1.359 1.406-.5 2.859-.5 1.234 0 2.625.39 1.578.438 3.11 1.438v1.14ZM46.95 222.316q0-1.532.313-2.453.312-.938.921-1.438.625-.5 1.563-.5.687 0 1.203.281.531.282.875.813.344.515.531 1.265.188.75.188 2.032 0 1.515-.313 2.437-.297.922-.922 1.438-.609.5-1.562.5-1.234 0-1.953-.891-.844-1.063-.844-3.484Zm1.078 0q0 2.109.5 2.812.5.703 1.219.703.734 0 1.219-.703.5-.703.5-2.812 0-2.125-.5-2.813-.485-.703-1.235-.703-.718 0-1.156.61-.547.78-.547 2.906Zm6.485 4.234v-1.203h1.203v1.203q0 .656-.235 1.063-.234.421-.734.64l-.297-.453q.328-.14.484-.438.157-.28.188-.812h-.61Zm2.5-7.469v-1.015h5.562v.828q-.813.875-1.625 2.328-.797 1.437-1.234 2.969-.328 1.078-.407 2.359h-1.093q.015-1.016.39-2.453.39-1.438 1.094-2.766.719-1.328 1.531-2.25h-4.218Zm6.937 5.219 1.11-.094q.124.813.562 1.219.453.406 1.094.406.75 0 1.28-.578.532-.578.532-1.515 0-.907-.516-1.422-.5-.532-1.328-.532-.5 0-.921.235-.407.234-.641.594l-.984-.125.828-4.407h4.28v1H65.81l-.453 2.313q.766-.547 1.61-.547 1.125 0 1.89.781.782.781.782 2.016 0 1.156-.672 2.015-.828 1.032-2.25 1.032-1.172 0-1.922-.657-.735-.656-.844-1.734ZM50.919 159.517h-1.047v-6.72q-.39.36-1.016.735-.61.36-1.093.532v-1.016q.875-.422 1.53-1 .673-.594.954-1.156h.672v8.625Zm3.594 0v-1.203h1.203v1.203q0 .656-.235 1.062-.234.422-.734.64l-.297-.452q.328-.141.484-.438.157-.281.188-.812h-.61Zm2.437-4.235q0-1.531.313-2.453.312-.937.921-1.437.625-.5 1.563-.5.687 0 1.203.28.531.282.875.813.344.516.531 1.266.188.75.188 2.031 0 1.516-.313 2.438-.297.922-.922 1.437-.609.5-1.562.5-1.234 0-1.953-.89-.844-1.063-.844-3.485Zm1.078 0q0 2.11.5 2.813.5.703 1.219.703.734 0 1.219-.703.5-.703.5-2.813 0-2.125-.5-2.812-.485-.703-1.235-.703-.718 0-1.156.609-.547.781-.547 2.906Zm5.922 0q0-1.531.313-2.453.312-.937.921-1.437.625-.5 1.563-.5.687 0 1.203.28.531.282.875.813.344.516.531 1.266.188.75.188 2.031 0 1.516-.313 2.438-.297.922-.922 1.437-.609.5-1.562.5-1.234 0-1.953-.89-.844-1.063-.844-3.485Zm1.078 0q0 2.11.5 2.813.5.703 1.219.703.734 0 1.219-.703.5-.703.5-2.813 0-2.125-.5-2.812-.485-.703-1.235-.703-.718 0-1.156.609-.547.781-.547 2.906ZM50.919 92.483h-1.047v-6.718q-.39.359-1.016.734-.61.36-1.093.531v-1.015q.875-.422 1.53-1 .673-.594.954-1.157h.672v8.625Zm3.594 0V91.28h1.203v1.203q0 .657-.235 1.063-.234.422-.734.64l-.297-.453q.328-.14.484-.437.157-.281.188-.813h-.61Zm7.984-1.015v1.015h-5.688q0-.375.125-.734.22-.578.688-1.14.484-.563 1.39-1.298 1.407-1.156 1.891-1.828.5-.672.5-1.265 0-.625-.453-1.047-.453-.438-1.172-.438-.765 0-1.219.453-.453.454-.468 1.266l-1.078-.11q.109-1.218.828-1.843.734-.64 1.968-.64 1.235 0 1.954.687.718.687.718 1.703 0 .516-.218 1.016-.204.484-.704 1.046-.484.547-1.609 1.5-.953.797-1.234 1.094-.266.281-.438.563h4.219Zm1.453-1.235 1.11-.093q.124.812.562 1.218.453.407 1.094.407.75 0 1.28-.579.532-.578.532-1.515 0-.906-.516-1.422-.5-.531-1.328-.531-.5 0-.921.234-.407.234-.641.594l-.984-.125.828-4.406h4.28v1H65.81l-.453 2.312q.766-.547 1.61-.547 1.125 0 1.89.781.782.782.782 2.016 0 1.156-.672 2.016-.828 1.031-2.25 1.031-1.172 0-1.922-.656-.735-.657-.844-1.735ZM50.919 25.45h-1.047v-6.719q-.39.36-1.016.735-.61.359-1.093.53v-1.015q.875-.422 1.53-1 .673-.594.954-1.156h.672v8.625Zm3.594 0v-1.203h1.203v1.203q0 .656-.235 1.063-.234.421-.734.64l-.297-.453q.328-.14.484-.438.157-.28.188-.812h-.61Zm2.437-2.25 1.11-.094q.124.813.562 1.219.453.406 1.094.406.75 0 1.28-.578.532-.578.532-1.515 0-.907-.515-1.422-.5-.532-1.329-.532-.5 0-.921.235-.407.234-.641.593l-.984-.125.828-4.406h4.28v1H58.81l-.453 2.313q.766-.547 1.61-.547 1.125 0 1.89.781.782.781.782 2.016 0 1.156-.672 2.015-.828 1.032-2.25 1.032-1.172 0-1.922-.657-.735-.656-.844-1.734Zm7-1.984q0-1.532.313-2.454.312-.937.921-1.437.625-.5 1.563-.5.687 0 1.203.281.531.281.875.813.344.515.531 1.265.188.75.188 2.032 0 1.515-.313 2.437-.297.922-.922 1.438-.609.5-1.562.5-1.234 0-1.953-.891-.844-1.063-.844-3.484Zm1.078 0q0 2.109.5 2.812.5.703 1.219.703.734 0 1.219-.703.5-.703.5-2.812 0-2.125-.5-2.813-.485-.703-1.235-.703-.718 0-1.156.61-.547.78-.547 2.906ZM66.45 237.284l1.063-.14q.171.89.609 1.297.437.39 1.062.39.75 0 1.266-.515.516-.516.516-1.282 0-.718-.485-1.187-.468-.484-1.203-.484-.297 0-.75.125l.125-.938q.11.016.172.016.672 0 1.203-.344.547-.36.547-1.094 0-.578-.39-.953-.391-.39-1.016-.39-.61 0-1.031.39-.407.39-.516 1.156l-1.063-.187q.188-1.047.875-1.625.688-.594 1.704-.594.703 0 1.296.313.594.296.907.812.312.516.312 1.11 0 .546-.297 1.015-.297.453-.875.719.75.172 1.172.734.422.547.422 1.39 0 1.126-.828 1.907-.813.781-2.063.781-1.125 0-1.875-.672-.75-.687-.859-1.75Zm7-1.968q0-1.532.313-2.453.312-.938.921-1.438.625-.5 1.563-.5.687 0 1.203.281.531.282.875.813.344.515.531 1.265.188.75.188 2.032 0 1.515-.313 2.437-.297.922-.922 1.438-.609.5-1.562.5-1.234 0-1.953-.891-.844-1.063-.844-3.484Zm1.078 0q0 2.109.5 2.812.5.703 1.219.703.734 0 1.219-.703.5-.703.5-2.812 0-2.125-.5-2.813-.485-.703-1.235-.703-.718 0-1.156.61-.547.78-.547 2.906Zm5.922 0q0-1.532.313-2.453.312-.938.921-1.438.625-.5 1.563-.5.687 0 1.203.281.531.282.875.813.344.515.531 1.265.188.75.188 2.032 0 1.515-.313 2.437-.297.922-.922 1.438-.609.5-1.562.5-1.234 0-1.953-.891-.844-1.063-.844-3.484Zm1.078 0q0 2.109.5 2.812.5.703 1.219.703.734 0 1.219-.703.5-.703.5-2.812 0-2.125-.5-2.813-.485-.703-1.235-.703-.718 0-1.156.61-.547.78-.547 2.906ZM99.368 237.284l1.063-.14q.172.89.61 1.297.437.39 1.062.39.75 0 1.265-.515.516-.516.516-1.282 0-.718-.485-1.187-.468-.484-1.203-.484-.297 0-.75.125l.125-.938q.11.016.172.016.672 0 1.203-.344.547-.36.547-1.094 0-.578-.39-.953-.391-.39-1.016-.39-.61 0-1.031.39-.407.39-.516 1.156l-1.062-.187q.187-1.047.875-1.625.687-.594 1.703-.594.703 0 1.297.313.593.296.906.812.312.516.312 1.11 0 .546-.297 1.015-.296.453-.875.719.75.172 1.172.734.422.547.422 1.39 0 1.126-.828 1.907-.812.781-2.062.781-1.125 0-1.875-.672-.75-.687-.86-1.75Zm7 .016 1.11-.094q.125.813.562 1.219.453.406 1.094.406.75 0 1.281-.578.531-.578.531-1.515 0-.907-.515-1.422-.5-.532-1.328-.532-.5 0-.922.235-.407.234-.64.594l-.985-.125.828-4.407h4.281v1h-3.437l-.454 2.313q.766-.547 1.61-.547 1.125 0 1.89.781.782.781.782 2.016 0 1.156-.672 2.015-.828 1.032-2.25 1.032-1.172 0-1.922-.657-.734-.656-.844-1.734Zm7-1.984q0-1.532.313-2.453.312-.938.922-1.438.625-.5 1.562-.5.688 0 1.203.281.531.282.875.813.344.515.531 1.265.188.75.188 2.032 0 1.515-.313 2.437-.296.922-.921 1.438-.61.5-1.563.5-1.234 0-1.953-.891-.844-1.063-.844-3.484Zm1.078 0q0 2.109.5 2.812.5.703 1.22.703.733 0 1.218-.703.5-.703.5-2.812 0-2.125-.5-2.813-.485-.703-1.235-.703-.718 0-1.156.61-.547.78-.547 2.906ZM135.661 239.55v-2.063h-3.718v-.968l3.921-5.563h.86v5.563h1.156v.969h-1.156v2.062h-1.063Zm0-3.031v-3.86l-2.687 3.86h2.687Zm3.625-1.203q0-1.532.313-2.453.312-.938.922-1.438.625-.5 1.562-.5.688 0 1.203.281.532.282.875.813.344.515.532 1.265.187.75.187 2.032 0 1.515-.312 2.437-.297.922-.922 1.438-.61.5-1.563.5-1.234 0-1.953-.891-.844-1.063-.844-3.484Zm1.078 0q0 2.109.5 2.812.5.703 1.22.703.734 0 1.218-.703.5-.703.5-2.812 0-2.125-.5-2.813-.484-.703-1.234-.703-.72 0-1.157.61-.547.78-.547 2.906Zm5.922 0q0-1.532.313-2.453.312-.938.922-1.438.625-.5 1.562-.5.688 0 1.203.281.532.282.875.813.344.515.532 1.265.187.75.187 2.032 0 1.515-.312 2.437-.297.922-.922 1.438-.61.5-1.563.5-1.234 0-1.953-.891-.844-1.063-.844-3.484Zm1.078 0q0 2.109.5 2.812.5.703 1.22.703.734 0 1.218-.703.5-.703.5-2.812 0-2.125-.5-2.813-.484-.703-1.234-.703-.72 0-1.157.61-.547.78-.547 2.906ZM168.58 239.55v-2.063h-3.72v-.968l3.923-5.563h.859v5.563h1.156v.969h-1.156v2.062h-1.062Zm0-3.031v-3.86l-2.688 3.86h2.688Zm3.625.781 1.109-.094q.125.813.562 1.219.454.406 1.094.406.75 0 1.281-.578.532-.578.532-1.515 0-.907-.516-1.422-.5-.532-1.328-.532-.5 0-.922.235-.406.234-.64.594l-.985-.125.828-4.407h4.281v1h-3.437l-.453 2.313q.765-.547 1.61-.547 1.124 0 1.89.781.781.781.781 2.016 0 1.156-.672 2.015-.828 1.032-2.25 1.032-1.172 0-1.922-.657-.734-.656-.843-1.734Zm7-1.984q0-1.532.312-2.453.313-.938.922-1.438.625-.5 1.562-.5.688 0 1.204.281.53.282.875.813.343.515.53 1.265.188.75.188 2.032 0 1.515-.312 2.437-.297.922-.922 1.438-.61.5-1.563.5-1.234 0-1.953-.891-.843-1.063-.843-3.484Zm1.078 0q0 2.109.5 2.812.5.703 1.218.703.735 0 1.22-.703.5-.703.5-2.812 0-2.125-.5-2.813-.485-.703-1.235-.703-.719 0-1.156.61-.547.78-.547 2.906ZM198.123 237.3l1.11-.094q.124.813.562 1.219.453.406 1.093.406.75 0 1.282-.578.53-.578.53-1.515 0-.907-.515-1.422-.5-.532-1.328-.532-.5 0-.922.235-.406.234-.64.594l-.985-.125.828-4.407h4.282v1h-3.438l-.453 2.313q.766-.547 1.61-.547 1.124 0 1.89.781.781.781.781 2.016 0 1.156-.672 2.015-.828 1.032-2.25 1.032-1.172 0-1.922-.657-.734-.656-.843-1.734Zm7-1.984q0-1.532.312-2.453.313-.938.922-1.438.625-.5 1.563-.5.687 0 1.203.281.531.282.875.813.343.515.531 1.265.187.75.187 2.032 0 1.515-.312 2.437-.297.922-.922 1.438-.61.5-1.562.5-1.235 0-1.954-.891-.843-1.063-.843-3.484Zm1.078 0q0 2.109.5 2.812.5.703 1.219.703.734 0 1.218-.703.5-.703.5-2.812 0-2.125-.5-2.813-.484-.703-1.234-.703-.719 0-1.156.61-.547.78-.547 2.906Zm5.922 0q0-1.532.312-2.453.313-.938.922-1.438.625-.5 1.563-.5.687 0 1.203.281.531.282.875.813.343.515.531 1.265.187.75.187 2.032 0 1.515-.312 2.437-.297.922-.922 1.438-.61.5-1.562.5-1.235 0-1.954-.891-.843-1.063-.843-3.484Zm1.078 0q0 2.109.5 2.812.5.703 1.219.703.734 0 1.218-.703.5-.703.5-2.812 0-2.125-.5-2.813-.484-.703-1.234-.703-.719 0-1.156.61-.547.78-.547 2.906ZM231.04 237.3l1.11-.094q.125.813.563 1.219.453.406 1.094.406.75 0 1.28-.578.532-.578.532-1.515 0-.907-.516-1.422-.5-.532-1.328-.532-.5 0-.922.235-.406.234-.64.594l-.985-.125.829-4.407h4.28v1H232.9l-.453 2.313q.766-.547 1.61-.547 1.125 0 1.89.781.781.781.781 2.016 0 1.156-.671 2.015-.829 1.032-2.25 1.032-1.172 0-1.922-.657-.735-.656-.844-1.734Zm7 0 1.11-.094q.125.813.563 1.219.453.406 1.094.406.75 0 1.28-.578.532-.578.532-1.515 0-.907-.516-1.422-.5-.532-1.328-.532-.5 0-.922.235-.406.234-.64.594l-.985-.125.829-4.407h4.28v1H239.9l-.453 2.313q.766-.547 1.61-.547 1.125 0 1.89.781.781.781.781 2.016 0 1.156-.671 2.015-.829 1.032-2.25 1.032-1.172 0-1.922-.657-.735-.656-.844-1.734Zm7-1.984q0-1.532.313-2.453.313-.938.922-1.438.625-.5 1.563-.5.687 0 1.203.281.531.282.875.813.344.515.531 1.265.188.75.188 2.032 0 1.515-.313 2.437-.297.922-.922 1.438-.61.5-1.562.5-1.235 0-1.953-.891-.844-1.063-.844-3.484Zm1.079 0q0 2.109.5 2.812.5.703 1.219.703.734 0 1.219-.703.5-.703.5-2.812 0-2.125-.5-2.813-.485-.703-1.235-.703-.719 0-1.156.61-.547.78-.547 2.906ZM269.428 233.066l-1.047.078q-.14-.625-.39-.906-.438-.454-1.063-.454-.5 0-.89.282-.485.375-.782 1.078-.281.687-.297 1.969.375-.579.922-.86.562-.281 1.172-.281 1.047 0 1.781.781.75.781.75 2 0 .813-.36 1.516-.343.687-.952 1.062-.61.36-1.375.36-1.329 0-2.157-.97-.828-.968-.828-3.187 0-2.5.922-3.625.797-.984 2.156-.984 1.016 0 1.657.578.656.563.78 1.563Zm-4.297 3.703q0 .547.219 1.047.234.484.64.75.422.265.89.265.657 0 1.142-.531.484-.547.484-1.469 0-.89-.484-1.406-.47-.516-1.188-.516-.719 0-1.219.516-.484.516-.484 1.344Zm5.828-1.453q0-1.532.313-2.453.312-.938.921-1.438.625-.5 1.563-.5.687 0 1.203.281.531.282.875.813.344.515.531 1.265.188.75.188 2.032 0 1.515-.313 2.437-.297.922-.922 1.438-.609.5-1.562.5-1.234 0-1.953-.891-.844-1.063-.844-3.484Zm1.078 0q0 2.109.5 2.812.5.703 1.219.703.734 0 1.219-.703.5-.703.5-2.812 0-2.125-.5-2.813-.485-.703-1.235-.703-.718 0-1.156.61-.547.78-.547 2.906Zm5.922 0q0-1.532.313-2.453.312-.938.921-1.438.625-.5 1.563-.5.687 0 1.203.281.531.282.875.813.344.515.531 1.265.188.75.188 2.032 0 1.515-.313 2.437-.297.922-.922 1.438-.609.5-1.562.5-1.234 0-1.953-.891-.844-1.063-.844-3.484Zm1.078 0q0 2.109.5 2.812.5.703 1.219.703.734 0 1.219-.703.5-.703.5-2.812 0-2.125-.5-2.813-.485-.703-1.235-.703-.718 0-1.156.61-.547.78-.547 2.906ZM302.346 233.066l-1.047.078q-.14-.625-.39-.906-.438-.454-1.063-.454-.5 0-.89.282-.485.375-.782 1.078-.281.687-.297 1.969.375-.579.922-.86.563-.281 1.172-.281 1.047 0 1.781.781.75.781.75 2 0 .813-.36 1.516-.343.687-.952 1.062-.61.36-1.375.36-1.328 0-2.156-.97-.829-.968-.829-3.187 0-2.5.922-3.625.797-.984 2.156-.984 1.016 0 1.657.578.656.563.781 1.563Zm-4.297 3.703q0 .547.219 1.047.234.484.64.75.422.265.891.265.656 0 1.14-.531.485-.547.485-1.469 0-.89-.484-1.406-.469-.516-1.188-.516t-1.219.516q-.484.516-.484 1.344Zm5.828.531 1.11-.094q.125.813.562 1.219.453.406 1.094.406.75 0 1.281-.578.531-.578.531-1.515 0-.907-.515-1.422-.5-.532-1.328-.532-.5 0-.922.235-.406.234-.64.594l-.985-.125.828-4.407h4.281v1h-3.437l-.454 2.313q.766-.547 1.61-.547 1.125 0 1.89.781.782.781.782 2.016 0 1.156-.672 2.015-.828 1.032-2.25 1.032-1.172 0-1.922-.657-.734-.656-.844-1.734Zm7-1.984q0-1.532.313-2.453.312-.938.922-1.438.625-.5 1.562-.5.688 0 1.203.281.531.282.875.813.344.515.531 1.265.188.75.188 2.032 0 1.515-.313 2.437-.296.922-.921 1.438-.61.5-1.563.5-1.234 0-1.953-.891-.844-1.063-.844-3.484Zm1.078 0q0 2.109.5 2.812.5.703 1.22.703.733 0 1.218-.703.5-.703.5-2.812 0-2.125-.5-2.813-.484-.703-1.234-.703-.72 0-1.157.61-.547.78-.547 2.906ZM329.858 232.081v-1.015h5.562v.828q-.812.875-1.625 2.328-.796 1.437-1.234 2.969-.328 1.078-.406 2.359h-1.094q.016-1.016.39-2.453.391-1.438 1.094-2.766.72-1.328 1.532-2.25h-4.22Zm6.937 3.235q0-1.532.313-2.453.312-.938.922-1.438.625-.5 1.562-.5.688 0 1.203.281.532.282.875.813.344.515.532 1.265.187.75.187 2.032 0 1.515-.312 2.437-.297.922-.922 1.438-.61.5-1.563.5-1.234 0-1.953-.891-.844-1.063-.844-3.484Zm1.079 0q0 2.109.5 2.812.5.703 1.218.703.735 0 1.22-.703.5-.703.5-2.812 0-2.125-.5-2.813-.485-.703-1.235-.703-.72 0-1.157.61-.546.78-.546 2.906Zm5.921 0q0-1.532.313-2.453.312-.938.922-1.438.625-.5 1.562-.5.688 0 1.203.281.532.282.875.813.344.515.532 1.265.187.75.187 2.032 0 1.515-.312 2.437-.297.922-.922 1.438-.61.5-1.563.5-1.234 0-1.953-.891-.844-1.063-.844-3.484Zm1.079 0q0 2.109.5 2.812.5.703 1.218.703.735 0 1.22-.703.5-.703.5-2.812 0-2.125-.5-2.813-.485-.703-1.235-.703-.72 0-1.157.61-.546.78-.546 2.906ZM362.776 232.081v-1.015h5.563v.828q-.813.875-1.625 2.328-.797 1.437-1.235 2.969-.328 1.078-.406 2.359h-1.094q.016-1.016.39-2.453.391-1.438 1.095-2.766.718-1.328 1.53-2.25h-4.218Zm6.938 5.219 1.109-.094q.125.813.563 1.219.453.406 1.093.406.75 0 1.281-.578.532-.578.532-1.515 0-.907-.516-1.422-.5-.532-1.328-.532-.5 0-.922.235-.406.234-.64.594l-.985-.125.828-4.407h4.281v1h-3.437l-.453 2.313q.765-.547 1.61-.547 1.124 0 1.89.781.781.781.781 2.016 0 1.156-.672 2.015-.828 1.032-2.25 1.032-1.172 0-1.922-.657-.734-.656-.843-1.734Zm7-1.984q0-1.532.312-2.453.313-.938.922-1.438.625-.5 1.563-.5.687 0 1.203.281.53.282.875.813.343.515.53 1.265.188.75.188 2.032 0 1.515-.312 2.437-.297.922-.922 1.438-.61.5-1.563.5-1.234 0-1.953-.891-.843-1.063-.843-3.484Zm1.078 0q0 2.109.5 2.812.5.703 1.219.703.734 0 1.218-.703.5-.703.5-2.812 0-2.125-.5-2.813-.484-.703-1.234-.703-.719 0-1.156.61-.547.78-.547 2.906ZM397.257 234.894q-.656-.25-.985-.688-.312-.453-.312-1.062 0-.938.672-1.578.687-.641 1.797-.641 1.125 0 1.812.656.688.657.688 1.594 0 .594-.313 1.031-.312.438-.953.688.797.25 1.203.828t.406 1.375q0 1.094-.78 1.844-.766.75-2.048.75-1.265 0-2.047-.75-.78-.75-.78-1.875 0-.844.421-1.407.438-.562 1.219-.765Zm-.219-1.797q0 .61.39 1 .407.39 1.032.39.61 0 1-.374.39-.391.39-.954 0-.578-.406-.968-.406-.407-1-.407-.61 0-1.015.391-.39.39-.39.922Zm-.328 3.969q0 .453.203.875.219.422.64.656.423.234.907.234.75 0 1.234-.484.5-.484.5-1.234 0-.766-.5-1.266t-1.265-.5q-.75 0-1.235.5-.484.484-.484 1.219Zm5.922-1.75q0-1.532.312-2.453.313-.938.922-1.438.625-.5 1.563-.5.687 0 1.203.281.531.282.875.813.344.515.531 1.265.188.75.188 2.032 0 1.515-.313 2.437-.297.922-.922 1.438-.61.5-1.562.5-1.235 0-1.953-.891-.844-1.063-.844-3.484Zm1.078 0q0 2.109.5 2.812.5.703 1.219.703.734 0 1.218-.703.5-.703.5-2.812 0-2.125-.5-2.813-.484-.703-1.234-.703-.719 0-1.156.61-.547.78-.547 2.906Zm5.922 0q0-1.532.312-2.453.313-.938.922-1.438.625-.5 1.563-.5.687 0 1.203.281.531.282.875.813.344.515.531 1.265.188.75.188 2.032 0 1.515-.313 2.437-.297.922-.922 1.438-.61.5-1.562.5-1.235 0-1.953-.891-.844-1.063-.844-3.484Zm1.078 0q0 2.109.5 2.812.5.703 1.219.703.734 0 1.218-.703.5-.703.5-2.812 0-2.125-.5-2.813-.484-.703-1.234-.703-.719 0-1.156.61-.547.78-.547 2.906ZM430.175 234.894q-.656-.25-.984-.688-.313-.453-.313-1.062 0-.938.672-1.578.688-.641 1.797-.641 1.125 0 1.812.656.688.657.688 1.594 0 .594-.313 1.031-.312.438-.953.688.797.25 1.203.828.407.578.407 1.375 0 1.094-.782 1.844-.765.75-2.046.75-1.266 0-2.047-.75-.782-.75-.782-1.875 0-.844.422-1.407.438-.562 1.219-.765Zm-.219-1.797q0 .61.39 1 .407.39 1.032.39.61 0 1-.374.39-.391.39-.954 0-.578-.405-.968-.407-.407-1-.407-.61 0-1.016.391-.39.39-.39.922Zm-.328 3.969q0 .453.203.875.219.422.64.656.423.234.907.234.75 0 1.235-.484.5-.484.5-1.234 0-.766-.5-1.266t-1.266-.5q-.75 0-1.234.5-.485.484-.485 1.219Zm5.922.234 1.11-.094q.124.813.562 1.219.453.406 1.094.406.75 0 1.28-.578.532-.578.532-1.515 0-.907-.515-1.422-.5-.532-1.329-.532-.5 0-.921.235-.407.234-.641.594l-.984-.125.828-4.407h4.28v1h-3.437l-.453 2.313q.766-.547 1.61-.547 1.125 0 1.89.781.781.781.781 2.016 0 1.156-.671 2.015-.828 1.032-2.25 1.032-1.172 0-1.922-.657-.735-.656-.844-1.734Zm7-1.984q0-1.532.313-2.453.312-.938.921-1.438.625-.5 1.563-.5.687 0 1.203.281.531.282.875.813.344.515.531 1.265.188.75.188 2.032 0 1.515-.313 2.437-.297.922-.922 1.438-.609.5-1.562.5-1.234 0-1.953-.891-.844-1.063-.844-3.484Zm1.078 0q0 2.109.5 2.812.5.703 1.219.703.734 0 1.219-.703.5-.703.5-2.812 0-2.125-.5-2.813-.485-.703-1.235-.703-.719 0-1.156.61-.547.78-.547 2.906Z"/>
</svg>
