<?xml version="1.0" standalone="no"?>
<!DOCTYPE svg PUBLIC "-//W3C//DTD SVG 1.1//EN" "http://www.w3.org/Graphics/SVG/1.1/DTD/svg11.dtd" >
<svg xmlns="http://www.w3.org/2000/svg">
<metadata>Generated by IcoMoon</metadata>
<defs>
<font id="sitevision-icons" horiz-adv-x="1024">
<font-face units-per-em="1024" ascent="960" descent="-64" />
<missing-glyph horiz-adv-x="1024" />
<glyph unicode="&#x20;" horiz-adv-x="512" d="" />
<glyph unicode="&#xe900;" glyph-name="tooltip-menu" d="M597.333 448c0-47.128-38.205-85.333-85.333-85.333s-85.333 38.205-85.333 85.333c0 47.128 38.205 85.333 85.333 85.333s85.333-38.205 85.333-85.333zM341.333 448c0-47.128-38.205-85.333-85.333-85.333s-85.333 38.205-85.333 85.333c0 47.128 38.205 85.333 85.333 85.333s85.333-38.205 85.333-85.333zM853.333 448c0-47.128-38.205-85.333-85.333-85.333s-85.333 38.205-85.333 85.333c0 47.128 38.205 85.333 85.333 85.333s85.333-38.205 85.333-85.333z" />
<glyph unicode="&#xe901;" glyph-name="comment" d="M723.595 58.964h-18.601l-4.748 8.186-55.802 43.596c-50.134 39.186-100.22 78.375-150.162 117.802-9.252 7.315-17.001 11.141-25.091 12.352-8.526 1.211-76.39 2.518-90.581 2.567l-109.666 0.195c-9.471 0-19.060 0.338-28.482 1.598-17.026 2.372-68.807 9.494-85.35 64.376l-0.848 5.715 0.828 457.071c9.543 32.211 33.18 52.678 70.261 60.814l20.853 3.851 550.484-3.463c18.698-4.117 42.141-11.577 57.982-33.035 4.602-6.321 7.604-13.005 10.172-18.89l4.893-14.919-0.873-457.239c-8.718-28.433-27.755-48.004-55.075-56.626-11.383-3.584-22.524-6.151-33.277-7.604v-1.356l-32.842-0.873c0-0.678 0-1.598 0-2.76l-0.049-45.629c0.049-34.246 0.049-68.541-0.145-102.787-0.096-6.829-2.276-12.303-3.924-16.276l-4.99-12.448-14.967-4.217zM193.94 318.501c6.975-19.908 22.257-29.839 51.928-33.908 7.604-1.065 15.403-1.211 23.13-1.211l109.811-0.195c0.774 0 83.121-1.065 96.296-3.052 15.064-2.227 29.015-8.768 43.788-20.49 49.843-39.381 99.928-78.471 149.967-117.61l38.508-30.13c0.582 28.191 0.582 55.511 0.582 82.783v45.629c0 28.046 14.724 42.918 42.627 43.014 2.084 0 4.504 0 7.024-0.195 2.616 0.291 5.135 0.436 7.217 0.533 11.528 0.533 23.929 2.954 37.008 7.071 13.903 4.408 23.155 13.513 28.191 27.804l-1.455 447.071c-1.938 4.457-3.828 8.647-5.86 11.481-6.393 8.622-16.372 13.78-34.488 17.753l-10.608 2.010-531.4 0.557-12.327-2.93c-21.749-4.773-34.175-14.339-39.939-30.808v-445.178z" />
<glyph unicode="&#xe902;" glyph-name="like" d="M603.417 13.666c-15.403 0-31.606 0.586-48.712 1.759-99.531 6.822-195.97 25.636-286.227 44.343-2.611 0.372-10.206 0.852-19.931 1.492-72.27 4.957-105.26 7.194-105.18 35.337 0.292 101.476 0.292 202.952-0.241 304.428-0.16 26.488 30.166 31.764 85.195 41.358 13.191 2.346 31.258 5.49 35.629 7.248 6.449 4.371 13.803 10.978 21.185 17.481l11.353 9.832c7.248 6.502 13.884 15.483 20.866 24.996 3.171 4.318 6.369 8.608 9.674 12.791 26.809 37.627 48.447 73.175 66.168 108.592 14.044 28.087 36.828 52.577 65.848 70.831 17.162 10.793 26.649 25.69 32.777 51.35 8.236 34.456 9.859 70.698 10.365 101.583 0.479 28.914 20.998 34.349 33.178 35.016 69.445 3.278 110.164-27.661 124.927-95.747 7.727-35.762 3.305-71.311-13.057-105.713-19.934-41.518-37.2-77.599-44.823-117.093-0.372-1.892-0.64-3.463-0.852-4.824 1.385-0.053 2.983-0.107 4.957-0.134 40.345-0.426 80.797-0.292 121.356-0.241l28.354 0.053c13.857 0 25.315-1.545 36.081-4.877 11.085-1.786 21.798-8.608 30.379-14.096l6.077-3.811c16.788-12.044 29.367-25.556 40.080-42.344 16.522-26.088 16.042-52.871-1.438-77.546-4.69-6.661-8.9-13.696-12.737-20.839 23.13-25.743 21.531-76.319-5.011-105.046-4.156-4.478-5.702-7.515-2.132-16.308 3.359-8.26 6.449-16.629 9.38-24.996 9.275-26.381 2.772-52.071-18.333-72.323-4.478-4.318-7.78-7.355-11.457-9.859-6.556-4.529-9.647-8.846-9.060-20.732 2.879-54.842-19.027-88.152-70.99-108.032-42.54-16.203-88.109-23.931-143.644-23.931zM187.068 110.932c17.374-2.879 50.311-5.115 64.436-6.077 13.084-0.906 23.025-1.759 25.901-2.346 88.711-18.386 183.5-36.882 280.286-43.49 72.056-5.062 125.674 1.013 173.799 19.399 34.375 13.11 44.823 28.941 42.956 64.969-1.28 25.848 7.834 45.142 28.033 58.999 1.706 1.173 2.983 2.611 4.371 3.945 11.779 11.353 11.886 19.134 8.846 27.715-2.665 7.727-5.544 15.456-8.634 23.025-9.594 23.504-6.077 44.501 10.553 62.411 11.779 12.791 11.886 37.68 3.359 46.901-12.419 13.431-14.177 31.871-4.743 49.245 4.636 8.688 9.807 17.215 15.563 25.315 7.089 10.073 7.194 17.907 0.214 28.914-7.675 12.018-16.576 21.638-27.181 29.34l-5.649 3.439c-6.395 4.076-11.94 7.622-17.109 8.528-9.167 2.665-16.522 3.597-25.794 3.597l-28.301-0.053c-40.717-0.053-81.437-0.214-121.943 0.241-14.497 0.16-30.805 1.385-41.039 13.91-10.233 12.497-8.155 28.726-5.436 42.93 8.634 45.062 27.98 85.38 46.687 124.367 13.857 29.126 17.109 54.522 11.406 80.984-9.487 43.757-29.792 61.61-71.364 61.61-0.16 0-0.372 0-0.533 0-0.852-32.592-3.091-68.247-11.457-103.369-5.49-22.971-16.841-56.042-52.017-78.159-22.251-14.017-39.546-32.485-50.019-53.404-18.814-37.627-41.73-75.202-70.004-114.881l-9.754-12.899c-7.995-10.874-16.281-22.090-27.473-32.112l-11.005-9.54c-8.98-7.941-17.987-15.775-27.926-22.277-7.488-4.904-19.080-7.248-50.257-12.737-13.643-2.346-36.668-6.395-49.006-9.912 0.449-92.844 0.476-185.685 0.236-278.527z" />
<glyph unicode="&#xe903;" glyph-name="comment-fill" d="M723.595 58.964h-18.601l-4.748 8.186-55.802 43.596c-50.134 39.186-100.22 78.375-150.162 117.802-9.252 7.315-17.001 11.141-25.091 12.352-8.526 1.211-76.39 2.518-90.581 2.567l-109.666 0.195c-9.471 0-19.060 0.338-28.482 1.598-17.026 2.372-68.807 9.494-85.35 64.376l-0.848 5.715 0.828 457.071c9.543 32.211 33.18 52.678 70.261 60.814l20.853 3.851 550.484-3.463c18.698-4.117 42.141-11.577 57.982-33.035 4.602-6.321 7.604-13.005 10.172-18.89l4.893-14.919-0.873-457.239c-8.718-28.433-27.755-48.004-55.075-56.626-11.383-3.584-22.524-6.151-33.277-7.604v-1.356l-32.842-0.873c0-0.678 0-1.598 0-2.76l-0.049-45.629c0.049-34.246 0.049-68.541-0.145-102.787-0.096-6.829-2.276-12.303-3.924-16.276l-4.99-12.448-14.967-4.217z" />
<glyph unicode="&#xe904;" glyph-name="like-fill" d="M603.417 13.666c-15.403 0-31.606 0.586-48.712 1.759-99.531 6.822-195.97 25.636-286.227 44.343-2.611 0.372-10.206 0.852-19.931 1.492-72.27 4.957-105.26 7.194-105.18 35.337 0.292 101.476 0.292 202.952-0.241 304.428-0.16 26.488 30.166 31.764 85.195 41.358 13.191 2.346 31.258 5.49 35.629 7.248 6.449 4.371 13.803 10.978 21.185 17.481l11.353 9.832c7.248 6.502 13.884 15.483 20.866 24.996 3.171 4.318 6.369 8.608 9.674 12.791 26.809 37.627 48.447 73.175 66.168 108.592 14.044 28.087 36.828 52.577 65.848 70.831 17.162 10.793 26.649 25.69 32.777 51.35 8.236 34.456 9.859 70.698 10.365 101.583 0.479 28.914 20.998 34.349 33.178 35.016 69.445 3.278 110.164-27.661 124.927-95.747 7.727-35.762 3.305-71.311-13.057-105.713-19.934-41.518-37.2-77.599-44.823-117.093-0.372-1.892-0.64-3.463-0.852-4.824 1.385-0.053 2.983-0.107 4.957-0.134 40.345-0.426 80.797-0.292 121.356-0.241l28.354 0.053c13.857 0 25.315-1.545 36.081-4.877 11.085-1.786 21.798-8.608 30.379-14.096l6.077-3.811c16.788-12.044 29.367-25.556 40.080-42.344 16.522-26.088 16.042-52.871-1.438-77.546-4.69-6.661-8.9-13.696-12.737-20.839 23.13-25.743 21.531-76.319-5.011-105.046-4.156-4.478-5.702-7.515-2.132-16.308 3.359-8.26 6.449-16.629 9.38-24.996 9.275-26.381 2.772-52.071-18.333-72.323-4.478-4.318-7.78-7.355-11.457-9.859-6.556-4.529-9.647-8.846-9.060-20.732 2.879-54.842-19.027-88.152-70.99-108.032-42.54-16.203-88.109-23.931-143.644-23.931z" />
<glyph unicode="&#xe905;" glyph-name="photo-fill" d="M934.040 706.131c0.413 47.737-32.423 79.651-79.038 79.468-228.971-0.898-457.947-0.365-686.924-0.442-50.523-0.018-77.994-27.446-78.031-78.076-0.118-172.9-0.131-345.8 0.016-518.699 0.043-50.238 27.958-77.498 78.626-77.514 114.229-0.036 228.456-0.012 342.685-0.012 114.746 0 229.505 0.868 344.235-0.45 42.734-0.493 78.832 29.594 78.414 78.594-1.47 172.37-1.481 344.765 0.016 517.133zM286.571 672.127c47.401-0.106 83.494-36.556 83.199-84.020-0.293-47.216-37.163-83.407-84.419-82.867-47.241 0.539-82.867 37.269-82.325 84.874 0.532 46.626 36.689 82.119 83.545 82.014zM820.778 224.471c-205.851 0-410.571 0-617.56 0 0 26.761-0.183 53.501 0.257 80.231 0.049 2.982 3.188 6.339 5.626 8.794 43.875 44.191 87.861 88.271 133.249 133.804 22.719-24.367 44.809-48.061 67.197-72.074 77.316 77.985 151.333 152.636 227.168 229.126 29.653-29.808 55.927-56.298 82.291-82.699 30.81-30.855 61.808-61.524 92.414-92.581 4.060-4.119 8.905-10.022 8.956-15.14 0.617-62.757 0.401-125.517 0.401-189.46z" />
<glyph unicode="&#xe906;" glyph-name="photo" d="M511.373 110.858c-114.227 0-228.456-0.025-342.683 0.012-50.668 0.016-78.583 27.276-78.626 77.514-0.147 172.902-0.135 345.802-0.014 518.699 0.034 50.633 27.509 78.060 78.030 78.078 228.973 0.077 457.953-0.456 686.922 0.442 46.614 0.183 79.451-31.731 79.036-79.466-1.497-172.366-1.487-344.763-0.018-517.133 0.417-48.999-35.678-79.087-78.412-78.594-114.728 1.316-229.487 0.446-344.233 0.446zM511.47 158.745c117.213 0 234.428-0.012 351.641 0.009 22.045 0.004 25.834 3.742 25.838 26.053 0.039 175.287 0.036 350.575 0.002 525.863-0.004 23.147-3.925 27.056-26.73 27.056-233.363 0.016-466.725 0.014-700.086 0.002-23.938-0.002-27.378-3.492-27.38-27.954-0.025-174.753-0.025-349.506-0.002-524.262 0.002-23.455 3.336-26.756 26.673-26.761 116.682-0.012 233.363-0.006 350.045-0.006zM636.719 604.354c29.653-29.81 55.927-56.298 82.291-82.699 30.81-30.855 61.81-61.524 92.414-92.581 4.060-4.119 8.905-10.022 8.956-15.142 0.613-62.755 0.399-125.517 0.399-189.458-205.851 0-410.571 0-617.558 0 0 26.761-0.183 53.499 0.257 80.229 0.049 2.984 3.188 6.339 5.628 8.796 43.875 44.191 87.861 88.271 133.252 133.804 22.717-24.367 44.809-48.061 67.197-72.074 77.314 77.985 151.327 152.636 227.165 229.126zM369.768 588.109c-0.295-47.216-37.163-83.407-84.419-82.867-47.241 0.541-82.867 37.269-82.323 84.872 0.532 46.626 36.686 82.119 83.544 82.016 47.403-0.106 83.494-36.556 83.199-84.020z" />
<glyph unicode="&#xe907;" glyph-name="app" d="M442.854 496.277h-280.239c-11.78 0-21.333 9.553-21.333 21.333v280.239c0 11.78 9.553 21.333 21.333 21.333h280.239c11.78 0 21.333-9.553 21.333-21.333v-280.239c0-11.782-9.553-21.333-21.333-21.333zM183.949 538.944h237.572v237.572h-237.572v-237.572zM861.395 496.277h-280.25c-11.791 0-21.333 9.553-21.333 21.333v280.239c0 11.78 9.542 21.333 21.333 21.333h280.25c11.791 0 21.333-9.553 21.333-21.333v-280.239c0-11.782-9.54-21.333-21.333-21.333zM602.479 538.944h237.583v237.572h-237.583v-237.572zM442.854 76.87h-280.239c-11.78 0-21.333 9.542-21.333 21.333v280.25c0 11.791 9.553 21.333 21.333 21.333h280.239c11.78 0 21.333-9.542 21.333-21.333v-280.25c0-11.791-9.553-21.333-21.333-21.333zM183.949 119.537h237.572v237.583h-237.572v-237.583zM861.395 399.789h-280.25c-11.791 0-21.333-9.542-21.333-21.333v-280.25c0-11.791 9.542-21.333 21.333-21.333h280.25c11.791 0 21.333 9.542 21.333 21.333v280.25c0 11.791-9.54 21.333-21.333 21.333z" />
<glyph unicode="&#xe908;" glyph-name="files" d="M768.323 251.614c0-13.57 0.245-26.281-0.114-38.978-0.153-5.487 1.914-6.816 7.016-6.742 16.778 0.247 33.576 0.491 50.334-0.102 7.405-0.263 8.923 2.11 8.917 9.141-0.189 191.681-0.167 383.36-0.057 575.042 0.002 5.093-1.261 8.801-5.031 12.434-29.072 28.023-57.996 56.201-86.792 84.507-4.539 4.462-9.28 6.156-15.675 6.147-137.555-0.171-275.112-0.127-412.67-0.127-2.762 0-5.52 0-8.505 0 0-26.905 0-52.806 0-78.998 15.1 0 29.828 0 45.203 0 0 8.586 0.391 16.616-0.12 24.586-0.422 6.593 1.367 8.892 8.486 8.876 115.103-0.22 230.206-0.149 345.309-0.171 2.474 0 4.949-0.296 8.072-0.494 0-24.325 0-47.841 0-72.033 3.244 0 5.798 0 8.35 0 19.381 0 38.762 0.004 58.143-0.002 9.592-0.002 9.6-0.014 9.6-9.622 0-167.1 0-334.201 0-501.301 0-1.889-0.2-3.804 0.018-5.669 0.563-4.835-1.214-6.969-6.303-6.569-4.411 0.351-8.866 0.076-14.179 0.076zM215.999 100.713c-0.078 21.032-0.222 42.066-0.222 63.101-0.014 204.702 0 409.404 0.004 614.107 0 2.803 0 5.612 0 9.586 3.233 0 5.956 0 8.676 0 138.044-0.002 276.089-0.033 414.131 0.104 5.851 0.006 9.99-1.556 14.272-5.778 28.416-28.027 57.092-55.795 85.905-83.416 4.468-4.282 6.191-8.65 6.187-14.815-0.147-191.228-0.124-382.458-0.114-573.685 0-3.066 0.169-6.136 0.257-9.202-176.365-0.002-352.732-0.002-529.099-0.002zM261.626 146.519c3.655 0 6.679 0 9.698 0 139.246 0 278.496 0 417.741 0.002 10.093 0 10.1 0.009 10.1 9.786 0.006 168.089 0.014 336.18-0.004 504.271 0 2.774-0.312 5.551-0.516 9.008-25.306 0-50.024 0-75.544 0 0 3.244 0 5.775 0 8.31 0 18.441-0.278 36.886 0.151 55.318 0.155 6.679-1.534 8.848-8.561 8.833-115.133-0.218-230.265-0.151-345.401-0.173-2.497 0-4.991-0.253-7.668-0.4 0.004-198.422 0.004-396.021 0.004-594.954zM768.323 251.614c5.314 0 9.766 0.273 14.174-0.071 5.088-0.4 6.865 1.734 6.303 6.569-0.216 1.865-0.018 3.778-0.018 5.669 0.002 167.1 0.002 334.201 0 501.301 0 9.61-0.006 9.619-9.6 9.622-19.381 0.006-38.762 0.002-58.143 0.002-2.552 0-5.108 0-8.35 0 0 24.19 0 47.706 0 72.033-3.121 0.198-5.596 0.491-8.072 0.494-115.101 0.020-230.204-0.051-345.307 0.178-7.118 0.016-8.908-2.285-8.486-8.876 0.512-7.972 0.12-16 0.12-24.586-15.375 0-30.103 0-45.203 0 0 26.195 0 52.094 0 78.998 2.988 0 5.749 0 8.505 0 137.555-0.002 275.112-0.045 412.67 0.127 6.396 0.009 11.138-1.685 15.675-6.147 28.796-28.307 57.723-56.483 86.792-84.507 3.77-3.633 5.033-7.34 5.031-12.434-0.112-191.681-0.135-383.36 0.057-575.042 0.006-7.032-1.51-9.404-8.917-9.141-16.76 0.594-33.558 0.349-50.334 0.102-5.1-0.076-7.17 1.254-7.016 6.742 0.361 12.687 0.116 25.397 0.116 38.967zM480.133 562.439c-46.058 0.004-92.115-0.049-138.171 0.033-15.749 0.029-23.688 9.784-19.879 24.112 1.887 7.097 6.598 11.209 13.85 12.274 2.325 0.343 4.702 0.44 7.058 0.44 91.405 0.020 182.811 0.024 274.216 0.004 13.817-0.004 20.122-4.566 22.115-15.777 1.81-10.159-5.080-19.594-15.367-20.808-3.035-0.357-6.132-0.273-9.2-0.273-44.871-0.014-89.747-0.009-134.625-0.004zM474.107 225.486c-46.783 0.004-93.571-0.027-140.354 0.031-8.868 0.011-15.4 5.157-17.668 13.429-2.116 7.721 0.773 16.302 7.801 20.326 3.303 1.889 7.572 2.925 11.405 2.932 93.098 0.16 186.194 0.155 279.292 0.091 9.98-0.006 16.202-4.564 18.872-12.996 2.412-7.615 0.098-15.884-7.112-20.526-3.466-2.232-8.346-3.137-12.589-3.156-46.55-0.214-93.098-0.135-139.647-0.131zM480.47 431.273c46.799 0 93.6-0.009 140.399 0.009 7.458 0.002 13.332-2.53 16.651-9.673 3.277-7.052 2.972-14.012-1.885-19.922-2.346-2.852-6.314-4.582-9.839-6.179-2.030-0.918-4.639-0.738-6.987-0.74-92.182-0.033-184.36-0.060-276.542-0.011-15.606 0.009-23.645 9.3-20.43 23.196 1.985 8.588 7.779 13.199 17.529 13.276 19.379 0.153 38.765 0.063 58.145 0.063 27.654 0.004 55.309 0 82.962 0l-0.002-0.020zM480.176 307.81c-46.561 0.004-93.122-0.067-139.683 0.047-14.468 0.035-22.189 10.365-18.405 24.108 1.71 6.218 5.712 10.286 12.058 11.573 3.213 0.651 6.565 0.829 9.853 0.832 90.994 0.040 181.989 0.031 272.982 0.027 6.95 0 13.955-0.149 18.568-6.509 4.659-6.427 5.333-13.335 1.846-20.642-3.58-7.499-9.957-9.455-17.536-9.451-46.561 0.020-93.122 0.011-139.683 0.016zM480.343 475.306c-46.572-0.002-93.144-0.053-139.716 0.027-14.479 0.024-22.489 10.969-18.403 24.819 2.019 6.84 6.942 10.482 13.708 11.75 2.297 0.431 4.711 0.312 7.072 0.312 91.723 0.011 183.452 0.020 275.175-0.009 12.158-0.004 18.717-4.533 20.724-14.019 2.739-12.941-5.263-22.827-18.845-22.849-46.57-0.078-93.142-0.027-139.713-0.029z" />
<glyph unicode="&#xe909;" glyph-name="notis" d="M513.353 77.601c-0.653 0-1.307 0-1.958 0-27.212 0.681-52.981 14.556-68.912 37.144-5.28 7.509-8.080 8.354-20.517 8.68-62.75-0.6-126.341-0.6-189.063 0.081-17.089 0.191-46.367 3.619-50.313 24.598-3.47 18.585-4.858 44.055 8.286 59.947 59.918 72.382 70.586 161.688 73.197 247.43 1.958 64.585 5.863 127.661 31.781 189.269 26.764 63.607 66.6 106.749 121.81 131.893 4.599 2.083 10.341 8.68 15.401 14.488 21.090 24.231 48.777 37.335 78.339 37.375 0.042 0 0.095 0 0.136 0 29.577 0 57.334-13.101 78.19-36.898l4.421-5.32c2.055-2.543 5.157-6.381 6.587-7.238 116.615-52.994 143.063-160.097 152.804-236.029 4.056-31.728 6.232-63.906 8.326-95.050 2.055-30.451 4.192-61.933 8.080-92.382 7.157-56.029 27.661-104.872 60.925-145.144 12.857-15.564 14.518-40.572 11.782-58.804-3.687-24.653-43.007-27.619-50.858-27.973-22.831-0.98-45.728-0.844-68.545-0.626l-26.667 0.136-21.238-0.081c-15.918-0.053-31.877-0.136-47.769 0.163-28.395 0.626-42.597 0.053-57.211-18.612-13.491-17.25-34.187-27.046-57.016-27.046zM423.080 165.221c18.368 0 37.443-3.511 53.567-26.395 8.218-11.646 21.919-19.102 35.769-19.429 5.838-0.136 17.293 1.088 25.035 10.995 28.151 35.973 61.566 35.294 91.007 34.666 15.526-0.299 31.089-0.216 46.681-0.163l21.455 0.081 27.008-0.136c22.136-0.216 44.301-0.407 66.369 0.571 3.674 0.163 8.286 1.008 12.040 1.93-0.042 8.137-1.686 14.476-3.36 16.491-38.368 46.448-61.973 102.449-70.163 166.48-4.041 31.647-6.217 63.783-8.313 94.857-2.055 30.504-4.192 62.069-8.095 92.545-13.633 106.355-53.361 169.077-128.832 203.388-9.972 4.546-16.408 12.503-21.58 18.896l-3.375 4.056c-12.804 14.613-29.388 22.653-46.749 22.653-0.028 0-0.053 0-0.081 0-17.32-0.015-33.837-8.042-46.505-22.587-7.836-9.007-17.129-19.688-29.972-25.525-45.198-20.585-78.11-56.585-100.6-110.069-23.143-54.979-26.707-113.826-28.544-174.301-2.83-93.198-14.815-190.75-82.764-272.818-0.626-1.196-1.536-6.366-0.844-15.046 3.47-0.571 7.565-1.033 11.115-1.061 62.41-0.681 125.728-0.706 188.194-0.081 0.503-0.002 1.033-0.002 1.536-0.002z" />
<glyph unicode="&#xe90a;" glyph-name="photos" d="M570.029 671.496c108.72 0 217.437 0.017 326.157-0.015 20.97-0.006 30.363-9.068 30.375-29.983 0.085-155.587 0.087-311.174 0-466.76-0.013-21.188-9.405-29.877-31.827-29.888-150.208-0.068-300.418-0.076-450.627-0.085-65.307-0.004-130.616 0.028-195.923 0.061-29.085 0.015-35.718 6.568-35.728 35.976-0.049 154.048-0.034 308.099-0.006 462.147 0.002 19.188 9.176 28.587 27.968 28.593 109.87 0.038 219.743 0.019 329.613 0.019 0-0.021 0-0.045 0-0.066zM263.563 620.653c0-142.314 0-283.426 0-424.782 204.669 0 408.426 0 612.101 0 0 142.077 0 283.24 0 424.782-204.344 0-407.824 0-612.101 0zM173.001 259.77c-17.672 0-34.167-0.646-50.587 0.182-16.225 0.822-24.931 11.262-24.944 28.453-0.083 97.572-0.061 195.147-0.074 292.719-0.006 58.773-0.034 117.548-0.013 176.322 0.006 19.347 9.778 29.328 28.799 29.328 218.196 0 436.389-0.019 654.581-0.059 22.235-0.004 31.034-9.024 31.085-31.628 0.034-14.489 0.006-28.983 0.006-44.002-4.152-0.309-7.123-0.71-10.094-0.727-12.978-0.072-25.959-0.032-40.166-0.032 0 8.875 0 16.729 0 25.259-204.989 0-408.735 0-613.126 0 0-141.57 0-282.752 0-425.261 8.070 0 15.926 0 24.535 0-0.004-17.257-0.004-33.2-0.004-50.555zM631.009 510.151c29.695-42.336 58.697-83.681 88.68-126.428 15.553 21.532 30.273 41.91 46.719 64.677 21.828-64.807 42.949-127.503 64.421-191.258-174.319 0-347.555 0-521.691 0 7.949 33.76 26.883 57.864 57.201 72.904 28.195 13.985 58.529 17.992 89.492 16.867 21.754-0.791 43.443-3.382 66.714-5.296 35.283 54.825 71.556 111.186 108.465 168.533zM422.046 422.567c-32.289 0.087-58.542 26.586-58.218 58.765 0.337 33.257 26.2 58.782 59.47 58.693 31.982-0.085 57.947-26.87 57.548-59.362-0.401-32.717-26.179-58.184-58.803-58.097z" />
<glyph unicode="&#xe90b;" glyph-name="user" d="M511.966 435.786c0.065 0 0.142 0 0.209 0 43.947 0.065 85.319 17.341 116.526 48.689 31.050 31.172 48.062 72.357 47.931 115.941-0.264 90.788-74.096 164.587-164.61 164.587-0.054 0-0.133 0-0.187 0-90.755-0.099-164.533-74.096-164.457-164.95 0.034-43.848 17.253-85.112 48.482-116.194 31.138-30.997 72.368-48.073 116.106-48.073zM786.422 209.778l-16.593-3.45c-0.002 0.002 0 0.002-0.002 0.002l13.004 4.856 2.927 0.485c-2.839 17.737-7.152 34.814-12.787 50.814-8.584 24.207-20.532 47.138-35.497 68.155-13.447 18.905-29.444 36.157-47.535 51.341-7.989 6.691-17.012 13.248-28.366 20.665-5.657 3.675-12.94 3.653-18.595-0.065-39.017-25.946-84.241-39.677-130.751-39.722-0.099 0-0.199 0-0.308 0-46.543 0-91.757 13.644-130.743 39.481-5.6 3.698-12.874 3.764-18.519 0.111-17.726-11.489-32.295-22.908-44.531-34.924-17.782-17.474-33.108-37.192-45.543-58.647-14.084-24.252-24.328-50.196-30.446-77.134-1.244-5.436-2.355-10.894-3.466-16.329l-1.408-6.889c-0.232-1.122-0.352-2.267-0.352-3.432v-8.252c0-2.092 0.386-4.16 1.145-6.118 4.588-11.817 15.251-25.924 39.997-25.924 155.95 0.133 311.911 0.111 467.828 0.022 0.022 0 0.065 0 0.111 0 24.825 0 35.431 14.129 39.964 25.99 0.748 1.915 1.122 3.961 1.122 6.031v8.252c0.004 1.582-0.214 3.166-0.656 4.685z" />
<glyph unicode="&#xe90c;" glyph-name="users" d="M396.494 433.498c30.951-30.842 71.949-47.805 115.464-47.805 0.065 0 0.152 0 0.22 0 43.69 0.045 84.862 17.248 115.901 48.396 30.884 31.016 47.827 71.981 47.695 115.342-0.285 90.312-73.722 163.705-163.75 163.705-0.045 0-0.11 0-0.174 0-90.268-0.099-163.64-73.699-163.576-164.067 0.045-43.613 17.16-84.656 48.222-115.573zM768.457 157.445c-0.002 0.002 0 0.002-0.002 0.004l12.841 4.806 2.999 0.482c-2.802 17.642-7.092 34.65-12.718 50.542-8.516 24.055-20.402 46.886-35.329 67.854-13.375 18.781-29.266 35.941-47.235 51.001-7.858 6.588-16.833 13.132-28.237 20.576-5.648 3.655-12.893 3.633-18.496-0.065-38.808-25.785-83.79-39.444-130.042-39.509-0.11 0-0.198 0-0.307 0-46.316 0-91.277 13.571-130.042 39.269-5.559 3.698-12.805 3.72-18.409 0.11-17.6-11.36-32.088-22.722-44.303-34.737-17.62-17.27-32.877-36.904-45.31-58.333-13.986-24.122-24.187-49.927-30.295-76.721-1.248-5.471-2.365-10.988-3.481-16.504l-1.356-6.588c-0.24-1.116-0.35-2.277-0.35-3.414v-8.208c0-2.080 0.394-4.157 1.139-6.085 4.575-11.754 15.19-25.763 39.772-25.763 155.103 0.087 310.186 0.087 465.376 0 24.734 0 35.306 14.054 39.817 25.85 0.744 1.905 1.116 3.94 1.116 5.998v8.208c0 1.576-0.22 3.151-0.657 4.662l-16.49-3.436zM658.698 729.622c17.38 10.835 37.474 16.579 58.093 16.603 0.045 0 0.065 0 0.11 0 61.376 0 111.478-50.093 111.676-111.721 0.152-48.921-33.010-92.754-80.617-106.577-8.91-2.583-14.054-11.918-11.469-20.827 2.145-7.354 8.864-12.126 16.154-12.126 1.553 0 3.129 0.208 4.685 0.668 61.946 17.981 105.066 75.123 104.868 138.972-0.263 80.123-65.424 145.231-145.297 145.231-0.045 0-0.11 0-0.152 0-26.901-0.034-53.123-7.541-75.822-21.703-7.881-4.913-10.288-15.278-5.384-23.159 4.902-7.858 15.278-10.266 23.155-5.362zM980.201 265.59c-2.802 17.642-7.092 34.65-12.718 50.519-8.47 23.99-20.357 46.82-35.306 67.834-13.375 18.804-29.286 35.986-47.235 51.023-7.968 6.697-16.963 13.242-28.257 20.596-5.626 3.622-12.847 3.611-18.474-0.087-33.948-22.546-73.153-35.986-113.361-38.897-9.259-0.679-16.241-8.712-15.562-17.972 0.657-9.282 8.93-16.176 17.972-15.562 42.266 3.042 83.505 16.263 119.994 38.348 6.085-4.225 11.317-8.186 16.067-12.191 15.804-13.219 29.745-28.28 41.457-44.74 13.155-18.474 23.575-38.502 31.016-59.581 4.946-13.964 8.732-28.959 11.229-44.653 0.198-1.181 0.482-2.342 0.876-3.698v-1.948c-0.984-1.248-2.757-1.97-7.289-1.97h-88.016c-9.282 0-16.811-7.529-16.811-16.811s7.529-16.811 16.811-16.811h87.993c24.734 0 35.306 14.054 39.817 25.85 0.744 1.905 1.116 3.94 1.116 5.998v8.208c-0.004 1.576-0.88 5.034-1.318 6.545zM266.694 495.641c1.553-0.459 3.129-0.668 4.685-0.668 7.289 0 14.008 4.772 16.154 12.126 2.583 8.91-2.562 18.245-11.469 20.827-47.607 13.822-80.769 57.656-80.617 106.577 0.198 61.627 50.257 111.721 111.633 111.721 0.045 0 0.087 0 0.132 0 20.619-0.022 40.713-5.767 58.093-16.603 7.836-4.904 18.211-2.494 23.159 5.364 4.904 7.881 2.494 18.245-5.384 23.159-22.698 14.161-48.921 21.67-75.822 21.703-0.065 0-0.11 0-0.152 0-79.872 0-145.035-65.12-145.275-145.231-0.202-63.851 42.918-120.993 104.864-138.974zM171.434 252.61h-87.993c-4.575 0-6.348 0.722-7.331 1.97v1.926c0.35 1.226 0.679 2.474 0.876 3.766 2.517 15.65 6.303 30.667 11.229 44.631 7.464 21.1 17.904 41.13 31.016 59.559 11.689 16.417 25.633 31.476 41.479 44.763 4.75 3.983 9.981 7.946 16.067 12.171 36.488-22.087 77.728-35.306 119.994-38.348 9.214-0.592 17.315 6.303 17.972 15.562 0.679 9.259-6.303 17.293-15.562 17.972-40.209 2.911-79.413 16.351-113.361 38.897-5.603 3.698-12.827 3.71-18.474 0.087-11.273-7.331-20.246-13.876-28.237-20.596-18.037-15.102-33.928-32.265-47.281-51.023-14.906-20.948-26.792-43.777-35.306-67.834-5.603-15.869-9.894-32.854-12.608-49.972l16.219-4.4-16.99 1.968c-0.437-1.511-0.657-3.087-0.657-4.662v-8.208c0-2.057 0.372-4.092 1.116-5.998 4.509-11.799 15.082-25.85 39.859-25.85h87.971c9.282 0 16.811 7.529 16.811 16.811s-7.529 16.811-16.808 16.811z" />
<glyph unicode="&#xe90d;" glyph-name="history" d="M479.902 864.765c21.397 0 42.8 0 64.197 0 2.285-0.534 4.546-1.242 6.86-1.571 13.458-1.905 27.073-3.009 40.372-5.682 85.461-17.176 158.643-57.107 218.723-120.289 56.252-59.157 91.878-129.073 106.445-209.513 2.508-13.834 4.261-27.803 6.364-41.707 0-21.397 0-42.8 0-64.197-0.534-2.285-1.242-4.546-1.571-6.86-1.905-13.458-3.009-27.073-5.682-40.372-17.176-85.459-57.109-158.641-120.289-218.717-59.157-56.252-129.073-91.878-209.511-106.447-13.834-2.506-27.803-4.261-41.707-6.364-21.397 0-42.8 0-64.197 0-2.285 0.534-4.546 1.242-6.86 1.571-13.458 1.905-27.073 3.009-40.372 5.682-85.461 17.176-158.641 57.107-218.717 120.289-56.252 59.157-91.878 129.073-106.445 209.513-2.508 13.834-4.261 27.803-6.364 41.707 0 21.397 0 42.8 0 64.197 0.534 2.285 1.242 4.546 1.571 6.86 1.905 13.458 3.011 27.073 5.682 40.374 17.162 85.466 57.105 158.638 120.285 218.714 59.159 56.254 129.070 91.882 209.513 106.447 13.832 2.508 27.801 4.263 41.707 6.364zM871.009 453.363c0.395 196.806-158.231 355.776-351.678 359.56-201.137 3.936-367.143-158.199-366.393-360.090 0.741-199.549 161.727-354.693 352.504-357.947 202.79-3.463 365.698 160.936 365.567 358.477zM819.556 454.252c-102.587 0-204.625 0-307.102 0 0 102.562 0 204.787 0 306.999 160.955 5.836 311.357-136.065 307.102-306.999zM380.274 734.217c8.881-15.354 17.354-30.001 26.158-45.226-15.080-8.714-29.746-17.195-45.254-26.158-8.781 15.23-17.333 30.064-26.095 45.266 15.107 8.731 29.585 17.098 45.195 26.118zM231.685 585.605c8.927 15.46 17.286 29.94 26.095 45.199 15.122-8.703 29.933-17.231 45.273-26.061-8.883-15.392-17.341-30.060-26.114-45.256-15.126 8.729-29.769 17.181-45.254 26.118zM257.827 276.964c-8.762 15.128-17.248 29.771-26.16 45.163 15.109 8.762 29.752 17.254 45.199 26.213 8.657-14.919 17.138-29.537 26.217-45.178-15.090-8.733-29.895-17.305-45.256-26.194zM792.315 322.22c-8.935-15.464-17.326-29.986-26.099-45.174-15.023 8.646-29.716 17.1-45.243 26.036 8.733 15.16 17.185 29.836 26.063 45.245 15.069-8.686 29.731-17.138 45.279-26.107zM380.286 173.594c-15.605 8.993-30.096 17.349-45.199 26.055 8.653 15.016 17.096 29.67 26.093 45.29 15.202-8.762 30.018-17.305 45.262-26.093-8.798-15.221-17.265-29.872-26.152-45.247zM643.699 173.575c-8.995 15.565-17.457 30.204-26.173 45.29 15.263 8.792 29.933 17.238 45.254 26.065 8.792-15.225 17.259-29.881 26.105-45.186-15.018-8.699-29.642-17.17-45.186-26.169zM203.785 428.369c0 17.043 0 33.696 0 50.783 17.073 0 33.749 0 50.925 0 0-16.811 0-33.476 0-50.783-16.64 0-33.282 0-50.925 0zM537.421 196.508c0-16.942 0-33.413 0-50.566-16.794 0-33.413 0-50.564 0 0 16.573 0 33.271 0 50.566 16.463 0 33.101 0 50.564 0z" />
<glyph unicode="&#xe90e;" glyph-name="chat-fill" d="M862.633 478.957l2.303 17.287-0.023 34.372-0.206 2.259c-0.73 4.471-1.345 8.953-2.077 14.027-1.413 10.115-2.895 20.575-5.589 31.019-24.838 96.717-85.051 164.732-178.977 202.127-135.391 53.85-293.726 1.016-368.287-123.108-70.673-117.621-44.1-272.424 61.8-360.075 61.435-50.862 133.749-74.287 214.822-70.613 31.18 1.551 63.088 8.849 97.504 22.307 7.663 2.965 14.459 3.033 22.125 0.115l85.507-32.067 53.394-19.115-33.187 144.879c-0.594 2.579-0.638 6.045 3.604 12.315 25.322 37.246 41.242 79.076 47.285 124.27zM513.769 166.381c-34.998-16.856-73.604-24.017-114.556-21.349-23.688 1.506-46.21 6.522-66.954 14.962-17.359 7.025-33.95 7.184-50.669 0.32-16.924-6.957-33.95-13.641-50.989-20.278l-7.88-3.101c3.627 19.752 7.401 40.097 11.804 60.099 3.979 18.063 1.084 33.437-9.099 48.444-12.203 17.951-21.188 38.182-26.73 60.099-1.985 7.755-3.513 15.874-5.016 23.835l-1.894 8.255-0.091 41.694 1.824 9.375c1.321 6.957 2.658 13.936 4.367 20.825 3.659 14.597 8.771 28.613 15.202 41.671l2.053 4.198-29.341 14.428-2.064-4.185c-7.437-15.132-13.344-31.339-17.552-48.172-1.894-7.549-3.364-15.215-4.823-22.853l-2.282-12.133 0.32-48.057 2.178-11.223c1.597-8.417 3.239-17.107 5.415-25.705 6.512-25.659 17.073-49.358 31.386-70.431 5.052-7.437 6.227-13.889 4.221-23.035-4.766-21.622-8.724-43.266-12.567-64.161l-8.427-45.113h27.222l33.7 14.78c17.208 6.751 34.406 13.479 51.489 20.505 8.711 3.536 16.455 3.489 25.922-0.365 23.973-9.763 49.939-15.577 77.195-17.287 46.838-2.987 90.836 5.222 130.85 24.543l4.208 2.030-14.209 29.424-4.217-2.032z" />
<glyph unicode="&#xe90f;" glyph-name="chat" d="M862.633 478.957l2.303 17.287-0.023 34.372-0.206 2.259c-0.73 4.471-1.345 8.953-2.077 14.027-1.413 10.115-2.895 20.575-5.589 31.019-24.838 96.717-85.051 164.732-178.977 202.127-135.391 53.85-293.726 1.016-368.287-123.108-70.673-117.621-44.1-272.424 61.8-360.075 61.435-50.862 133.749-74.287 214.822-70.613 31.18 1.551 63.088 8.849 97.504 22.307 7.663 2.965 14.459 3.033 22.125 0.115l85.507-32.067 53.394-19.115-33.187 144.879c-0.594 2.579-0.638 6.045 3.604 12.315 25.322 37.246 41.242 79.076 47.285 124.27zM779.862 335.003l19.981-86.579-82.292 30.86c-7.413 2.781-14.962 4.198-22.467 4.198-7.733 0-15.488-1.506-23.058-4.448-31.065-12.156-59.598-18.748-87.264-20.116-72.565-3.672-137.283 17.563-192.332 63.132-93.549 77.458-117.029 214.194-54.616 318.064 66.36 110.505 207.396 157.652 328.166 109.559 83.683-33.333 137.307-93.858 159.408-179.879 2.303-8.964 3.58-18.214 4.949-28.020 0.617-4.427 1.254-8.849 1.894-12.51l0.091-31.18-2.077-14.756c-5.383-40.133-19.478-77.229-41.945-110.254-8.51-12.593-11.361-25.387-8.44-38.069zM513.769 166.381c-34.998-16.856-73.604-24.017-114.556-21.349-23.688 1.506-46.21 6.522-66.954 14.962-17.359 7.025-33.95 7.184-50.669 0.32-16.924-6.957-33.95-13.641-50.989-20.278l-7.88-3.101c3.627 19.752 7.401 40.097 11.804 60.099 3.979 18.063 1.084 33.437-9.099 48.444-12.203 17.951-21.188 38.182-26.73 60.099-1.985 7.755-3.513 15.874-5.016 23.835l-1.894 8.255-0.091 41.694 1.824 9.375c1.321 6.957 2.658 13.936 4.367 20.825 3.659 14.597 8.771 28.613 15.202 41.671l2.053 4.198-29.341 14.428-2.064-4.185c-7.437-15.132-13.344-31.339-17.552-48.172-1.894-7.549-3.364-15.215-4.823-22.853l-2.282-12.133 0.32-48.057 2.178-11.223c1.597-8.417 3.239-17.107 5.415-25.705 6.512-25.659 17.073-49.358 31.386-70.431 5.052-7.437 6.227-13.889 4.221-23.035-4.766-21.622-8.724-43.266-12.567-64.161l-8.427-45.113h27.222l33.7 14.78c17.208 6.751 34.406 13.479 51.489 20.505 8.711 3.536 16.455 3.489 25.922-0.365 23.973-9.763 49.939-15.577 77.195-17.287 46.838-2.987 90.836 5.222 130.85 24.543l4.208 2.030-14.209 29.424-4.217-2.032z" />
<glyph unicode="&#xe910;" glyph-name="phone-fill" d="M629.328 78.539h-4.015l-2.853 1.78-8.098 0.914c-8.052 0.867-16.103 1.756-24.040 3.283-35.149 6.728-69.328 19.981-104.474 40.485-26.789 15.647-52.904 34.328-77.63 55.562-24.622 21.145-45.913 41.467-65.107 62.133-27.68 29.812-50.944 57.365-71.129 84.256-31.375 41.764-53.933 78.985-71.003 117.192-17.904 40.074-27.498 72.28-31.078 104.43-0.32 2.84-0.933 5.644-1.54 8.461l-1.254 7.583 1.22 54.045c0.617 3.137 1.23 6.274 1.678 9.443 4.675 32.822 15.441 62.256 31.977 87.495 9.329 14.245 20.483 28.454 34.101 43.44 6.9 7.596 14.689 13.87 22.229 19.947 2.955 2.373 5.895 4.755 8.771 7.197 1.756 1.506 3.479 3.078 5.201 4.664 4.732 4.344 10.105 9.261 16.536 13.023 6.864 4 13.933 6.715 20.778 9.35 2.692 1.037 5.373 2.064 8.007 3.169l5.428 1.095 13.993-1.152c2.223-0.969 4.526-1.811 6.832-2.67 6.009-2.246 12.83-4.789 19.011-9.135 15.543-10.96 28.76-25.512 40.417-44.49l11.437-18.407c10.48-16.788 20.95-33.585 30.529-50.874 9.135-16.502 13.961-35.047 13.948-53.636 0-25.317-11.541-47.646-34.294-66.35-5.907-4.87-11.976-9.545-18.042-14.222-9.078-7.002-18.154-13.993-26.651-21.646-10.037-9.068-13.878-20.299-11.747-34.351 4.414-29.127 20.789-53.907 37.191-76.785 23.107-32.23 48.446-61.219 75.313-86.15 20.025-18.589 40.144-35.925 65.86-43.612 16.398-4.949 29.286-1.915 41.717 9.855 17.45 16.536 33.757 31.977 51.455 45.639 23.060 17.79 51.57 20.254 82.455 7.093 25.911-10.994 46.781-28.535 64.32-44.133 3.854-3.421 7.801-6.751 11.747-10.060 6.66-5.589 13.32-11.199 19.546-17.244 16.103-15.694 31.886-33.621 38.364-58.438l0.456-3.536-0.662-19.728c-4.652-14.459-13.047-27.141-24.955-37.704-5.998-5.337-11.908-10.765-17.813-16.195-4.995-4.586-10.014-9.193-15.077-13.732-4.039-3.627-8.461-7.367-13.573-10.423l-8.964-5.428c-11.861-7.207-24.132-14.665-36.905-21.166-17.972-9.193-38.614-15.053-61.378-17.45-4.015-0.435-8.052-1.095-12.067-1.733l-5.998-0.957-30.175-0.134zM619.976 82.030c0.023 0 0.023-0.023 0.047-0.023l-0.047 0.023z" />
<glyph unicode="&#xe911;" glyph-name="phone" d="M629.328 78.539h-4.015l-2.853 1.78-8.098 0.914c-8.052 0.867-16.103 1.756-24.040 3.283-35.149 6.728-69.328 19.981-104.474 40.485-26.789 15.647-52.904 34.328-77.63 55.562-24.622 21.145-45.913 41.467-65.107 62.133-27.68 29.812-50.944 57.365-71.129 84.256-31.375 41.764-53.933 78.985-71.003 117.192-17.904 40.074-27.498 72.28-31.078 104.43-0.32 2.84-0.933 5.644-1.54 8.461l-1.254 7.583 1.22 54.045c0.617 3.137 1.23 6.274 1.678 9.443 4.675 32.822 15.441 62.256 31.977 87.495 9.329 14.245 20.483 28.454 34.101 43.44 6.9 7.596 14.689 13.87 22.229 19.947 2.955 2.373 5.895 4.755 8.771 7.197 1.756 1.506 3.479 3.078 5.201 4.664 4.732 4.344 10.105 9.261 16.536 13.023 6.864 4 13.933 6.715 20.778 9.35 2.692 1.037 5.373 2.064 8.007 3.169l5.428 1.095 13.993-1.152c2.223-0.969 4.526-1.811 6.832-2.67 6.009-2.246 12.83-4.789 19.011-9.135 15.543-10.96 28.76-25.512 40.417-44.49l11.437-18.407c10.48-16.788 20.95-33.585 30.529-50.874 9.135-16.502 13.961-35.047 13.948-53.636 0-25.317-11.541-47.646-34.294-66.35-5.907-4.87-11.976-9.545-18.042-14.222-9.078-7.002-18.154-13.993-26.651-21.646-10.037-9.068-13.878-20.299-11.747-34.351 4.414-29.127 20.789-53.907 37.191-76.785 23.107-32.23 48.446-61.219 75.313-86.15 20.025-18.589 40.144-35.925 65.86-43.612 16.398-4.949 29.286-1.915 41.717 9.855 17.45 16.536 33.757 31.977 51.455 45.639 23.060 17.79 51.57 20.254 82.455 7.093 25.911-10.994 46.781-28.535 64.32-44.133 3.854-3.421 7.801-6.751 11.747-10.060 6.66-5.589 13.32-11.199 19.546-17.244 16.103-15.694 31.886-33.621 38.364-58.438l0.456-3.536-0.662-19.728c-4.652-14.459-13.047-27.141-24.955-37.704-5.998-5.337-11.908-10.765-17.813-16.195-4.995-4.586-10.014-9.193-15.077-13.732-4.039-3.627-8.461-7.367-13.573-10.423l-8.964-5.428c-11.861-7.207-24.132-14.665-36.905-21.166-17.972-9.193-38.614-15.053-61.378-17.45-4.015-0.435-8.052-1.095-12.067-1.733l-5.998-0.957-30.175-0.134zM619.976 82.030c0.023 0 0.023-0.023 0.047-0.023l-0.047 0.023zM633.797 106.55l27.233 0.753c4.518 0.73 9.055 1.459 13.594 1.939 19.614 2.053 36.47 6.819 51.57 14.529 12.018 6.113 23.561 13.161 35.081 20.163l9.099 5.519c3.375 2.007 6.41 4.652 9.329 7.275 4.949 4.427 9.878 8.964 14.803 13.479 6.022 5.542 12.041 11.061 18.154 16.513 7.663 6.796 12.979 14.459 16.216 23.355v11.223c-4.766 16.377-15.603 29.4-30.359 43.769-5.725 5.566-11.884 10.72-18.019 15.874-4.151 3.489-8.304 6.978-12.362 10.582-15.851 14.095-34.646 29.948-56.658 39.276-21.599 9.214-39.367 8.030-54.376-3.513-16.559-12.773-32.344-27.712-47.625-42.174-21.393-20.278-44.659-25.729-70.685-17.972-31.477 9.42-55.254 29.833-76.9 49.952-28.238 26.208-54.822 56.591-79.034 90.346-18.383 25.659-36.767 53.647-42.116 88.92-3.549 23.402 3.604 43.93 20.676 59.348 9.032 8.143 18.668 15.59 28.317 23.037 5.839 4.495 11.679 9 17.37 13.673 16.411 13.503 24.053 27.701 24.053 44.715 0.013 13.857-3.593 27.701-10.436 40.050-9.339 16.856-19.569 33.233-29.789 49.597l-11.541 18.589c-9.625 15.671-20.311 27.519-32.684 36.245-3.216 2.259-7.801 3.969-12.648 5.782-1.811 0.672-3.616 1.345-5.396 2.053h-2.885c-2.030-0.81-4.083-1.608-6.136-2.395-6.064-2.333-11.8-4.533-16.704-7.396-3.833-2.236-7.663-5.748-11.725-9.477-1.973-1.801-3.935-3.604-5.954-5.313-3.078-2.624-6.227-5.167-9.375-7.697-7.002-5.657-13.628-10.994-19.079-16.992-12.603-13.87-22.878-26.925-31.386-39.94-14.266-21.781-23.584-47.372-27.667-76.066-0.526-3.64-1.22-7.265-1.926-10.892l-0.696-3.627 0.649-46.815c0.787-3.708 1.54-7.413 1.962-11.153 3.26-29.148 12.145-58.79 28.819-96.115 16.195-36.222 37.736-71.756 67.809-111.785 19.614-26.094 42.265-52.94 69.27-82.020 18.464-19.889 39.013-39.482 62.827-59.942 23.447-20.116 48.172-37.817 73.502-52.599 32.355-18.886 63.637-31.065 95.638-37.202 7.184-1.368 14.459-2.144 21.758-2.919l16.428-2.556z" />
<glyph unicode="&#xe912;" glyph-name="search" d="M449.544 222.675c-158.675 0-287.771 129.087-287.771 287.771s129.101 287.787 287.771 287.787c158.684 0 287.771-129.101 287.771-287.784s-129.085-287.776-287.771-287.776zM449.544 763.618c-139.59 0-253.153-113.565-253.153-253.163 0-139.59 113.565-253.153 253.153-253.153s253.153 113.565 253.153 253.153c0.002 139.598-113.563 253.163-253.153 253.163zM844.919 97.766c-4.418 0-8.861 1.69-12.239 5.071l-204.12 204.12c-6.76 6.76-6.76 17.722 0 24.478s17.722 6.76 24.478 0l204.12-204.12c6.76-6.76 6.76-17.722 0-24.478-3.378-3.378-7.821-5.071-12.239-5.071z" />
<glyph unicode="&#xe913;" glyph-name="dot" d="M597.333 448c0-47.128-38.205-85.333-85.333-85.333s-85.333 38.205-85.333 85.333c0 47.128 38.205 85.333 85.333 85.333s85.333-38.205 85.333-85.333z" />
</font>
</defs>
</svg>
