<?xml version="1.0" encoding="utf-8"?><svg xmlns="http://www.w3.org/2000/svg" xmlns:xlink="http://www.w3.org/1999/xlink"><symbol viewBox="0 0 24 24" id="file"><path d="M4.86 22.25h14.28c.69 0 1.25-.56 1.25-1.25V7.91c0-.32-.13-.64-.35-.87L15.3 2.13c-.24-.24-.56-.38-.9-.38H4.86c-.69 0-1.25.56-1.25 1.25v18c0 .69.56 1.25 1.25 1.25ZM4.86 0c-1.66 0-3 1.34-3 3v18c0 1.66 1.34 3 3 3h14.28c1.66 0 3-1.34 3-3V7.91c0-.78-.3-1.53-.84-2.08L16.55.92C15.98.34 15.21 0 14.39 0H4.86Z" fill-rule="evenodd"/></symbol><symbol viewBox="0 0 24 24" id="file-archive"><path d="M21.3 5.82 16.55.92C15.98.34 15.21 0 14.39 0H4.86c-1.66 0-3 1.34-3 3v18c0 1.66 1.34 3 3 3h14.28c1.66 0 3-1.34 3-3V7.91c0-.78-.3-1.53-.84-2.08Zm-10.7-.89c.04.24.01.59-.16.85-.14.21-.48.52-1.4.52-.92 0-1.23-.3-1.36-.5-.17-.26-.19-.61-.14-.86v-.02l.54-3.19h1.95l.57 3.18ZM20.39 21c0 .69-.56 1.25-1.25 1.25H4.86c-.69 0-1.25-.56-1.25-1.25V3c0-.69.56-1.25 1.25-1.25H6.3l-.48 2.87c-.11.56-.09 1.4.39 2.14.52.81 1.47 1.3 2.84 1.3 1.37 0 2.31-.5 2.84-1.29.5-.74.54-1.59.43-2.14l-.52-2.87h2.59c.34 0 .66.14.9.38l4.74 4.91c.23.23.35.54.35.87v13.09Z" fill-rule="evenodd"/><rect x="7.81" y="9.59" width="2.52" height="2.52" rx=".75" ry=".75"/><rect x="7.81" y="13.75" width="2.52" height="2.52" rx=".75" ry=".75"/><rect x="7.81" y="17.9" width="2.52" height="2.52" rx=".75" ry=".75"/></symbol><symbol viewBox="0 0 24 24" id="file-image"><path d="M21.3 5.83 16.55.92C15.99.33 15.21 0 14.4 0H4.86c-1.66 0-3 1.34-3 3v18c0 1.66 1.34 3 3 3h14.28c1.66 0 3-1.34 3-3V7.91c0-.78-.3-1.53-.84-2.08ZM20.39 21c0 .69-.56 1.25-1.25 1.25H4.86c-.69 0-1.25-.56-1.25-1.25V3c0-.69.56-1.25 1.25-1.25h9.54c.34 0 .66.14.9.38l4.74 4.91c.22.23.35.55.35.87V21Z"/><path d="M8.23 10.91c.83 0 1.62-.33 2.21-.92a3.118 3.118 0 0 0 0-4.42 3.118 3.118 0 0 0-4.42 0 3.118 3.118 0 0 0 0 4.42c.59.59 1.38.92 2.21.92ZM7.26 6.8c.26-.26.61-.4.97-.4a1.37 1.37 0 1 1 0 2.74 1.37 1.37 0 0 1-.97-2.34ZM15.57 12.1c-.17-.25-.4-.46-.67-.61-.27-.15-.57-.23-.88-.23s-.61.07-.88.21c-.27.14-.5.35-.68.6l-2.15 3.08-.94-.75a1.871 1.871 0 0 0-1.47-.39c-.26.04-.51.13-.73.27-.22.14-.41.32-.55.54l-2.11 3.17a.871.871 0 1 0 1.45.97l2.11-3.17s.02-.03.04-.04c.01-.02.03-.02.05-.02h.06l.05.03 1.67 1.34c.19.15.43.21.67.18.24-.03.45-.16.59-.36l2.69-3.85s.03-.03.05-.04c.02-.02.04-.02.06-.02s.04 0 .06.02.05.04.05.04l3.93 5.89c.26.4.81.51 1.21.24.4-.26.51-.81.24-1.21l-3.92-5.89Z"/></symbol><symbol viewBox="0 0 24 24" id="file-media"><path d="M21.3 5.82 16.55.92C15.98.34 15.21 0 14.39 0H4.86c-1.66 0-3 1.34-3 3v18c0 1.66 1.34 3 3 3h14.28c1.66 0 3-1.34 3-3V7.91c0-.78-.3-1.53-.84-2.08ZM20.39 21c0 .69-.56 1.25-1.25 1.25H4.86c-.69 0-1.25-.56-1.25-1.25V3c0-.69.56-1.25 1.25-1.25h9.53c.34 0 .66.14.9.38l4.74 4.91c.23.23.35.54.35.87V21Z" fill-rule="evenodd"/><path d="m15.67 10.45-5.79-2.9c-.26-.13-.56-.19-.85-.18-.29.01-.58.1-.83.26s-.46.37-.6.63c-.14.26-.22.55-.22.84v5.79c0 .29.08.58.22.84s.35.47.6.63c.25.16.54.24.83.26.29.01.59-.05.85-.18l5.79-2.89c.29-.14.53-.36.7-.64a1.718 1.718 0 0 0 0-1.82 1.8 1.8 0 0 0-.7-.64Zm-6.55 4.41V9.13l5.73 2.86-5.73 2.86Z" fill-rule="evenodd"/></symbol><symbol viewBox="0 0 24 24" id="file-ms-excel"><path d="M19.86 2.61h-2.11c.03.14.05.29.05.45v1.3h2.06c.14 0 .25.11.25.25v14.78c0 .14-.11.25-.25.25H17.8v1.3c0 .15-.02.3-.05.45h2.11c1.1 0 2-.9 2-2V4.61c0-1.1-.9-2-2-2ZM14.54.74 3.79 2.65c-.95.17-1.65 1-1.65 1.97v14.77c0 .97.7 1.8 1.65 1.97l10.75 1.91c1.23.22 2.35-.72 2.35-1.97V2.7A2 2 0 0 0 14.54.73Zm.6 20.56c0 .16-.14.27-.29.25L4.1 19.64a.249.249 0 0 1-.21-.25V4.62c0-.12.09-.22.21-.25l10.75-1.91c.15-.03.29.09.29.25V21.3Z"/><path d="M12.91 7.61c.13-.27.12-.51-.02-.74a.712.712 0 0 0-.62-.35h-.5c-.29 0-.5.13-.64.38L9.61 9.73s-.05.06-.1.06-.07-.02-.1-.06L7.89 6.9a.672.672 0 0 0-.64-.38h-.5c-.27 0-.47.12-.62.35-.14.22-.14.47-.02.74l2.22 4.13c.05.13.05.25 0 .37l-2.22 4.16a.69.69 0 0 0 .02.72c.15.23.36.35.62.35h.5c.14 0 .27-.03.38-.1.13-.07.21-.17.26-.29l1.52-2.82s.05-.06.1-.06.09.02.1.06l1.52 2.82c.12.26.33.38.64.38h.48c.28 0 .49-.12.64-.35.14-.23.14-.47.02-.72l-2.22-4.16a.475.475 0 0 1 0-.37l2.22-4.13Z"/></symbol><symbol viewBox="0 0 24 24" id="file-ms-notes"><path d="M19.86 2.61h-2.11c.03.14.05.29.05.45v1.3h2.06c.14 0 .25.11.25.25v14.78c0 .14-.11.25-.25.25H17.8v1.3c0 .15-.02.3-.05.45h2.11c1.1 0 2-.9 2-2V4.61c0-1.1-.9-2-2-2ZM14.54.74 3.79 2.65c-.95.17-1.65 1-1.65 1.97v14.77c0 .97.7 1.8 1.65 1.97l10.75 1.91c1.23.22 2.35-.72 2.35-1.97V2.7A2 2 0 0 0 14.54.73Zm.6 20.56c0 .16-.14.27-.29.25L4.1 19.64a.249.249 0 0 1-.21-.25V4.62c0-.12.09-.22.21-.25l10.75-1.91c.15-.03.29.09.29.25V21.3Z"/><path d="M12.44 6.52h-.43c-.2 0-.38.07-.53.21-.14.14-.21.31-.21.53v5.5s-.02.07-.06.08c-.03.01-.06 0-.1-.05L7.7 6.89a.68.68 0 0 0-.64-.37H6.6c-.2 0-.38.07-.53.21-.14.14-.21.31-.21.53v9.34c0 .2.07.38.21.53.15.14.33.21.53.21h.45c.19 0 .36-.07.5-.21.15-.15.22-.33.22-.53v-5.5s.02-.05.06-.06c.04-.02.07-.01.1.03l3.41 5.9c.14.25.35.37.64.37h.46c.2 0 .37-.07.51-.21.15-.15.22-.33.22-.53V7.26c0-.21-.07-.39-.22-.53a.694.694 0 0 0-.51-.21Z"/></symbol><symbol viewBox="0 0 24 24" id="file-ms-powerpoint"><path d="M14.54.74 3.79 2.65c-.95.17-1.65 1-1.65 1.97v14.77c0 .97.7 1.8 1.65 1.97l10.75 1.91c1.23.22 2.35-.72 2.35-1.97V2.7A2 2 0 0 0 14.54.73Zm.6 20.56c0 .16-.14.27-.29.25L4.1 19.64a.249.249 0 0 1-.21-.25V4.62c0-.12.09-.22.21-.25l10.75-1.91c.15-.03.29.09.29.25V21.3ZM19.86 2.61h-2.11c.03.14.05.29.05.45v1.3h2.06c.14 0 .25.11.25.25v14.78c0 .14-.11.25-.25.25H17.8v1.3c0 .15-.02.3-.05.45h2.11c1.1 0 2-.9 2-2V4.61c0-1.1-.9-2-2-2Z"/><path d="M12.04 6.81c-.32-.19-.68-.29-1.07-.29h-4.3c-.2 0-.38.07-.53.21-.14.14-.21.31-.21.53v9.34c0 .2.07.38.21.53.15.14.33.21.53.21h.43c.2 0 .37-.07.51-.21.15-.15.22-.33.22-.53v-3.3c0-.14.06-.21.19-.21h2.94a2.069 2.069 0 0 0 1.82-1.06c.19-.32.29-.67.29-1.06V8.63c0-.39-.1-.75-.29-1.07-.18-.32-.43-.58-.75-.77Zm-.85 4.18c0 .14-.07.21-.22.21H8.03c-.13 0-.19-.07-.19-.21V8.64c0-.14.06-.21.19-.21h2.94c.15 0 .22.07.22.22v2.34Z"/></symbol><symbol viewBox="0 0 24 24" id="file-ms-word"><path d="M14.54.74 3.79 2.65c-.95.17-1.65 1-1.65 1.97v14.77c0 .97.7 1.8 1.65 1.97l10.75 1.91c1.23.22 2.35-.72 2.35-1.97V2.7A2 2 0 0 0 14.54.73Zm.6 20.56c0 .16-.14.27-.29.25L4.1 19.64a.249.249 0 0 1-.21-.25V4.62c0-.12.09-.22.21-.25l10.75-1.91c.15-.03.29.09.29.25V21.3ZM19.86 2.61h-2.11c.03.14.05.29.05.45v1.3h2.06c.14 0 .25.11.25.25v14.78c0 .14-.11.25-.25.25H17.8v1.3c0 .15-.02.3-.05.45h2.11c1.1 0 2-.9 2-2V4.61c0-1.1-.9-2-2-2Z" fill-rule="evenodd"/><path d="M14.07 7a.61.61 0 0 0-.3-.08h-.42a.71.71 0 0 0-.44.15c-.12.1-.2.23-.24.38-.03.15-.08.41-.17.77-.08.36-.18.79-.3 1.29-.11.5-.23 1.04-.36 1.62-.13.58-.26 1.17-.39 1.76-.01.03-.04.04-.08.04s-.07-.01-.09-.04l-1.16-3.78a.644.644 0 0 0-.24-.36.6.6 0 0 0-.42-.15c-.16 0-.3.05-.41.15-.11.09-.19.21-.24.35-.14.46-.28.92-.42 1.37-.14.45-.27.86-.38 1.23-.11.36-.2.65-.27.87l-.09.33c-.02.03-.05.04-.09.04s-.07-.01-.08-.04L6.26 7.47A.708.708 0 0 0 6 7.09a.636.636 0 0 0-.42-.15h-.42a.61.61 0 0 0-.3.08c-.09.04-.17.1-.26.18-.12.19-.16.39-.12.59l2 8.76c.03.16.1.29.23.39.13.1.28.15.44.15h.56c.15 0 .29-.05.41-.14.13-.1.22-.22.26-.35.07-.2.16-.48.26-.83.11-.35.23-.74.36-1.17.13-.44.27-.88.41-1.32.01-.04.03-.06.06-.06.04 0 .07.02.08.06.18.59.35 1.16.51 1.7l.45 1.43.06.2c.05.14.14.26.26.35.12.09.26.14.4.14h.54c.16 0 .3-.05.42-.15.13-.1.22-.23.26-.39l2-8.76a.675.675 0 0 0-.38-.77Z" fill-rule="evenodd"/></symbol><symbol viewBox="0 0 24 24" id="file-pdf"><path d="M21.3 5.82 16.55.92C15.98.34 15.21 0 14.39 0H4.86c-1.66 0-3 1.34-3 3v18c0 1.66 1.34 3 3 3h14.28c1.66 0 3-1.34 3-3V7.91c0-.78-.3-1.53-.84-2.08ZM20.39 21c0 .69-.56 1.25-1.25 1.25H4.86c-.69 0-1.25-.56-1.25-1.25V3c0-.69.56-1.25 1.25-1.25h9.53c.34 0 .66.14.9.38l4.74 4.91c.23.23.35.54.35.87V21Z"/><path d="M17.78 11.42c-.28-.18-.61-.27-.95-.26-1.31-.05-2.62.1-3.88.46-.13.05-.27.05-.39 0-.74-.44-1.44-.95-2.08-1.53a.627.627 0 0 1-.18-.34c-.14-1.25-.43-2.49-.86-3.68-.09-.28-.25-.53-.47-.72-.22-.19-.5-.31-.79-.35-.32-.02-.64.04-.93.19s-.53.37-.69.64c-.18.29-.28.63-.28.97s.1.68.28.97c.61.98 1.32 1.9 2.13 2.73.08.09.14.21.15.33.06.84.04 1.69-.06 2.53a.539.539 0 0 1-.24.37c-1.02.7-1.95 1.54-2.75 2.48-.21.23-.35.51-.41.82-.06.31-.03.62.09.91.12.29.31.54.56.73.25.19.54.3.85.34h.18c.29 0 .57-.07.83-.21.26-.13.48-.32.65-.56a9.47 9.47 0 0 0 1.56-3.47c.03-.14.12-.26.23-.34.65-.38 1.33-.7 2.04-.97.14-.05.29-.05.43 0 1.25.59 2.59.99 3.96 1.18.3.05.6 0 .87-.11.27-.12.51-.31.68-.55.18-.27.29-.58.31-.9.02-.32-.05-.64-.19-.93-.15-.3-.38-.55-.66-.73Z"/></symbol><symbol viewBox="0 0 24 24" id="file-text"><path d="M21.3 5.82 16.55.92C15.98.34 15.21 0 14.39 0H4.86c-1.66 0-3 1.34-3 3v18c0 1.66 1.34 3 3 3h14.28c1.66 0 3-1.34 3-3V7.91c0-.78-.3-1.53-.84-2.08ZM20.39 21c0 .69-.56 1.25-1.25 1.25H4.86c-.69 0-1.25-.56-1.25-1.25V3c0-.69.56-1.25 1.25-1.25h9.53c.34 0 .66.14.9.38l4.74 4.91c.23.23.35.54.35.87V21Z" fill-rule="evenodd"/><path d="M16.85 8.63h-9.7c-.48 0-.88.39-.88.88s.39.87.88.87h9.71c.48 0 .88-.39.88-.87s-.39-.88-.88-.88ZM16.85 12.25h-9.7c-.48 0-.88.39-.88.88s.39.88.88.88h9.71c.48 0 .88-.39.88-.88s-.39-.88-.88-.88ZM13.11 15.87H7.15c-.48 0-.88.39-.88.88s.39.88.88.88h5.96c.48 0 .88-.39.88-.88s-.39-.88-.88-.88Z" fill-rule="evenodd"/></symbol><symbol viewBox="0 0 24 24" id="folder"><path d="M21.04 21.91H2.96c-1.25 0-2.27-1.02-2.27-2.27V4.35c0-1.25 1.02-2.27 2.27-2.27h4.87c.71 0 1.39.34 1.81.91l1.41 1.88h9.99c1.25 0 2.27 1.02 2.27 2.27v12.52c0 1.25-1.02 2.27-2.27 2.27ZM2.96 3.84c-.28 0-.52.23-.52.52v15.3c0 .28.23.52.52.52h18.08c.28 0 .52-.23.52-.52V7.13c0-.28-.23-.52-.52-.52H10.61c-.28 0-.54-.13-.7-.35L8.24 4.03a.521.521 0 0 0-.41-.21H2.96Z"/></symbol></svg>