<?xml version="1.0" encoding="utf-8"?><svg xmlns="http://www.w3.org/2000/svg" xmlns:xlink="http://www.w3.org/1999/xlink"><symbol viewBox="0 0 24 24" id="link"><path fill-rule="evenodd" d="M7.4 6.4h-.097c-.837 0-1.372 0-1.834.088-1.888.36-3.391 1.785-3.776 3.64-.094.453-.094.976-.093 1.771v.202c0 .795 0 1.318.093 1.77.385 1.856 1.888 3.28 3.776 3.641.462.088.997.088 1.834.088H8.8a.8.8 0 1 0 0-1.6H7.4c-.967 0-1.337-.004-1.63-.06-1.286-.245-2.263-1.202-2.51-2.393-.056-.27-.06-.615-.06-1.547 0-.932.004-1.276.06-1.547.247-1.19 1.224-2.148 2.51-2.393.293-.056.663-.06 1.63-.06h1.4a.8.8 0 1 0 0-1.6H7.4ZM16.6 8c.966 0 1.337.004 1.63.06 1.285.245 2.263 1.202 2.51 2.393.056.27.06.615.06 1.547 0 .932-.005 1.276-.06 1.547-.247 1.19-1.225 2.148-2.51 2.393-.293.056-.664.06-1.63.06h-1.4a.8.8 0 0 0 0 1.6h1.497c.836 0 1.371 0 1.833-.088 1.889-.36 3.392-1.785 3.776-3.64.094-.453.094-.976.094-1.771v-.202c0-.795 0-1.318-.094-1.77-.384-1.856-1.887-3.28-3.776-3.641-.462-.088-.997-.088-1.833-.088H15.2a.8.8 0 0 0 0 1.6h1.4ZM8 11.2a.8.8 0 0 0 0 1.6h8a.8.8 0 0 0 0-1.6H8Z" clip-rule="evenodd"/></symbol><symbol viewBox="0 0 24 24" id="link-external"><path d="M20.63 2.5h-7.88c-.48 0-.88.39-.88.88s.39.88.88.88h5.76l-9.3 9.3c-.34.34-.34.9 0 1.24s.9.34 1.24 0l9.3-9.3v5.76c0 .48.39.88.88.88s.88-.39.88-.88V3.37c0-.48-.39-.88-.88-.88ZM10.09 6.24c0 .48-.39.88-.88.88H7.78l-2.29.01c-.69 0-1.25.56-1.25 1.25v10.13c0 .69.56 1.25 1.25 1.25h10.13c.69 0 1.25-.56 1.25-1.25V14.79c0-.48.39-.88.88-.88s.88.39.88.88v3.72c0 1.66-1.34 3-3 3H5.5c-1.66 0-3-1.34-3-3V8.38c0-1.65 1.34-2.99 2.99-3s3.73-.01 3.73-.01c.48 0 .88.39.88.88Z"/></symbol><symbol viewBox="0 0 24 24" id="link-external-tab"><path d="M2.09 8.9c.48 0 .88.39.88.88v10.11c0 .56.15.79.27.9.14.12.41.24.91.24h10.22c.48 0 .88.39.88.88s-.39.88-.88.88H4.15c-.74 0-1.5-.17-2.08-.69-.6-.54-.85-1.31-.85-2.2V9.79c0-.48.39-.88.88-.88ZM14.75.5h7.88c.48 0 .88.39.88.87v7.87c0 .48-.39.87-.88.87s-.88-.39-.88-.87V3.49l-9.3 9.3c-.34.34-.9.34-1.24 0a.881.881 0 0 1 0-1.24l9.31-9.3h-5.76c-.48 0-.88-.39-.88-.88s.39-.87.88-.87Z"/><path d="M11.27 3.96c.48 0 .88-.39.88-.87s-.39-.88-.88-.88H9.09c-1.66 0-3 1.34-3 3v9.69c0 1.66 1.34 3 3 3h9.69c1.66 0 3-1.34 3-3v-2.23c0-.48-.39-.88-.88-.88s-.88.39-.88.88v2.23c0 .69-.56 1.25-1.25 1.25H9.08c-.69 0-1.25-.56-1.25-1.25V5.22c0-.69.56-1.25 1.25-1.25h2.18Z"/></symbol><symbol viewBox="0 0 24 24" id="link-tab"><path fill-rule="evenodd" d="M9.59 3.47h9.69c.69 0 1.25.56 1.25 1.25v9.69c0 .69-.56 1.25-1.25 1.25H9.59c-.69 0-1.25-.56-1.25-1.25V4.72c0-.69.56-1.25 1.25-1.25Zm-3 1.25c0-1.66 1.34-3 3-3h9.69c1.66 0 3 1.34 3 3v9.69c0 1.66-1.34 3-3 3H9.59c-1.66 0-3-1.34-3-3V4.72ZM3.47 9.28c0-.48-.39-.88-.88-.88s-.88.39-.88.88v10.11c0 .88.25 1.66.85 2.2.58.52 1.34.69 2.08.69h10.22c.48 0 .88-.39.88-.87s-.39-.88-.88-.88H4.65c-.51 0-.77-.12-.91-.24-.12-.11-.27-.34-.27-.9V9.28Z"/></symbol><symbol viewBox="0 0 24 24" id="lock"><path d="M17.73 9.14V6.53C17.73 3.37 15.16.8 12 .8S6.27 3.37 6.27 6.53v2.61c-1.69.7-2.88 2.36-2.88 4.3v5.1c0 2.57 2.09 4.66 4.66 4.66h7.9c2.57 0 4.66-2.09 4.66-4.66v-5.1c0-1.94-1.19-3.6-2.88-4.3ZM8.02 6.53c0-2.19 1.79-3.98 3.98-3.98s3.98 1.79 3.98 3.98v2.25H8.02V6.53Zm10.84 12.01c0 1.6-1.31 2.91-2.91 2.91h-7.9a2.92 2.92 0 0 1-2.91-2.91v-5.1c0-1.6 1.3-2.91 2.91-2.91h7.9c1.6 0 2.91 1.31 2.91 2.91v5.1Z"/><path d="M12 14.4a1.609 1.609 0 1 0 0 3.22 1.609 1.609 0 1 0 0-3.22Z"/></symbol></svg>