<svg xmlns="http://www.w3.org/2000/svg" fill="none" stroke-linecap="square" stroke-miterlimit="10" viewBox="0 0 576 356"><path fill="#fff" d="M0 0h576v356H0V0Z"/><path stroke="#ccc" stroke-linecap="butt" d="M96.5 24.5v245m52-245v245m51-245v245m51-245v245m51-245v245m52-245v245m51-245v245m51-245v245m51-245v245m52-245v245"/><path stroke="#e6e6e6" stroke-linecap="butt" d="M122.5 24.5v245m51-245v245m51-245v245m52-245v245m51-245v245m51-245v245m52-245v245m51-245v245m51-245v245"/><path stroke="#ccc" stroke-linecap="butt" d="M96.5 269.5h462m-462-82h462m-462-81h462m-462-82h462"/><path stroke="#e6e6e6" stroke-linecap="butt" d="M96.5 228.5h462m-462-82h462m-462-81h462"/><path stroke="#000" stroke-linecap="butt" d="M558.5 269.5h-462m0 0v-245"/><clipPath id="a"><path d="M96.8 24.8h461.4v244.4H96.8V24.8Z"/></clipPath><path stroke="#4285f4" stroke-linecap="butt" stroke-width="2" d="M96.8 187.733h51.267l51.266-11.638 51.267-11.638 51.267-11.638 51.266-11.638 51.267-11.638 51.267-11.638 51.266-11.638H558.2" clip-path="url(#a)"/><path d="M99.8 187.733a3 3 0 1 1-6 0 3 3 0 0 1 6 0Zm51.267 0a3 3 0 1 1-6 0 3 3 0 0 1 6 0Zm51.266-11.638a3 3 0 1 1-6 0 3 3 0 0 1 6 0Zm51.267-11.638a3 3 0 1 1-6 0 3 3 0 0 1 6 0Zm51.267-11.637a3 3 0 1 1-6 0 3 3 0 0 1 6 0Zm51.266-11.64a3 3 0 1 1-6 .001 3 3 0 0 1 6 0Zm51.267-11.637a3 3 0 1 1-6 0 3 3 0 0 1 6 0Zm51.267-11.638a3 3 0 1 1-6 0 3 3 0 0 1 6 0Zm51.266-11.638a3 3 0 1 1-6 0 3 3 0 0 1 6 0Zm51.267 0a3 3 0 1 1-6 0 3 3 0 0 1 6 0Z" clip-path="url(#a)"/><path stroke="#000" stroke-linecap="butt" d="M96.5 275.5v-12m52 12v-12m51 12v-12m51 12v-12m51 12v-12m52 12v-12m51 12v-12m51 12v-12m51 12v-12m52 12v-12m-468 6h12m-12-82h12m-12-81h12m-12-82h12"/><path fill="#000" d="m259 329.981 2.234.719q-.515 1.875-1.718 2.797-1.188.906-3.032.906-2.28 0-3.75-1.562-1.468-1.563-1.468-4.266 0-2.86 1.468-4.438 1.485-1.593 3.891-1.593 2.094 0 3.406 1.25.781.734 1.172 2.11l-2.281.546q-.203-.89-.86-1.406-.64-.516-1.562-.516-1.266 0-2.063.922-.796.906-.796 2.953 0 2.172.78 3.094.782.922 2.032.922.922 0 1.578-.578.672-.594.969-1.86Zm4.14-.047q0-1.093.532-2.109.547-1.031 1.531-1.563 1-.546 2.219-.546 1.875 0 3.078 1.218 1.203 1.22 1.203 3.094 0 1.875-1.219 3.125-1.203 1.234-3.046 1.234-1.141 0-2.188-.515-1.031-.516-1.578-1.516-.531-1-.531-2.422Zm2.25.11q0 1.234.579 1.89.594.657 1.453.657.86 0 1.437-.657.594-.656.594-1.906 0-1.219-.594-1.875-.578-.656-1.437-.656-.86 0-1.453.656-.578.656-.578 1.89Zm15.813 4.156H279v-4.234q0-1.344-.14-1.735-.141-.406-.454-.625-.312-.219-.765-.219-.563 0-1.016.313-.453.313-.625.828-.172.516-.172 1.906v3.766h-2.187v-8.297h2.03v1.219q1.095-1.406 2.735-1.406.735 0 1.328.265.61.25.907.656.312.407.437.922.125.516.125 1.485v5.156Zm6.25-8.297v1.75h-1.5v3.344q0 1.015.047 1.187.047.157.188.266.156.11.375.11.312 0 .89-.204l.188 1.703q-.766.328-1.735.328-.594 0-1.078-.203-.469-.203-.703-.515-.219-.313-.297-.86-.078-.375-.078-1.547v-3.609h-1v-1.75h1v-1.656l2.203-1.281v2.937h1.5Zm2.844 2.531-2-.359q.344-1.203 1.156-1.781.828-.578 2.438-.578 1.468 0 2.187.343.719.344 1.016.891.297.531.297 1.953l-.032 2.563q0 1.093.11 1.625.11.515.39 1.109h-2.171q-.079-.219-.204-.656-.062-.188-.078-.25-.562.547-1.203.828-.64.265-1.375.265-1.281 0-2.015-.687-.735-.703-.735-1.766 0-.703.328-1.25.344-.562.938-.843.61-.297 1.75-.516 1.547-.297 2.14-.547v-.219q0-.625-.312-.89-.313-.281-1.188-.281-.578 0-.906.234-.328.234-.531.812Zm2.937 1.782q-.421.14-1.343.343-.907.188-1.188.375-.437.297-.437.766 0 .469.343.813.344.328.875.328.594 0 1.141-.391.39-.297.516-.734.093-.282.093-1.063v-.437Zm4.422-5.438v-2.031h2.188v2.031h-2.188Zm0 9.422v-8.297h2.188v8.297h-2.188Zm11.547 0H307v-4.234q0-1.344-.14-1.735-.141-.406-.454-.625-.312-.219-.765-.219-.563 0-1.016.313-.453.313-.625.828-.172.516-.172 1.906v3.766h-2.187v-8.297h2.03v1.219q1.095-1.406 2.735-1.406.735 0 1.328.265.61.25.907.656.312.407.437.922.125.516.125 1.485v5.156Zm7.25-2.64 2.188.359q-.422 1.203-1.329 1.844-.906.625-2.28.625-2.157 0-3.204-1.422-.812-1.125-.812-2.86 0-2.062 1.078-3.219 1.078-1.171 2.719-1.171 1.859 0 2.921 1.218 1.079 1.22 1.032 3.75h-5.5q.015.97.515 1.516.516.547 1.281.547.516 0 .86-.281.36-.282.531-.907Zm.125-2.22q-.015-.952-.484-1.452t-1.14-.5q-.72 0-1.188.53-.47.516-.47 1.423h3.282Zm6.172 4.86h-2.188v-8.297h2.032v1.172q.531-.828.937-1.094.422-.265.953-.265.75 0 1.454.406l-.688 1.922q-.547-.36-1.031-.36-.453 0-.781.25-.313.25-.5.922-.188.656-.188 2.781v2.563Zm9.453 0-2.625-8.297h2.125l1.563 5.438 1.421-5.438h2.125l1.375 5.438 1.594-5.438h2.156l-2.656 8.297h-2.11l-1.437-5.344-1.406 5.344h-2.125Zm11.453-9.422v-2.031h2.188v2.031h-2.188Zm0 9.422v-8.297h2.188v8.297h-2.188Zm11.61 0h-2.047v-1.219q-.5.703-1.203 1.063-.688.344-1.391.344-1.422 0-2.453-1.157-1.016-1.156-1.016-3.219 0-2.109.985-3.203 1-1.093 2.515-1.093 1.39 0 2.406 1.156v-4.125h2.204V334.2Zm-5.86-4.328q0 1.328.36 1.922.53.86 1.484.86.766 0 1.297-.642.531-.656.531-1.937 0-1.422-.515-2.047-.516-.64-1.329-.64-.78 0-1.312.625-.516.625-.516 1.859Zm12.047-3.969v1.75h-1.5v3.344q0 1.015.047 1.187.047.157.188.266.156.11.375.11.312 0 .89-.204l.188 1.703q-.766.328-1.735.328-.594 0-1.078-.203-.469-.203-.703-.515-.219-.313-.297-.86-.078-.375-.078-1.547v-3.609h-1v-1.75h1v-1.656l2.203-1.281v2.937h1.5Zm3.39-3.156v4.203q1.063-1.234 2.532-1.234.766 0 1.375.28.61.282.906.72.313.437.422.968.125.532.125 1.641v4.875H368v-4.39q0-1.298-.125-1.641-.125-.36-.438-.563-.312-.219-.796-.219-.547 0-.985.266-.422.266-.625.813-.187.53-.187 1.578v4.156h-2.203v-11.453h2.203Zm15.454 14.828h-1.516q-1.187-1.813-1.812-3.75-.625-1.953-.625-3.781 0-2.25.765-4.266.672-1.75 1.704-3.234h1.5q-1.063 2.375-1.47 4.031-.406 1.656-.406 3.516 0 1.28.235 2.625.25 1.343.656 2.562.281.797.969 2.297Zm1.297-11.672h2.047v1.219q.39-.625 1.062-1.016.688-.39 1.516-.39 1.453 0 2.453 1.14 1.015 1.125 1.015 3.14 0 2.079-1.015 3.235-1.016 1.156-2.469 1.156-.687 0-1.25-.265-.547-.281-1.172-.953v4.187h-2.187v-11.453Zm2.172 4q0 1.406.546 2.078.563.656 1.36.656.765 0 1.265-.609.516-.61.516-2.016 0-1.296-.531-1.921-.516-.641-1.297-.641-.797 0-1.328.625-.531.61-.531 1.828Zm6.828 4.297 3-4.281-2.875-4.016h2.687l1.469 2.281 1.547-2.28H399l-2.813 3.921 3.063 4.375h-2.688l-1.687-2.578-1.703 2.578h-2.578Zm9.453 3.375q.64-1.39.906-2.14.266-.735.485-1.704.234-.984.343-1.844.11-.875.11-1.796 0-1.86-.407-3.516-.39-1.656-1.453-4.031h1.485q1.187 1.687 1.828 3.578.656 1.875.656 3.812 0 1.625-.516 3.5-.578 2.094-1.921 4.141h-1.516ZM32.8 208.813H21.347v-7.844h1.937v5.531h2.704v-4.781h1.937v4.781H32.8v2.313Zm-4.266-9.454q-1.093 0-2.109-.53-1.031-.548-1.562-1.532-.547-1-.547-2.219 0-1.875 1.218-3.078 1.22-1.203 3.094-1.203 1.875 0 3.125 1.219 1.235 1.203 1.235 3.047 0 1.14-.516 2.187-.516 1.031-1.516 1.578-1 .531-2.422.531Zm.11-2.25q1.234 0 1.89-.578.657-.594.657-1.453 0-.86-.657-1.437-.656-.594-1.906-.594-1.219 0-1.875.594-.656.578-.656 1.437 0 .86.656 1.453.656.578 1.89.578Zm4.156-15.812v2.203h-4.234q-1.344 0-1.735.14-.406.141-.625.454-.218.312-.218.765 0 .563.312 1.016.313.453.828.625.516.172 1.906.172H32.8v2.187h-8.297v-2.03h1.219q-1.406-1.095-1.406-2.735 0-.735.265-1.328.25-.61.657-.907.406-.312.921-.437.516-.125 1.485-.125H32.8Zm-8.297-6.25h1.75v1.5h3.344q1.016 0 1.187-.047.157-.047.266-.188.11-.156.11-.375 0-.312-.204-.89l1.703-.188q.329.766.329 1.735 0 .594-.204 1.078-.203.469-.515.703-.313.219-.86.297-.375.078-1.546.078h-3.61v1h-1.75v-1h-1.656l-1.281-2.203h2.937v-1.5Zm5.922-4.422-.328-2.203q.64-.14.969-.563.328-.437.328-1.218 0-.844-.313-1.282-.218-.28-.578-.28-.25 0-.422.155-.156.157-.281.735-.594 2.656-1.078 3.36-.672.983-1.86.983-1.078 0-1.812-.843-.734-.86-.734-2.64 0-1.704.562-2.532.547-.828 1.625-1.14l.39 2.062q-.484.14-.734.515-.265.36-.265 1.047 0 .875.234 1.25.172.25.453.25.235 0 .39-.219.22-.296.626-2.046.39-1.766.969-2.453.593-.688 1.64-.688 1.14 0 1.969.953.813.953.813 2.813 0 1.703-.688 2.687-.687.984-1.875 1.297Zm-7.047-9.781h-2.031v-2.188h2.031v2.188Zm9.422 0h-8.297v-2.188H32.8v2.188Zm0-3.11h-1.719l-3.562-3.109q-.875-.766-1.25-1.14.031.39.031 1.015l.016 2.922h-1.813v-6.86h1.547l3.656 3.172 1.219 1.125q-.062-.922-.062-1.14v-3.39H32.8v7.405Zm-2.64-14.687.359-2.188q1.203.422 1.844 1.328.625.907.625 2.282 0 2.156-1.422 3.203-1.125.812-2.86.812-2.062 0-3.218-1.078-1.172-1.078-1.172-2.719 0-1.859 1.218-2.921 1.22-1.078 3.75-1.032v5.5q.97-.015 1.516-.515.547-.516.547-1.281 0-.516-.281-.86-.282-.36-.907-.531Zm-2.22-.125q-.952.016-1.452.484-.5.469-.5 1.14 0 .72.53 1.188.516.47 1.423.47v-3.282Zm8.235-11.719v1.516q-1.812 1.187-3.75 1.812-1.953.625-3.781.625-2.25 0-4.266-.765-1.75-.672-3.234-1.703v-1.5q2.375 1.062 4.031 1.468 1.656.406 3.516.406 1.28 0 2.625-.234 1.343-.25 2.562-.656.797-.281 2.297-.969Zm-6.016-6.156.36-2.188q1.203.422 1.844 1.329.625.906.625 2.28 0 2.157-1.422 3.204-1.125.812-2.86.812-2.062 0-3.218-1.078-1.172-1.078-1.172-2.719 0-1.859 1.218-2.921 1.22-1.079 3.75-1.032v5.5q.97-.015 1.516-.515.547-.516.547-1.281 0-.516-.281-.86-.282-.36-.907-.531Zm-2.218-.125q-.953.016-1.453.484-.5.469-.5 1.14 0 .72.53 1.188.516.47 1.423.47v-3.282Zm-3.438-3.906v-2.032h1.125q-1.312-1.078-1.312-2.578 0-.797.328-1.375.328-.594.984-.969-.656-.546-.984-1.171-.328-.641-.328-1.36 0-.922.375-1.547.359-.64 1.078-.953.531-.219 1.719-.219H32.8V111h-4.75q-1.234 0-1.594.234-.468.297-.468.938 0 .453.28.86.282.406.829.593.547.172 1.719.172H32.8V116h-4.547q-1.219 0-1.562.125-.36.11-.532.36-.171.234-.171.656 0 .515.28.921.266.407.782.579.516.171 1.719.171H32.8v2.204h-8.297Zm11.672-13.563q-1.39-.64-2.14-.906-.735-.266-1.704-.484-.984-.235-1.843-.344-.875-.11-1.797-.11-1.86 0-3.516.407-1.656.39-4.031 1.453v-1.485q1.687-1.187 3.578-1.828 1.875-.656 3.812-.656 1.625 0 3.5.516 2.094.578 4.141 1.921v1.516ZM61.3 268.966q0-1.532.313-2.454.312-.937.921-1.437.625-.5 1.563-.5.687 0 1.203.281.531.281.875.813.344.515.531 1.265.188.75.188 2.032 0 1.515-.313 2.437-.297.922-.922 1.438-.609.5-1.562.5-1.234 0-1.953-.891-.844-1.063-.844-3.484Zm1.078 0q0 2.109.5 2.812.5.703 1.219.703.734 0 1.219-.703.5-.703.5-2.812 0-2.125-.5-2.813-.485-.703-1.235-.703-.719 0-1.156.61-.547.78-.547 2.906Zm6.516 4.234v-1.203h1.203v1.203h-1.203Zm2.468-7.469v-1.015h5.563v.828q-.813.875-1.625 2.328-.797 1.437-1.234 2.969-.329 1.078-.407 2.359h-1.093q.015-1.016.39-2.453.39-1.438 1.094-2.766.719-1.328 1.531-2.25h-4.219Zm6.938 5.219 1.11-.094q.124.813.562 1.219.453.406 1.094.406.75 0 1.28-.578.532-.578.532-1.516 0-.906-.516-1.421-.5-.532-1.328-.532-.5 0-.922.235-.406.234-.64.594l-.984-.125.828-4.407h4.28v1H80.16l-.453 2.313q.766-.547 1.61-.547 1.125 0 1.89.781.781.781.781 2.016 0 1.156-.671 2.015-.829 1.032-2.25 1.032-1.172 0-1.922-.657-.735-.656-.844-1.734Zm-13.031-79.217h-1.047v-6.718q-.39.359-1.016.734-.61.36-1.094.531v-1.015q.875-.422 1.532-1 .672-.594.953-1.157h.672v8.625Zm3.625 0v-1.203h1.203v1.203h-1.203ZM71.3 187.5q0-1.531.313-2.453.312-.938.921-1.438.625-.5 1.563-.5.687 0 1.203.282.531.28.875.812.344.516.531 1.266.188.75.188 2.031 0 1.516-.313 2.437-.297.922-.922 1.438-.609.5-1.562.5-1.234 0-1.953-.89-.844-1.063-.844-3.485Zm1.078 0q0 2.11.5 2.812.5.704 1.219.704.734 0 1.219-.704.5-.703.5-2.812 0-2.125-.5-2.813-.485-.703-1.235-.703-.719 0-1.156.61-.547.781-.547 2.906Zm5.922 0q0-1.531.313-2.453.312-.938.921-1.438.625-.5 1.563-.5.687 0 1.203.282.531.28.875.812.344.516.531 1.266.188.75.188 2.031 0 1.516-.313 2.437-.297.922-.922 1.438-.609.5-1.562.5-1.234 0-1.953-.89-.844-1.063-.844-3.485Zm1.078 0q0 2.11.5 2.812.5.704 1.219.704.734 0 1.219-.704.5-.703.5-2.812 0-2.125-.5-2.813-.485-.703-1.235-.703-.719 0-1.156.61-.547.781-.547 2.906Zm-14.109-77.233h-1.047v-6.72q-.39.36-1.016.735-.61.36-1.094.532v-1.016q.875-.422 1.532-1 .672-.594.953-1.156h.672v8.625Zm3.625 0v-1.203h1.203v1.203h-1.203Zm7.953-1.016v1.016h-5.688q0-.375.125-.735.22-.578.688-1.14.484-.563 1.39-1.297 1.407-1.156 1.891-1.828.5-.672.5-1.266 0-.625-.453-1.047-.453-.437-1.172-.437-.766 0-1.219.453-.453.453-.468 1.265l-1.079-.109q.11-1.219.829-1.844.734-.64 1.968-.64 1.235 0 1.953.687.72.688.72 1.703 0 .516-.22 1.016-.203.484-.703 1.047-.484.547-1.609 1.5-.953.797-1.234 1.094-.266.28-.438.562h4.219Zm1.453-1.234 1.11-.094q.124.812.562 1.219.453.406 1.094.406.75 0 1.28-.578.532-.578.532-1.516 0-.906-.516-1.422-.5-.531-1.328-.531-.5 0-.922.234-.406.235-.64.594l-.984-.125.828-4.406h4.28v1H80.16l-.453 2.312q.766-.546 1.61-.546 1.125 0 1.89.78.781.782.781 2.016 0 1.157-.671 2.016-.829 1.031-2.25 1.031-1.172 0-1.922-.656-.735-.656-.844-1.734ZM65.269 28.8h-1.047v-6.719q-.39.36-1.016.735-.61.359-1.094.53v-1.015q.875-.422 1.532-1 .672-.593.953-1.156h.672V28.8Zm3.625 0v-1.203h1.203V28.8h-1.203Zm2.406-2.25 1.11-.094q.124.813.562 1.219.453.406 1.094.406.75 0 1.28-.578.532-.578.532-1.515 0-.907-.516-1.422-.5-.532-1.328-.532-.5 0-.922.235-.406.234-.64.594l-.984-.125.828-4.407h4.28v1H73.16l-.453 2.313q.766-.547 1.61-.547 1.125 0 1.89.781.781.781.781 2.016 0 1.156-.671 2.015-.829 1.032-2.25 1.032-1.172 0-1.922-.657-.735-.656-.844-1.734Zm7-1.984q0-1.532.313-2.453.312-.938.921-1.438.625-.5 1.563-.5.687 0 1.203.281.531.282.875.813.344.515.531 1.265.188.75.188 2.032 0 1.515-.313 2.437-.297.922-.922 1.438-.609.5-1.562.5-1.234 0-1.953-.891-.844-1.063-.844-3.484Zm1.078 0q0 2.109.5 2.812.5.703 1.219.703.734 0 1.219-.703.5-.703.5-2.812 0-2.125-.5-2.813-.485-.703-1.235-.703-.719 0-1.156.61-.547.78-.547 2.906ZM86.8 289.934l1.063-.14q.171.89.609 1.297.437.39 1.062.39.75 0 1.266-.515.516-.516.516-1.282 0-.718-.485-1.187-.469-.485-1.203-.485-.297 0-.75.125l.125-.937q.11.016.172.016.672 0 1.203-.344.547-.36.547-1.094 0-.578-.39-.953-.391-.39-1.016-.39-.61 0-1.032.39-.406.39-.515 1.156l-1.063-.187q.188-1.047.875-1.625.688-.594 1.703-.594.704 0 1.297.313.594.296.907.812.312.516.312 1.11 0 .546-.297 1.015-.297.453-.875.719.75.172 1.172.734.422.547.422 1.39 0 1.126-.828 1.907-.813.781-2.063.781-1.125 0-1.875-.672-.75-.687-.859-1.75Zm7 .016 1.11-.094q.124.813.562 1.219.453.406 1.094.406.75 0 1.28-.578.532-.578.532-1.516 0-.906-.516-1.421-.5-.532-1.328-.532-.5 0-.922.235-.406.234-.64.594l-.984-.125.828-4.407h4.28v1H95.66l-.453 2.313q.766-.547 1.61-.547 1.125 0 1.89.781.781.781.781 2.016 0 1.156-.671 2.015-.829 1.032-2.25 1.032-1.172 0-1.922-.657-.735-.656-.844-1.734Zm7-1.984q0-1.532.313-2.454.312-.937.921-1.437.625-.5 1.563-.5.687 0 1.203.281.531.281.875.813.344.515.531 1.265.188.75.188 2.032 0 1.515-.313 2.437-.297.922-.922 1.438-.609.5-1.562.5-1.234 0-1.953-.891-.844-1.063-.844-3.484Zm1.078 0q0 2.109.5 2.812.5.703 1.219.703.734 0 1.219-.703.5-.703.5-2.812 0-2.125-.5-2.813-.485-.703-1.235-.703-.719 0-1.156.61-.547.78-.547 2.906Zm39.564 4.234v-2.063h-3.72v-.968l3.923-5.563h.86v5.563h1.155v.969h-1.156v2.062h-1.062Zm0-3.031v-3.86l-2.688 3.86h2.688Zm3.625-1.203q0-1.532.312-2.454.313-.937.922-1.437.625-.5 1.563-.5.687 0 1.203.281.53.281.875.813.343.515.53 1.265.188.75.188 2.032 0 1.515-.312 2.437-.297.922-.922 1.438-.61.5-1.562.5-1.235 0-1.954-.891-.843-1.063-.843-3.484Zm1.078 0q0 2.109.5 2.812.5.703 1.219.703.734 0 1.218-.703.5-.703.5-2.812 0-2.125-.5-2.813-.484-.703-1.234-.703-.719 0-1.156.61-.547.78-.547 2.906Zm5.922 0q0-1.532.312-2.454.313-.937.922-1.437.625-.5 1.563-.5.687 0 1.203.281.53.281.875.813.343.515.53 1.265.188.75.188 2.032 0 1.515-.312 2.437-.297.922-.922 1.438-.61.5-1.562.5-1.235 0-1.954-.891-.843-1.063-.843-3.484Zm1.078 0q0 2.109.5 2.812.5.703 1.219.703.734 0 1.218-.703.5-.703.5-2.812 0-2.125-.5-2.813-.484-.703-1.234-.703-.719 0-1.156.61-.547.78-.547 2.906Zm39.563 4.234v-2.063h-3.718v-.968l3.921-5.563h.86v5.563h1.156v.969h-1.156v2.062h-1.063Zm0-3.031v-3.86l-2.687 3.86h2.687Zm3.625.781 1.11-.094q.125.813.562 1.219.453.406 1.094.406.75 0 1.281-.578.531-.578.531-1.516 0-.906-.515-1.421-.5-.532-1.328-.532-.5 0-.922.235-.406.234-.64.594l-.985-.125.828-4.407h4.281v1h-3.437l-.453 2.313q.765-.547 1.609-.547 1.125 0 1.89.781.782.781.782 2.016 0 1.156-.672 2.015-.828 1.032-2.25 1.032-1.172 0-1.922-.657-.734-.656-.844-1.734Zm7-1.984q0-1.532.313-2.454.312-.937.922-1.437.625-.5 1.562-.5.688 0 1.203.281.532.281.875.813.344.515.532 1.265.187.75.187 2.032 0 1.515-.312 2.437-.297.922-.922 1.438-.61.5-1.563.5-1.234 0-1.953-.891-.844-1.063-.844-3.484Zm1.078 0q0 2.109.5 2.812.5.703 1.22.703.734 0 1.218-.703.5-.703.5-2.812 0-2.125-.5-2.813-.484-.703-1.234-.703-.72 0-1.157.61-.547.78-.547 2.906Zm36.189 1.984 1.11-.094q.124.813.562 1.219.453.406 1.094.406.75 0 1.28-.578.532-.578.532-1.516 0-.906-.516-1.421-.5-.532-1.328-.532-.5 0-.922.235-.406.234-.64.594l-.984-.125.828-4.407h4.28v1h-3.437l-.453 2.313q.766-.547 1.61-.547 1.125 0 1.89.781.781.781.781 2.016 0 1.156-.671 2.015-.829 1.032-2.25 1.032-1.172 0-1.922-.657-.735-.656-.844-1.734Zm7-1.984q0-1.532.313-2.454.312-.937.921-1.437.625-.5 1.563-.5.687 0 1.203.281.531.281.875.813.344.515.531 1.265.188.75.188 2.032 0 1.515-.313 2.437-.297.922-.922 1.438-.609.5-1.562.5-1.234 0-1.953-.891-.844-1.063-.844-3.484Zm1.078 0q0 2.109.5 2.812.5.703 1.219.703.734 0 1.219-.703.5-.703.5-2.812 0-2.125-.5-2.813-.485-.703-1.235-.703-.719 0-1.156.61-.547.78-.547 2.906Zm5.922 0q0-1.532.313-2.454.312-.937.921-1.437.625-.5 1.563-.5.687 0 1.203.281.531.281.875.813.344.515.531 1.265.188.75.188 2.032 0 1.515-.313 2.437-.297.922-.922 1.438-.609.5-1.562.5-1.234 0-1.953-.891-.844-1.063-.844-3.484Zm1.078 0q0 2.109.5 2.812.5.703 1.219.703.734 0 1.219-.703.5-.703.5-2.812 0-2.125-.5-2.813-.485-.703-1.235-.703-.718 0-1.156.61-.547.78-.547 2.906Zm36.189 1.984 1.109-.094q.125.813.563 1.219.453.406 1.093.406.75 0 1.282-.578.53-.578.53-1.516 0-.906-.515-1.421-.5-.532-1.328-.532-.5 0-.922.235-.406.234-.64.594l-.985-.125.828-4.407h4.282v1h-3.438l-.453 2.313q.766-.547 1.61-.547 1.124 0 1.89.781.781.781.781 2.016 0 1.156-.672 2.015-.828 1.032-2.25 1.032-1.172 0-1.922-.657-.734-.656-.843-1.734Zm7 0 1.109-.094q.125.813.563 1.219.453.406 1.093.406.75 0 1.282-.578.53-.578.53-1.516 0-.906-.515-1.421-.5-.532-1.328-.532-.5 0-.922.235-.406.234-.64.594l-.985-.125.828-4.407h4.282v1h-3.438l-.453 2.313q.766-.547 1.61-.547 1.124 0 1.89.781.781.781.781 2.016 0 1.156-.672 2.015-.828 1.032-2.25 1.032-1.172 0-1.922-.657-.734-.656-.843-1.734Zm7-1.984q0-1.532.312-2.454.313-.937.922-1.437.625-.5 1.563-.5.687 0 1.203.281.53.281.875.813.343.515.53 1.265.188.75.188 2.032 0 1.515-.312 2.437-.297.922-.922 1.438-.61.5-1.562.5-1.235 0-1.954-.891-.843-1.063-.843-3.484Zm1.078 0q0 2.109.5 2.812.5.703 1.219.703.734 0 1.218-.703.5-.703.5-2.812 0-2.125-.5-2.813-.484-.703-1.234-.703-.719 0-1.156.61-.547.78-.547 2.906Zm41.657-2.25-1.047.078q-.14-.625-.39-.906-.438-.454-1.063-.454-.5 0-.89.282-.485.375-.782 1.078-.281.687-.297 1.969.375-.579.922-.86.563-.281 1.172-.281 1.047 0 1.781.781.75.781.75 2 0 .813-.359 1.516-.344.687-.953 1.062-.61.36-1.375.36-1.328 0-2.156-.97-.829-.968-.829-3.187 0-2.5.922-3.625.797-.984 2.157-.984 1.015 0 1.656.578.656.563.781 1.563Zm-4.297 3.703q0 .547.219 1.047.234.484.64.75.422.265.891.265.656 0 1.14-.531.485-.547.485-1.469 0-.89-.484-1.406-.469-.516-1.188-.516-.718 0-1.218.516-.485.516-.485 1.344Zm5.828-1.453q0-1.532.313-2.454.312-.937.922-1.437.625-.5 1.562-.5.688 0 1.203.281.532.281.875.813.344.515.532 1.265.187.75.187 2.032 0 1.515-.312 2.437-.297.922-.922 1.438-.61.5-1.563.5-1.234 0-1.953-.891-.844-1.063-.844-3.484Zm1.078 0q0 2.109.5 2.812.5.703 1.22.703.734 0 1.218-.703.5-.703.5-2.812 0-2.125-.5-2.813-.484-.703-1.234-.703-.72 0-1.157.61-.547.78-.547 2.906Zm5.922 0q0-1.532.313-2.454.312-.937.922-1.437.625-.5 1.562-.5.688 0 1.203.281.532.281.875.813.344.515.532 1.265.187.75.187 2.032 0 1.515-.312 2.437-.297.922-.922 1.438-.61.5-1.563.5-1.234 0-1.953-.891-.844-1.063-.844-3.484Zm1.078 0q0 2.109.5 2.812.5.703 1.22.703.734 0 1.218-.703.5-.703.5-2.812 0-2.125-.5-2.813-.484-.703-1.234-.703-.72 0-1.157.61-.547.78-.547 2.906Zm41.658-2.25-1.047.078q-.14-.625-.39-.906-.438-.454-1.063-.454-.5 0-.89.282-.485.375-.782 1.078-.281.687-.297 1.969.375-.579.922-.86.562-.281 1.172-.281 1.047 0 1.781.781.75.781.75 2 0 .813-.36 1.516-.343.687-.953 1.062-.609.36-1.375.36-1.328 0-2.156-.97-.828-.968-.828-3.187 0-2.5.922-3.625.797-.984 2.156-.984 1.016 0 1.656.578.657.563.782 1.563Zm-4.297 3.703q0 .547.219 1.047.234.484.64.75.422.265.89.265.657 0 1.141-.531.485-.547.485-1.469 0-.89-.485-1.406-.468-.516-1.187-.516-.719 0-1.219.516-.484.516-.484 1.344Zm5.828.531 1.11-.094q.124.813.562 1.219.453.406 1.094.406.75 0 1.28-.578.532-.578.532-1.516 0-.906-.516-1.421-.5-.532-1.328-.532-.5 0-.922.235-.406.234-.64.594l-.985-.125.829-4.407h4.28v1h-3.437l-.453 2.313q.766-.547 1.61-.547 1.125 0 1.89.781.781.781.781 2.016 0 1.156-.671 2.015-.829 1.032-2.25 1.032-1.172 0-1.922-.657-.735-.656-.844-1.734Zm7-1.984q0-1.532.313-2.454.312-.937.921-1.437.625-.5 1.563-.5.687 0 1.203.281.531.281.875.813.344.515.531 1.265.188.75.188 2.032 0 1.515-.313 2.437-.297.922-.922 1.438-.609.5-1.562.5-1.235 0-1.953-.891-.844-1.063-.844-3.484Zm1.078 0q0 2.109.5 2.812.5.703 1.219.703.734 0 1.219-.703.5-.703.5-2.812 0-2.125-.5-2.813-.485-.703-1.235-.703-.719 0-1.156.61-.547.78-.547 2.906Zm36.252-3.235v-1.015h5.562v.828q-.813.875-1.625 2.328-.797 1.437-1.235 2.969-.328 1.078-.406 2.359h-1.094q.016-1.016.39-2.453.392-1.438 1.095-2.766.718-1.328 1.53-2.25h-4.218Zm6.937 3.235q0-1.532.312-2.454.313-.937.922-1.437.625-.5 1.563-.5.687 0 1.203.281.53.281.875.813.343.515.53 1.265.188.75.188 2.032 0 1.515-.312 2.437-.297.922-.922 1.438-.61.5-1.562.5-1.235 0-1.954-.891-.843-1.063-.843-3.484Zm1.078 0q0 2.109.5 2.812.5.703 1.219.703.734 0 1.218-.703.5-.703.5-2.812 0-2.125-.5-2.813-.484-.703-1.234-.703-.719 0-1.156.61-.547.78-.547 2.906Zm5.922 0q0-1.532.312-2.454.313-.937.922-1.437.625-.5 1.563-.5.687 0 1.203.281.53.281.875.813.343.515.53 1.265.188.75.188 2.032 0 1.515-.312 2.437-.297.922-.922 1.438-.61.5-1.562.5-1.235 0-1.954-.891-.843-1.063-.843-3.484Zm1.078 0q0 2.109.5 2.812.5.703 1.219.703.734 0 1.218-.703.5-.703.5-2.812 0-2.125-.5-2.813-.484-.703-1.234-.703-.719 0-1.156.61-.547.78-.547 2.906Zm36.251-3.235v-1.015h5.562v.828q-.812.875-1.625 2.328-.797 1.437-1.234 2.969-.328 1.078-.406 2.359h-1.094q.016-1.016.39-2.453.391-1.438 1.094-2.766.72-1.328 1.532-2.25h-4.22Zm6.937 5.219 1.11-.094q.125.813.562 1.219.453.406 1.094.406.75 0 1.281-.578.531-.578.531-1.516 0-.906-.515-1.421-.5-.532-1.328-.532-.5 0-.922.235-.406.234-.64.594l-.985-.125.828-4.407h4.281v1h-3.437l-.453 2.313q.765-.547 1.609-.547 1.125 0 1.89.781.782.781.782 2.016 0 1.156-.672 2.015-.828 1.032-2.25 1.032-1.172 0-1.922-.657-.734-.656-.844-1.734Zm7-1.984q0-1.532.313-2.454.312-.937.922-1.437.625-.5 1.562-.5.688 0 1.203.281.532.281.875.813.344.515.532 1.265.187.75.187 2.032 0 1.515-.312 2.437-.297.922-.922 1.438-.61.5-1.563.5-1.234 0-1.953-.891-.844-1.063-.844-3.484Zm1.078 0q0 2.109.5 2.812.5.703 1.22.703.734 0 1.218-.703.5-.703.5-2.812 0-2.125-.5-2.813-.484-.703-1.234-.703-.72 0-1.157.61-.547.78-.547 2.906Zm37.814-.422q-.656-.25-.984-.688-.313-.453-.313-1.062 0-.938.672-1.578.688-.641 1.797-.641 1.125 0 1.812.656.688.656.688 1.594 0 .594-.313 1.031-.312.438-.953.688.797.25 1.203.828.407.578.407 1.375 0 1.094-.782 1.844-.765.75-2.046.75-1.266 0-2.047-.75-.782-.75-.782-1.875 0-.844.422-1.407.438-.562 1.219-.765Zm-.219-1.797q0 .61.39 1 .407.39 1.032.39.61 0 1-.375.39-.39.39-.953 0-.578-.405-.968-.407-.407-1-.407-.61 0-1.016.391-.39.39-.39.922Zm-.328 3.969q0 .453.203.875.219.421.64.656.423.234.907.234.75 0 1.235-.484.5-.485.5-1.235 0-.765-.5-1.265-.5-.5-1.266-.5-.75 0-1.234.5-.485.484-.485 1.219Zm5.922-1.75q0-1.532.313-2.454.312-.937.921-1.437.625-.5 1.563-.5.687 0 1.203.281.531.281.875.813.344.515.531 1.265.188.75.188 2.032 0 1.515-.313 2.437-.297.922-.922 1.438-.609.5-1.562.5-1.234 0-1.953-.891-.844-1.063-.844-3.484Zm1.078 0q0 2.109.5 2.812.5.703 1.219.703.734 0 1.219-.703.5-.703.5-2.812 0-2.125-.5-2.813-.485-.703-1.235-.703-.718 0-1.156.61-.547.78-.547 2.906Zm5.922 0q0-1.532.313-2.454.312-.937.921-1.437.625-.5 1.563-.5.687 0 1.203.281.531.281.875.813.344.515.531 1.265.188.75.188 2.032 0 1.515-.313 2.437-.297.922-.922 1.438-.609.5-1.562.5-1.234 0-1.953-.891-.844-1.063-.844-3.484Zm1.078 0q0 2.109.5 2.812.5.703 1.219.703.734 0 1.219-.703.5-.703.5-2.812 0-2.125-.5-2.813-.485-.703-1.235-.703-.718 0-1.156.61-.547.78-.547 2.906Z"/></svg>