<svg style="position: absolute; width: 0; height: 0; overflow: hidden;" version="1.1" xmlns="http://www.w3.org/2000/svg" xmlns:xlink="http://www.w3.org/1999/xlink">
<defs>
<symbol id="icon-plus" viewBox="0 0 32 32">
<title>plus</title>
<path d="M14.667 4h2.667v24h-2.667v-24z"></path>
<path d="M4 14.667h24v2.667h-24v-2.667z"></path>
</symbol>
<symbol id="icon-minus" viewBox="0 0 32 32">
<title>minus</title>
<path d="M4 14.667h24v2.667h-24v-2.667z"></path>
</symbol>
<symbol id="icon-cart" viewBox="0 0 32 32">
<title>cart</title>
<path d="M14.667 26c0 1.105-0.895 2-2 2s-2-0.895-2-2c0-1.105 0.895-2 2-2s2 0.895 2 2z"></path>
<path d="M24 26c0 1.105-0.895 2-2 2s-2-0.895-2-2c0-1.105 0.895-2 2-2s2 0.895 2 2z"></path>
<path d="M23.413 22.667h-12.754l-2.667-10.667h-3.993v-2.667h6.074l2.667 10.667h8.581l1.384-5.65 2.59 0.634z"></path>
</symbol>
<symbol id="icon-shipping" viewBox="0 0 32 32">
<title>shipping</title>
<path d="M5.106 19.34l1.23-2.366 7.098 3.691-1.23 2.366-7.098-3.691z"></path>
<path d="M14.191 10.538l-1.231 2.366-2.366-1.23 1.231-2.366-3.55-1.846-3.69 7.098 9.464 4.921 3.69-7.098z"></path>
<path d="M17.597 21.327l-2.366-1.231 8.372-16.096h3.812v2.667h-2.194z"></path>
<path d="M16.983 22.51c1.307 0.68 1.815 2.29 1.135 3.596s-2.29 1.815-3.596 1.135c-1.307-0.68-1.815-2.29-1.135-3.596s2.29-1.815 3.596-1.135z"></path>
</symbol>
<symbol id="icon-user" viewBox="0 0 32 32">
<title>user</title>
<path d="M16 18.667c-3.676 0-6.667-2.991-6.667-6.667s2.991-6.667 6.667-6.667 6.667 2.991 6.667 6.667-2.991 6.667-6.667 6.667zM16 8c-2.206 0-4 1.794-4 4s1.794 4 4 4 4-1.794 4-4-1.794-4-4-4z"></path>
<path d="M8 25.333h-2.667c0-3.387 1.634-6.604 4.372-8.609l1.575 2.151c-2.053 1.504-3.28 3.919-3.28 6.458z"></path>
<path d="M26.667 25.333h-2.667c0-2.539-1.227-4.954-3.28-6.458l1.575-2.151c2.738 2.004 4.372 5.222 4.372 8.609z"></path>
<path d="M26.667 25.333h-2.667c0-3.467-2.21-6.521-5.501-7.603l0.833-2.533c4.387 1.441 7.335 5.516 7.335 10.136z"></path>
<path d="M8 25.333h-2.667c0-4.439 2.794-8.458 6.954-10.003l0.927 2.501c-3.119 1.159-5.215 4.173-5.215 7.502z"></path>
</symbol>
<symbol id="icon-pay" viewBox="0 0 32 32">
<title>pay</title>
<path d="M26.667 25.333h-21.333v-19.037h21.333v19.037zM8 22.667h16v-13.704h-16v13.704z"></path>
<path d="M6.667 8h18.667v4.667h-18.667v-4.667z"></path>
<path d="M9.333 18.296h8v2.667h-8v-2.667z"></path>
</symbol>
<symbol id="icon-arrow-fill-left" viewBox="0 0 32 32">
<title>arrow-fill-left</title>
<path fill="#000" style="fill: var(--color1, #000)" d="M19.333 9.333l-6.667 6.667 6.667 6.667z"></path>
<path fill="#020203" style="fill: var(--color2, #020203)" d="M20.667 25.886l-9.886-9.886 9.886-9.886v19.772zM14.553 16l3.447 3.447v-6.895l-3.447 3.447z"></path>
</symbol>
<symbol id="icon-arrow-fill-right" viewBox="0 0 32 32">
<title>arrow-fill-right</title>
<path fill="#000" style="fill: var(--color1, #000)" d="M12.667 22.667l6.667-6.667-6.667-6.667z"></path>
<path fill="#020203" style="fill: var(--color2, #020203)" d="M11.333 25.886v-19.772l9.886 9.886-9.886 9.886zM14 12.553v6.895l3.447-3.447-3.447-3.447z"></path>
</symbol>
<symbol id="icon-arrow-fill-up" viewBox="0 0 32 32">
<title>arrow-fill-up</title>
<path fill="#000" style="fill: var(--color1, #000)" d="M22.667 19.333l-6.667-6.667-6.667 6.667z"></path>
<path fill="#020203" style="fill: var(--color2, #020203)" d="M25.886 20.667h-19.772l9.886-9.886 9.886 9.886zM12.553 18h6.895l-3.447-3.447-3.447 3.447z"></path>
</symbol>
<symbol id="icon-arrow-fill-down" viewBox="0 0 32 32">
<title>arrow-fill-down</title>
<path fill="#000" style="fill: var(--color1, #000)" d="M9.333 12.667l6.667 6.667 6.667-6.667z"></path>
<path fill="#020203" style="fill: var(--color2, #020203)" d="M16 21.219l-9.886-9.886h19.772l-9.886 9.886zM12.553 14l3.447 3.447 3.447-3.447h-6.895z"></path>
</symbol>
<symbol id="icon-collapse" viewBox="0 0 32 32">
<title>icon-collapse</title>
<path d="M0,25.4c0-0.3,0.1-0.6,0.3-0.8l8-8c0.2-0.2,0.5-0.3,0.8-0.3s0.6,0.1,0.8,0.3l8,8c0.2,0.2,0.3,0.5,0.3,0.8
	s-0.1,0.6-0.3,0.8s-0.5,0.3-0.8,0.3h-16c-0.3,0-0.6-0.1-0.8-0.3C0.1,26,0,25.7,0,25.4z M0,5.6C0,5.3,0.1,5,0.3,4.8s0.5-0.3,0.8-0.3
	h16c0.3,0,0.6,0.1,0.8,0.3c0.2,0.2,0.3,0.5,0.3,0.8s-0.1,0.6-0.3,0.8l-8,8c-0.2,0.2-0.5,0.3-0.8,0.3s-0.6-0.1-0.8-0.3l-8-8
	C0.1,6.1,0,5.9,0,5.6z"></path>
</symbol>
<symbol id="icon-expand" viewBox="0 0 32 32">
<title>icon-expand</title>
<path class="st0" d="M18.2,18.4c0,0.3-0.1,0.6-0.3,0.8l-8,8c-0.2,0.2-0.5,0.3-0.8,0.3s-0.6-0.1-0.8-0.3l-8-8C0.1,19,0,18.7,0,18.4
	s0.1-0.6,0.3-0.8s0.5-0.3,0.8-0.3h16c0.3,0,0.6,0.1,0.8,0.3C18.1,17.8,18.2,18.1,18.2,18.4z M18.2,12.6c0,0.3-0.1,0.6-0.3,0.8
	c-0.2,0.2-0.5,0.3-0.8,0.3h-16c-0.3,0-0.6-0.1-0.8-0.3C0.1,13.2,0,12.9,0,12.6s0.1-0.6,0.3-0.8l8-8c0.2-0.2,0.5-0.3,0.8-0.3
	s0.6,0.1,0.8,0.3l8,8C18.1,12.1,18.2,12.3,18.2,12.6z"/>
</symbol>
<symbol id="icon-star" viewBox="0 0 32 32">
<title>star</title>
<path d="M16 23.901l-7.799 4.099 1.49-8.683-6.31-6.15 8.719-1.267 3.899-7.901 3.899 7.901 8.719 1.267-6.31 6.15 1.49 8.683z"></path>
</symbol>
<symbol id="icon-star-half" viewBox="0 0 32 32">
<title>star-half</title>
<path d="M16 23.901v-19.901l-3.899 7.901-8.719 1.267 6.31 6.15-1.49 8.683z"></path>
</symbol>
<symbol id="icon-menu-line" viewBox="0 0 32 32">
<title>menu-line</title>
<path d="M6.667 8h18.667v2.667h-18.667v-2.667z"></path>
<path d="M6.667 14.667h18.667v2.667h-18.667v-2.667z"></path>
<path d="M6.667 21.333h18.667v2.667h-18.667v-2.667z"></path>
</symbol>
<symbol id="icon-phone" viewBox="0 0 32 32">
<title>phone</title>
<path d="M21.053 19.367c-0.236 0.453-1.107 1.57-2.145 1.524-2.080-0.090-3.597-1.276-5.061-2.741s-2.65-2.981-2.741-5.061c-0.044-1.037 1.073-1.91 1.524-2.145l-2.43-5.222-2.184-0.207c-1.647 0.999-2.671 2.979-2.541 4.926 0.253 3.791 2.333 7.421 5.496 10.585 3.163 3.163 6.794 5.243 10.585 5.496 1.947 0.13 3.927-0.893 4.924-2.541l-0.207-2.184-5.222-2.431z"></path>
</symbol>
<symbol id="icon-image" viewBox="0 0 32 32">
<title>image</title>
<path d="M5.333 25.333h21.333v-18.667h-21.333v18.667zM8 9.333h16v13.333h-16v-13.333z"></path>
<path d="M16 17.333l-2.667-1.333-4 2.667v2.667h13.333v-5.333l-2.667-2.667z"></path>
<path d="M13.333 12.667c0 1.105-0.895 2-2 2s-2-0.895-2-2c0-1.105 0.895-2 2-2s2 0.895 2 2z"></path>
</symbol>
<symbol id="icon-images" viewBox="0 0 32 32">
<title>images</title>
<path d="M9.335 25.333h17.333v-14.667h-17.333v14.667zM14.001 13.333c1.105 0 2 0.895 2 2s-0.895 2-2 2c-1.105 0-2-0.895-2-2s0.896-2 2-2zM12.001 21.333l4-2.667 2.667 1.333 2.667-4 2.667 2.667v4h-12v-1.333z"></path>
<path d="M6.668 8h16v-2.667h-18.667v17.333h2.667z"></path>
</symbol>
<symbol id="icon-file" viewBox="0 0 32 32">
<title>file</title>
<path d="M22.667 11.447l-4.781-4.781h-8.553v18.667h13.333v-13.886zM12 22.667v-13.333h4v4h4v9.333h-8z"></path>
</symbol>
<symbol id="icon-files" viewBox="0 0 32 32">
<title>files</title>
<path d="M6.667 28h13.333v-13.886l-4.781-4.781h-8.553v18.667zM9.333 12h4v4h4v9.333h-8v-13.333z"></path>
<path d="M25.333 22.667v-13.886l-4.781-4.781h-8.548v2.667h6.662v4h4v12z"></path>
</symbol>
<symbol id="icon-search" viewBox="0 0 32 32">
<title>search</title>
<path d="M22 13.333c0-5.147-4.187-9.333-9.333-9.333s-9.333 4.187-9.333 9.333 4.187 9.333 9.333 9.333c2.093 0 4.028-0.693 5.587-1.861l7.471 7.471 1.886-1.886-7.471-7.471c1.167-1.559 1.861-3.493 1.861-5.587zM6 13.333c0-3.676 2.991-6.667 6.667-6.667s6.667 2.991 6.667 6.667-2.991 6.667-6.667 6.667-6.667-2.991-6.667-6.667z"></path>
</symbol>
<symbol id="icon-chat" viewBox="0 0 32 32">
<title>chat</title>
<path d="M15.219 21.333h10.114v-14.667h-18.667v14.667h2.667v5.886l5.886-5.886zM9.333 9.333h13.333v9.333h-8.553l-2.114 2.114v-2.114h-2.667v-9.333z"></path>
</symbol>
<symbol id="icon-history" viewBox="0 0 32 32">
<title>history</title>
<path d="M16.019 8.010c0 2.655 0 5.311 0 7.976 2.662 0 5.314 0 7.979 0 0.11-4.44-3.797-8.127-7.979-7.976z"></path>
<path d="M13.265 9.889c-0.228-0.396-0.449-0.776-0.68-1.175-0.406 0.234-0.782 0.452-1.175 0.679 0.228 0.396 0.45 0.781 0.679 1.176 0.403-0.234 0.784-0.455 1.176-0.68z"></path>
<path d="M10.579 12.077c-0.399-0.23-0.784-0.45-1.176-0.677-0.228 0.397-0.446 0.773-0.679 1.175 0.403 0.233 0.782 0.452 1.176 0.679 0.228-0.396 0.447-0.776 0.679-1.176z"></path>
<path d="M8.724 19.419c0.231 0.4 0.452 0.781 0.68 1.173 0.399-0.231 0.784-0.453 1.176-0.68-0.236-0.406-0.456-0.787-0.681-1.173-0.401 0.233-0.782 0.453-1.175 0.68z"></path>
<path d="M21.437 19.914c0.403 0.233 0.785 0.452 1.175 0.677 0.228-0.394 0.446-0.772 0.679-1.173-0.404-0.233-0.785-0.452-1.176-0.679-0.231 0.4-0.45 0.781-0.677 1.175z"></path>
<path d="M11.412 22.601c0.393 0.227 0.769 0.443 1.175 0.677 0.231-0.4 0.45-0.781 0.68-1.175-0.396-0.228-0.781-0.45-1.176-0.679-0.236 0.406-0.455 0.787-0.679 1.176z"></path>
<path d="M18.748 22.102c0.227 0.393 0.446 0.772 0.68 1.176 0.404-0.234 0.784-0.453 1.173-0.68-0.23-0.397-0.45-0.778-0.679-1.173-0.397 0.23-0.778 0.449-1.175 0.677z"></path>
<path d="M9.323 15.341c-0.446 0-0.88 0-1.323 0 0 0.444 0 0.877 0 1.32 0.458 0 0.89 0 1.323 0 0-0.45 0-0.884 0-1.32z"></path>
<path d="M15.354 23.997c0.446 0 0.877 0 1.314 0 0-0.446 0-0.874 0-1.314-0.453 0-0.886 0-1.314 0 0 0.449 0 0.883 0 1.314z"></path>
<path d="M16 4c-6.616 0-12 5.384-12 12s5.384 12 12 12 12-5.384 12-12-5.384-12-12-12zM16 25.333c-5.147 0-9.333-4.187-9.333-9.333s4.187-9.333 9.333-9.333 9.333 4.187 9.333 9.333-4.187 9.333-9.333 9.333z"></path>
</symbol>
<symbol id="icon-user-group" viewBox="0 0 32 32">
<title>user-group</title>
<path d="M21.333 12c0 2.946-2.388 5.333-5.333 5.333s-5.333-2.388-5.333-5.333c0-2.946 2.388-5.333 5.333-5.333s5.333 2.388 5.333 5.333z"></path>
<path d="M21.507 17.8c-1.434 1.361-3.372 2.2-5.507 2.2s-4.073-0.839-5.507-2.2c-2.32 1.698-3.827 4.439-3.827 7.533h18.667c0-3.095-1.507-5.836-3.827-7.533z"></path>
<path d="M24.547 16.913c1.844-0.265 3.262-1.852 3.262-3.77 0-2.104-1.705-3.809-3.809-3.809-0.151 0-0.301 0.010-0.447 0.027 0.289 0.827 0.447 1.714 0.447 2.64 0 1.323-0.323 2.569-0.892 3.667 0.513 0.378 0.994 0.794 1.439 1.246z"></path>
<path d="M27.933 17.286c-0.579 0.551-1.276 0.981-2.046 1.252 0.847 1.23 1.47 2.627 1.81 4.13h2.969c0-2.212-1.077-4.17-2.733-5.382z"></path>
<path d="M8.441 9.333c-2.104 0-3.809 1.705-3.809 3.809 0 1.919 1.418 3.505 3.262 3.77 0.446-0.452 0.926-0.868 1.439-1.246-0.569-1.098-0.892-2.345-0.892-3.667 0-0.926 0.159-1.813 0.447-2.64-0.145-0.016-0.295-0.027-0.447-0.027z"></path>
<path d="M1.775 22.667h2.967c0.341-1.504 0.963-2.899 1.81-4.13-0.77-0.27-1.465-0.701-2.046-1.252-1.655 1.213-2.732 3.172-2.732 5.382z"></path>
</symbol>
<symbol id="icon-user-fill" viewBox="0 0 32 32">
<title>user-fill</title>
<path d="M21.333 12c0 2.946-2.388 5.333-5.333 5.333s-5.333-2.388-5.333-5.333c0-2.946 2.388-5.333 5.333-5.333s5.333 2.388 5.333 5.333z"></path>
<path d="M21.507 17.8c-1.434 1.361-3.372 2.2-5.507 2.2s-4.073-0.839-5.507-2.2c-2.32 1.698-3.827 4.439-3.827 7.533h18.667c0-3.095-1.507-5.836-3.827-7.533z"></path>
</symbol>
<symbol id="icon-thumb-up" viewBox="0 0 32 32">
<title>thumb-up</title>
<path d="M23.507 14.030c-1.193-0.361-2.384-0.726-3.601-1.096 0.030-0.19 0.055-0.339 0.076-0.49 0.176-1.274 0.415-2.544 0.508-3.824 0.077-1.053-0.732-1.967-1.756-2.204-1.407-0.324-2.037 0.145-2.136 1.554-0.047 0.659-0.022 1.887-0.51 3.705s-3.23 2.625-4.2 2.917v9.193c0.695 0.013 2.016 0.216 2.787 1.046 0.538 0.578 1.172 0.868 1.975 0.855 1.43-0.024 2.861-0.003 4.292-0.004 1.443-0.001 2.212-0.582 2.596-1.969 0.593-2.145 1.181-4.292 1.767-6.44 0.449-1.643-0.169-2.748-1.797-3.241z"></path>
<path d="M6.554 13.212h4v12h-4v-12z"></path>
</symbol>
<symbol id="icon-bell" viewBox="0 0 32 32">
<title>bell</title>
<path d="M21.714 13.905c0-2.696-1.868-4.956-4.381-5.556v-0.35h-0.015c-0.093-0.646-0.646-1.142-1.319-1.142s-1.225 0.496-1.319 1.142h-0.015v0.348c-2.513 0.601-4.381 2.859-4.381 5.556v5.714l-2.286 3.43h5.714c0 1.262 1.024 2.286 2.286 2.286s2.286-1.024 2.286-2.286h5.714l-2.286-3.428v-5.714z"></path>
</symbol>
<symbol id="icon-arrow-left" viewBox="0 0 32 32">
<title>arrow-left</title>
<path d="M20.391 27.609l-11.61-11.609 11.61-11.609 1.884 1.884-9.723 9.724 9.723 9.724z"></path>
</symbol>
<symbol id="icon-arrow-right" viewBox="0 0 32 32">
<title>arrow-right</title>
<path d="M11.609 27.609l-1.884-1.884 9.723-9.724-9.723-9.724 1.884-1.884 11.61 11.609z"></path>
</symbol>
<symbol id="icon-arrow-up" viewBox="0 0 32 32">
<title>arrow-up</title>
<path d="M25.724 22.276l-9.724-9.723-9.724 9.723-1.884-1.884 11.609-11.61 11.609 11.61z"></path>
</symbol>
<symbol id="icon-arrow-down" viewBox="0 0 32 32">
<title>arrow-down</title>
<path d="M16 23.219l-11.609-11.61 1.884-1.884 9.724 9.723 9.724-9.723 1.884 1.884z"></path>
</symbol>
<symbol id="icon-delete" viewBox="0 0 32 32">
<title>delete</title>
<path d="M4.391 6.277l1.886-1.886 21.333 21.333-1.886 1.886-21.333-21.333z"></path>
<path d="M4.391 25.723l21.333-21.333 1.886 1.886-21.333 21.333-1.886-1.886z"></path>
</symbol>
<symbol id="icon-check-line" viewBox="0 0 32 32">
<title>check-line</title>
<path d="M12.572 24.908l-8.169-7.953 1.861-1.911 6.308 6.142 13.164-12.809 1.861 1.911z"></path>
</symbol>
<symbol id="icon-check-blank" viewBox="0 0 32 32">
<title>check-blank</title>
<path d="M16 4c-6.616 0-12 5.384-12 12s5.384 12 12 12 12-5.384 12-12-5.384-12-12-12zM16 25.333c-5.147 0-9.333-4.187-9.333-9.333s4.187-9.333 9.333-9.333 9.333 4.187 9.333 9.333-4.187 9.333-9.333 9.333z"></path>
</symbol>
<symbol id="icon-check-done" viewBox="0 0 32 32">
<title>check-done</title>
<path d="M14.098 17.936l-3.462-3.311-1.843 1.927 5.301 5.070 8.861-8.436-1.839-1.932z"></path>
<path d="M16 4c-6.616 0-12 5.384-12 12s5.384 12 12 12 12-5.384 12-12-5.384-12-12-12zM16 25.333c-5.147 0-9.333-4.187-9.333-9.333s4.187-9.333 9.333-9.333 9.333 4.187 9.333 9.333-4.187 9.333-9.333 9.333z"></path>
</symbol>
<symbol id="icon-dot-big" viewBox="0 0 32 32">
<title>dot-big</title>
<path d="M16 8c-4.418 0-8 3.582-8 8s3.582 8 8 8 8-3.582 8-8-3.582-8-8-8zM16 21.333c-2.945 0-5.333-2.388-5.333-5.333s2.388-5.333 5.333-5.333 5.333 2.388 5.333 5.333-2.388 5.333-5.333 5.333z"></path>
</symbol>
<symbol id="icon-dot-big-fill" viewBox="0 0 32 32">
<title>dot-big-fill</title>
<path d="M24 16c0 4.418-3.582 8-8 8s-8-3.582-8-8c0-4.418 3.582-8 8-8s8 3.582 8 8z"></path>
</symbol>
<symbol id="icon-dot-small" viewBox="0 0 32 32">
<title>dot-small</title>
<path d="M18.667 16c0 1.473-1.194 2.667-2.667 2.667s-2.667-1.194-2.667-2.667c0-1.473 1.194-2.667 2.667-2.667s2.667 1.194 2.667 2.667z"></path>
</symbol>
<symbol id="icon-module" viewBox="0 0 32 32">
<title>module</title>
<path d="M14.667 14.667h-9.333v-9.333h9.333v9.333zM8 12h4v-4h-4v4z"></path>
<path d="M26.667 14.667h-9.333v-9.333h9.333v9.333zM20 12h4v-4h-4v4z"></path>
<path d="M14.667 26.667h-9.333v-9.333h9.333v9.333zM8 24h4v-4h-4v4z"></path>
<path d="M17.333 17.333h9.333v9.333h-9.333v-9.333z"></path>
</symbol>
<symbol id="icon-grid-big" viewBox="0 0 32 32">
<title>grid-big</title>
<path d="M5.333 5.333h9.333v9.333h-9.333v-9.333z"></path>
<path d="M17.333 5.333h9.333v9.333h-9.333v-9.333z"></path>
<path d="M5.333 17.333h9.333v9.333h-9.333v-9.333z"></path>
<path d="M17.333 17.333h9.333v9.333h-9.333v-9.333z"></path>
</symbol>
<symbol id="icon-grid-small" viewBox="0 0 32 32">
<title>grid-small</title>
<path d="M21.333 21.333h5.333v5.333h-5.333v-5.333z"></path>
<path d="M5.333 21.333h5.333v5.333h-5.333v-5.333z"></path>
<path d="M13.333 21.333h5.333v5.333h-5.333v-5.333z"></path>
<path d="M21.333 13.333h5.333v5.333h-5.333v-5.333z"></path>
<path d="M5.333 13.333h5.333v5.333h-5.333v-5.333z"></path>
<path d="M13.333 13.333h5.333v5.333h-5.333v-5.333z"></path>
<path d="M21.333 5.333h5.333v5.333h-5.333v-5.333z"></path>
<path d="M5.333 5.333h5.333v5.333h-5.333v-5.333z"></path>
<path d="M13.333 5.333h5.333v5.333h-5.333v-5.333z"></path>
</symbol>
<symbol id="icon-list" viewBox="0 0 32 32">
<title>list</title>
<path d="M5.333 21.333h21.333v5.333h-21.333v-5.333z"></path>
<path d="M5.333 13.333h21.333v5.333h-21.333v-5.333z"></path>
<path d="M5.333 5.333h21.333v5.333h-21.333v-5.333z"></path>
</symbol>
<symbol id="icon-menu-dots" viewBox="0 0 32 32">
<title>menu-dots</title>
<path d="M10.667 16c0 1.473-1.194 2.667-2.667 2.667s-2.667-1.194-2.667-2.667c0-1.473 1.194-2.667 2.667-2.667s2.667 1.194 2.667 2.667z"></path>
<path d="M18.667 16c0 1.473-1.194 2.667-2.667 2.667s-2.667-1.194-2.667-2.667c0-1.473 1.194-2.667 2.667-2.667s2.667 1.194 2.667 2.667z"></path>
<path d="M26.667 16c0 1.473-1.194 2.667-2.667 2.667s-2.667-1.194-2.667-2.667c0-1.473 1.194-2.667 2.667-2.667s2.667 1.194 2.667 2.667z"></path>
</symbol>
</defs>
</svg>
