<svg xmlns="http://www.w3.org/2000/svg" version="1.1" xmlns:xlink="http://www.w3.org/1999/xlink" width="291.62" height="259.47"><svg id="SvgjsSvg1035" data-name="Lager 1" xmlns="http://www.w3.org/2000/svg" viewBox="0 0 291.62 259.47">
  <path d="M280.42,92.33c-2.26-1.23-95.99-52.66-99.34-54.95-3.35-2.29-12.68-2.82-12.68-2.82,0,0-106.51-9.07-111.14-9.39-4.63-.32-7.53,4.16-6.35,2.79S14.8,70.61,11.1,74.54c-4.14,4.4-2.95,6.41.49,9.25,2.63,2.17,73.14,61.91,88.46,74.59,11.49,9.51,18.82,5.88,24.74,3.57,2.57-1,28.93-12.36,31.49-13.4l36.59-14.83s80.14-31.88,86.66-34.35c6.52-2.47,3.14-5.81.88-7.05ZM252.85,93.65c-2.27.84-94.67,35.32-94.67,35.32,0,0-35.82,13.2-39.17,14.52s-3.51,1.28-7.86-2.19c-4.36-3.47-74.95-59.71-75.91-60.59-.97-.88-2.18-1.94,0-4.58,3.67-4.45,30.3-39.28,31-40.42.7-1.14,2.64-2.03,4.05-1.76,1.41.26,92.38,7.75,94.14,7.75s6.61,1.23,9.86,3.08c3.26,1.85,67.2,38.31,67.2,38.31,0,0,4.63,2.72,8.78,5.12,2.35,1.36,6.9,3.86,2.58,5.45Z" fill="#6792d8"></path>
  <g>
    <g opacity=".5">
      <path d="M239.68,115.12c2.94-1.17,5.85-2.32,8.7-3.45-2.84,1.13-5.76,2.28-8.7,3.45Z" fill="#6792d8" opacity=".5"></path>
      <g opacity=".1">
        <path d="M248.38,111.67c-1.75.69-3.52,1.4-5.31,2.11,1.79-.71,3.56-1.41,5.31-2.11h0ZM243.07,113.78c-1.12.45-2.25.89-3.38,1.34,1.13-.45,2.26-.9,3.38-1.34h0Z" fill="#6792d8"></path>
      </g>
    </g>
    <g>
      <path d="M280.23,126.89c-.79-.43-12.83-7.03-28.27-15.53-4.11,1.63-8.43,3.34-12.78,5.07,1.35.77,2.12,1.21,2.12,1.21,0,0,4.63,2.72,8.78,5.12,2.35,1.36,6.9,3.86,2.58,5.45-2.27.84-94.67,35.32-94.67,35.32,0,0-35.82,13.2-39.17,14.52s-3.51,1.28-7.86-2.19c-4.36-3.47-74.95-59.71-75.91-60.59-.97-.88-2.18-1.94,0-4.58.51-.61,1.46-1.82,2.72-3.43-3.32-2.81-6.49-5.48-9.39-7.94-1.84-1.55-3.57-3.02-5.19-4.39-6.04,7.07-11.03,12.86-12.26,14.18-4.14,4.4-2.95,6.41.49,9.25,2.63,2.17,73.14,61.91,88.46,74.59,11.49,9.51,18.82,5.88,24.74,3.57,2.57-1,28.93-12.36,31.49-13.4l36.59-14.83s80.14-31.88,86.66-34.35c6.52-2.47,3.14-5.81.88-7.05Z" fill="#6792d8" opacity=".5"></path>
      <g opacity=".1">
        <path d="M23.3,96.37l2.11,1.79,2.3,1.94,8.64,7.3c-.99,1.26-1.69,2.14-2.09,2.63-2.78,3.37-.92,5.06.1,5.99.87.79,53,42.33,75.37,60.16l.6.48c2.77,2.21,4.04,3.22,5.68,3.22.94,0,1.83-.33,3.2-.87,3.3-1.3,38.79-14.38,39.15-14.52.92-.34,92.42-34.49,94.67-35.31,1.54-.57,2.37-1.38,2.46-2.41.16-1.83-2.02-3.25-4.67-4.78l-.21-.12c-4.09-2.37-8.73-5.09-8.78-5.13l-.26-.15c3.52-1.4,6.99-2.77,10.34-4.1,14.95,8.22,27.03,14.85,27.85,15.29,1.23.67,2.44,1.83,2.38,2.75-.06.83-1.17,1.69-3.13,2.43-6.45,2.44-85.87,34.03-86.68,34.36l-36.59,14.83c-1.12.46-6.63,2.81-13,5.54-7.99,3.42-17.04,7.29-18.48,7.85-.29.11-.59.23-.89.35-2.63,1.05-5.62,2.23-9.06,2.23-4.4,0-8.91-1.96-13.77-5.98-10.71-8.86-48.46-40.78-71.01-59.85-9.67-8.18-16.66-14.09-17.45-14.74-1.59-1.32-2.67-2.43-2.74-3.58-.07-1.06.7-2.42,2.35-4.18,1.07-1.14,4.98-5.66,11.63-13.43M23.18,94.92c-6.04,7.07-11.03,12.86-12.26,14.18-4.14,4.4-2.95,6.41.49,9.25,2.63,2.17,73.14,61.91,88.46,74.59,5.73,4.74,10.43,6.22,14.43,6.22s7.35-1.49,10.32-2.65c2.57-1,28.93-12.36,31.49-13.4l36.59-14.83s80.14-31.88,86.66-34.35c6.52-2.47,3.14-5.81.88-7.05-.79-.43-12.83-7.03-28.27-15.53-4.11,1.63-8.43,3.34-12.78,5.07,1.35.77,2.12,1.21,2.12,1.21,0,0,4.63,2.72,8.78,5.12,2.35,1.36,6.9,3.86,2.58,5.45-2.27.84-94.67,35.32-94.67,35.32,0,0-35.82,13.2-39.17,14.52-1.26.5-2.07.8-2.82.8-1.24,0-2.33-.83-5.04-3-4.36-3.47-74.95-59.71-75.91-60.59-.97-.88-2.18-1.94,0-4.58.51-.61,1.46-1.82,2.72-3.43-3.32-2.81-6.49-5.48-9.39-7.94-1.84-1.55-3.57-3.02-5.19-4.39h0Z" fill="#6792d8"></path>
      </g>
    </g>
    <g>
      <path d="M50.08,91.29c7.75-10.11,15.59-20.42,15.97-21.03.7-1.14,2.64-2.03,4.05-1.76,1.41.26,92.38,7.75,94.14,7.75s6.61,1.23,9.86,3.08c1.98,1.12,26.34,15.01,45.16,25.75,4.47-1.67,8.76-3.27,12.68-4.73-24.45-13.47-49.36-27.25-51.06-28.41-3.35-2.29-12.68-2.82-12.68-2.82,0,0-106.51-9.07-111.14-9.39-4.63-.32-7.53,4.16-6.35,2.79.52-.61-6.49,7.68-14.78,17.44.42.37,6.05,4.87,14.15,11.34Z" fill="#6792d8" opacity=".5"></path>
      <g opacity=".1">
        <path d="M56.59,60.73c.13,0,.27,0,.41.01,4.58.32,110.06,9.3,111.16,9.39,2.52.14,9.61.9,12.16,2.64,1.41.96,17.95,10.18,49.18,27.39l-10.13,3.78c-19.45-11.09-42.81-24.41-44.75-25.51-3.46-1.96-8.45-3.22-10.37-3.22-2.22-.03-91.8-7.4-93.96-7.73-.23-.04-.47-.06-.72-.06-1.7,0-3.59.99-4.39,2.29-.4.62-7.32,9.74-15.27,20.12-7.72-6.17-11.14-8.91-12.51-10.01,3.74-4.4,7.18-8.46,9.73-11.47l3.22-3.8c.7-.83,1.1-1.3,1.3-1.62.73-.74,2.58-2.2,4.94-2.2h0M56.59,59.7c-3.75,0-6.24,3.07-6.13,3.07.02,0,.1-.08.26-.26.02-.02.03-.03.03-.03,0,0-6.8,8.05-14.81,17.47.42.37,6.05,4.87,14.15,11.34,7.75-10.11,15.59-20.42,15.97-21.03.62-1.01,2.19-1.81,3.52-1.81.18,0,.36.02.53.05,1.41.26,92.38,7.75,94.14,7.75s6.61,1.23,9.86,3.08c1.98,1.12,26.34,15.01,45.16,25.75,4.47-1.67,8.76-3.27,12.68-4.73-24.45-13.47-49.36-27.25-51.06-28.41-3.35-2.29-12.68-2.82-12.68-2.82,0,0-106.51-9.07-111.14-9.39-.16-.01-.32-.02-.48-.02h0Z" fill="#6792d8"></path>
      </g>
    </g>
  </g>
  <g>
    <g>
      <path d="M280.23,162.06c-.81-.44-13.21-7.24-29-15.93-4.11,1.63-8.42,3.34-12.76,5.06,1.8,1.02,2.83,1.62,2.83,1.62,0,0,4.63,2.72,8.78,5.12,2.35,1.36,6.9,3.86,2.58,5.45-2.27.84-94.67,35.32-94.67,35.32,0,0-35.82,13.2-39.17,14.52s-3.51,1.28-7.86-2.19c-4.36-3.47-74.95-59.71-75.91-60.59-.97-.88-2.18-1.94,0-4.58.54-.65,1.57-1.96,2.93-3.71-3.47-2.93-6.77-5.72-9.79-8.28-1.68-1.42-3.28-2.77-4.78-4.04-6.15,7.19-11.24,13.11-12.49,14.44-4.14,4.4-2.95,6.41.49,9.25,2.63,2.17,73.14,61.91,88.46,74.59,11.49,9.51,18.82,5.88,24.74,3.57,2.57-1,28.93-12.36,31.49-13.4l36.59-14.83s80.14-31.88,86.66-34.35c6.52-2.47,3.14-5.81.88-7.05Z" fill="#6792d8" opacity=".3"></path>
      <g opacity=".1">
        <path d="M23.53,131.27l4,3.38,9.04,7.64c-1.1,1.41-1.88,2.39-2.31,2.9-2.78,3.37-.92,5.06.1,6,.87.79,52.95,42.3,75.31,60.11l.66.53c2.77,2.21,4.04,3.22,5.68,3.22.94,0,1.83-.33,3.2-.87,3.3-1.3,38.79-14.38,39.15-14.52.92-.34,92.42-34.49,94.67-35.31,1.54-.57,2.37-1.38,2.46-2.41.16-1.83-2.02-3.25-4.67-4.78l-.21-.12c-4.09-2.37-8.73-5.09-8.78-5.13l-.98-.56,10.32-4.1c15.32,8.43,27.73,15.23,28.58,15.69,1.23.67,2.44,1.83,2.38,2.75-.06.83-1.17,1.69-3.13,2.43-6.45,2.44-85.87,34.03-86.68,34.36l-36.59,14.83c-1.12.46-6.63,2.81-13,5.54-7.99,3.42-17.04,7.29-18.48,7.85-.29.11-.59.23-.89.35-2.63,1.05-5.62,2.23-9.06,2.23-4.4,0-8.91-1.96-13.77-5.98-10.71-8.86-48.46-40.78-71.01-59.85-9.67-8.18-16.66-14.09-17.45-14.74-1.59-1.32-2.67-2.43-2.74-3.58-.07-1.06.7-2.42,2.35-4.18,1.08-1.15,5.07-5.76,11.86-13.7M23.41,129.82c-6.15,7.19-11.24,13.11-12.49,14.44-4.14,4.4-2.95,6.41.49,9.25,2.63,2.17,73.14,61.91,88.46,74.59,5.73,4.74,10.43,6.22,14.43,6.22s7.35-1.49,10.32-2.65c2.57-1,28.93-12.36,31.49-13.4l36.59-14.83s80.14-31.88,86.66-34.35c6.52-2.47,3.14-5.81.88-7.05-.81-.44-13.21-7.24-29-15.93-4.11,1.63-8.42,3.34-12.76,5.06,1.8,1.02,2.83,1.62,2.83,1.62,0,0,4.63,2.72,8.78,5.12,2.35,1.36,6.9,3.86,2.58,5.45-2.27.84-94.67,35.32-94.67,35.32,0,0-35.82,13.2-39.17,14.52-1.26.5-2.07.8-2.82.8-1.24,0-2.33-.83-5.04-3-4.36-3.47-74.95-59.71-75.91-60.59-.97-.88-2.18-1.94,0-4.58.54-.65,1.57-1.96,2.93-3.71-3.47-2.93-6.77-5.72-9.79-8.28-1.68-1.42-3.28-2.77-4.78-4.04h0Z" fill="#6792d8"></path>
      </g>
    </g>
    <g>
      <path d="M70.1,103.67c1.41.26,92.38,7.75,94.14,7.75s6.61,1.23,9.86,3.08c.63.36,3.57,2.03,7.88,4.49,3.78-1.41,7.82-2.92,11.99-4.47-7.37-4.11-12.35-6.92-13.08-7.41-3.35-2.29-12.68-2.82-12.68-2.82,0,0-106.51-9.07-111.14-9.39-.79-.06-1.53.04-2.21.21,3.71,2.96,7.75,6.18,11.94,9.52.91-.71,2.25-1.16,3.31-.96Z" fill="#6792d8" opacity=".3"></path>
      <g opacity=".1">
        <path d="M57.58,95.96c9.6.75,109.5,9.26,110.57,9.35,2.52.14,9.61.9,12.16,2.64.25.17.96.66,11.22,6.38l-8.06,3.01-1.39.52c-4.08-2.32-6.85-3.9-7.46-4.25-3.46-1.96-8.45-3.22-10.37-3.22-2.22-.03-91.8-7.4-93.96-7.73-.23-.04-.47-.06-.72-.06-.89,0-1.87.28-2.72.76-3.21-2.56-6.33-5.05-9.27-7.39M56.61,94.87c-.62,0-1.2.09-1.75.23,3.71,2.96,7.75,6.18,11.94,9.52.76-.6,1.83-1,2.78-1,.18,0,.36.02.53.05,1.41.26,92.38,7.75,94.14,7.75s6.61,1.23,9.86,3.08c.63.36,3.57,2.03,7.88,4.49,3.78-1.41,7.82-2.92,11.99-4.47-7.37-4.11-12.35-6.92-13.08-7.41-3.35-2.29-12.68-2.82-12.68-2.82,0,0-106.51-9.07-111.14-9.39-.15-.01-.31-.02-.46-.02h0Z" fill="#6792d8"></path>
      </g>
    </g>
    <g>
      <path d="M54.17,121.12c-4.63-3.91-9.22-7.79-13.58-11.48-1.4,1.65-2.89,3.4-4.42,5.21,1.52,1.24,6.87,5.52,14.14,11.32,1.3-1.7,2.6-3.39,3.87-5.05Z" fill="#6792d8" opacity=".3"></path>
      <g opacity=".1">
        <path d="M40.71,111.09c3.89,3.29,7.95,6.72,12.05,10.19-.87,1.14-1.75,2.29-2.63,3.44-6.37-5.08-10.56-8.44-12.5-10l3.08-3.62M40.59,109.64c-1.4,1.65-2.89,3.4-4.42,5.21,1.52,1.24,6.87,5.52,14.14,11.32,1.3-1.7,2.6-3.39,3.87-5.05-4.63-3.91-9.22-7.79-13.58-11.48h0Z" fill="#6792d8"></path>
      </g>
    </g>
    <g>
      <path d="M231.21,135.11c-5.53-3.05-11.07-6.1-16.35-9.02-4.54,1.8-8.64,3.44-12.03,4.78,5.25,3,10.67,6.08,15.72,8.96,4.45-1.66,8.73-3.26,12.66-4.72Z" fill="#6792d8" opacity=".3"></path>
      <g opacity=".1">
        <path d="M214.79,127.22c4.53,2.5,9.24,5.1,13.96,7.7l-10.11,3.77-13.44-7.66,9.59-3.81M214.86,126.09c-4.54,1.8-8.64,3.44-12.03,4.78,5.25,3,10.67,6.08,15.72,8.96,4.45-1.66,8.73-3.26,12.66-4.72-5.53-3.05-11.07-6.1-16.35-9.02h0Z" fill="#6792d8"></path>
      </g>
    </g>
  </g>
</svg><style>@media (prefers-color-scheme: light) { :root { filter: none; } }
@media (prefers-color-scheme: dark) { :root { filter: none; } }
</style></svg>