<svg xmlns="http://www.w3.org/2000/svg" width="320" height="88">
   <g fill="#040404">
      <path
         d="M2.398 86.314V32.059h30.21v3.083H5.685v22.503h25.277v3.083H5.686v22.537H33.19v3.083H2.398v-.034zm83.47-54.255v54.255h-3.22L48.056 38.088h-.308v48.226h-3.323V32.059h3.254l34.594 48.295h.308V32.059h3.288zm11.714 0 17.811 49.973h.377l17.81-49.973h3.494l-19.557 54.255h-3.87L94.088 32.059h3.493zm51 0v54.255h-3.322V32.059h3.323zm43.055 13.564c-.274-3.357-1.644-6.097-4.11-8.186s-5.652-3.117-9.556-3.117c-2.638 0-4.967.48-7.022 1.473-2.055.959-3.665 2.295-4.83 3.973s-1.746 3.596-1.746 5.788c0 1.405.274 2.638.822 3.768a9.165 9.165 0 0 0 2.295 2.98c.993.89 2.157 1.644 3.528 2.295 1.37.65 2.877 1.233 4.486 1.712l5.926 1.747c2.02.617 3.905 1.336 5.617 2.158 1.713.822 3.22 1.781 4.487 2.911 1.267 1.13 2.295 2.432 2.98 3.94.72 1.506 1.062 3.219 1.062 5.206 0 2.877-.754 5.411-2.227 7.672-1.472 2.26-3.562 4.042-6.268 5.343-2.705 1.302-5.89 1.952-9.59 1.952-3.494 0-6.542-.582-9.11-1.78-2.604-1.2-4.625-2.843-6.132-4.933-1.507-2.123-2.363-4.555-2.534-7.295h3.39c.172 2.226.891 4.178 2.158 5.822 1.268 1.644 2.946 2.877 5.035 3.768 2.09.89 4.487 1.336 7.193 1.336 2.911 0 5.48-.514 7.707-1.507 2.226-.994 3.973-2.398 5.206-4.179 1.267-1.781 1.884-3.87 1.884-6.234 0-1.918-.446-3.528-1.336-4.898-.89-1.37-2.226-2.534-3.973-3.528-1.747-.993-3.94-1.883-6.542-2.637l-6.337-1.918c-4.247-1.302-7.467-3.048-9.693-5.275s-3.357-5-3.357-8.323c0-2.774.754-5.275 2.227-7.432 1.473-2.158 3.493-3.87 6.062-5.104 2.535-1.233 5.446-1.85 8.632-1.85 3.22 0 6.096.617 8.562 1.884 2.467 1.233 4.419 2.946 5.892 5.104 1.438 2.158 2.26 4.624 2.397 7.398h-3.185v-.034zm18.496-13.564v54.255h-3.323V32.059h3.323zm56.96 27.128c0 5.583-.96 10.48-2.911 14.66-1.953 4.178-4.624 7.432-8.084 9.727-3.46 2.329-7.432 3.459-11.92 3.459-4.52 0-8.494-1.165-11.953-3.494-3.46-2.329-6.165-5.583-8.083-9.761-1.953-4.179-2.912-9.043-2.912-14.626s.96-10.48 2.912-14.66c1.952-4.178 4.658-7.398 8.083-9.727 3.46-2.329 7.432-3.493 11.954-3.493 4.487 0 8.494 1.164 11.92 3.459 3.459 2.33 6.164 5.549 8.083 9.727 1.952 4.248 2.91 9.146 2.91 14.729zm-3.22 0c0-5.035-.856-9.385-2.534-13.085-1.679-3.699-4.008-6.542-6.988-8.562-2.98-2.021-6.37-3.049-10.207-3.049s-7.227.994-10.207 3.014-5.309 4.864-6.987 8.563c-1.678 3.7-2.534 8.084-2.534 13.119 0 5 .822 9.35 2.5 13.05s3.973 6.576 6.953 8.596c2.98 2.021 6.37 3.049 10.241 3.049 3.836 0 7.227-1.028 10.207-3.049s5.31-4.863 6.987-8.562c1.713-3.7 2.57-8.05 2.57-13.084zM319.6 32.059v54.255h-3.22l-34.593-48.226h-.308v48.226h-3.323V32.059h3.254l34.594 48.295h.308V32.059h3.288z"/>
      <ellipse cx="60.968" cy="1.815" rx="1.85" ry="1.815"/>
      <path
         d="M92.205 20.688c2.09 0 4.076-.788 5.549-2.192 1.541-1.473 2.397-3.494 2.397-5.686s-.856-4.213-2.397-5.686c-1.473-1.404-3.46-2.192-5.55-2.192s-4.075.788-5.548 2.192c-1.541 1.473-2.397 3.494-2.397 5.686s.856 4.213 2.397 5.686c1.473 1.404 3.46 2.192 5.549 2.192zM88.814 9.419c.822-.925 1.987-1.404 3.39-1.404 1.405 0 2.57.48 3.392 1.404.753.856 1.164 2.055 1.164 3.391s-.41 2.535-1.164 3.39c-.822.926-1.987 1.405-3.391 1.405s-2.569-.48-3.391-1.404c-.753-.856-1.164-2.055-1.164-3.391s.41-2.535 1.164-3.39z"/>
      <ellipse cx="80.525" cy="1.815" rx="1.85" ry="1.815"/>
      <path
         d="M105.597 11.269c.069-1.816 1.61-3.254 3.425-3.254 1.987 0 3.015.993 3.117 3.048v9.282h3.391v-9.282c0-3.733-2.432-6.13-6.165-6.13-1.85 0-3.151 1.13-3.596 1.609l-.103.103-.377-1.37-3.048.822v14.248h3.39l-.034-9.076zm-46.308 4.59v4.486h3.357V5.24l-3.357.925v9.693zm-45.314 0v4.486h3.322V5.24l-3.322.925v9.693zm64.872 0v4.486h3.357V5.24l-3.357.925v9.693zm38.327 5.617 2.638-.72a2.055 2.055 0 0 0 1.507-1.986 2.089 2.089 0 0 0-2.227-2.09 2.11 2.11 0 0 0-1.952 2.021c0 .514.137.96.445 1.336.172.206.172.48.035.72l-.446.719zM70.97 17.674c-1.815 0-2.74-1.473-3.014-2.5l-3.048.821.034.206c.685 2.74 2.98 4.487 5.994 4.487 1.473 0 2.877-.48 3.939-1.37 1.062-.89 1.61-2.055 1.61-3.323 0-1.644-.754-3.767-4.385-4.555l-1.61-.343c-1.233-.24-1.85-.787-1.85-1.61 0-.89.926-1.54 2.159-1.54 1.541 0 2.192 1.061 2.363 1.575l3.014-.822c-.616-2.226-2.774-3.768-5.377-3.768-3.494 0-5.378 2.33-5.378 4.556 0 2.295 1.542 3.939 4.384 4.624.48.102 1.028.24 1.61.342 1.61.274 1.85.925 1.85 1.507 0 1.199-1.165 1.713-2.295 1.713zm-48.911 2.671h3.322V8.323h2.124V5.24H25.38V1.404l-3.322.89V5.24H19.9v3.083h2.158v12.022z"/>
      <ellipse cx="15.653" cy="1.815" rx="1.85" ry="1.815"/>
      <path
         d="M6.063 17.674c-1.816 0-2.74-1.473-3.015-2.5L0 15.994l.034.206c.685 2.74 2.98 4.487 5.994 4.487 1.473 0 2.877-.48 3.94-1.37 1.061-.89 1.609-2.055 1.609-3.323 0-1.644-.754-3.767-4.384-4.555l-1.576-.343c-1.233-.24-1.85-.787-1.85-1.61 0-.89.925-1.54 2.158-1.54 1.542 0 2.193 1.061 2.364 1.575l3.014-.822c-.617-2.226-2.774-3.768-5.378-3.768-3.493 0-5.377 2.33-5.377 4.521 0 2.295 1.541 3.94 4.384 4.624.48.103 1.028.24 1.61.343 1.61.274 1.85.925 1.85 1.507-.035 1.233-1.2 1.747-2.33 1.747zm51.65-12.4h-3.527l-3.665 8.564-3.665-8.563h-3.562l7.227 15.413 7.193-15.413zM36.136 20.689c2.09 0 4.076-.788 5.549-2.192a7.993 7.993 0 0 0 2.055-3.323h-3.528a5.505 5.505 0 0 1-.65 1.062c-.823.925-1.987 1.405-3.391 1.405s-2.57-.48-3.391-1.405a4.9 4.9 0 0 1-.548-.822l11.85-3.185c-.136-1.987-.958-3.768-2.363-5.104-1.473-1.404-3.46-2.192-5.548-2.192s-4.076.788-5.55 2.192c-1.54 1.473-2.397 3.494-2.397 5.686s.857 4.213 2.398 5.686a7.945 7.945 0 0 0 5.514 2.192zM32.746 9.42c.821-.925 1.986-1.404 3.39-1.404s2.57.48 3.391 1.404a4.9 4.9 0 0 1 .548.822l-8.46 2.227c.069-1.2.48-2.295 1.13-3.049z"/>
   </g>
</svg>
