<?xml version="1.0" encoding="utf-8"?><svg xmlns="http://www.w3.org/2000/svg" xmlns:xlink="http://www.w3.org/1999/xlink"><symbol viewBox="0 0 24 24" id="icon-angle-down"><path d="M12 18.72a2.43 2.43 0 0 1-1.7-.7L.51 8.23A1.73 1.73 0 0 1 3 5.79l9 9.05 9.05-9a1.73 1.73 0 1 1 2.44 2.44L13.7 18a2.41 2.41 0 0 1-1.7.72Z"/></symbol><symbol viewBox="4 4 24 24" id="icon-arrow-down"><path d="M16 23.219 4.391 11.609l1.884-1.884 9.724 9.723 9.724-9.723 1.884 1.884z"/></symbol><symbol viewBox="6 6 20 20" id="icon-arrow-fill-down"><path d="M9.333 12.667 16 19.334l6.667-6.667z"/><path d="m16 21.219-9.886-9.886h19.772L16 21.219zM12.553 14 16 17.447 19.447 14h-6.895z"/></symbol><symbol viewBox="6 6 20 20" id="icon-arrow-fill-left"><path d="M19.333 9.333 12.666 16l6.667 6.667z"/><path d="M20.667 25.886 10.781 16l9.886-9.886v19.772zM14.553 16 18 19.447v-6.895l-3.447 3.447z"/></symbol><symbol viewBox="6 6 20 20" id="icon-arrow-fill-right"><path d="M12.667 22.667 19.334 16l-6.667-6.667z"/><path d="M11.333 25.886V6.114L21.219 16l-9.886 9.886zM14 12.553v6.895l3.447-3.447L14 12.554z"/></symbol><symbol viewBox="6 6 20 20" id="icon-arrow-fill-up"><path d="M22.667 19.333 16 12.666l-6.667 6.667z"/><path d="M25.886 20.667H6.114L16 10.781l9.886 9.886zM12.553 18h6.895l-3.447-3.447L12.554 18z"/></symbol><symbol viewBox="4 4 24 24" id="icon-arrow-left"><path d="M20.391 27.609 8.781 16l11.61-11.609 1.884 1.884-9.723 9.724 9.723 9.724z"/></symbol><symbol viewBox="4 4 24 24" id="icon-arrow-right"><path d="m11.609 27.609-1.884-1.884 9.723-9.724-9.723-9.724 1.884-1.884 11.61 11.609z"/></symbol><symbol viewBox="4 4 24 24" id="icon-arrow-up"><path d="M25.724 22.276 16 12.553l-9.724 9.723-1.884-1.884 11.609-11.61 11.609 11.61z"/></symbol><symbol viewBox="6.666 6.666 18.668 18.668" id="icon-bell"><path d="M21.714 13.905a5.714 5.714 0 0 0-4.381-5.556v-.35h-.015a1.332 1.332 0 0 0-2.638 0h-.015v.348a5.714 5.714 0 0 0-4.381 5.556v5.714l-2.286 3.43h5.714a2.287 2.287 0 0 0 4.572 0h5.714l-2.286-3.428v-5.714z"/></symbol><symbol viewBox="4 7.666 21.5 21.5" id="icon-cart"><path d="M14.667 26a2 2 0 1 1-3.999.001A2 2 0 0 1 14.667 26zM24 26a2 2 0 1 1-3.999.001A2 2 0 0 1 24 26zM23.413 22.667H10.659L7.992 12H3.999V9.333h6.074L12.74 20h8.581l1.384-5.65 2.59.634z"/></symbol><symbol viewBox="5.8 6.666 20.5 20.5" id="icon-chat"><path d="M15.219 21.333h10.114V6.666H6.666v14.667h2.667v5.886l5.886-5.886zm-5.886-12h13.333v9.333h-8.553l-2.114 2.114v-2.114H9.332V9.333z"/></symbol><symbol viewBox="4 4 24 24" id="icon-check-blank"><path d="M16 4C9.384 4 4 9.384 4 16s5.384 12 12 12 12-5.384 12-12S22.616 4 16 4zm0 21.333c-5.147 0-9.333-4.187-9.333-9.333S10.854 6.667 16 6.667s9.333 4.187 9.333 9.333-4.187 9.333-9.333 9.333z"/></symbol><symbol viewBox="4 4 24 24" id="icon-check-done"><path d="m14.098 17.936-3.462-3.311-1.843 1.927 5.301 5.07 8.861-8.436-1.839-1.932z"/><path d="M16 4C9.384 4 4 9.384 4 16s5.384 12 12 12 12-5.384 12-12S22.616 4 16 4zm0 21.333c-5.147 0-9.333-4.187-9.333-9.333S10.854 6.667 16 6.667s9.333 4.187 9.333 9.333-4.187 9.333-9.333 9.333z"/></symbol><symbol viewBox="4 4 24 24" id="icon-check-line"><path d="m12.572 24.908-8.169-7.953 1.861-1.911 6.308 6.142L25.736 8.377l1.861 1.911z"/></symbol><symbol viewBox="4 4 24 24" id="icon-delete"><path d="m4.391 6.277 1.886-1.886L27.61 25.724l-1.886 1.886L4.391 6.277z"/><path d="M4.391 25.723 25.724 4.39l1.886 1.886L6.277 27.609l-1.886-1.886z"/></symbol><symbol viewBox="4 4 24 24" id="icon-dot-big"><path d="M16 8a8 8 0 1 0 0 16 8 8 0 0 0 0-16zm0 13.333a5.333 5.333 0 1 1 0-10.667 5.333 5.333 0 0 1 0 10.667z"/></symbol><symbol viewBox="4 4 24 24" id="icon-dot-big-fill"><path d="M24 16a8 8 0 1 1-16 0 8 8 0 0 1 16 0z"/></symbol><symbol viewBox="4 4 24 24" id="icon-dot-small"><path d="M18.667 16a2.667 2.667 0 1 1-5.334 0 2.667 2.667 0 0 1 5.334 0z"/></symbol><symbol viewBox="0 0 25 25" id="icon-download"><path d="m12.47 18.49.01.01 7.13-7.13-1.88-1.88-3.97 3.96V0H11.1v13.39l-3.89-3.9-1.88 1.88 7.13 7.13.01-.01z"/><path d="M21.94 16.58v5.08H2.99v-5.08H.33v6.41c0 .73.6 1.33 1.33 1.33h21.61c.73 0 1.33-.6 1.33-1.33v-6.41h-2.66Z"/></symbol><symbol viewBox="6.666 6.666 18.668 18.668" id="icon-file"><path d="m22.667 11.447-4.781-4.781H9.333v18.667h13.333V11.447zM12 22.667V9.334h4v4h4v9.333h-8z"/></symbol><symbol viewBox="4 4 24 24" id="icon-files"><path d="M6.667 28H20V14.114l-4.781-4.781H6.666V28zm2.666-16h4v4h4v9.333h-8V12z"/><path d="M25.333 22.667V8.781L20.552 4h-8.548v2.667h6.662v4h4v12z"/></symbol><symbol viewBox="5.333 5.333 21.333 21.333" id="icon-grid-big"><path d="M5.333 5.333h9.333v9.333H5.333V5.333zM17.333 5.333h9.333v9.333h-9.333V5.333zM5.333 17.333h9.333v9.333H5.333v-9.333zM17.333 17.333h9.333v9.333h-9.333v-9.333z"/></symbol><symbol viewBox="5.333 5.333 21.333 21.333" id="icon-grid-small"><path d="M21.333 21.333h5.333v5.333h-5.333v-5.333zM5.333 21.333h5.333v5.333H5.333v-5.333zM13.333 21.333h5.333v5.333h-5.333v-5.333zM21.333 13.333h5.333v5.333h-5.333v-5.333zM5.333 13.333h5.333v5.333H5.333v-5.333zM13.333 13.333h5.333v5.333h-5.333v-5.333zM21.333 5.333h5.333v5.333h-5.333V5.333zM5.333 5.333h5.333v5.333H5.333V5.333zM13.333 5.333h5.333v5.333h-5.333V5.333z"/></symbol><symbol viewBox="4 4 24 24" id="icon-history"><path d="M16.019 8.01v7.976h7.979c.11-4.44-3.797-8.127-7.979-7.976zM13.265 9.889c-.228-.396-.449-.776-.68-1.175l-1.175.679.679 1.176c.403-.234.784-.455 1.176-.68zM10.579 12.077c-.399-.23-.784-.45-1.176-.677-.228.397-.446.773-.679 1.175l1.176.679.679-1.176zM8.724 19.419l.68 1.173 1.176-.68-.681-1.173-1.175.68zM21.437 19.914l1.175.677.679-1.173c-.404-.233-.785-.452-1.176-.679l-.677 1.175zM11.412 22.601l1.175.677c.231-.4.45-.781.68-1.175l-1.176-.679c-.236.406-.455.787-.679 1.176zM18.748 22.102l.68 1.176c.404-.234.784-.453 1.173-.68l-.679-1.173c-.397.23-.778.449-1.175.677zM9.323 15.341H8v1.32h1.323v-1.32zM15.354 23.997h1.314v-1.314h-1.314v1.314z"/><path d="M16 4C9.384 4 4 9.384 4 16s5.384 12 12 12 12-5.384 12-12S22.616 4 16 4zm0 21.333c-5.147 0-9.333-4.187-9.333-9.333S10.854 6.667 16 6.667s9.333 4.187 9.333 9.333-4.187 9.333-9.333 9.333z"/></symbol><symbol viewBox="5.333 5.333 21.333 21.333" id="icon-image"><path d="M5.333 25.333h21.333V6.666H5.333v18.667zM8 9.333h16v13.333H8V9.333z"/><path d="M16 17.333 13.333 16l-4 2.667v2.667h13.333v-5.333l-2.667-2.667zM13.333 12.667a2 2 0 1 1-3.999.001 2 2 0 0 1 3.999-.001z"/></symbol><symbol viewBox="4.333 4.333 22.333 22.333" id="icon-images"><path d="M9.335 25.333h17.333V10.666H9.335v14.667zm4.666-12a2 2 0 1 1 .001 3.999 2 2 0 0 1-.001-3.999zm-2 8 4-2.667 2.667 1.333 2.667-4 2.667 2.667v4h-12v-1.333z"/><path d="M6.668 8h16V5.333H4.001v17.333h2.667z"/></symbol><symbol viewBox="5.333 5.333 21.333 21.333" id="icon-list"><path d="M5.333 21.333h21.333v5.333H5.333v-5.333zM5.333 13.333h21.333v5.333H5.333v-5.333zM5.333 5.333h21.333v5.333H5.333V5.333z"/></symbol><symbol viewBox="5.333 5.333 21.333 21.333" id="icon-menu-dots"><path d="M10.667 16a2.667 2.667 0 1 1-5.334 0 2.667 2.667 0 0 1 5.334 0zM18.667 16a2.667 2.667 0 1 1-5.334 0 2.667 2.667 0 0 1 5.334 0zM26.667 16a2.667 2.667 0 1 1-5.334 0 2.667 2.667 0 0 1 5.334 0z"/></symbol><symbol viewBox="6.5 6.5 19 19" id="icon-menu-line"><path d="M6.667 8h18.667v2.667H6.667V8zM6.667 14.667h18.667v2.667H6.667v-2.667zM6.667 21.333h18.667V24H6.667v-2.667z"/></symbol><symbol viewBox="4 4 24 24" id="icon-minus"><path d="M4 14.667h24v2.667H4v-2.667z"/></symbol><symbol viewBox="5.333 5.333 21.333 21.333" id="icon-module"><path d="M14.667 14.667H5.334V5.334h9.333v9.333zM8 12h4V8H8v4zM26.667 14.667h-9.333V5.334h9.333v9.333zM20 12h4V8h-4v4zM14.667 26.667H5.334v-9.333h9.333v9.333zM8 24h4v-4H8v4zM17.333 17.333h9.333v9.333h-9.333v-9.333z"/></symbol><symbol viewBox="0 0 512 512" id="icon-pause"><path d="M224 435.8V76.1c0-6.7-5.4-12.1-12.2-12.1h-71.6c-6.8 0-12.2 5.4-12.2 12.1v359.7c0 6.7 5.4 12.2 12.2 12.2h71.6c6.8 0 12.2-5.4 12.2-12.2zM371.8 64h-71.6c-6.7 0-12.2 5.4-12.2 12.1v359.7c0 6.7 5.4 12.2 12.2 12.2h71.6c6.7 0 12.2-5.4 12.2-12.2V76.1c0-6.7-5.4-12.1-12.2-12.1z"/></symbol><symbol viewBox="5.333 5.333 21.333 21.333" id="icon-pay"><path d="M26.667 25.333H5.334V6.296h21.333v19.037zM8 22.667h16V8.963H8v13.704z"/><path d="M6.667 8h18.667v4.667H6.667V8zM9.333 18.296h8v2.667h-8v-2.667z"/></symbol><symbol viewBox="5.333 5.333 21.333 21.333" id="icon-phone"><path d="M21.053 19.367c-.236.453-1.107 1.57-2.145 1.524-2.08-.09-3.597-1.276-5.061-2.741s-2.65-2.981-2.741-5.061c-.044-1.037 1.073-1.91 1.524-2.145L10.2 5.722l-2.184-.207c-1.647.999-2.671 2.979-2.541 4.926.253 3.791 2.333 7.421 5.496 10.585 3.163 3.163 6.794 5.243 10.585 5.496 1.947.13 3.927-.893 4.924-2.541l-.207-2.184-5.222-2.431z"/></symbol><symbol viewBox="4 4 24 24" id="icon-plus"><path d="M14.667 4h2.667v24h-2.667V4z"/><path d="M4 14.667h24v2.667H4v-2.667z"/></symbol><symbol viewBox="3 4 25 25" id="icon-search"><path d="M22 13.333C22 8.186 17.813 4 12.667 4s-9.333 4.187-9.333 9.333 4.187 9.333 9.333 9.333a9.29 9.29 0 0 0 5.587-1.861l7.471 7.471 1.886-1.886-7.471-7.471a9.294 9.294 0 0 0 1.861-5.587zm-16 0c0-3.676 2.991-6.667 6.667-6.667s6.667 2.991 6.667 6.667S16.343 20 12.667 20 6 17.009 6 13.333z"/></symbol><symbol viewBox="4.333 4.333 23.333 23.333" id="icon-shipping"><path d="m5.106 19.34 1.23-2.366 7.098 3.691-1.23 2.366-7.098-3.691zM14.191 10.538l-1.231 2.366-2.366-1.23 1.231-2.366-3.55-1.846-3.69 7.098 9.464 4.921 3.69-7.098zM17.597 21.327l-2.366-1.231L23.603 4h3.812v2.667h-2.194zM16.983 22.51a2.666 2.666 0 1 1-2.46 4.73 2.666 2.666 0 0 1 2.46-4.73z"/></symbol><symbol viewBox="3.5 3.5 25 25" id="icon-star"><path d="M16 23.901 8.201 28l1.49-8.683-6.31-6.15L12.1 11.9l3.899-7.901 3.899 7.901 8.719 1.267-6.31 6.15L23.797 28z"/></symbol><symbol viewBox="3.5 3.5 25 25" id="icon-star-half"><path d="M16 23.901V4l-3.899 7.901-8.719 1.267 6.31 6.15-1.49 8.683z"/></symbol><symbol viewBox="6 6 20 20" id="icon-thumb-up"><path d="M23.507 14.03c-1.193-.361-2.384-.726-3.601-1.096.03-.19.055-.339.076-.49.176-1.274.415-2.544.508-3.824.077-1.053-.732-1.967-1.756-2.204-1.407-.324-2.037.145-2.136 1.554-.047.659-.022 1.887-.51 3.705s-3.23 2.625-4.2 2.917v9.193c.695.013 2.016.216 2.787 1.046.538.578 1.172.868 1.975.855 1.43-.024 2.861-.003 4.292-.004 1.443-.001 2.212-.582 2.596-1.969a1970.4 1970.4 0 0 0 1.767-6.44c.449-1.643-.169-2.748-1.797-3.241zM6.554 13.212h4v12h-4v-12z"/></symbol><symbol viewBox="5.333 4.666 21.333 21.333" id="icon-user"><path d="M16 18.667c-3.676 0-6.667-2.991-6.667-6.667S12.324 5.333 16 5.333 22.667 8.324 22.667 12 19.676 18.667 16 18.667zM16 8c-2.206 0-4 1.794-4 4s1.794 4 4 4 4-1.794 4-4-1.794-4-4-4zM8 25.333H5.333c0-3.387 1.634-6.604 4.372-8.609l1.575 2.151A8.037 8.037 0 0 0 8 25.333zM26.667 25.333H24a8.037 8.037 0 0 0-3.28-6.458l1.575-2.151a10.706 10.706 0 0 1 4.372 8.609z"/><path d="M26.667 25.333H24a7.985 7.985 0 0 0-5.501-7.603l.833-2.533a10.647 10.647 0 0 1 7.335 10.136zM8 25.333H5.333c0-4.439 2.794-8.458 6.954-10.003l.927 2.501a8.036 8.036 0 0 0-5.215 7.502z"/></symbol><symbol viewBox="6 6 20 20" id="icon-user-fill"><path d="M21.333 12a5.333 5.333 0 1 1-10.666 0 5.333 5.333 0 0 1 10.666 0zM21.507 17.8C20.073 19.161 18.135 20 16 20s-4.073-.839-5.507-2.2a9.316 9.316 0 0 0-3.827 7.533h18.667a9.313 9.313 0 0 0-3.827-7.533z"/></symbol><symbol viewBox="1 1 30 30" id="icon-user-group"><path d="M21.333 12a5.333 5.333 0 1 1-10.666 0 5.333 5.333 0 0 1 10.666 0zM21.507 17.8C20.073 19.161 18.135 20 16 20s-4.073-.839-5.507-2.2a9.316 9.316 0 0 0-3.827 7.533h18.667a9.313 9.313 0 0 0-3.827-7.533zM24.547 16.913a3.81 3.81 0 0 0-.994-7.552c.289.827.447 1.714.447 2.64a7.945 7.945 0 0 1-.892 3.667c.513.378.994.794 1.439 1.246zM27.933 17.286a5.729 5.729 0 0 1-2.046 1.252 11.916 11.916 0 0 1 1.81 4.13h2.969a6.655 6.655 0 0 0-2.733-5.382zM8.441 9.333a3.809 3.809 0 0 0-.547 7.579 12.12 12.12 0 0 1 1.439-1.246 8.008 8.008 0 0 1-.445-6.307 4.08 4.08 0 0 0-.447-.027zM1.775 22.667h2.967a11.935 11.935 0 0 1 1.81-4.13 5.732 5.732 0 0 1-2.046-1.252 6.661 6.661 0 0 0-2.732 5.382z"/></symbol><symbol viewBox="0 0 25 25" id="icon-zoom-in"><path d="M19 9.33C19 4.19 14.81 0 9.67 0S.33 4.19.33 9.33s4.19 9.33 9.33 9.33c2.09 0 4.03-.69 5.59-1.86l7.47 7.47 1.89-1.89-7.47-7.47A9.271 9.271 0 0 0 19 9.32Zm-16 0c0-3.68 2.99-6.67 6.67-6.67s6.67 2.99 6.67 6.67S13.35 16 9.67 16 3 13.01 3 9.33Z"/><path d="M13.35 8.62v1.8H5.98v-1.8z"/><path d="M8.77 5.83h1.8v7.37h-1.8z"/></symbol><symbol viewBox="0 0 25 25" id="icon-zoom-out"><path d="M19 9.33C19 4.19 14.81 0 9.67 0S.33 4.19.33 9.33s4.19 9.33 9.33 9.33c2.09 0 4.03-.69 5.59-1.86l7.47 7.47 1.89-1.89-7.47-7.47A9.271 9.271 0 0 0 19 9.32Zm-16 0c0-3.68 2.99-6.67 6.67-6.67s6.67 2.99 6.67 6.67S13.35 16 9.67 16 3 13.01 3 9.33Z"/><path d="M13.35 8.62v1.8H5.98v-1.8z"/></symbol></svg>