<svg xmlns="http://www.w3.org/2000/svg" viewBox="4 4 24 24"><path d="M16.019 8.010c0 2.655 0 5.311 0 7.976 2.662 0 5.314 0 7.979 0 0.11-4.44-3.797-8.127-7.979-7.976z" />
<path d="M13.265 9.889c-0.228-0.396-0.449-0.776-0.68-1.175-0.406 0.234-0.782 0.452-1.175 0.679 0.228 0.396 0.45 0.781 0.679 1.176 0.403-0.234 0.784-0.455 1.176-0.68z" />
<path d="M10.579 12.077c-0.399-0.23-0.784-0.45-1.176-0.677-0.228 0.397-0.446 0.773-0.679 1.175 0.403 0.233 0.782 0.452 1.176 0.679 0.228-0.396 0.447-0.776 0.679-1.176z" />
<path d="M8.724 19.419c0.231 0.4 0.452 0.781 0.68 1.173 0.399-0.231 0.784-0.453 1.176-0.68-0.236-0.406-0.456-0.787-0.681-1.173-0.401 0.233-0.782 0.453-1.175 0.68z" />
<path d="M21.437 19.914c0.403 0.233 0.785 0.452 1.175 0.677 0.228-0.394 0.446-0.772 0.679-1.173-0.404-0.233-0.785-0.452-1.176-0.679-0.231 0.4-0.45 0.781-0.677 1.175z" />
<path d="M11.412 22.601c0.393 0.227 0.769 0.443 1.175 0.677 0.231-0.4 0.45-0.781 0.68-1.175-0.396-0.228-0.781-0.45-1.176-0.679-0.236 0.406-0.455 0.787-0.679 1.176z" />
<path d="M18.748 22.102c0.227 0.393 0.446 0.772 0.68 1.176 0.404-0.234 0.784-0.453 1.173-0.68-0.23-0.397-0.45-0.778-0.679-1.173-0.397 0.23-0.778 0.449-1.175 0.677z" />
<path d="M9.323 15.341c-0.446 0-0.88 0-1.323 0 0 0.444 0 0.877 0 1.32 0.458 0 0.89 0 1.323 0 0-0.45 0-0.884 0-1.32z" />
<path d="M15.354 23.997c0.446 0 0.877 0 1.314 0 0-0.446 0-0.874 0-1.314-0.453 0-0.886 0-1.314 0 0 0.449 0 0.883 0 1.314z" />
<path d="M16 4c-6.616 0-12 5.384-12 12s5.384 12 12 12 12-5.384 12-12-5.384-12-12-12zM16 25.333c-5.147 0-9.333-4.187-9.333-9.333s4.187-9.333 9.333-9.333 9.333 4.187 9.333 9.333-4.187 9.333-9.333 9.333z" />
</svg>
