<svg xmlns="http://www.w3.org/2000/svg" viewBox="6 6 20 20"><path d="M23.507 14.030c-1.193-0.361-2.384-0.726-3.601-1.096 0.030-0.19 0.055-0.339 0.076-0.49 0.176-1.274 0.415-2.544 0.508-3.824 0.077-1.053-0.732-1.967-1.756-2.204-1.407-0.324-2.037 0.145-2.136 1.554-0.047 0.659-0.022 1.887-0.51 3.705s-3.23 2.625-4.2 2.917v9.193c0.695 0.013 2.016 0.216 2.787 1.046 0.538 0.578 1.172 0.868 1.975 0.855 1.43-0.024 2.861-0.003 4.292-0.004 1.443-0.001 2.212-0.582 2.596-1.969 0.593-2.145 1.181-4.292 1.767-6.44 0.449-1.643-0.169-2.748-1.797-3.241z" />
<path d="M6.554 13.212h4v12h-4v-12z" />
</svg>
