<svg xmlns="http://www.w3.org/2000/svg" viewBox="1 1 30 30"><path d="M21.333 12c0 2.946-2.388 5.333-5.333 5.333s-5.333-2.388-5.333-5.333c0-2.946 2.388-5.333 5.333-5.333s5.333 2.388 5.333 5.333z" />
<path d="M21.507 17.8c-1.434 1.361-3.372 2.2-5.507 2.2s-4.073-0.839-5.507-2.2c-2.32 1.698-3.827 4.439-3.827 7.533h18.667c0-3.095-1.507-5.836-3.827-7.533z" />
<path d="M24.547 16.913c1.844-0.265 3.262-1.852 3.262-3.77 0-2.104-1.705-3.809-3.809-3.809-0.151 0-0.301 0.010-0.447 0.027 0.289 0.827 0.447 1.714 0.447 2.64 0 1.323-0.323 2.569-0.892 3.667 0.513 0.378 0.994 0.794 1.439 1.246z" />
<path d="M27.933 17.286c-0.579 0.551-1.276 0.981-2.046 1.252 0.847 1.23 1.47 2.627 1.81 4.13h2.969c0-2.212-1.077-4.17-2.733-5.382z" />
<path d="M8.441 9.333c-2.104 0-3.809 1.705-3.809 3.809 0 1.919 1.418 3.505 3.262 3.77 0.446-0.452 0.926-0.868 1.439-1.246-0.569-1.098-0.892-2.345-0.892-3.667 0-0.926 0.159-1.813 0.447-2.64-0.145-0.016-0.295-0.027-0.447-0.027z" />
<path d="M1.775 22.667h2.967c0.341-1.504 0.963-2.899 1.81-4.13-0.77-0.27-1.465-0.701-2.046-1.252-1.655 1.213-2.732 3.172-2.732 5.382z" />
</svg>
