<svg xmlns="http://www.w3.org/2000/svg" viewBox="5.333 4.666 21.333 21.333"><path d="M16 18.667c-3.676 0-6.667-2.991-6.667-6.667s2.991-6.667 6.667-6.667 6.667 2.991 6.667 6.667-2.991 6.667-6.667 6.667zM16 8c-2.206 0-4 1.794-4 4s1.794 4 4 4 4-1.794 4-4-1.794-4-4-4z" />
<path d="M8 25.333h-2.667c0-3.387 1.634-6.604 4.372-8.609l1.575 2.151c-2.053 1.504-3.28 3.919-3.28 6.458z" />
<path d="M26.667 25.333h-2.667c0-2.539-1.227-4.954-3.28-6.458l1.575-2.151c2.738 2.004 4.372 5.222 4.372 8.609z" />
<path d="M26.667 25.333h-2.667c0-3.467-2.21-6.521-5.501-7.603l0.833-2.533c4.387 1.441 7.335 5.516 7.335 10.136z" />
<path d="M8 25.333h-2.667c0-4.439 2.794-8.458 6.954-10.003l0.927 2.501c-3.119 1.159-5.215 4.173-5.215 7.502z" />
</svg>
