<svg xmlns="http://www.w3.org/2000/svg" viewBox="0 0 24 24"><path d="M14.54.74L3.79,2.65c-.95.17-1.65,1-1.65,1.97v14.77c0,.97.7,1.8,1.65,1.97l10.75,1.91c1.23.22,2.35-.72,2.35-1.97V2.7c0-1.24-1.12-2.19-2.35-1.97ZM15.14,21.3c0,.16-.14.27-.29.25l-10.75-1.91c-.12-.02-.21-.12-.21-.25V4.62c0-.12.09-.22.21-.25l10.75-1.91c.15-.03.29.09.29.25v18.59Z" fill-rule="evenodd" /><path d="M19.86,2.61h-2.11c.03.14.05.29.05.45v1.3h2.06c.14,0,.25.11.25.25v14.78c0,.14-.11.25-.25.25h-2.06v1.3c0,.15-.02.3-.05.45h2.11c1.1,0,2-.9,2-2V4.61c0-1.1-.9-2-2-2Z" fill-rule="evenodd" /><path d="M14.07,7c-.09-.05-.19-.08-.3-.08h-.42c-.16,0-.31.05-.44.15-.12.1-.2.23-.24.38-.03.15-.08.41-.17.77-.08.36-.18.79-.3,1.29-.11.5-.23,1.04-.36,1.62-.13.58-.26,1.17-.39,1.76-.01.03-.04.04-.08.04s-.07-.01-.09-.04l-1.16-3.78c-.04-.15-.12-.27-.24-.36-.11-.1-.25-.15-.42-.15-.16,0-.3.05-.41.15-.11.09-.19.21-.24.35-.14.46-.28.92-.42,1.37-.14.45-.27.86-.38,1.23-.11.36-.2.65-.27.87-.06.22-.09.33-.09.33-.02.03-.05.04-.09.04s-.07-.01-.08-.04l-1.22-5.43c-.04-.15-.13-.28-.26-.38-.12-.1-.26-.15-.42-.15h-.42c-.11,0-.21.03-.3.08-.09.04-.17.1-.26.18-.12.19-.16.39-.12.59l2,8.76c.03.16.1.29.23.39.13.1.28.15.44.15h.56c.15,0,.29-.05.41-.14.13-.1.22-.22.26-.35.07-.2.16-.48.26-.83.11-.35.23-.74.36-1.17.13-.44.27-.88.41-1.32.01-.04.03-.06.06-.06.04,0,.07.02.08.06.18.59.35,1.16.51,1.7.17.54.32,1.02.45,1.43l.06.2c.05.14.14.26.26.35.12.09.26.14.4.14h.54c.16,0,.3-.05.42-.15.13-.1.22-.23.26-.39l2-8.76c.05-.21,0-.41-.14-.59-.07-.08-.15-.14-.24-.18Z" fill-rule="evenodd" /></svg>
