<svg xmlns="http://www.w3.org/2000/svg" viewBox="0 0 24 24"><path d="M21.3,5.82L16.55.92c-.57-.58-1.34-.92-2.16-.92H4.86C3.2,0,1.86,1.34,1.86,3v18c0,1.66,1.34,3,3,3h14.28c1.66,0,3-1.34,3-3V7.91c0-.78-.3-1.53-.84-2.08ZM20.39,21c0,.69-.56,1.25-1.25,1.25H4.86c-.69,0-1.25-.56-1.25-1.25V3c0-.69.56-1.25,1.25-1.25h9.53c.34,0,.66.14.9.38l4.74,4.91c.23.23.35.54.35.87v13.09Z" fill-rule="evenodd" /><path d="M15.67,10.45l-5.79-2.9c-.26-.13-.56-.19-.85-.18-.29.01-.58.1-.83.26s-.46.37-.6.63c-.14.26-.22.55-.22.84v5.79c0,.29.08.58.22.84.14.26.35.47.6.63.25.16.54.24.83.26.29.01.59-.05.85-.18l5.79-2.89c.29-.14.53-.36.7-.64.17-.27.26-.59.26-.91s-.09-.64-.26-.91c-.17-.27-.41-.49-.7-.64ZM9.12,14.86v-5.73l5.73,2.86-5.73,2.86Z" fill-rule="evenodd" /></svg>
