<svg xmlns="http://www.w3.org/2000/svg" viewBox="0 0 24 24"><path d="M21.3,5.82L16.55.92c-.57-.58-1.34-.92-2.16-.92H4.86C3.2,0,1.86,1.34,1.86,3v18c0,1.66,1.34,3,3,3h14.28c1.66,0,3-1.34,3-3V7.91c0-.78-.3-1.53-.84-2.08ZM20.39,21c0,.69-.56,1.25-1.25,1.25H4.86c-.69,0-1.25-.56-1.25-1.25V3c0-.69.56-1.25,1.25-1.25h9.53c.34,0,.66.14.9.38l4.74,4.91c.23.23.35.54.35.87v13.09Z" /><path d="M17.78,11.42c-.28-.18-.61-.27-.95-.26-1.31-.05-2.62.1-3.88.46-.13.05-.27.05-.39,0-.74-.44-1.44-.95-2.08-1.53-.09-.09-.16-.21-.18-.34-.14-1.25-.43-2.49-.86-3.68-.09-.28-.25-.53-.47-.72-.22-.19-.5-.31-.79-.35-.32-.02-.64.04-.93.19s-.53.37-.69.64c-.18.29-.28.63-.28.97s.1.68.28.97c.61.98,1.32,1.9,2.13,2.73.08.09.14.21.15.33.06.84.04,1.69-.06,2.53-.01.07-.04.15-.08.21s-.09.12-.16.16c-1.02.7-1.95,1.54-2.75,2.48-.21.23-.35.51-.41.82-.06.31-.03.62.09.91.12.29.31.54.56.73.25.19.54.3.85.34h.18c.29,0,.57-.07.83-.21.26-.13.48-.32.65-.56.75-1.04,1.28-2.22,1.56-3.47.03-.14.12-.26.23-.34.65-.38,1.33-.7,2.04-.97.14-.05.29-.05.43,0,1.25.59,2.59.99,3.96,1.18.3.05.6,0,.87-.11.27-.12.51-.31.68-.55.18-.27.29-.58.31-.9.02-.32-.05-.64-.19-.93-.15-.3-.38-.55-.66-.73Z" /></svg>
