<svg xmlns="http://www.w3.org/2000/svg" viewBox="0 0 24 24"><path d="M21.3,5.82L16.55.92c-.57-.58-1.34-.92-2.16-.92H4.86C3.2,0,1.86,1.34,1.86,3v18c0,1.66,1.34,3,3,3h14.28c1.66,0,3-1.34,3-3V7.91c0-.78-.3-1.53-.84-2.08ZM20.39,21c0,.69-.56,1.25-1.25,1.25H4.86c-.69,0-1.25-.56-1.25-1.25V3c0-.69.56-1.25,1.25-1.25h9.53c.34,0,.66.14.9.38l4.74,4.91c.23.23.35.54.35.87v13.09Z" fill-rule="evenodd" /><path d="M16.85,8.63H7.15c-.48,0-.88.39-.88.88s.39.87.88.87h9.71c.48,0,.88-.39.88-.87s-.39-.88-.88-.88Z" fill-rule="evenodd" /><path d="M16.85,12.25H7.15c-.48,0-.88.39-.88.88s.39.88.88.88h9.71c.48,0,.88-.39.88-.88s-.39-.88-.88-.88Z" fill-rule="evenodd" /><path d="M13.11,15.87h-5.96c-.48,0-.88.39-.88.88s.39.88.88.88h5.96c.48,0,.88-.39.88-.88s-.39-.88-.88-.88Z" fill-rule="evenodd" /></svg>
