<svg xmlns="http://www.w3.org/2000/svg" viewBox="0 0 24 24"><path d="M21.3,5.83L16.55.92c-.56-.59-1.34-.92-2.15-.92H4.86C3.2,0,1.86,1.34,1.86,3v18c0,1.66,1.34,3,3,3h14.28c1.66,0,3-1.34,3-3V7.91c0-.78-.3-1.53-.84-2.08ZM20.39,21c0,.69-.56,1.25-1.25,1.25H4.86c-.69,0-1.25-.56-1.25-1.25V3c0-.69.56-1.25,1.25-1.25h9.54c.34,0,.66.14.9.38l4.74,4.91c.22.23.35.55.35.87v13.09Z" /><path d="M8.23,10.91c.83,0,1.62-.33,2.21-.92.59-.59.92-1.38.92-2.21s-.33-1.62-.92-2.21c-.59-.59-1.38-.92-2.21-.92s-1.62.33-2.21.92c-.59.59-.92,1.38-.92,2.21s.33,1.62.92,2.21,1.38.92,2.21.92ZM7.26,6.8c.26-.26.61-.4.97-.4s.71.14.97.4.4.61.4.97-.14.71-.4.97-.61.4-.97.4-.71-.14-.97-.4-.4-.61-.4-.97.14-.71.4-.97Z" /><path d="M15.57,12.1c-.17-.25-.4-.46-.67-.61-.27-.15-.57-.23-.88-.23s-.61.07-.88.21c-.27.14-.5.35-.68.6l-2.15,3.08-.94-.75c-.2-.16-.44-.28-.69-.35-.26-.07-.52-.08-.78-.04-.26.04-.51.13-.73.27-.22.14-.41.32-.55.54l-2.11,3.17c-.27.4-.16.94.24,1.21.4.27.94.16,1.21-.24l2.11-3.17s.02-.03.04-.04c.01-.02.03-.02.05-.02h.06s.05.03.05.03l1.67,1.34c.19.15.43.21.67.18.24-.03.45-.16.59-.36l2.69-3.85s.03-.03.05-.04c.02-.02.04-.02.06-.02s.04,0,.06.02.05.04.05.04l3.93,5.89c.26.4.81.51,1.21.24.4-.26.51-.81.24-1.21l-3.92-5.89Z" /></svg>
