<svg xmlns="http://www.w3.org/2000/svg" viewBox="0 0 24 24"><path d="M19.86,2.61h-2.11c.03.14.05.29.05.45v1.3h2.06c.14,0,.25.11.25.25v14.78c0,.14-.11.25-.25.25h-2.06v1.3c0,.15-.02.3-.05.45h2.11c1.1,0,2-.9,2-2V4.61c0-1.1-.9-2-2-2Z" /><path d="M14.54.74L3.79,2.65c-.95.17-1.65,1-1.65,1.97v14.77c0,.97.7,1.8,1.65,1.97l10.75,1.91c1.23.22,2.35-.72,2.35-1.97V2.7c0-1.24-1.12-2.19-2.35-1.97ZM15.14,21.3c0,.16-.14.27-.29.25l-10.75-1.91c-.12-.02-.21-.12-.21-.25V4.62c0-.12.09-.22.21-.25l10.75-1.91c.15-.03.29.09.29.25v18.59Z" /><path d="M12.91,7.61c.13-.27.12-.51-.02-.74-.15-.23-.36-.35-.62-.35h-.5c-.29,0-.5.13-.64.38l-1.52,2.83s-.05.06-.1.06-.07-.02-.1-.06l-1.52-2.83c-.14-.26-.35-.38-.64-.38h-.5c-.27,0-.47.12-.62.35-.14.22-.14.47-.02.74l2.22,4.13c.05.13.05.25,0,.37l-2.22,4.16c-.13.25-.12.49.02.72.15.23.36.35.62.35h.5c.14,0,.27-.03.38-.1.13-.07.21-.17.26-.29l1.52-2.82s.05-.06.1-.06c.05,0,.09.02.1.06l1.52,2.82c.12.26.33.38.64.38h.48c.28,0,.49-.12.64-.35.14-.23.14-.47.02-.72l-2.22-4.16c-.05-.12-.05-.24,0-.37l2.22-4.13Z" /></svg>
