<svg xmlns="http://www.w3.org/2000/svg" viewBox="0 0 24 24"><path d="M21.3,5.82L16.55.92c-.57-.58-1.34-.92-2.16-.92H4.86C3.2,0,1.86,1.34,1.86,3v18c0,1.66,1.34,3,3,3h14.28c1.66,0,3-1.34,3-3V7.91c0-.78-.3-1.53-.84-2.08ZM10.6,4.93h0c.04.24.01.59-.16.85-.14.21-.48.52-1.4.52-.92,0-1.23-.3-1.36-.5-.17-.26-.19-.61-.14-.86v-.02s.54-3.19.54-3.19h1.95l.57,3.18ZM20.39,21c0,.69-.56,1.25-1.25,1.25H4.86c-.69,0-1.25-.56-1.25-1.25V3c0-.69.56-1.25,1.25-1.25h1.44l-.48,2.87c-.11.56-.09,1.4.39,2.14.52.81,1.47,1.3,2.84,1.3,1.37,0,2.31-.5,2.84-1.29.5-.74.54-1.59.43-2.14l-.52-2.87h2.59c.34,0,.66.14.9.38l4.74,4.91c.23.23.35.54.35.87v13.09Z" fill-rule="evenodd" /><rect x="7.81" y="9.59" width="2.52" height="2.52" rx=".75" ry=".75" /><rect x="7.81" y="13.75" width="2.52" height="2.52" rx=".75" ry=".75" /><rect x="7.81" y="17.9" width="2.52" height="2.52" rx=".75" ry=".75" /></svg>
