<svg xmlns="http://www.w3.org/2000/svg" viewBox="0 0 24 24"><path d="M14.54.74L3.79,2.65c-.95.17-1.65,1-1.65,1.97v14.77c0,.97.7,1.8,1.65,1.97l10.75,1.91c1.23.22,2.35-.72,2.35-1.97V2.7c0-1.24-1.12-2.19-2.35-1.97ZM15.14,21.3c0,.16-.14.27-.29.25l-10.75-1.91c-.12-.02-.21-.12-.21-.25V4.62c0-.12.09-.22.21-.25l10.75-1.91c.15-.03.29.09.29.25v18.59Z" /><path d="M19.86,2.61h-2.11c.03.14.05.29.05.45v1.3h2.06c.14,0,.25.11.25.25v14.78c0,.14-.11.25-.25.25h-2.06v1.3c0,.15-.02.3-.05.45h2.11c1.1,0,2-.9,2-2V4.61c0-1.1-.9-2-2-2Z" /><path d="M12.04,6.81c-.32-.19-.68-.29-1.07-.29h-4.3c-.2,0-.38.07-.53.21-.14.14-.21.31-.21.53v9.34c0,.2.07.38.21.53.15.14.33.21.53.21h.43c.2,0,.37-.07.51-.21.15-.15.22-.33.22-.53v-3.3c0-.14.06-.21.19-.21h2.94c.39,0,.75-.1,1.07-.29.32-.19.57-.45.75-.77.19-.32.29-.67.29-1.06v-2.34c0-.39-.1-.75-.29-1.07-.18-.32-.43-.58-.75-.77ZM11.19,10.99c0,.14-.07.21-.22.21h-2.94c-.13,0-.19-.07-.19-.21v-2.35c0-.14.06-.21.19-.21h2.94c.15,0,.22.07.22.22v2.34Z" /></svg>
