<svg style="position: absolute; width: 0; height: 0; overflow: hidden;" version="1.1" xmlns="http://www.w3.org/2000/svg" xmlns:xlink="http://www.w3.org/1999/xlink">
<defs>
<symbol id="icon-logo" viewBox="0 0 32 32">
<title>logo</title>
<path d="M30.327 16.177c-0.197-0.297-0.493-0.691-0.889-0.691-0.132-0.033-0.229-0.099-0.361-0.099-0.33-0.031-0.658-0.031-0.955 0-0.295 0.099-0.559 0.231-0.821 0.396-0.494 0.461-1.054 0.658-1.515 1.151-0.427 0.33-0.526 0.79-0.887 1.151-0.363 0.231-0.559 0.757-0.987 0.855-0.231 0.166-0.527 0.133-0.757 0.264-0.263 0.033-0.494 0.165-0.691 0.33-0.165 0.097-0.363 0.097-0.494 0.231-0.361 0.263-0.789 0.361-1.117 0.722-0.231 0.297-0.56 0.527-0.824 0.791-0.295 0.427-0.724 0.691-1.052 1.052-0.066 0.033-0.131 0.099-0.231 0.133-0.099 0.064-0.197 0.131-0.262 0.197-0.33 0.263-0.691 0.328-1.053 0.461-0.461 0.097-0.889 0.231-1.317 0.425-0.264 0.165-0.625 0.099-0.954 0.199-0.165 0.033-0.363 0.065-0.526 0.099-0.099 0-0.165-0.034-0.263-0.034-0.264 0-0.495-0.031-0.789-0.031-0.198-0.033-0.33-0.264-0.56-0.264-0.429-0.197-0.889-0.33-1.347-0.559-0.264-0.099-0.594-0.099-0.857-0.329-0.297-0.231-0.592-0.394-0.889-0.592-0.165-0.066-0.264-0.198-0.427-0.198-0.066 0.033-0.133 0.132-0.133 0.198 0.067 0.262 0.166 0.493 0.231 0.757l0.033 0.988 0.099 0.295c0 0.264 0.065 0.462 0.132 0.658 0 0.264 0.165 0.427 0.196 0.691 0.231 0.461 0.395 0.986 0.823 1.349 0.066 0.163 0.099 0.329 0.197 0.46 0.099 0.231 0.361 0.264 0.526 0.361 0.198 0.133 0.429 0.165 0.593 0.33 0.132 0.165 0.033 0.427 0.295 0.527 0.165 0.131 0.429 0.031 0.659 0.097 0.263 0.198 0.691 0.131 1.019 0.099 0.066-0.033 0.131-0.066 0.198-0.099 0.229-0.132 0.46-0.328 0.658-0.527 0.197-0.131 0.394-0.229 0.592-0.394 0.229-0.131 0.429-0.395 0.658-0.493 0.165-0.099 0.363-0.099 0.559-0.131 0.165-0.132 0.395-0.132 0.593-0.231 0.262 0 0.46-0.165 0.723-0.198 0.231-0.099 0.461-0.263 0.461-0.493 0.033-0.097 0.097-0.131 0.131-0.165 0.197-0.066 0.429 0.099 0.625 0.033 0.231-0.099 0.461-0.197 0.658-0.297 0.264-0.197 0.626-0.361 0.594-0.724 0.163-0.295 0.46-0.329 0.658-0.46 0.263-0.165 0.329-0.527 0.625-0.625 0.231-0.133 0.328-0.363 0.427-0.593 0.066-0.099 0.165-0.231 0.231-0.329 0.066-0.231 0.231-0.429 0.197-0.691 0.033-0.198 0.198-0.33 0.33-0.461 0.099-0.133 0.031-0.33 0.197-0.396 0.329-0.131 0.559-0.461 0.921-0.493 0.264-0.133 0.625-0.297 0.724-0.626 0.132-0.394 0.461-0.789 0.855-0.953 0.396-0.066 0.724-0.33 1.087-0.526 0.229-0.165 0.591-0.033 0.855-0.1 0.658-0.197 1.217-0.625 1.841-0.953 0.33-0.199 0.757-0.559 0.824-0.955-0.036-0.197-0.036-0.394-0.069-0.592zM11.378 20.882c0.196 0.229 0.297 0.493 0.361 0.755 0 0.33 0.231 0.594 0.494 0.824 0.329 0.295 0.855 0.197 1.184 0.493 0.263 0.165 0.625 0.066 0.921 0.13h0.033c0.295 0.133 0.658 0.133 0.921 0 0.297-0.229 0.724-0.262 0.92-0.623 0.198-0.395 0.758-0.66 0.791-1.121 0.066-0.231 0.395-0.361 0.429-0.623-0.099-0.363 0.033-0.823-0.099-1.151-0.099-0.197-0.131-0.429-0.263-0.593-0.263-0.229-0.461-0.493-0.56-0.789-0.099-0.263-0.394-0.395-0.559-0.592-0.263-0.165-0.559-0.263-0.823-0.329l-0.461-0.033c-0.099 0-0.197-0.033-0.295-0.033-0.658-0.031-1.251 0.133-1.744 0.559-0.229 0.232-0.591 0.429-0.691 0.759-0.033 0.295-0.198 0.559-0.363 0.855-0.196 0.231-0.097 0.59-0.196 0.854 0.033 0.231-0.132 0.461 0 0.658zM11.607 17.099c0.363-0.133 0.66-0.264 1.020-0.396 0.461 0.033 0.823-0.197 1.25-0.229 0.165-0.033 0.33-0.033 0.495-0.066 0.099 0 0.163 0 0.229-0.033 0.297-0.065 0.527 0.099 0.757 0.197h1.184c0.165 0.033 0.33 0.033 0.493 0.097 0.198 0.165 0.396 0.363 0.658 0.396 0.264-0.132 0.592 0.099 0.791-0.132 0.065-0.131 0.196-0.231 0.262-0.329 0.132-0.131 0.231-0.263 0.197-0.46 0.131-0.264 0.066-0.592 0.198-0.856 0.033-0.297 0.297-0.625 0.099-0.921-0.065-0.231-0.165-0.427-0.297-0.658-0.033-0.066-0.097-0.131-0.197-0.197-0.231-0.133-0.592-0.099-0.855-0.067-0.361 0.198-0.856 0.033-1.152 0.264-0.131 0.033-0.295 0-0.394 0.065-0.197 0.1-0.46 0.132-0.691 0.035-0.231-0.099-0.427-0.264-0.625-0.363-0.263-0.066-0.461 0-0.658 0.099-0.067 0.033-0.132 0.066-0.198 0.131-0.297 0.099-0.527 0.231-0.789 0.361-0.264 0.066-0.493 0.297-0.757 0.429-0.527-0.033-0.855 0.493-1.382 0.493-0.394 0.031-0.79 0.395-0.889 0.757 0 0.493-0.526 0.724-0.821 1.052-0.166 0.099-0.33 0.197-0.461 0.297-0.099 0.066-0.197 0.099-0.297 0.099h-0.363c-0.328-0.132-0.295-0.527-0.46-0.79-0.131-0.395-0.592-0.395-0.789-0.757-0.231-0.231-0.429-0.526-0.692-0.689-0.328-0.133-0.592-0.494-0.887-0.757-0.297-0.396-0.823-0.295-1.118-0.725-0.231-0.46-0.56-0.953-1.054-1.283 0 0-0.033 0-0.066-0.033-0.163-0.098-0.362-0.231-0.591-0.197-0.329 0.033-0.625 0.264-0.888 0.493-0.131 0.198-0.264 0.329-0.264 0.559 0.099 0.263 0.199 0.527 0.429 0.757 0.196 0.361 0.525 0.691 0.855 1.019l0.526 0.395 0.329 0.231 0.396 0.263c0.427 0.165 0.821 0.461 1.283 0.66 0.229 0.163 0.425 0.393 0.656 0.592 0.297 0.295 0.658 0.427 0.988 0.623 0.297 0.166 0.592 0.494 0.823 0.791 0.033 0.066 0.066 0.165 0.165 0.199 0.229 0.097 0.461 0.263 0.724 0.295 0.132 0.033 0.297 0.033 0.427-0.064 0.559-0.494 1.185-0.823 1.711-1.349 0.196-0.166 0.46-0.199 0.689-0.297zM7.134 7.559c0.198 0.394 0.329 0.855 0.658 1.217 0.229 0.33 0.427 0.724 0.625 1.085 0.165 0.133 0.132 0.363 0.231 0.527 0.099 0.264 0 0.626 0.131 0.888 0 0.033 0 0.066 0.033 0.099 0.033 0.229 0.165 0.461 0.229 0.689 0.198 0.429 0.593 0.857 1.087 0.922l0.427 0.033c0.33-0.097 0.264-0.461 0.297-0.691 0.033-0.099 0.065-0.165 0.065-0.295-0.099-0.363-0.033-0.791-0.263-1.087-0.329-0.328-0.46-0.691-0.823-0.986-0.165-0.197-0.264-0.461-0.363-0.691-0.165-0.263-0.131-0.592-0.263-0.855 0-0.328-0.165-0.593-0.131-0.921 0.065-0.429-0.035-0.823-0.066-1.25-0.099-0.199-0.099-0.427-0.231-0.594v-0.031c-0.198-0.231-0.395-0.527-0.658-0.692-0.197-0.163-0.526-0.197-0.724-0.031-0.229 0.197-0.493 0.361-0.659 0.625-0.163 0.264-0.163 0.691 0 0.955 0.033 0.359 0.263 0.721 0.395 1.084zM13.121 5.158c0.165 0.427 0.231 0.887 0.297 1.348 0.165 0.493 0 1.085 0.066 1.612 0.132 0.262 0.033 0.559 0 0.823 0 0.36-0.066 0.723 0 1.085 0.197 0.461 0.363 0.92 0.592 1.349 0.066 0.097 0.165 0.197 0.297 0.197h0.066c0.427-0.033 0.525-0.493 0.691-0.79 0.033-0.099 0.033-0.231 0.066-0.295 0.131-0.297 0.099-0.626 0.197-0.889 0.033-0.297-0.099-0.526-0.131-0.789-0.231-0.429-0.066-1.019-0.264-1.48v-1.055l0.033-1.939c-0.067-0.396 0.033-0.791-0.033-1.218-0.131-0.231-0.165-0.461-0.329-0.691-0.099-0.067-0.197-0.165-0.295-0.231-0.198-0.099-0.396-0.165-0.658-0.099-0.297 0.165-0.659 0.297-0.856 0.625-0.295 0.525-0.033 1.183 0.067 1.743 0.097 0.197 0.063 0.493 0.195 0.692zM18.254 11.934c0.065 0.131 0.197 0.099 0.329 0.131 0.065 0.033 0.13 0.033 0.163 0.033 0.165 0 0.297-0.099 0.395-0.165 0.264-0.231 0.559-0.394 0.823-0.658 0.263-0.394 0.461-0.823 0.559-1.283 0.099-0.231 0.263-0.429 0.295-0.693 0.132-0.229 0.132-0.491 0.231-0.722 0.066-0.329 0.231-0.658 0.329-0.953-0.033-0.363 0.165-0.626 0.33-0.889 0.163-0.297 0.361-0.56 0.461-0.857 0.163-0.262 0.163-0.592 0.163-0.888 0-0.46-0.132-0.855-0.493-1.052-0.165-0.066-0.295-0.099-0.461-0.165-0.229-0.099-0.459 0.065-0.625 0.197-0.329 0.264-0.527 0.594-0.658 0.922-0.067 0.264-0.229 0.493-0.229 0.789-0.132 0.231-0.099 0.527-0.132 0.823 0 0.262-0.165 0.427-0.165 0.689-0.099 0.165-0.131 0.33-0.198 0.494-0.066 0.231-0.196 0.396-0.229 0.625-0.165 0.231-0.067 0.593-0.165 0.857-0.033 0.129-0.131 0.262-0.231 0.361-0.066 0.099-0.131 0.197-0.163 0.295-0.099 0.264-0.067 0.56-0.198 0.791 0.067 0.495-0.295 0.856-0.13 1.317z"></path>
<path d="M21.756 27.999h0.315c0.274 0 0.263-0.391-0.005-0.391h-0.31v0.391zM21.756 29.015h-0.505v-1.848h0.836c0.831 0 0.918 0.976 0.335 1.209l0.444 0.639h-0.598l-0.404-0.604h-0.107v0.604h-0.001zM22.015 29.393c0.717 0 1.305-0.595 1.305-1.317 0-0.727-0.588-1.311-1.305-1.311-0.729 0-1.317 0.584-1.317 1.311 0 0.723 0.588 1.317 1.317 1.317zM22.004 26.223c1.017 0 1.847 0.835 1.847 1.852 0 1.022-0.831 1.853-1.847 1.853-1.022 0-1.858-0.831-1.858-1.853 0-1.017 0.836-1.852 1.858-1.852z"></path>
</symbol>
</defs>
</svg>
